G04 #@! TF.GenerationSoftware,KiCad,Pcbnew,9.0.7-9.0.7~ubuntu24.04.1*
G04 #@! TF.CreationDate,2026-02-14T09:37:05+01:00*
G04 #@! TF.ProjectId,berta_2p0_Platine,62657274-615f-4327-9030-5f506c617469,rev?*
G04 #@! TF.SameCoordinates,Original*
G04 #@! TF.FileFunction,Copper,L2,Bot*
G04 #@! TF.FilePolarity,Positive*
%FSLAX46Y46*%
G04 Gerber Fmt 4.6, Leading zero omitted, Abs format (unit mm)*
G04 Created by KiCad (PCBNEW 9.0.7-9.0.7~ubuntu24.04.1) date 2026-02-14 09:37:05*
%MOMM*%
%LPD*%
G01*
G04 APERTURE LIST*
G04 Aperture macros list*
%AMRoundRect*
0 Rectangle with rounded corners*
0 $1 Rounding radius*
0 $2 $3 $4 $5 $6 $7 $8 $9 X,Y pos of 4 corners*
0 Add a 4 corners polygon primitive as box body*
4,1,4,$2,$3,$4,$5,$6,$7,$8,$9,$2,$3,0*
0 Add four circle primitives for the rounded corners*
1,1,$1+$1,$2,$3*
1,1,$1+$1,$4,$5*
1,1,$1+$1,$6,$7*
1,1,$1+$1,$8,$9*
0 Add four rect primitives between the rounded corners*
20,1,$1+$1,$2,$3,$4,$5,0*
20,1,$1+$1,$4,$5,$6,$7,0*
20,1,$1+$1,$6,$7,$8,$9,0*
20,1,$1+$1,$8,$9,$2,$3,0*%
G04 Aperture macros list end*
G04 #@! TA.AperFunction,ComponentPad*
%ADD10RoundRect,0.361111X0.938889X-0.938889X0.938889X0.938889X-0.938889X0.938889X-0.938889X-0.938889X0*%
G04 #@! TD*
G04 #@! TA.AperFunction,ComponentPad*
%ADD11C,2.600000*%
G04 #@! TD*
G04 #@! TA.AperFunction,ComponentPad*
%ADD12C,1.600000*%
G04 #@! TD*
G04 #@! TA.AperFunction,ComponentPad*
%ADD13RoundRect,0.250000X-1.050000X1.050000X-1.050000X-1.050000X1.050000X-1.050000X1.050000X1.050000X0*%
G04 #@! TD*
G04 #@! TA.AperFunction,ComponentPad*
%ADD14R,1.700000X1.700000*%
G04 #@! TD*
G04 #@! TA.AperFunction,ComponentPad*
%ADD15C,1.700000*%
G04 #@! TD*
G04 #@! TA.AperFunction,ComponentPad*
%ADD16RoundRect,0.250000X0.650000X-0.650000X0.650000X0.650000X-0.650000X0.650000X-0.650000X-0.650000X0*%
G04 #@! TD*
G04 #@! TA.AperFunction,ComponentPad*
%ADD17C,1.800000*%
G04 #@! TD*
G04 #@! TA.AperFunction,ComponentPad*
%ADD18RoundRect,0.250000X-0.500000X-0.500000X0.500000X-0.500000X0.500000X0.500000X-0.500000X0.500000X0*%
G04 #@! TD*
G04 #@! TA.AperFunction,ComponentPad*
%ADD19C,1.500000*%
G04 #@! TD*
G04 #@! TA.AperFunction,ComponentPad*
%ADD20C,2.000000*%
G04 #@! TD*
G04 #@! TA.AperFunction,ComponentPad*
%ADD21R,2.000000X2.000000*%
G04 #@! TD*
G04 #@! TA.AperFunction,ComponentPad*
%ADD22RoundRect,0.250000X0.500000X0.500000X-0.500000X0.500000X-0.500000X-0.500000X0.500000X-0.500000X0*%
G04 #@! TD*
G04 #@! TA.AperFunction,ComponentPad*
%ADD23R,1.600000X1.600000*%
G04 #@! TD*
G04 #@! TA.AperFunction,ViaPad*
%ADD24C,0.900000*%
G04 #@! TD*
G04 #@! TA.AperFunction,Conductor*
%ADD25C,0.400000*%
G04 #@! TD*
G04 #@! TA.AperFunction,Conductor*
%ADD26C,0.600000*%
G04 #@! TD*
G04 APERTURE END LIST*
D10*
X143250000Y-125080000D03*
D11*
X143250000Y-114920000D03*
D12*
X151000000Y-63000000D03*
X151000000Y-70620000D03*
X123200000Y-79700000D03*
X128200000Y-79700000D03*
D13*
X116250000Y-100750000D03*
D11*
X116250000Y-105750000D03*
X116250000Y-110750000D03*
X116250000Y-115750000D03*
X116250000Y-120750000D03*
X116250000Y-125750000D03*
D14*
X148250000Y-77000000D03*
D15*
X145710000Y-77000000D03*
D16*
X141000000Y-73080000D03*
D17*
X141000000Y-62920000D03*
D18*
X154750000Y-74750000D03*
D19*
X157290000Y-72210000D03*
X159830000Y-74750000D03*
D12*
X128000000Y-125000000D03*
X128000000Y-120000000D03*
D14*
X166120000Y-107750000D03*
D15*
X163580000Y-107750000D03*
X161040000Y-107750000D03*
X158500000Y-107750000D03*
X155960000Y-107750000D03*
D14*
X116250000Y-85040000D03*
D15*
X116250000Y-82500000D03*
X116250000Y-79960000D03*
D20*
X131910000Y-100250000D03*
X134450000Y-100250000D03*
X136990000Y-100250000D03*
X139530000Y-100250000D03*
X142070000Y-100250000D03*
X144610000Y-100250000D03*
X147150000Y-100250000D03*
X149690000Y-100250000D03*
X152230000Y-100250000D03*
X154770000Y-100250000D03*
X157310000Y-100250000D03*
X159850000Y-100250000D03*
X162390000Y-100250000D03*
X164930000Y-100250000D03*
X164930000Y-82470000D03*
X162390000Y-82470000D03*
X159850000Y-82470000D03*
X157310000Y-82470000D03*
X154770000Y-82470000D03*
X152230000Y-82470000D03*
X149690000Y-82470000D03*
X147150000Y-82470000D03*
X144610000Y-82470000D03*
X142070000Y-82470000D03*
X139530000Y-82470000D03*
X136990000Y-82470000D03*
X134450000Y-82470000D03*
D21*
X131910000Y-82470000D03*
D12*
X138500000Y-117440000D03*
X138500000Y-125060000D03*
D14*
X149500000Y-106000000D03*
D15*
X146960000Y-106000000D03*
D13*
X116000000Y-64250000D03*
D11*
X116000000Y-69250000D03*
D12*
X131750000Y-62940000D03*
X131750000Y-70560000D03*
X127000000Y-63000000D03*
X127000000Y-68000000D03*
D22*
X152000000Y-110750000D03*
D19*
X149460000Y-113290000D03*
X146920000Y-110750000D03*
D12*
X133100000Y-125060000D03*
X133100000Y-117440000D03*
X149250000Y-117440000D03*
X149250000Y-125060000D03*
X145750000Y-62940000D03*
X145750000Y-70560000D03*
X156250000Y-125000000D03*
X156250000Y-117380000D03*
X136500000Y-70560000D03*
X136500000Y-62940000D03*
D23*
X134800000Y-108400000D03*
D12*
X137300000Y-110900000D03*
X139800000Y-108400000D03*
D24*
X138500000Y-119650000D03*
X153300000Y-117250000D03*
X136500000Y-66500000D03*
X131750000Y-66500000D03*
X152250000Y-88250000D03*
X124000000Y-105750000D03*
D25*
X150900000Y-119650000D02*
X153300000Y-117250000D01*
X138500000Y-119650000D02*
X150900000Y-119650000D01*
D26*
X131750000Y-66500000D02*
X136500000Y-66500000D01*
D25*
X124000000Y-101150000D02*
X136900000Y-88250000D01*
X124000000Y-105750000D02*
X124000000Y-101150000D01*
X136900000Y-88250000D02*
X152250000Y-88250000D01*
G04 #@! TA.AperFunction,Conductor*
G36*
X168680936Y-60520185D02*
G01*
X168685631Y-60523356D01*
X168864800Y-60650484D01*
X168875649Y-60659135D01*
X169116127Y-60874039D01*
X169125960Y-60883872D01*
X169340859Y-61124344D01*
X169349519Y-61135204D01*
X169476629Y-61314347D01*
X169499369Y-61380412D01*
X169499500Y-61386102D01*
X169499500Y-128613895D01*
X169479815Y-128680934D01*
X169476629Y-128685651D01*
X169349523Y-128864789D01*
X169340854Y-128875660D01*
X169125960Y-129116127D01*
X169116127Y-129125960D01*
X168875655Y-129340859D01*
X168864786Y-129349525D01*
X168685651Y-129476629D01*
X168619587Y-129499369D01*
X168613897Y-129499500D01*
X111386103Y-129499500D01*
X111319064Y-129479815D01*
X111314368Y-129476643D01*
X111135201Y-129349517D01*
X111124344Y-129340859D01*
X110883872Y-129125960D01*
X110874039Y-129116127D01*
X110659145Y-128875660D01*
X110650475Y-128864788D01*
X110523370Y-128685650D01*
X110500631Y-128619585D01*
X110500500Y-128613895D01*
X110500500Y-125631995D01*
X114449500Y-125631995D01*
X114449500Y-125868004D01*
X114449501Y-125868020D01*
X114479227Y-126093816D01*
X114480307Y-126102014D01*
X114507961Y-126205218D01*
X114541394Y-126329993D01*
X114631714Y-126548045D01*
X114631719Y-126548056D01*
X114680030Y-126631732D01*
X114749727Y-126752450D01*
X114749729Y-126752453D01*
X114749730Y-126752454D01*
X114893406Y-126939697D01*
X114893412Y-126939704D01*
X115060295Y-127106587D01*
X115060301Y-127106592D01*
X115247550Y-127250273D01*
X115378918Y-127326118D01*
X115451943Y-127368280D01*
X115451948Y-127368282D01*
X115451951Y-127368284D01*
X115670007Y-127458606D01*
X115897986Y-127519693D01*
X116131989Y-127550500D01*
X116131996Y-127550500D01*
X116368004Y-127550500D01*
X116368011Y-127550500D01*
X116602014Y-127519693D01*
X116829993Y-127458606D01*
X117048049Y-127368284D01*
X117252450Y-127250273D01*
X117439699Y-127106592D01*
X117606592Y-126939699D01*
X117750273Y-126752450D01*
X117868284Y-126548049D01*
X117958606Y-126329993D01*
X118019693Y-126102014D01*
X118050500Y-125868011D01*
X118050500Y-125631989D01*
X118019693Y-125397986D01*
X117958606Y-125170007D01*
X117868284Y-124951951D01*
X117836932Y-124897648D01*
X126699500Y-124897648D01*
X126699500Y-125102351D01*
X126731522Y-125304534D01*
X126794781Y-125499223D01*
X126843145Y-125594141D01*
X126887585Y-125681359D01*
X126887715Y-125681613D01*
X127008028Y-125847213D01*
X127152786Y-125991971D01*
X127304245Y-126102010D01*
X127318390Y-126112287D01*
X127434607Y-126171503D01*
X127500776Y-126205218D01*
X127500778Y-126205218D01*
X127500781Y-126205220D01*
X127605137Y-126239127D01*
X127695465Y-126268477D01*
X127796557Y-126284488D01*
X127897648Y-126300500D01*
X127897649Y-126300500D01*
X128102351Y-126300500D01*
X128102352Y-126300500D01*
X128304534Y-126268477D01*
X128499219Y-126205220D01*
X128681610Y-126112287D01*
X128774590Y-126044732D01*
X128847213Y-125991971D01*
X128847215Y-125991968D01*
X128847219Y-125991966D01*
X128991966Y-125847219D01*
X128991968Y-125847215D01*
X128991971Y-125847213D01*
X129044732Y-125774590D01*
X129112287Y-125681610D01*
X129205220Y-125499219D01*
X129268477Y-125304534D01*
X129300500Y-125102352D01*
X129300500Y-124957648D01*
X131799500Y-124957648D01*
X131799500Y-125162352D01*
X131803878Y-125189995D01*
X131831522Y-125364534D01*
X131894781Y-125559223D01*
X131987715Y-125741613D01*
X132108028Y-125907213D01*
X132252786Y-126051971D01*
X132407749Y-126164556D01*
X132418390Y-126172287D01*
X132483021Y-126205218D01*
X132600776Y-126265218D01*
X132600778Y-126265218D01*
X132600781Y-126265220D01*
X132705137Y-126299127D01*
X132795465Y-126328477D01*
X132805037Y-126329993D01*
X132997648Y-126360500D01*
X132997649Y-126360500D01*
X133202351Y-126360500D01*
X133202352Y-126360500D01*
X133404534Y-126328477D01*
X133599219Y-126265220D01*
X133781610Y-126172287D01*
X133889617Y-126093816D01*
X133947213Y-126051971D01*
X133947215Y-126051968D01*
X133947219Y-126051966D01*
X134091966Y-125907219D01*
X134091968Y-125907215D01*
X134091971Y-125907213D01*
X134144732Y-125834590D01*
X134212287Y-125741610D01*
X134305220Y-125559219D01*
X134368477Y-125364534D01*
X134400500Y-125162352D01*
X134400500Y-124957648D01*
X137199500Y-124957648D01*
X137199500Y-125162352D01*
X137203878Y-125189995D01*
X137231522Y-125364534D01*
X137294781Y-125559223D01*
X137387715Y-125741613D01*
X137508028Y-125907213D01*
X137652786Y-126051971D01*
X137807749Y-126164556D01*
X137818390Y-126172287D01*
X137883021Y-126205218D01*
X138000776Y-126265218D01*
X138000778Y-126265218D01*
X138000781Y-126265220D01*
X138105137Y-126299127D01*
X138195465Y-126328477D01*
X138205037Y-126329993D01*
X138397648Y-126360500D01*
X138397649Y-126360500D01*
X138602351Y-126360500D01*
X138602352Y-126360500D01*
X138804534Y-126328477D01*
X138999219Y-126265220D01*
X139181610Y-126172287D01*
X139289617Y-126093816D01*
X139347213Y-126051971D01*
X139347215Y-126051968D01*
X139347219Y-126051966D01*
X139491966Y-125907219D01*
X139491968Y-125907215D01*
X139491971Y-125907213D01*
X139544732Y-125834590D01*
X139612287Y-125741610D01*
X139705220Y-125559219D01*
X139768477Y-125364534D01*
X139800500Y-125162352D01*
X139800500Y-124957648D01*
X139782754Y-124845606D01*
X139768477Y-124755465D01*
X139705218Y-124560776D01*
X139654609Y-124461452D01*
X139612287Y-124378390D01*
X139568884Y-124318650D01*
X139491971Y-124212786D01*
X139347213Y-124068028D01*
X139344674Y-124066183D01*
X141449500Y-124066183D01*
X141449500Y-126093818D01*
X141449501Y-126093821D01*
X141452352Y-126135889D01*
X141452352Y-126135890D01*
X141469594Y-126205220D01*
X141493289Y-126300500D01*
X141497584Y-126317768D01*
X141580849Y-126485658D01*
X141580851Y-126485661D01*
X141698266Y-126631732D01*
X141698267Y-126631733D01*
X141844338Y-126749148D01*
X141844341Y-126749150D01*
X142007086Y-126829863D01*
X142012235Y-126832417D01*
X142158644Y-126868827D01*
X142194103Y-126877646D01*
X142194104Y-126877646D01*
X142194108Y-126877647D01*
X142236181Y-126880500D01*
X144263818Y-126880499D01*
X144305892Y-126877647D01*
X144487765Y-126832417D01*
X144655662Y-126749148D01*
X144801733Y-126631733D01*
X144919148Y-126485662D01*
X145002417Y-126317765D01*
X145047647Y-126135892D01*
X145050500Y-126093819D01*
X145050499Y-124957648D01*
X147949500Y-124957648D01*
X147949500Y-125162352D01*
X147953878Y-125189995D01*
X147981522Y-125364534D01*
X148044781Y-125559223D01*
X148137715Y-125741613D01*
X148258028Y-125907213D01*
X148402786Y-126051971D01*
X148557749Y-126164556D01*
X148568390Y-126172287D01*
X148633021Y-126205218D01*
X148750776Y-126265218D01*
X148750778Y-126265218D01*
X148750781Y-126265220D01*
X148855137Y-126299127D01*
X148945465Y-126328477D01*
X148955037Y-126329993D01*
X149147648Y-126360500D01*
X149147649Y-126360500D01*
X149352351Y-126360500D01*
X149352352Y-126360500D01*
X149554534Y-126328477D01*
X149749219Y-126265220D01*
X149931610Y-126172287D01*
X150039617Y-126093816D01*
X150097213Y-126051971D01*
X150097215Y-126051968D01*
X150097219Y-126051966D01*
X150241966Y-125907219D01*
X150241968Y-125907215D01*
X150241971Y-125907213D01*
X150294732Y-125834590D01*
X150362287Y-125741610D01*
X150455220Y-125559219D01*
X150518477Y-125364534D01*
X150550500Y-125162352D01*
X150550500Y-124957648D01*
X150549597Y-124951946D01*
X150543304Y-124912213D01*
X150541002Y-124897682D01*
X154950000Y-124897682D01*
X154950000Y-125102317D01*
X154982009Y-125304417D01*
X155045244Y-125499031D01*
X155138141Y-125681350D01*
X155138147Y-125681359D01*
X155170523Y-125725921D01*
X155170524Y-125725922D01*
X155850000Y-125046446D01*
X155850000Y-125052661D01*
X155877259Y-125154394D01*
X155929920Y-125245606D01*
X156004394Y-125320080D01*
X156095606Y-125372741D01*
X156197339Y-125400000D01*
X156203553Y-125400000D01*
X155524076Y-126079474D01*
X155568650Y-126111859D01*
X155750968Y-126204755D01*
X155945582Y-126267990D01*
X156147683Y-126300000D01*
X156352317Y-126300000D01*
X156554417Y-126267990D01*
X156749031Y-126204755D01*
X156931349Y-126111859D01*
X156975921Y-126079474D01*
X156296447Y-125400000D01*
X156302661Y-125400000D01*
X156404394Y-125372741D01*
X156495606Y-125320080D01*
X156570080Y-125245606D01*
X156622741Y-125154394D01*
X156650000Y-125052661D01*
X156650000Y-125046448D01*
X157329474Y-125725922D01*
X157329474Y-125725921D01*
X157361859Y-125681349D01*
X157454755Y-125499031D01*
X157517990Y-125304417D01*
X157550000Y-125102317D01*
X157550000Y-124897682D01*
X157517990Y-124695582D01*
X157454755Y-124500968D01*
X157361859Y-124318650D01*
X157329474Y-124274077D01*
X157329474Y-124274076D01*
X156650000Y-124953551D01*
X156650000Y-124947339D01*
X156622741Y-124845606D01*
X156570080Y-124754394D01*
X156495606Y-124679920D01*
X156404394Y-124627259D01*
X156302661Y-124600000D01*
X156296446Y-124600000D01*
X156975922Y-123920524D01*
X156975921Y-123920523D01*
X156931359Y-123888147D01*
X156931350Y-123888141D01*
X156847718Y-123845528D01*
X161499500Y-123845528D01*
X161499500Y-124154471D01*
X161534086Y-124461437D01*
X161534089Y-124461455D01*
X161602831Y-124762635D01*
X161602835Y-124762647D01*
X161704862Y-125054222D01*
X161704868Y-125054236D01*
X161838903Y-125332562D01*
X161838905Y-125332565D01*
X162003265Y-125594143D01*
X162195880Y-125835674D01*
X162414326Y-126054120D01*
X162655857Y-126246735D01*
X162917435Y-126411095D01*
X163195771Y-126545135D01*
X163204099Y-126548049D01*
X163487352Y-126647164D01*
X163487364Y-126647168D01*
X163788548Y-126715911D01*
X163788554Y-126715911D01*
X163788562Y-126715913D01*
X163993206Y-126738970D01*
X164095529Y-126750499D01*
X164095532Y-126750500D01*
X164095535Y-126750500D01*
X164404468Y-126750500D01*
X164404469Y-126750499D01*
X164561356Y-126732822D01*
X164711437Y-126715913D01*
X164711442Y-126715912D01*
X164711452Y-126715911D01*
X165012636Y-126647168D01*
X165304229Y-126545135D01*
X165582565Y-126411095D01*
X165844143Y-126246735D01*
X166085674Y-126054120D01*
X166304120Y-125835674D01*
X166496735Y-125594143D01*
X166661095Y-125332565D01*
X166795135Y-125054229D01*
X166897168Y-124762636D01*
X166965911Y-124461452D01*
X167000500Y-124154465D01*
X167000500Y-123845535D01*
X166965911Y-123538548D01*
X166897168Y-123237364D01*
X166795135Y-122945771D01*
X166661095Y-122667435D01*
X166496735Y-122405857D01*
X166304120Y-122164326D01*
X166085674Y-121945880D01*
X166077923Y-121939699D01*
X166024334Y-121896963D01*
X165844143Y-121753265D01*
X165582565Y-121588905D01*
X165582562Y-121588903D01*
X165304236Y-121454868D01*
X165304222Y-121454862D01*
X165012647Y-121352835D01*
X165012635Y-121352831D01*
X164711455Y-121284089D01*
X164711437Y-121284086D01*
X164404471Y-121249500D01*
X164404465Y-121249500D01*
X164095535Y-121249500D01*
X164095528Y-121249500D01*
X163788562Y-121284086D01*
X163788544Y-121284089D01*
X163487364Y-121352831D01*
X163487352Y-121352835D01*
X163195777Y-121454862D01*
X163195763Y-121454868D01*
X162917437Y-121588903D01*
X162655858Y-121753264D01*
X162414326Y-121945879D01*
X162195879Y-122164326D01*
X162003264Y-122405858D01*
X161838903Y-122667437D01*
X161704868Y-122945763D01*
X161704862Y-122945777D01*
X161602835Y-123237352D01*
X161602831Y-123237364D01*
X161534089Y-123538544D01*
X161534086Y-123538562D01*
X161499500Y-123845528D01*
X156847718Y-123845528D01*
X156749031Y-123795244D01*
X156554417Y-123732009D01*
X156352317Y-123700000D01*
X156147683Y-123700000D01*
X155945582Y-123732009D01*
X155750968Y-123795244D01*
X155568644Y-123888143D01*
X155524077Y-123920523D01*
X155524077Y-123920524D01*
X156203554Y-124600000D01*
X156197339Y-124600000D01*
X156095606Y-124627259D01*
X156004394Y-124679920D01*
X155929920Y-124754394D01*
X155877259Y-124845606D01*
X155850000Y-124947339D01*
X155850000Y-124953553D01*
X155170524Y-124274077D01*
X155170523Y-124274077D01*
X155138143Y-124318644D01*
X155045244Y-124500968D01*
X154982009Y-124695582D01*
X154950000Y-124897682D01*
X150541002Y-124897682D01*
X150518477Y-124755465D01*
X150455218Y-124560776D01*
X150404609Y-124461452D01*
X150362287Y-124378390D01*
X150318884Y-124318650D01*
X150241971Y-124212786D01*
X150097217Y-124068032D01*
X149931609Y-123947712D01*
X149749223Y-123854781D01*
X149554534Y-123791522D01*
X149379995Y-123763878D01*
X149352352Y-123759500D01*
X149147648Y-123759500D01*
X149123329Y-123763351D01*
X148945465Y-123791522D01*
X148750776Y-123854781D01*
X148568386Y-123947715D01*
X148402786Y-124068028D01*
X148258028Y-124212786D01*
X148137715Y-124378386D01*
X148044781Y-124560776D01*
X147981522Y-124755465D01*
X147956696Y-124912213D01*
X147949500Y-124957648D01*
X145050499Y-124957648D01*
X145050499Y-124066182D01*
X145047647Y-124024108D01*
X145002417Y-123842235D01*
X144977266Y-123791522D01*
X144919150Y-123674341D01*
X144919148Y-123674338D01*
X144801733Y-123528267D01*
X144801732Y-123528266D01*
X144655661Y-123410851D01*
X144655658Y-123410849D01*
X144487768Y-123327584D01*
X144487766Y-123327583D01*
X144487765Y-123327583D01*
X144450783Y-123318385D01*
X144305896Y-123282353D01*
X144281850Y-123280722D01*
X144263819Y-123279500D01*
X144263816Y-123279500D01*
X142236181Y-123279500D01*
X142236178Y-123279501D01*
X142194110Y-123282352D01*
X142194109Y-123282352D01*
X142012231Y-123327584D01*
X141844341Y-123410849D01*
X141844338Y-123410851D01*
X141698267Y-123528266D01*
X141698266Y-123528267D01*
X141580851Y-123674338D01*
X141580849Y-123674341D01*
X141497584Y-123842231D01*
X141452353Y-124024103D01*
X141449500Y-124066183D01*
X139344674Y-124066183D01*
X139181613Y-123947715D01*
X139181612Y-123947714D01*
X139181610Y-123947713D01*
X139124653Y-123918691D01*
X138999223Y-123854781D01*
X138804534Y-123791522D01*
X138629995Y-123763878D01*
X138602352Y-123759500D01*
X138397648Y-123759500D01*
X138373329Y-123763351D01*
X138195465Y-123791522D01*
X138000776Y-123854781D01*
X137818386Y-123947715D01*
X137652786Y-124068028D01*
X137508028Y-124212786D01*
X137387715Y-124378386D01*
X137294781Y-124560776D01*
X137231522Y-124755465D01*
X137206696Y-124912213D01*
X137199500Y-124957648D01*
X134400500Y-124957648D01*
X134382754Y-124845606D01*
X134368477Y-124755465D01*
X134305218Y-124560776D01*
X134254609Y-124461452D01*
X134212287Y-124378390D01*
X134168884Y-124318650D01*
X134091971Y-124212786D01*
X133947213Y-124068028D01*
X133781613Y-123947715D01*
X133781612Y-123947714D01*
X133781610Y-123947713D01*
X133724653Y-123918691D01*
X133599223Y-123854781D01*
X133404534Y-123791522D01*
X133229995Y-123763878D01*
X133202352Y-123759500D01*
X132997648Y-123759500D01*
X132973329Y-123763351D01*
X132795465Y-123791522D01*
X132600776Y-123854781D01*
X132418386Y-123947715D01*
X132252786Y-124068028D01*
X132108028Y-124212786D01*
X131987715Y-124378386D01*
X131894781Y-124560776D01*
X131831522Y-124755465D01*
X131806696Y-124912213D01*
X131799500Y-124957648D01*
X129300500Y-124957648D01*
X129300500Y-124897648D01*
X129277980Y-124755465D01*
X129268477Y-124695465D01*
X129224715Y-124560781D01*
X129205220Y-124500781D01*
X129205218Y-124500778D01*
X129205218Y-124500776D01*
X129171503Y-124434607D01*
X129112287Y-124318390D01*
X129080092Y-124274077D01*
X128991971Y-124152786D01*
X128847213Y-124008028D01*
X128681613Y-123887715D01*
X128681612Y-123887714D01*
X128681610Y-123887713D01*
X128624653Y-123858691D01*
X128499223Y-123794781D01*
X128304534Y-123731522D01*
X128129995Y-123703878D01*
X128102352Y-123699500D01*
X127897648Y-123699500D01*
X127873329Y-123703351D01*
X127695465Y-123731522D01*
X127500776Y-123794781D01*
X127318386Y-123887715D01*
X127152786Y-124008028D01*
X127008028Y-124152786D01*
X126887715Y-124318386D01*
X126794781Y-124500776D01*
X126731522Y-124695465D01*
X126699500Y-124897648D01*
X117836932Y-124897648D01*
X117750273Y-124747550D01*
X117637054Y-124600000D01*
X117606593Y-124560302D01*
X117606587Y-124560295D01*
X117439704Y-124393412D01*
X117439697Y-124393406D01*
X117252454Y-124249730D01*
X117252453Y-124249729D01*
X117252450Y-124249727D01*
X117170957Y-124202677D01*
X117048056Y-124131719D01*
X117048045Y-124131714D01*
X116829993Y-124041394D01*
X116602010Y-123980306D01*
X116368020Y-123949501D01*
X116368017Y-123949500D01*
X116368011Y-123949500D01*
X116131989Y-123949500D01*
X116131983Y-123949500D01*
X116131979Y-123949501D01*
X115897989Y-123980306D01*
X115670006Y-124041394D01*
X115451954Y-124131714D01*
X115451943Y-124131719D01*
X115247545Y-124249730D01*
X115060302Y-124393406D01*
X115060295Y-124393412D01*
X114893412Y-124560295D01*
X114893406Y-124560302D01*
X114749730Y-124747545D01*
X114631719Y-124951943D01*
X114631714Y-124951954D01*
X114541394Y-125170006D01*
X114480306Y-125397989D01*
X114449501Y-125631979D01*
X114449500Y-125631995D01*
X110500500Y-125631995D01*
X110500500Y-120631995D01*
X114449500Y-120631995D01*
X114449500Y-120868004D01*
X114449501Y-120868020D01*
X114480306Y-121102010D01*
X114541394Y-121329993D01*
X114631714Y-121548045D01*
X114631719Y-121548056D01*
X114655304Y-121588905D01*
X114749727Y-121752450D01*
X114749729Y-121752453D01*
X114749730Y-121752454D01*
X114893406Y-121939697D01*
X114893412Y-121939704D01*
X115060295Y-122106587D01*
X115060302Y-122106593D01*
X115170306Y-122191001D01*
X115247550Y-122250273D01*
X115378918Y-122326118D01*
X115451943Y-122368280D01*
X115451948Y-122368282D01*
X115451951Y-122368284D01*
X115670007Y-122458606D01*
X115897986Y-122519693D01*
X116131989Y-122550500D01*
X116131996Y-122550500D01*
X116368004Y-122550500D01*
X116368011Y-122550500D01*
X116602014Y-122519693D01*
X116829993Y-122458606D01*
X117048049Y-122368284D01*
X117252450Y-122250273D01*
X117439699Y-122106592D01*
X117606592Y-121939699D01*
X117750273Y-121752450D01*
X117868284Y-121548049D01*
X117958606Y-121329993D01*
X118019693Y-121102014D01*
X118050500Y-120868011D01*
X118050500Y-120631989D01*
X118019693Y-120397986D01*
X117958606Y-120170007D01*
X117868284Y-119951951D01*
X117836932Y-119897648D01*
X126699500Y-119897648D01*
X126699500Y-120102351D01*
X126731522Y-120304534D01*
X126794781Y-120499223D01*
X126887715Y-120681613D01*
X127008028Y-120847213D01*
X127152786Y-120991971D01*
X127304245Y-121102010D01*
X127318390Y-121112287D01*
X127434607Y-121171503D01*
X127500776Y-121205218D01*
X127500778Y-121205218D01*
X127500781Y-121205220D01*
X127605137Y-121239127D01*
X127695465Y-121268477D01*
X127794016Y-121284086D01*
X127897648Y-121300500D01*
X127897649Y-121300500D01*
X128102351Y-121300500D01*
X128102352Y-121300500D01*
X128304534Y-121268477D01*
X128499219Y-121205220D01*
X128681610Y-121112287D01*
X128774590Y-121044732D01*
X128847213Y-120991971D01*
X128847215Y-120991968D01*
X128847219Y-120991966D01*
X128991966Y-120847219D01*
X128991968Y-120847215D01*
X128991971Y-120847213D01*
X129044732Y-120774590D01*
X129112287Y-120681610D01*
X129205220Y-120499219D01*
X129268477Y-120304534D01*
X129300500Y-120102352D01*
X129300500Y-119897648D01*
X129268477Y-119695465D01*
X129239127Y-119605137D01*
X129205220Y-119500781D01*
X129205218Y-119500778D01*
X129205218Y-119500776D01*
X129171503Y-119434607D01*
X129112287Y-119318390D01*
X129104556Y-119307749D01*
X128991971Y-119152786D01*
X128847213Y-119008028D01*
X128681613Y-118887715D01*
X128681612Y-118887714D01*
X128681610Y-118887713D01*
X128599420Y-118845835D01*
X128499223Y-118794781D01*
X128304534Y-118731522D01*
X128129995Y-118703878D01*
X128102352Y-118699500D01*
X127897648Y-118699500D01*
X127873329Y-118703351D01*
X127695465Y-118731522D01*
X127500776Y-118794781D01*
X127318386Y-118887715D01*
X127152786Y-119008028D01*
X127008028Y-119152786D01*
X126887715Y-119318386D01*
X126794781Y-119500776D01*
X126731522Y-119695465D01*
X126699500Y-119897648D01*
X117836932Y-119897648D01*
X117750273Y-119747550D01*
X117750267Y-119747542D01*
X117606593Y-119560302D01*
X117606587Y-119560295D01*
X117439704Y-119393412D01*
X117439697Y-119393406D01*
X117252454Y-119249730D01*
X117252453Y-119249729D01*
X117252450Y-119249727D01*
X117165908Y-119199762D01*
X117048056Y-119131719D01*
X117048045Y-119131714D01*
X116829993Y-119041394D01*
X116602010Y-118980306D01*
X116368020Y-118949501D01*
X116368017Y-118949500D01*
X116368011Y-118949500D01*
X116131989Y-118949500D01*
X116131983Y-118949500D01*
X116131979Y-118949501D01*
X115897989Y-118980306D01*
X115670006Y-119041394D01*
X115451954Y-119131714D01*
X115451943Y-119131719D01*
X115247545Y-119249730D01*
X115060302Y-119393406D01*
X115060295Y-119393412D01*
X114893412Y-119560295D01*
X114893406Y-119560302D01*
X114749730Y-119747545D01*
X114631719Y-119951943D01*
X114631714Y-119951954D01*
X114541394Y-120170006D01*
X114480306Y-120397989D01*
X114449501Y-120631979D01*
X114449500Y-120631995D01*
X110500500Y-120631995D01*
X110500500Y-115631995D01*
X114449500Y-115631995D01*
X114449500Y-115868004D01*
X114449501Y-115868020D01*
X114480306Y-116102010D01*
X114541394Y-116329993D01*
X114631714Y-116548045D01*
X114631719Y-116548056D01*
X114687164Y-116644088D01*
X114749727Y-116752450D01*
X114749729Y-116752453D01*
X114749730Y-116752454D01*
X114893406Y-116939697D01*
X114893412Y-116939704D01*
X115060295Y-117106587D01*
X115060301Y-117106592D01*
X115247550Y-117250273D01*
X115378918Y-117326118D01*
X115451943Y-117368280D01*
X115451948Y-117368282D01*
X115451951Y-117368284D01*
X115670007Y-117458606D01*
X115897986Y-117519693D01*
X116131989Y-117550500D01*
X116131996Y-117550500D01*
X116368004Y-117550500D01*
X116368011Y-117550500D01*
X116602014Y-117519693D01*
X116829993Y-117458606D01*
X117048049Y-117368284D01*
X117101114Y-117337647D01*
X131799500Y-117337647D01*
X131799500Y-117542351D01*
X131831522Y-117744534D01*
X131894781Y-117939223D01*
X131987715Y-118121613D01*
X132108028Y-118287213D01*
X132252786Y-118431971D01*
X132335806Y-118492287D01*
X132418390Y-118552287D01*
X132483021Y-118585218D01*
X132600776Y-118645218D01*
X132600778Y-118645218D01*
X132600781Y-118645220D01*
X132650089Y-118661241D01*
X132795465Y-118708477D01*
X132880037Y-118721872D01*
X132997648Y-118740500D01*
X132997649Y-118740500D01*
X133202351Y-118740500D01*
X133202352Y-118740500D01*
X133404534Y-118708477D01*
X133599219Y-118645220D01*
X133781610Y-118552287D01*
X133874590Y-118484732D01*
X133947213Y-118431971D01*
X133947215Y-118431968D01*
X133947219Y-118431966D01*
X134091966Y-118287219D01*
X134091968Y-118287215D01*
X134091971Y-118287213D01*
X134144732Y-118214590D01*
X134212287Y-118121610D01*
X134305220Y-117939219D01*
X134368477Y-117744534D01*
X134400500Y-117542352D01*
X134400500Y-117337648D01*
X134400500Y-117337647D01*
X137199500Y-117337647D01*
X137199500Y-117542351D01*
X137231522Y-117744534D01*
X137294781Y-117939223D01*
X137387715Y-118121613D01*
X137508028Y-118287213D01*
X137652786Y-118431971D01*
X137818385Y-118552284D01*
X137818387Y-118552285D01*
X137818390Y-118552287D01*
X137883021Y-118585218D01*
X137978013Y-118633619D01*
X138028809Y-118681594D01*
X138045604Y-118749415D01*
X138023067Y-118815550D01*
X137990609Y-118847206D01*
X137894092Y-118911697D01*
X137894088Y-118911700D01*
X137761700Y-119044088D01*
X137761697Y-119044092D01*
X137657681Y-119199762D01*
X137657676Y-119199771D01*
X137586027Y-119372748D01*
X137586025Y-119372756D01*
X137549500Y-119556379D01*
X137549500Y-119743620D01*
X137586025Y-119927243D01*
X137586027Y-119927251D01*
X137657676Y-120100228D01*
X137657681Y-120100237D01*
X137761697Y-120255907D01*
X137761700Y-120255911D01*
X137894088Y-120388299D01*
X137894092Y-120388302D01*
X138049762Y-120492318D01*
X138049768Y-120492321D01*
X138049769Y-120492322D01*
X138222749Y-120563973D01*
X138406379Y-120600499D01*
X138406383Y-120600500D01*
X138406384Y-120600500D01*
X138593617Y-120600500D01*
X138593618Y-120600499D01*
X138777251Y-120563973D01*
X138950231Y-120492322D01*
X139105908Y-120388302D01*
X139105911Y-120388299D01*
X139107392Y-120386819D01*
X139108358Y-120386291D01*
X139110618Y-120384437D01*
X139110969Y-120384865D01*
X139168715Y-120353334D01*
X139195073Y-120350500D01*
X150968996Y-120350500D01*
X151060040Y-120332389D01*
X151104328Y-120323580D01*
X151168069Y-120297177D01*
X151231807Y-120270777D01*
X151231808Y-120270776D01*
X151231811Y-120270775D01*
X151346543Y-120194114D01*
X153303838Y-118236819D01*
X153365161Y-118203334D01*
X153391519Y-118200500D01*
X153393617Y-118200500D01*
X153393618Y-118200499D01*
X153577251Y-118163973D01*
X153750231Y-118092322D01*
X153905908Y-117988302D01*
X154038302Y-117855908D01*
X154142322Y-117700231D01*
X154213973Y-117527251D01*
X154250500Y-117343616D01*
X154250500Y-117277648D01*
X154949500Y-117277648D01*
X154949500Y-117482351D01*
X154981522Y-117684534D01*
X155044781Y-117879223D01*
X155137715Y-118061613D01*
X155258028Y-118227213D01*
X155402786Y-118371971D01*
X155485371Y-118431971D01*
X155568390Y-118492287D01*
X155684607Y-118551503D01*
X155750776Y-118585218D01*
X155750778Y-118585218D01*
X155750781Y-118585220D01*
X155855137Y-118619127D01*
X155945465Y-118648477D01*
X156014733Y-118659448D01*
X156147648Y-118680500D01*
X156147649Y-118680500D01*
X156352351Y-118680500D01*
X156352352Y-118680500D01*
X156554534Y-118648477D01*
X156749219Y-118585220D01*
X156931610Y-118492287D01*
X157024590Y-118424732D01*
X157097213Y-118371971D01*
X157097215Y-118371968D01*
X157097219Y-118371966D01*
X157241966Y-118227219D01*
X157241968Y-118227215D01*
X157241971Y-118227213D01*
X157294732Y-118154590D01*
X157362287Y-118061610D01*
X157455220Y-117879219D01*
X157518477Y-117684534D01*
X157550500Y-117482352D01*
X157550500Y-117277648D01*
X157531793Y-117159539D01*
X157518477Y-117075465D01*
X157474715Y-116940781D01*
X157455220Y-116880781D01*
X157455218Y-116880778D01*
X157455218Y-116880776D01*
X157413939Y-116799762D01*
X157362287Y-116698390D01*
X157322835Y-116644088D01*
X157241971Y-116532786D01*
X157097213Y-116388028D01*
X156931613Y-116267715D01*
X156931612Y-116267714D01*
X156931610Y-116267713D01*
X156874653Y-116238691D01*
X156749223Y-116174781D01*
X156554534Y-116111522D01*
X156379995Y-116083878D01*
X156352352Y-116079500D01*
X156147648Y-116079500D01*
X156123329Y-116083351D01*
X155945465Y-116111522D01*
X155750776Y-116174781D01*
X155568386Y-116267715D01*
X155402786Y-116388028D01*
X155258028Y-116532786D01*
X155137715Y-116698386D01*
X155044781Y-116880776D01*
X154981522Y-117075465D01*
X154949500Y-117277648D01*
X154250500Y-117277648D01*
X154250500Y-117156384D01*
X154213973Y-116972749D01*
X154142322Y-116799769D01*
X154142321Y-116799768D01*
X154142318Y-116799762D01*
X154038302Y-116644092D01*
X154038299Y-116644088D01*
X153905911Y-116511700D01*
X153905907Y-116511697D01*
X153750237Y-116407681D01*
X153750228Y-116407676D01*
X153577251Y-116336027D01*
X153577243Y-116336025D01*
X153393620Y-116299500D01*
X153393616Y-116299500D01*
X153206384Y-116299500D01*
X153206379Y-116299500D01*
X153022756Y-116336025D01*
X153022748Y-116336027D01*
X152849771Y-116407676D01*
X152849762Y-116407681D01*
X152694092Y-116511697D01*
X152694088Y-116511700D01*
X152561700Y-116644088D01*
X152561697Y-116644092D01*
X152457681Y-116799762D01*
X152457676Y-116799771D01*
X152386027Y-116972748D01*
X152386025Y-116972756D01*
X152349500Y-117156379D01*
X152349500Y-117158481D01*
X152349189Y-117159539D01*
X152348903Y-117162445D01*
X152348351Y-117162390D01*
X152329815Y-117225520D01*
X152313181Y-117246162D01*
X150646162Y-118913181D01*
X150584839Y-118946666D01*
X150558481Y-118949500D01*
X149595648Y-118949500D01*
X149528609Y-118929815D01*
X149482854Y-118877011D01*
X149472910Y-118807853D01*
X149501935Y-118744297D01*
X149557329Y-118707569D01*
X149640638Y-118680500D01*
X149749219Y-118645220D01*
X149931610Y-118552287D01*
X150024590Y-118484732D01*
X150097213Y-118431971D01*
X150097215Y-118431968D01*
X150097219Y-118431966D01*
X150241966Y-118287219D01*
X150241968Y-118287215D01*
X150241971Y-118287213D01*
X150294732Y-118214590D01*
X150362287Y-118121610D01*
X150455220Y-117939219D01*
X150518477Y-117744534D01*
X150550500Y-117542352D01*
X150550500Y-117337648D01*
X150534147Y-117234400D01*
X150518477Y-117135465D01*
X150465607Y-116972749D01*
X150455220Y-116940781D01*
X150455218Y-116940778D01*
X150455218Y-116940776D01*
X150421503Y-116874607D01*
X150362287Y-116758390D01*
X150318692Y-116698386D01*
X150241971Y-116592786D01*
X150097213Y-116448028D01*
X149931613Y-116327715D01*
X149931612Y-116327714D01*
X149931610Y-116327713D01*
X149831270Y-116276587D01*
X149749223Y-116234781D01*
X149554534Y-116171522D01*
X149379995Y-116143878D01*
X149352352Y-116139500D01*
X149147648Y-116139500D01*
X149123329Y-116143351D01*
X148945465Y-116171522D01*
X148750776Y-116234781D01*
X148568386Y-116327715D01*
X148402786Y-116448028D01*
X148258028Y-116592786D01*
X148137715Y-116758386D01*
X148044781Y-116940776D01*
X147981522Y-117135465D01*
X147949501Y-117337641D01*
X147949500Y-117337647D01*
X147949500Y-117542351D01*
X147981522Y-117744534D01*
X148044781Y-117939223D01*
X148137715Y-118121613D01*
X148258028Y-118287213D01*
X148402786Y-118431971D01*
X148485806Y-118492287D01*
X148568390Y-118552287D01*
X148633021Y-118585218D01*
X148750776Y-118645218D01*
X148750778Y-118645218D01*
X148750781Y-118645220D01*
X148800089Y-118661241D01*
X148942671Y-118707569D01*
X149000346Y-118747007D01*
X149027544Y-118811366D01*
X149015629Y-118880212D01*
X148968385Y-118931688D01*
X148904352Y-118949500D01*
X139195073Y-118949500D01*
X139128034Y-118929815D01*
X139124173Y-118927231D01*
X139115158Y-118920948D01*
X139105908Y-118911698D01*
X139008403Y-118846547D01*
X139007381Y-118845835D01*
X138986240Y-118819506D01*
X138964585Y-118793594D01*
X138964427Y-118792339D01*
X138963636Y-118791354D01*
X138960083Y-118757755D01*
X138955878Y-118724269D01*
X138956422Y-118723129D01*
X138956290Y-118721872D01*
X138971472Y-118691673D01*
X138986033Y-118661241D01*
X138987239Y-118660313D01*
X138987675Y-118659448D01*
X138990671Y-118657677D01*
X139021983Y-118633620D01*
X139181610Y-118552287D01*
X139264198Y-118492284D01*
X139347213Y-118431971D01*
X139347215Y-118431968D01*
X139347219Y-118431966D01*
X139491966Y-118287219D01*
X139491968Y-118287215D01*
X139491971Y-118287213D01*
X139544732Y-118214590D01*
X139612287Y-118121610D01*
X139705220Y-117939219D01*
X139768477Y-117744534D01*
X139800500Y-117542352D01*
X139800500Y-117337648D01*
X139784147Y-117234400D01*
X139768477Y-117135465D01*
X139715607Y-116972749D01*
X139705220Y-116940781D01*
X139705218Y-116940778D01*
X139705218Y-116940776D01*
X139671503Y-116874607D01*
X139612287Y-116758390D01*
X139568692Y-116698386D01*
X139491971Y-116592786D01*
X139347213Y-116448028D01*
X139181613Y-116327715D01*
X139181612Y-116327714D01*
X139181610Y-116327713D01*
X139081270Y-116276587D01*
X138999223Y-116234781D01*
X138804534Y-116171522D01*
X138629995Y-116143878D01*
X138602352Y-116139500D01*
X138397648Y-116139500D01*
X138373329Y-116143351D01*
X138195465Y-116171522D01*
X138000776Y-116234781D01*
X137818386Y-116327715D01*
X137652786Y-116448028D01*
X137508028Y-116592786D01*
X137387715Y-116758386D01*
X137294781Y-116940776D01*
X137231522Y-117135465D01*
X137199501Y-117337641D01*
X137199500Y-117337647D01*
X134400500Y-117337647D01*
X134384147Y-117234400D01*
X134368477Y-117135465D01*
X134315607Y-116972749D01*
X134305220Y-116940781D01*
X134305218Y-116940778D01*
X134305218Y-116940776D01*
X134271503Y-116874607D01*
X134212287Y-116758390D01*
X134168692Y-116698386D01*
X134091971Y-116592786D01*
X133947213Y-116448028D01*
X133781613Y-116327715D01*
X133781612Y-116327714D01*
X133781610Y-116327713D01*
X133681270Y-116276587D01*
X133599223Y-116234781D01*
X133404534Y-116171522D01*
X133229995Y-116143878D01*
X133202352Y-116139500D01*
X132997648Y-116139500D01*
X132973329Y-116143351D01*
X132795465Y-116171522D01*
X132600776Y-116234781D01*
X132418386Y-116327715D01*
X132252786Y-116448028D01*
X132108028Y-116592786D01*
X131987715Y-116758386D01*
X131894781Y-116940776D01*
X131831522Y-117135465D01*
X131799501Y-117337641D01*
X131799500Y-117337647D01*
X117101114Y-117337647D01*
X117252450Y-117250273D01*
X117439699Y-117106592D01*
X117606592Y-116939699D01*
X117750273Y-116752450D01*
X117868284Y-116548049D01*
X117958606Y-116329993D01*
X118019693Y-116102014D01*
X118050500Y-115868011D01*
X118050500Y-115631989D01*
X118019693Y-115397986D01*
X117958606Y-115170007D01*
X117868284Y-114951951D01*
X117868282Y-114951948D01*
X117868280Y-114951943D01*
X117815157Y-114859932D01*
X117815156Y-114859931D01*
X117781707Y-114801995D01*
X141449500Y-114801995D01*
X141449500Y-115038004D01*
X141449501Y-115038020D01*
X141480306Y-115272010D01*
X141541394Y-115499993D01*
X141631714Y-115718045D01*
X141631719Y-115718056D01*
X141702677Y-115840957D01*
X141749727Y-115922450D01*
X141749729Y-115922453D01*
X141749730Y-115922454D01*
X141893406Y-116109697D01*
X141893412Y-116109704D01*
X142060295Y-116276587D01*
X142060301Y-116276592D01*
X142247550Y-116420273D01*
X142378918Y-116496118D01*
X142451943Y-116538280D01*
X142451948Y-116538282D01*
X142451951Y-116538284D01*
X142670007Y-116628606D01*
X142897986Y-116689693D01*
X143131989Y-116720500D01*
X143131996Y-116720500D01*
X143368004Y-116720500D01*
X143368011Y-116720500D01*
X143602014Y-116689693D01*
X143829993Y-116628606D01*
X144048049Y-116538284D01*
X144252450Y-116420273D01*
X144439699Y-116276592D01*
X144606592Y-116109699D01*
X144750273Y-115922450D01*
X144868284Y-115718049D01*
X144958606Y-115499993D01*
X145019693Y-115272014D01*
X145050500Y-115038011D01*
X145050500Y-114801989D01*
X145019693Y-114567986D01*
X144958606Y-114340007D01*
X144868284Y-114121951D01*
X144868282Y-114121948D01*
X144868280Y-114121943D01*
X144821774Y-114041394D01*
X144750273Y-113917550D01*
X144606592Y-113730301D01*
X144606587Y-113730295D01*
X144439704Y-113563412D01*
X144439697Y-113563406D01*
X144252454Y-113419730D01*
X144252453Y-113419729D01*
X144252450Y-113419727D01*
X144170957Y-113372677D01*
X144048056Y-113301719D01*
X144048036Y-113301710D01*
X144046980Y-113301272D01*
X144046978Y-113301272D01*
X143829993Y-113211394D01*
X143756035Y-113191577D01*
X148209500Y-113191577D01*
X148209500Y-113388422D01*
X148240290Y-113582826D01*
X148301117Y-113770029D01*
X148376281Y-113917545D01*
X148390476Y-113945405D01*
X148506172Y-114104646D01*
X148645354Y-114243828D01*
X148804595Y-114359524D01*
X148887455Y-114401743D01*
X148979970Y-114448882D01*
X148979972Y-114448882D01*
X148979975Y-114448884D01*
X149080317Y-114481487D01*
X149167173Y-114509709D01*
X149361578Y-114540500D01*
X149361583Y-114540500D01*
X149558422Y-114540500D01*
X149752826Y-114509709D01*
X149940025Y-114448884D01*
X150115405Y-114359524D01*
X150274646Y-114243828D01*
X150413828Y-114104646D01*
X150529524Y-113945405D01*
X150618884Y-113770025D01*
X150679709Y-113582826D01*
X150682784Y-113563412D01*
X150710500Y-113388422D01*
X150710500Y-113191577D01*
X150679709Y-112997173D01*
X150618882Y-112809970D01*
X150529523Y-112634594D01*
X150413828Y-112475354D01*
X150274646Y-112336172D01*
X150115405Y-112220476D01*
X150076200Y-112200500D01*
X149940029Y-112131117D01*
X149752826Y-112070290D01*
X149558422Y-112039500D01*
X149558417Y-112039500D01*
X149361583Y-112039500D01*
X149361578Y-112039500D01*
X149167173Y-112070290D01*
X148979970Y-112131117D01*
X148804594Y-112220476D01*
X148763583Y-112250273D01*
X148645354Y-112336172D01*
X148645352Y-112336174D01*
X148645351Y-112336174D01*
X148506174Y-112475351D01*
X148506174Y-112475352D01*
X148506172Y-112475354D01*
X148473958Y-112519693D01*
X148390476Y-112634594D01*
X148301117Y-112809970D01*
X148240290Y-112997173D01*
X148209500Y-113191577D01*
X143756035Y-113191577D01*
X143602010Y-113150306D01*
X143368020Y-113119501D01*
X143368017Y-113119500D01*
X143368011Y-113119500D01*
X143131989Y-113119500D01*
X143131983Y-113119500D01*
X143131979Y-113119501D01*
X142897989Y-113150306D01*
X142670006Y-113211394D01*
X142451954Y-113301714D01*
X142451943Y-113301719D01*
X142247545Y-113419730D01*
X142060302Y-113563406D01*
X142060295Y-113563412D01*
X141893412Y-113730295D01*
X141893406Y-113730302D01*
X141749730Y-113917545D01*
X141631719Y-114121943D01*
X141631714Y-114121954D01*
X141541394Y-114340006D01*
X141480306Y-114567989D01*
X141449501Y-114801979D01*
X141449500Y-114801995D01*
X117781707Y-114801995D01*
X117750273Y-114747550D01*
X117606592Y-114560301D01*
X117606587Y-114560295D01*
X117439704Y-114393412D01*
X117439697Y-114393406D01*
X117252454Y-114249730D01*
X117252453Y-114249729D01*
X117252450Y-114249727D01*
X117170957Y-114202677D01*
X117048056Y-114131719D01*
X117048045Y-114131714D01*
X116829993Y-114041394D01*
X116602010Y-113980306D01*
X116368020Y-113949501D01*
X116368017Y-113949500D01*
X116368011Y-113949500D01*
X116131989Y-113949500D01*
X116131983Y-113949500D01*
X116131979Y-113949501D01*
X115897989Y-113980306D01*
X115670006Y-114041394D01*
X115451954Y-114131714D01*
X115451943Y-114131719D01*
X115247545Y-114249730D01*
X115060302Y-114393406D01*
X115060295Y-114393412D01*
X114893412Y-114560295D01*
X114893406Y-114560302D01*
X114749730Y-114747545D01*
X114631719Y-114951943D01*
X114631714Y-114951954D01*
X114541394Y-115170006D01*
X114480306Y-115397989D01*
X114449501Y-115631979D01*
X114449500Y-115631995D01*
X110500500Y-115631995D01*
X110500500Y-110631995D01*
X114449500Y-110631995D01*
X114449500Y-110868004D01*
X114449501Y-110868020D01*
X114480306Y-111102010D01*
X114541394Y-111329993D01*
X114631714Y-111548045D01*
X114631719Y-111548056D01*
X114702677Y-111670957D01*
X114749727Y-111752450D01*
X114749729Y-111752453D01*
X114749730Y-111752454D01*
X114893406Y-111939697D01*
X114893412Y-111939704D01*
X115060295Y-112106587D01*
X115060302Y-112106593D01*
X115140951Y-112168477D01*
X115247550Y-112250273D01*
X115378918Y-112326118D01*
X115451943Y-112368280D01*
X115451948Y-112368282D01*
X115451951Y-112368284D01*
X115670007Y-112458606D01*
X115897986Y-112519693D01*
X116131989Y-112550500D01*
X116131996Y-112550500D01*
X116368004Y-112550500D01*
X116368011Y-112550500D01*
X116602014Y-112519693D01*
X116829993Y-112458606D01*
X117048049Y-112368284D01*
X117252450Y-112250273D01*
X117439699Y-112106592D01*
X117606592Y-111939699D01*
X117750273Y-111752450D01*
X117868284Y-111548049D01*
X117958606Y-111329993D01*
X118019693Y-111102014D01*
X118050500Y-110868011D01*
X118050500Y-110797648D01*
X135999500Y-110797648D01*
X135999500Y-111002351D01*
X136031522Y-111204534D01*
X136094781Y-111399223D01*
X136158691Y-111524653D01*
X136179070Y-111564648D01*
X136187715Y-111581613D01*
X136308028Y-111747213D01*
X136452786Y-111891971D01*
X136587713Y-111989999D01*
X136618390Y-112012287D01*
X136732227Y-112070290D01*
X136800776Y-112105218D01*
X136800778Y-112105218D01*
X136800781Y-112105220D01*
X136880481Y-112131116D01*
X136995465Y-112168477D01*
X137096557Y-112184488D01*
X137197648Y-112200500D01*
X137197649Y-112200500D01*
X137402351Y-112200500D01*
X137402352Y-112200500D01*
X137604534Y-112168477D01*
X137799219Y-112105220D01*
X137981610Y-112012287D01*
X138088246Y-111934812D01*
X138147213Y-111891971D01*
X138147215Y-111891968D01*
X138147219Y-111891966D01*
X138291966Y-111747219D01*
X138291968Y-111747215D01*
X138291971Y-111747213D01*
X138344732Y-111674590D01*
X138412287Y-111581610D01*
X138505220Y-111399219D01*
X138568477Y-111204534D01*
X138600500Y-111002352D01*
X138600500Y-110797648D01*
X138577364Y-110651577D01*
X145669500Y-110651577D01*
X145669500Y-110848422D01*
X145700290Y-111042826D01*
X145761117Y-111230029D01*
X145847324Y-111399219D01*
X145850476Y-111405405D01*
X145966172Y-111564646D01*
X146105354Y-111703828D01*
X146264595Y-111819524D01*
X146347455Y-111861743D01*
X146439970Y-111908882D01*
X146439972Y-111908882D01*
X146439975Y-111908884D01*
X146519773Y-111934812D01*
X146627173Y-111969709D01*
X146821578Y-112000500D01*
X146821583Y-112000500D01*
X147018422Y-112000500D01*
X147212826Y-111969709D01*
X147400025Y-111908884D01*
X147575405Y-111819524D01*
X147734646Y-111703828D01*
X147873828Y-111564646D01*
X147989524Y-111405405D01*
X148078884Y-111230025D01*
X148139709Y-111042826D01*
X148170500Y-110848422D01*
X148170500Y-110651577D01*
X148139709Y-110457173D01*
X148078881Y-110269967D01*
X148070302Y-110253130D01*
X148070301Y-110253129D01*
X148043222Y-110199983D01*
X150749500Y-110199983D01*
X150749500Y-111300001D01*
X150749501Y-111300019D01*
X150760000Y-111402796D01*
X150760001Y-111402799D01*
X150808133Y-111548049D01*
X150815186Y-111569334D01*
X150907288Y-111718656D01*
X151031344Y-111842712D01*
X151180666Y-111934814D01*
X151347203Y-111989999D01*
X151449991Y-112000500D01*
X152550008Y-112000499D01*
X152550016Y-112000498D01*
X152550019Y-112000498D01*
X152606302Y-111994748D01*
X152652797Y-111989999D01*
X152819334Y-111934814D01*
X152968656Y-111842712D01*
X153092712Y-111718656D01*
X153184814Y-111569334D01*
X153239999Y-111402797D01*
X153250500Y-111300009D01*
X153250499Y-110199992D01*
X153239999Y-110097203D01*
X153184814Y-109930666D01*
X153092712Y-109781344D01*
X152968656Y-109657288D01*
X152861375Y-109591117D01*
X152819336Y-109565187D01*
X152819331Y-109565185D01*
X152796272Y-109557544D01*
X152652797Y-109510001D01*
X152652795Y-109510000D01*
X152550010Y-109499500D01*
X151449998Y-109499500D01*
X151449980Y-109499501D01*
X151347203Y-109510000D01*
X151347200Y-109510001D01*
X151180668Y-109565185D01*
X151180663Y-109565187D01*
X151031342Y-109657289D01*
X150907289Y-109781342D01*
X150815187Y-109930663D01*
X150815185Y-109930668D01*
X150808135Y-109951943D01*
X150760001Y-110097203D01*
X150760001Y-110097204D01*
X150760000Y-110097204D01*
X150749500Y-110199983D01*
X148043222Y-110199983D01*
X147990853Y-110097204D01*
X147989524Y-110094595D01*
X147873828Y-109935354D01*
X147734646Y-109796172D01*
X147575405Y-109680476D01*
X147400029Y-109591117D01*
X147212826Y-109530290D01*
X147018422Y-109499500D01*
X147018417Y-109499500D01*
X146821583Y-109499500D01*
X146821578Y-109499500D01*
X146627173Y-109530290D01*
X146439970Y-109591117D01*
X146264594Y-109680476D01*
X146237034Y-109700500D01*
X146105354Y-109796172D01*
X146105352Y-109796174D01*
X146105351Y-109796174D01*
X145966174Y-109935351D01*
X145966174Y-109935352D01*
X145966172Y-109935354D01*
X145916485Y-110003741D01*
X145850476Y-110094594D01*
X145761117Y-110269970D01*
X145700290Y-110457173D01*
X145669500Y-110651577D01*
X138577364Y-110651577D01*
X138568477Y-110595466D01*
X138505220Y-110400781D01*
X138505218Y-110400778D01*
X138505218Y-110400776D01*
X138471503Y-110334607D01*
X138412287Y-110218390D01*
X138398920Y-110199992D01*
X138291971Y-110052786D01*
X138147213Y-109908028D01*
X137981613Y-109787715D01*
X137981612Y-109787714D01*
X137981610Y-109787713D01*
X137902776Y-109747545D01*
X137799223Y-109694781D01*
X137604534Y-109631522D01*
X137429995Y-109603878D01*
X137402352Y-109599500D01*
X137197648Y-109599500D01*
X137173329Y-109603351D01*
X136995465Y-109631522D01*
X136800776Y-109694781D01*
X136618386Y-109787715D01*
X136452786Y-109908028D01*
X136308028Y-110052786D01*
X136187715Y-110218386D01*
X136094781Y-110400776D01*
X136031522Y-110595465D01*
X135999500Y-110797648D01*
X118050500Y-110797648D01*
X118050500Y-110631989D01*
X118019693Y-110397986D01*
X117958606Y-110170007D01*
X117868284Y-109951951D01*
X117868282Y-109951948D01*
X117868280Y-109951943D01*
X117826118Y-109878918D01*
X117750273Y-109747550D01*
X117670658Y-109643793D01*
X117606593Y-109560302D01*
X117606587Y-109560295D01*
X117439704Y-109393412D01*
X117439697Y-109393406D01*
X117252454Y-109249730D01*
X117252453Y-109249729D01*
X117252450Y-109249727D01*
X117170957Y-109202677D01*
X117048056Y-109131719D01*
X117048045Y-109131714D01*
X116829993Y-109041394D01*
X116602010Y-108980306D01*
X116368020Y-108949501D01*
X116368017Y-108949500D01*
X116368011Y-108949500D01*
X116131989Y-108949500D01*
X116131983Y-108949500D01*
X116131979Y-108949501D01*
X115897989Y-108980306D01*
X115670006Y-109041394D01*
X115451954Y-109131714D01*
X115451943Y-109131719D01*
X115260909Y-109242014D01*
X115250767Y-109247870D01*
X115247545Y-109249730D01*
X115060302Y-109393406D01*
X115060295Y-109393412D01*
X114893412Y-109560295D01*
X114893406Y-109560302D01*
X114749730Y-109747545D01*
X114631719Y-109951943D01*
X114631714Y-109951954D01*
X114541394Y-110170006D01*
X114480306Y-110397989D01*
X114449501Y-110631979D01*
X114449500Y-110631995D01*
X110500500Y-110631995D01*
X110500500Y-107552135D01*
X133499500Y-107552135D01*
X133499500Y-109247870D01*
X133499501Y-109247876D01*
X133505908Y-109307483D01*
X133556202Y-109442328D01*
X133556206Y-109442335D01*
X133642452Y-109557544D01*
X133642455Y-109557547D01*
X133757664Y-109643793D01*
X133757671Y-109643797D01*
X133892517Y-109694091D01*
X133892516Y-109694091D01*
X133898925Y-109694780D01*
X133952127Y-109700500D01*
X135647872Y-109700499D01*
X135707483Y-109694091D01*
X135842331Y-109643796D01*
X135957546Y-109557546D01*
X136043796Y-109442331D01*
X136094091Y-109307483D01*
X136100500Y-109247873D01*
X136100499Y-108297648D01*
X138499500Y-108297648D01*
X138499500Y-108502351D01*
X138531522Y-108704534D01*
X138594781Y-108899223D01*
X138636096Y-108980306D01*
X138680394Y-109067246D01*
X138687715Y-109081613D01*
X138808028Y-109247213D01*
X138952786Y-109391971D01*
X139100790Y-109499500D01*
X139118390Y-109512287D01*
X139207212Y-109557544D01*
X139300776Y-109605218D01*
X139300778Y-109605218D01*
X139300781Y-109605220D01*
X139405137Y-109639127D01*
X139495465Y-109668477D01*
X139571223Y-109680476D01*
X139697648Y-109700500D01*
X139697649Y-109700500D01*
X139902351Y-109700500D01*
X139902352Y-109700500D01*
X140104534Y-109668477D01*
X140299219Y-109605220D01*
X140481610Y-109512287D01*
X140577901Y-109442328D01*
X140647213Y-109391971D01*
X140647215Y-109391968D01*
X140647219Y-109391966D01*
X140791966Y-109247219D01*
X140791968Y-109247215D01*
X140791971Y-109247213D01*
X140875883Y-109131716D01*
X140912287Y-109081610D01*
X141005220Y-108899219D01*
X141068477Y-108704534D01*
X141100500Y-108502352D01*
X141100500Y-108297648D01*
X141068477Y-108095466D01*
X141005220Y-107900781D01*
X141005218Y-107900778D01*
X141005218Y-107900776D01*
X140971503Y-107834607D01*
X140912287Y-107718390D01*
X140911665Y-107717534D01*
X140907446Y-107711726D01*
X140858032Y-107643713D01*
X154609500Y-107643713D01*
X154609500Y-107856286D01*
X154642753Y-108066239D01*
X154708444Y-108268414D01*
X154804951Y-108457820D01*
X154929890Y-108629786D01*
X155080213Y-108780109D01*
X155252179Y-108905048D01*
X155252181Y-108905049D01*
X155252184Y-108905051D01*
X155441588Y-109001557D01*
X155643757Y-109067246D01*
X155853713Y-109100500D01*
X155853714Y-109100500D01*
X156066286Y-109100500D01*
X156066287Y-109100500D01*
X156276243Y-109067246D01*
X156478412Y-109001557D01*
X156667816Y-108905051D01*
X156754138Y-108842335D01*
X156839786Y-108780109D01*
X156839788Y-108780106D01*
X156839792Y-108780104D01*
X156990104Y-108629792D01*
X156990106Y-108629788D01*
X156990109Y-108629786D01*
X157115048Y-108457820D01*
X157115047Y-108457820D01*
X157115051Y-108457816D01*
X157119514Y-108449054D01*
X157167488Y-108398259D01*
X157235308Y-108381463D01*
X157301444Y-108403999D01*
X157340486Y-108449056D01*
X157344951Y-108457820D01*
X157469890Y-108629786D01*
X157620213Y-108780109D01*
X157792179Y-108905048D01*
X157792181Y-108905049D01*
X157792184Y-108905051D01*
X157981588Y-109001557D01*
X158183757Y-109067246D01*
X158393713Y-109100500D01*
X158393714Y-109100500D01*
X158606286Y-109100500D01*
X158606287Y-109100500D01*
X158816243Y-109067246D01*
X159018412Y-109001557D01*
X159207816Y-108905051D01*
X159294138Y-108842335D01*
X159379786Y-108780109D01*
X159379788Y-108780106D01*
X159379792Y-108780104D01*
X159530104Y-108629792D01*
X159530106Y-108629788D01*
X159530109Y-108629786D01*
X159655048Y-108457820D01*
X159655047Y-108457820D01*
X159655051Y-108457816D01*
X159659514Y-108449054D01*
X159707488Y-108398259D01*
X159775308Y-108381463D01*
X159841444Y-108403999D01*
X159880486Y-108449056D01*
X159884951Y-108457820D01*
X160009890Y-108629786D01*
X160160213Y-108780109D01*
X160332179Y-108905048D01*
X160332181Y-108905049D01*
X160332184Y-108905051D01*
X160521588Y-109001557D01*
X160723757Y-109067246D01*
X160933713Y-109100500D01*
X160933714Y-109100500D01*
X161146286Y-109100500D01*
X161146287Y-109100500D01*
X161356243Y-109067246D01*
X161558412Y-109001557D01*
X161747816Y-108905051D01*
X161834138Y-108842335D01*
X161919786Y-108780109D01*
X161919788Y-108780106D01*
X161919792Y-108780104D01*
X162070104Y-108629792D01*
X162070106Y-108629788D01*
X162070109Y-108629786D01*
X162195048Y-108457820D01*
X162195047Y-108457820D01*
X162195051Y-108457816D01*
X162199514Y-108449054D01*
X162247488Y-108398259D01*
X162315308Y-108381463D01*
X162381444Y-108403999D01*
X162420486Y-108449056D01*
X162424951Y-108457820D01*
X162549890Y-108629786D01*
X162700213Y-108780109D01*
X162872179Y-108905048D01*
X162872181Y-108905049D01*
X162872184Y-108905051D01*
X163061588Y-109001557D01*
X163263757Y-109067246D01*
X163473713Y-109100500D01*
X163473714Y-109100500D01*
X163686286Y-109100500D01*
X163686287Y-109100500D01*
X163896243Y-109067246D01*
X164098412Y-109001557D01*
X164287816Y-108905051D01*
X164459792Y-108780104D01*
X164573329Y-108666566D01*
X164634648Y-108633084D01*
X164704340Y-108638068D01*
X164760274Y-108679939D01*
X164777189Y-108710917D01*
X164826202Y-108842328D01*
X164826206Y-108842335D01*
X164912452Y-108957544D01*
X164912455Y-108957547D01*
X165027664Y-109043793D01*
X165027671Y-109043797D01*
X165162517Y-109094091D01*
X165162516Y-109094091D01*
X165169444Y-109094835D01*
X165222127Y-109100500D01*
X167017872Y-109100499D01*
X167077483Y-109094091D01*
X167212331Y-109043796D01*
X167327546Y-108957546D01*
X167413796Y-108842331D01*
X167464091Y-108707483D01*
X167470500Y-108647873D01*
X167470499Y-106852128D01*
X167464091Y-106792517D01*
X167462810Y-106789083D01*
X167413797Y-106657671D01*
X167413793Y-106657664D01*
X167327547Y-106542455D01*
X167327544Y-106542452D01*
X167212335Y-106456206D01*
X167212328Y-106456202D01*
X167077482Y-106405908D01*
X167077483Y-106405908D01*
X167017883Y-106399501D01*
X167017881Y-106399500D01*
X167017873Y-106399500D01*
X167017864Y-106399500D01*
X165222129Y-106399500D01*
X165222123Y-106399501D01*
X165162516Y-106405908D01*
X165027671Y-106456202D01*
X165027664Y-106456206D01*
X164912455Y-106542452D01*
X164912452Y-106542455D01*
X164826206Y-106657664D01*
X164826203Y-106657669D01*
X164777189Y-106789083D01*
X164735317Y-106845016D01*
X164669853Y-106869433D01*
X164601580Y-106854581D01*
X164573326Y-106833430D01*
X164459786Y-106719890D01*
X164287820Y-106594951D01*
X164098414Y-106498444D01*
X164098413Y-106498443D01*
X164098412Y-106498443D01*
X163896243Y-106432754D01*
X163896241Y-106432753D01*
X163896240Y-106432753D01*
X163734957Y-106407208D01*
X163686287Y-106399500D01*
X163473713Y-106399500D01*
X163425042Y-106407208D01*
X163263760Y-106432753D01*
X163061585Y-106498444D01*
X162872179Y-106594951D01*
X162700213Y-106719890D01*
X162549890Y-106870213D01*
X162424949Y-107042182D01*
X162420484Y-107050946D01*
X162372509Y-107101742D01*
X162304688Y-107118536D01*
X162238553Y-107095998D01*
X162199516Y-107050946D01*
X162195050Y-107042182D01*
X162070109Y-106870213D01*
X161919786Y-106719890D01*
X161747820Y-106594951D01*
X161558414Y-106498444D01*
X161558413Y-106498443D01*
X161558412Y-106498443D01*
X161356243Y-106432754D01*
X161356241Y-106432753D01*
X161356240Y-106432753D01*
X161194957Y-106407208D01*
X161146287Y-106399500D01*
X160933713Y-106399500D01*
X160885042Y-106407208D01*
X160723760Y-106432753D01*
X160521585Y-106498444D01*
X160332179Y-106594951D01*
X160160213Y-106719890D01*
X160009890Y-106870213D01*
X159884949Y-107042182D01*
X159880484Y-107050946D01*
X159832509Y-107101742D01*
X159764688Y-107118536D01*
X159698553Y-107095998D01*
X159659516Y-107050946D01*
X159655050Y-107042182D01*
X159530109Y-106870213D01*
X159379786Y-106719890D01*
X159207820Y-106594951D01*
X159018414Y-106498444D01*
X159018413Y-106498443D01*
X159018412Y-106498443D01*
X158816243Y-106432754D01*
X158816241Y-106432753D01*
X158816240Y-106432753D01*
X158654957Y-106407208D01*
X158606287Y-106399500D01*
X158393713Y-106399500D01*
X158345042Y-106407208D01*
X158183760Y-106432753D01*
X157981585Y-106498444D01*
X157792179Y-106594951D01*
X157620213Y-106719890D01*
X157469890Y-106870213D01*
X157344949Y-107042182D01*
X157340484Y-107050946D01*
X157292509Y-107101742D01*
X157224688Y-107118536D01*
X157158553Y-107095998D01*
X157119516Y-107050946D01*
X157115050Y-107042182D01*
X156990109Y-106870213D01*
X156839786Y-106719890D01*
X156667820Y-106594951D01*
X156478414Y-106498444D01*
X156478413Y-106498443D01*
X156478412Y-106498443D01*
X156276243Y-106432754D01*
X156276241Y-106432753D01*
X156276240Y-106432753D01*
X156114957Y-106407208D01*
X156066287Y-106399500D01*
X155853713Y-106399500D01*
X155805042Y-106407208D01*
X155643760Y-106432753D01*
X155441585Y-106498444D01*
X155252179Y-106594951D01*
X155080213Y-106719890D01*
X154929890Y-106870213D01*
X154804951Y-107042179D01*
X154708444Y-107231585D01*
X154642753Y-107433760D01*
X154609500Y-107643713D01*
X140858032Y-107643713D01*
X140791971Y-107552786D01*
X140647213Y-107408028D01*
X140481613Y-107287715D01*
X140481612Y-107287714D01*
X140481610Y-107287713D01*
X140408122Y-107250269D01*
X140299223Y-107194781D01*
X140104534Y-107131522D01*
X139916507Y-107101742D01*
X139902352Y-107099500D01*
X139697648Y-107099500D01*
X139683493Y-107101742D01*
X139495465Y-107131522D01*
X139300776Y-107194781D01*
X139118386Y-107287715D01*
X138952786Y-107408028D01*
X138808028Y-107552786D01*
X138687715Y-107718386D01*
X138594781Y-107900776D01*
X138531522Y-108095465D01*
X138499500Y-108297648D01*
X136100499Y-108297648D01*
X136100499Y-107552128D01*
X136094091Y-107492517D01*
X136043796Y-107357669D01*
X136043795Y-107357668D01*
X136043793Y-107357664D01*
X135957547Y-107242455D01*
X135957544Y-107242452D01*
X135842335Y-107156206D01*
X135842328Y-107156202D01*
X135707482Y-107105908D01*
X135707483Y-107105908D01*
X135647883Y-107099501D01*
X135647881Y-107099500D01*
X135647873Y-107099500D01*
X135647864Y-107099500D01*
X133952129Y-107099500D01*
X133952123Y-107099501D01*
X133892516Y-107105908D01*
X133757671Y-107156202D01*
X133757664Y-107156206D01*
X133642455Y-107242452D01*
X133642452Y-107242455D01*
X133556206Y-107357664D01*
X133556202Y-107357671D01*
X133505908Y-107492517D01*
X133502987Y-107519693D01*
X133499501Y-107552123D01*
X133499500Y-107552135D01*
X110500500Y-107552135D01*
X110500500Y-105631995D01*
X114449500Y-105631995D01*
X114449500Y-105868004D01*
X114449501Y-105868020D01*
X114480306Y-106102010D01*
X114541394Y-106329993D01*
X114631714Y-106548045D01*
X114631719Y-106548056D01*
X114695002Y-106657664D01*
X114749727Y-106752450D01*
X114749729Y-106752453D01*
X114749730Y-106752454D01*
X114893406Y-106939697D01*
X114893412Y-106939704D01*
X115060295Y-107106587D01*
X115060302Y-107106593D01*
X115092790Y-107131522D01*
X115247550Y-107250273D01*
X115363551Y-107317246D01*
X115451943Y-107368280D01*
X115451948Y-107368282D01*
X115451951Y-107368284D01*
X115670007Y-107458606D01*
X115897986Y-107519693D01*
X116131989Y-107550500D01*
X116131996Y-107550500D01*
X116368004Y-107550500D01*
X116368011Y-107550500D01*
X116602014Y-107519693D01*
X116829993Y-107458606D01*
X117048049Y-107368284D01*
X117252450Y-107250273D01*
X117439699Y-107106592D01*
X117606592Y-106939699D01*
X117750273Y-106752450D01*
X117868284Y-106548049D01*
X117958606Y-106329993D01*
X118019693Y-106102014D01*
X118050500Y-105868011D01*
X118050500Y-105656379D01*
X123049500Y-105656379D01*
X123049500Y-105843620D01*
X123086025Y-106027243D01*
X123086027Y-106027251D01*
X123157676Y-106200228D01*
X123157681Y-106200237D01*
X123261697Y-106355907D01*
X123261700Y-106355911D01*
X123394088Y-106488299D01*
X123394092Y-106488302D01*
X123549762Y-106592318D01*
X123549768Y-106592321D01*
X123549769Y-106592322D01*
X123722749Y-106663973D01*
X123906379Y-106700499D01*
X123906383Y-106700500D01*
X123906384Y-106700500D01*
X124093617Y-106700500D01*
X124093618Y-106700499D01*
X124277251Y-106663973D01*
X124450231Y-106592322D01*
X124605908Y-106488302D01*
X124738302Y-106355908D01*
X124842322Y-106200231D01*
X124913973Y-106027251D01*
X124940535Y-105893713D01*
X145609500Y-105893713D01*
X145609500Y-106106287D01*
X145642754Y-106316243D01*
X145688230Y-106456204D01*
X145708444Y-106518414D01*
X145804951Y-106707820D01*
X145929890Y-106879786D01*
X146080213Y-107030109D01*
X146252179Y-107155048D01*
X146252181Y-107155049D01*
X146252184Y-107155051D01*
X146441588Y-107251557D01*
X146643757Y-107317246D01*
X146853713Y-107350500D01*
X146853714Y-107350500D01*
X147066286Y-107350500D01*
X147066287Y-107350500D01*
X147276243Y-107317246D01*
X147478412Y-107251557D01*
X147667816Y-107155051D01*
X147839792Y-107030104D01*
X147953329Y-106916566D01*
X148014648Y-106883084D01*
X148084340Y-106888068D01*
X148140274Y-106929939D01*
X148157189Y-106960917D01*
X148206202Y-107092328D01*
X148206206Y-107092335D01*
X148292452Y-107207544D01*
X148292455Y-107207547D01*
X148407664Y-107293793D01*
X148407671Y-107293797D01*
X148542517Y-107344091D01*
X148542516Y-107344091D01*
X148549444Y-107344835D01*
X148602127Y-107350500D01*
X150397872Y-107350499D01*
X150457483Y-107344091D01*
X150592331Y-107293796D01*
X150707546Y-107207546D01*
X150793796Y-107092331D01*
X150844091Y-106957483D01*
X150850500Y-106897873D01*
X150850499Y-105102128D01*
X150844091Y-105042517D01*
X150842810Y-105039083D01*
X150793797Y-104907671D01*
X150793793Y-104907664D01*
X150707547Y-104792455D01*
X150707544Y-104792452D01*
X150592335Y-104706206D01*
X150592328Y-104706202D01*
X150457482Y-104655908D01*
X150457483Y-104655908D01*
X150397883Y-104649501D01*
X150397881Y-104649500D01*
X150397873Y-104649500D01*
X150397864Y-104649500D01*
X148602129Y-104649500D01*
X148602123Y-104649501D01*
X148542516Y-104655908D01*
X148407671Y-104706202D01*
X148407664Y-104706206D01*
X148292455Y-104792452D01*
X148292452Y-104792455D01*
X148206206Y-104907664D01*
X148206203Y-104907669D01*
X148157189Y-105039083D01*
X148115317Y-105095016D01*
X148049853Y-105119433D01*
X147981580Y-105104581D01*
X147953326Y-105083430D01*
X147839786Y-104969890D01*
X147667820Y-104844951D01*
X147478414Y-104748444D01*
X147478413Y-104748443D01*
X147478412Y-104748443D01*
X147276243Y-104682754D01*
X147276241Y-104682753D01*
X147276240Y-104682753D01*
X147114957Y-104657208D01*
X147066287Y-104649500D01*
X146853713Y-104649500D01*
X146805042Y-104657208D01*
X146643760Y-104682753D01*
X146441585Y-104748444D01*
X146252179Y-104844951D01*
X146080213Y-104969890D01*
X145929890Y-105120213D01*
X145804951Y-105292179D01*
X145708444Y-105481585D01*
X145642753Y-105683760D01*
X145613572Y-105868004D01*
X145609500Y-105893713D01*
X124940535Y-105893713D01*
X124950500Y-105843616D01*
X124950500Y-105656384D01*
X124913973Y-105472749D01*
X124842322Y-105299769D01*
X124842321Y-105299768D01*
X124842318Y-105299762D01*
X124738302Y-105144092D01*
X124738299Y-105144088D01*
X124736819Y-105142608D01*
X124736291Y-105141641D01*
X124734437Y-105139382D01*
X124734865Y-105139030D01*
X124703334Y-105081285D01*
X124700500Y-105054927D01*
X124700500Y-101491519D01*
X124720185Y-101424480D01*
X124736819Y-101403838D01*
X126008755Y-100131902D01*
X130409500Y-100131902D01*
X130409500Y-100368097D01*
X130446446Y-100601368D01*
X130519433Y-100825996D01*
X130626657Y-101036433D01*
X130765483Y-101227510D01*
X130932490Y-101394517D01*
X131123567Y-101533343D01*
X131222991Y-101584002D01*
X131334003Y-101640566D01*
X131334005Y-101640566D01*
X131334008Y-101640568D01*
X131454412Y-101679689D01*
X131558631Y-101713553D01*
X131791903Y-101750500D01*
X131791908Y-101750500D01*
X132028097Y-101750500D01*
X132261368Y-101713553D01*
X132485992Y-101640568D01*
X132696433Y-101533343D01*
X132887510Y-101394517D01*
X133054517Y-101227510D01*
X133079682Y-101192872D01*
X133135011Y-101150207D01*
X133204625Y-101144228D01*
X133266420Y-101176833D01*
X133280315Y-101192870D01*
X133305483Y-101227510D01*
X133472490Y-101394517D01*
X133663567Y-101533343D01*
X133762991Y-101584002D01*
X133874003Y-101640566D01*
X133874005Y-101640566D01*
X133874008Y-101640568D01*
X133994412Y-101679689D01*
X134098631Y-101713553D01*
X134331903Y-101750500D01*
X134331908Y-101750500D01*
X134568097Y-101750500D01*
X134801368Y-101713553D01*
X135025992Y-101640568D01*
X135236433Y-101533343D01*
X135427510Y-101394517D01*
X135594517Y-101227510D01*
X135619682Y-101192872D01*
X135675011Y-101150207D01*
X135744625Y-101144228D01*
X135806420Y-101176833D01*
X135820315Y-101192870D01*
X135845483Y-101227510D01*
X136012490Y-101394517D01*
X136203567Y-101533343D01*
X136302991Y-101584002D01*
X136414003Y-101640566D01*
X136414005Y-101640566D01*
X136414008Y-101640568D01*
X136534412Y-101679689D01*
X136638631Y-101713553D01*
X136871903Y-101750500D01*
X136871908Y-101750500D01*
X137108097Y-101750500D01*
X137341368Y-101713553D01*
X137565992Y-101640568D01*
X137776433Y-101533343D01*
X137967510Y-101394517D01*
X138134517Y-101227510D01*
X138159682Y-101192872D01*
X138215011Y-101150207D01*
X138284625Y-101144228D01*
X138346420Y-101176833D01*
X138360315Y-101192870D01*
X138385483Y-101227510D01*
X138552490Y-101394517D01*
X138743567Y-101533343D01*
X138842991Y-101584002D01*
X138954003Y-101640566D01*
X138954005Y-101640566D01*
X138954008Y-101640568D01*
X139074412Y-101679689D01*
X139178631Y-101713553D01*
X139411903Y-101750500D01*
X139411908Y-101750500D01*
X139648097Y-101750500D01*
X139881368Y-101713553D01*
X140105992Y-101640568D01*
X140316433Y-101533343D01*
X140507510Y-101394517D01*
X140674517Y-101227510D01*
X140699682Y-101192872D01*
X140755011Y-101150207D01*
X140824625Y-101144228D01*
X140886420Y-101176833D01*
X140900315Y-101192870D01*
X140925483Y-101227510D01*
X141092490Y-101394517D01*
X141283567Y-101533343D01*
X141382991Y-101584002D01*
X141494003Y-101640566D01*
X141494005Y-101640566D01*
X141494008Y-101640568D01*
X141614412Y-101679689D01*
X141718631Y-101713553D01*
X141951903Y-101750500D01*
X141951908Y-101750500D01*
X142188097Y-101750500D01*
X142421368Y-101713553D01*
X142645992Y-101640568D01*
X142856433Y-101533343D01*
X143047510Y-101394517D01*
X143214517Y-101227510D01*
X143239682Y-101192872D01*
X143295011Y-101150207D01*
X143364625Y-101144228D01*
X143426420Y-101176833D01*
X143440315Y-101192870D01*
X143465483Y-101227510D01*
X143632490Y-101394517D01*
X143823567Y-101533343D01*
X143922991Y-101584002D01*
X144034003Y-101640566D01*
X144034005Y-101640566D01*
X144034008Y-101640568D01*
X144154412Y-101679689D01*
X144258631Y-101713553D01*
X144491903Y-101750500D01*
X144491908Y-101750500D01*
X144728097Y-101750500D01*
X144961368Y-101713553D01*
X145185992Y-101640568D01*
X145396433Y-101533343D01*
X145587510Y-101394517D01*
X145754517Y-101227510D01*
X145779682Y-101192872D01*
X145835011Y-101150207D01*
X145904625Y-101144228D01*
X145966420Y-101176833D01*
X145980315Y-101192870D01*
X146005483Y-101227510D01*
X146172490Y-101394517D01*
X146363567Y-101533343D01*
X146462991Y-101584002D01*
X146574003Y-101640566D01*
X146574005Y-101640566D01*
X146574008Y-101640568D01*
X146694412Y-101679689D01*
X146798631Y-101713553D01*
X147031903Y-101750500D01*
X147031908Y-101750500D01*
X147268097Y-101750500D01*
X147501368Y-101713553D01*
X147725992Y-101640568D01*
X147936433Y-101533343D01*
X148127510Y-101394517D01*
X148294517Y-101227510D01*
X148319682Y-101192872D01*
X148375011Y-101150207D01*
X148444625Y-101144228D01*
X148506420Y-101176833D01*
X148520315Y-101192870D01*
X148545483Y-101227510D01*
X148712490Y-101394517D01*
X148903567Y-101533343D01*
X149002991Y-101584002D01*
X149114003Y-101640566D01*
X149114005Y-101640566D01*
X149114008Y-101640568D01*
X149234412Y-101679689D01*
X149338631Y-101713553D01*
X149571903Y-101750500D01*
X149571908Y-101750500D01*
X149808097Y-101750500D01*
X150041368Y-101713553D01*
X150265992Y-101640568D01*
X150476433Y-101533343D01*
X150667510Y-101394517D01*
X150834517Y-101227510D01*
X150859682Y-101192872D01*
X150915011Y-101150207D01*
X150984625Y-101144228D01*
X151046420Y-101176833D01*
X151060315Y-101192870D01*
X151085483Y-101227510D01*
X151252490Y-101394517D01*
X151443567Y-101533343D01*
X151542991Y-101584002D01*
X151654003Y-101640566D01*
X151654005Y-101640566D01*
X151654008Y-101640568D01*
X151774412Y-101679689D01*
X151878631Y-101713553D01*
X152111903Y-101750500D01*
X152111908Y-101750500D01*
X152348097Y-101750500D01*
X152581368Y-101713553D01*
X152805992Y-101640568D01*
X153016433Y-101533343D01*
X153207510Y-101394517D01*
X153374517Y-101227510D01*
X153399682Y-101192872D01*
X153455011Y-101150207D01*
X153524625Y-101144228D01*
X153586420Y-101176833D01*
X153600315Y-101192870D01*
X153625483Y-101227510D01*
X153792490Y-101394517D01*
X153983567Y-101533343D01*
X154082991Y-101584002D01*
X154194003Y-101640566D01*
X154194005Y-101640566D01*
X154194008Y-101640568D01*
X154314412Y-101679689D01*
X154418631Y-101713553D01*
X154651903Y-101750500D01*
X154651908Y-101750500D01*
X154888097Y-101750500D01*
X155121368Y-101713553D01*
X155345992Y-101640568D01*
X155556433Y-101533343D01*
X155747510Y-101394517D01*
X155914517Y-101227510D01*
X155939682Y-101192872D01*
X155995011Y-101150207D01*
X156064625Y-101144228D01*
X156126420Y-101176833D01*
X156140315Y-101192870D01*
X156165483Y-101227510D01*
X156332490Y-101394517D01*
X156523567Y-101533343D01*
X156622991Y-101584002D01*
X156734003Y-101640566D01*
X156734005Y-101640566D01*
X156734008Y-101640568D01*
X156854412Y-101679689D01*
X156958631Y-101713553D01*
X157191903Y-101750500D01*
X157191908Y-101750500D01*
X157428097Y-101750500D01*
X157661368Y-101713553D01*
X157885992Y-101640568D01*
X158096433Y-101533343D01*
X158287510Y-101394517D01*
X158454517Y-101227510D01*
X158479682Y-101192872D01*
X158535011Y-101150207D01*
X158604625Y-101144228D01*
X158666420Y-101176833D01*
X158680315Y-101192870D01*
X158705483Y-101227510D01*
X158872490Y-101394517D01*
X159063567Y-101533343D01*
X159162991Y-101584002D01*
X159274003Y-101640566D01*
X159274005Y-101640566D01*
X159274008Y-101640568D01*
X159394412Y-101679689D01*
X159498631Y-101713553D01*
X159731903Y-101750500D01*
X159731908Y-101750500D01*
X159968097Y-101750500D01*
X160201368Y-101713553D01*
X160425992Y-101640568D01*
X160636433Y-101533343D01*
X160827510Y-101394517D01*
X160994517Y-101227510D01*
X161019682Y-101192872D01*
X161075011Y-101150207D01*
X161144625Y-101144228D01*
X161206420Y-101176833D01*
X161220315Y-101192870D01*
X161245483Y-101227510D01*
X161412490Y-101394517D01*
X161603567Y-101533343D01*
X161702991Y-101584002D01*
X161814003Y-101640566D01*
X161814005Y-101640566D01*
X161814008Y-101640568D01*
X161934412Y-101679689D01*
X162038631Y-101713553D01*
X162271903Y-101750500D01*
X162271908Y-101750500D01*
X162508097Y-101750500D01*
X162741368Y-101713553D01*
X162965992Y-101640568D01*
X163176433Y-101533343D01*
X163367510Y-101394517D01*
X163534517Y-101227510D01*
X163559682Y-101192872D01*
X163615011Y-101150207D01*
X163684625Y-101144228D01*
X163746420Y-101176833D01*
X163760315Y-101192870D01*
X163785483Y-101227510D01*
X163952490Y-101394517D01*
X164143567Y-101533343D01*
X164242991Y-101584002D01*
X164354003Y-101640566D01*
X164354005Y-101640566D01*
X164354008Y-101640568D01*
X164474412Y-101679689D01*
X164578631Y-101713553D01*
X164811903Y-101750500D01*
X164811908Y-101750500D01*
X165048097Y-101750500D01*
X165281368Y-101713553D01*
X165505992Y-101640568D01*
X165716433Y-101533343D01*
X165907510Y-101394517D01*
X166074517Y-101227510D01*
X166213343Y-101036433D01*
X166320568Y-100825992D01*
X166393553Y-100601368D01*
X166430500Y-100368097D01*
X166430500Y-100131902D01*
X166393553Y-99898631D01*
X166320566Y-99674003D01*
X166213342Y-99463566D01*
X166199999Y-99445201D01*
X166074517Y-99272490D01*
X165907510Y-99105483D01*
X165716433Y-98966657D01*
X165703368Y-98960000D01*
X165505996Y-98859433D01*
X165281368Y-98786446D01*
X165048097Y-98749500D01*
X165048092Y-98749500D01*
X164811908Y-98749500D01*
X164811903Y-98749500D01*
X164578631Y-98786446D01*
X164354003Y-98859433D01*
X164143566Y-98966657D01*
X164076771Y-99015187D01*
X163952490Y-99105483D01*
X163952488Y-99105485D01*
X163952487Y-99105485D01*
X163785484Y-99272488D01*
X163760318Y-99307127D01*
X163704987Y-99349792D01*
X163635374Y-99355771D01*
X163573579Y-99323165D01*
X163559682Y-99307127D01*
X163534517Y-99272490D01*
X163367510Y-99105483D01*
X163176433Y-98966657D01*
X163163368Y-98960000D01*
X162965996Y-98859433D01*
X162741368Y-98786446D01*
X162508097Y-98749500D01*
X162508092Y-98749500D01*
X162271908Y-98749500D01*
X162271903Y-98749500D01*
X162038631Y-98786446D01*
X161814003Y-98859433D01*
X161603566Y-98966657D01*
X161536771Y-99015187D01*
X161412490Y-99105483D01*
X161412488Y-99105485D01*
X161412487Y-99105485D01*
X161245484Y-99272488D01*
X161220318Y-99307127D01*
X161164987Y-99349792D01*
X161095374Y-99355771D01*
X161033579Y-99323165D01*
X161019682Y-99307127D01*
X160994517Y-99272490D01*
X160827510Y-99105483D01*
X160636433Y-98966657D01*
X160623368Y-98960000D01*
X160425996Y-98859433D01*
X160201368Y-98786446D01*
X159968097Y-98749500D01*
X159968092Y-98749500D01*
X159731908Y-98749500D01*
X159731903Y-98749500D01*
X159498631Y-98786446D01*
X159274003Y-98859433D01*
X159063566Y-98966657D01*
X158996771Y-99015187D01*
X158872490Y-99105483D01*
X158872488Y-99105485D01*
X158872487Y-99105485D01*
X158705484Y-99272488D01*
X158680318Y-99307127D01*
X158624987Y-99349792D01*
X158555374Y-99355771D01*
X158493579Y-99323165D01*
X158479682Y-99307127D01*
X158454517Y-99272490D01*
X158287510Y-99105483D01*
X158096433Y-98966657D01*
X158083368Y-98960000D01*
X157885996Y-98859433D01*
X157661368Y-98786446D01*
X157428097Y-98749500D01*
X157428092Y-98749500D01*
X157191908Y-98749500D01*
X157191903Y-98749500D01*
X156958631Y-98786446D01*
X156734003Y-98859433D01*
X156523566Y-98966657D01*
X156456771Y-99015187D01*
X156332490Y-99105483D01*
X156332488Y-99105485D01*
X156332487Y-99105485D01*
X156165484Y-99272488D01*
X156140318Y-99307127D01*
X156084987Y-99349792D01*
X156015374Y-99355771D01*
X155953579Y-99323165D01*
X155939682Y-99307127D01*
X155914517Y-99272490D01*
X155747510Y-99105483D01*
X155556433Y-98966657D01*
X155543368Y-98960000D01*
X155345996Y-98859433D01*
X155121368Y-98786446D01*
X154888097Y-98749500D01*
X154888092Y-98749500D01*
X154651908Y-98749500D01*
X154651903Y-98749500D01*
X154418631Y-98786446D01*
X154194003Y-98859433D01*
X153983566Y-98966657D01*
X153916771Y-99015187D01*
X153792490Y-99105483D01*
X153792488Y-99105485D01*
X153792487Y-99105485D01*
X153625484Y-99272488D01*
X153600318Y-99307127D01*
X153544987Y-99349792D01*
X153475374Y-99355771D01*
X153413579Y-99323165D01*
X153399682Y-99307127D01*
X153374517Y-99272490D01*
X153207510Y-99105483D01*
X153016433Y-98966657D01*
X153003368Y-98960000D01*
X152805996Y-98859433D01*
X152581368Y-98786446D01*
X152348097Y-98749500D01*
X152348092Y-98749500D01*
X152111908Y-98749500D01*
X152111903Y-98749500D01*
X151878631Y-98786446D01*
X151654003Y-98859433D01*
X151443566Y-98966657D01*
X151376771Y-99015187D01*
X151252490Y-99105483D01*
X151252488Y-99105485D01*
X151252487Y-99105485D01*
X151085484Y-99272488D01*
X151060318Y-99307127D01*
X151004987Y-99349792D01*
X150935374Y-99355771D01*
X150873579Y-99323165D01*
X150859682Y-99307127D01*
X150834517Y-99272490D01*
X150667510Y-99105483D01*
X150476433Y-98966657D01*
X150463368Y-98960000D01*
X150265996Y-98859433D01*
X150041368Y-98786446D01*
X149808097Y-98749500D01*
X149808092Y-98749500D01*
X149571908Y-98749500D01*
X149571903Y-98749500D01*
X149338631Y-98786446D01*
X149114003Y-98859433D01*
X148903566Y-98966657D01*
X148836771Y-99015187D01*
X148712490Y-99105483D01*
X148712488Y-99105485D01*
X148712487Y-99105485D01*
X148545484Y-99272488D01*
X148520318Y-99307127D01*
X148464987Y-99349792D01*
X148395374Y-99355771D01*
X148333579Y-99323165D01*
X148319682Y-99307127D01*
X148294517Y-99272490D01*
X148127510Y-99105483D01*
X147936433Y-98966657D01*
X147923368Y-98960000D01*
X147725996Y-98859433D01*
X147501368Y-98786446D01*
X147268097Y-98749500D01*
X147268092Y-98749500D01*
X147031908Y-98749500D01*
X147031903Y-98749500D01*
X146798631Y-98786446D01*
X146574003Y-98859433D01*
X146363566Y-98966657D01*
X146296771Y-99015187D01*
X146172490Y-99105483D01*
X146172488Y-99105485D01*
X146172487Y-99105485D01*
X146005484Y-99272488D01*
X145980318Y-99307127D01*
X145924987Y-99349792D01*
X145855374Y-99355771D01*
X145793579Y-99323165D01*
X145779682Y-99307127D01*
X145754517Y-99272490D01*
X145587510Y-99105483D01*
X145396433Y-98966657D01*
X145383368Y-98960000D01*
X145185996Y-98859433D01*
X144961368Y-98786446D01*
X144728097Y-98749500D01*
X144728092Y-98749500D01*
X144491908Y-98749500D01*
X144491903Y-98749500D01*
X144258631Y-98786446D01*
X144034003Y-98859433D01*
X143823566Y-98966657D01*
X143756771Y-99015187D01*
X143632490Y-99105483D01*
X143632488Y-99105485D01*
X143632487Y-99105485D01*
X143465484Y-99272488D01*
X143440318Y-99307127D01*
X143384987Y-99349792D01*
X143315374Y-99355771D01*
X143253579Y-99323165D01*
X143239682Y-99307127D01*
X143214517Y-99272490D01*
X143047510Y-99105483D01*
X142856433Y-98966657D01*
X142843368Y-98960000D01*
X142645996Y-98859433D01*
X142421368Y-98786446D01*
X142188097Y-98749500D01*
X142188092Y-98749500D01*
X141951908Y-98749500D01*
X141951903Y-98749500D01*
X141718631Y-98786446D01*
X141494003Y-98859433D01*
X141283566Y-98966657D01*
X141216771Y-99015187D01*
X141092490Y-99105483D01*
X141092488Y-99105485D01*
X141092487Y-99105485D01*
X140925484Y-99272488D01*
X140900318Y-99307127D01*
X140844987Y-99349792D01*
X140775374Y-99355771D01*
X140713579Y-99323165D01*
X140699682Y-99307127D01*
X140674517Y-99272490D01*
X140507510Y-99105483D01*
X140316433Y-98966657D01*
X140303368Y-98960000D01*
X140105996Y-98859433D01*
X139881368Y-98786446D01*
X139648097Y-98749500D01*
X139648092Y-98749500D01*
X139411908Y-98749500D01*
X139411903Y-98749500D01*
X139178631Y-98786446D01*
X138954003Y-98859433D01*
X138743566Y-98966657D01*
X138676771Y-99015187D01*
X138552490Y-99105483D01*
X138552488Y-99105485D01*
X138552487Y-99105485D01*
X138385484Y-99272488D01*
X138360318Y-99307127D01*
X138304987Y-99349792D01*
X138235374Y-99355771D01*
X138173579Y-99323165D01*
X138159682Y-99307127D01*
X138134517Y-99272490D01*
X137967510Y-99105483D01*
X137776433Y-98966657D01*
X137763368Y-98960000D01*
X137565996Y-98859433D01*
X137341368Y-98786446D01*
X137108097Y-98749500D01*
X137108092Y-98749500D01*
X136871908Y-98749500D01*
X136871903Y-98749500D01*
X136638631Y-98786446D01*
X136414003Y-98859433D01*
X136203566Y-98966657D01*
X136136771Y-99015187D01*
X136012490Y-99105483D01*
X136012488Y-99105485D01*
X136012487Y-99105485D01*
X135845484Y-99272488D01*
X135820318Y-99307127D01*
X135764987Y-99349792D01*
X135695374Y-99355771D01*
X135633579Y-99323165D01*
X135619682Y-99307127D01*
X135594517Y-99272490D01*
X135427510Y-99105483D01*
X135236433Y-98966657D01*
X135223368Y-98960000D01*
X135025996Y-98859433D01*
X134801368Y-98786446D01*
X134568097Y-98749500D01*
X134568092Y-98749500D01*
X134331908Y-98749500D01*
X134331903Y-98749500D01*
X134098631Y-98786446D01*
X133874003Y-98859433D01*
X133663566Y-98966657D01*
X133596771Y-99015187D01*
X133472490Y-99105483D01*
X133472488Y-99105485D01*
X133472487Y-99105485D01*
X133305484Y-99272488D01*
X133280318Y-99307127D01*
X133224987Y-99349792D01*
X133155374Y-99355771D01*
X133093579Y-99323165D01*
X133079682Y-99307127D01*
X133054517Y-99272490D01*
X132887510Y-99105483D01*
X132696433Y-98966657D01*
X132683368Y-98960000D01*
X132485996Y-98859433D01*
X132261368Y-98786446D01*
X132028097Y-98749500D01*
X132028092Y-98749500D01*
X131791908Y-98749500D01*
X131791903Y-98749500D01*
X131558631Y-98786446D01*
X131334003Y-98859433D01*
X131123566Y-98966657D01*
X131056771Y-99015187D01*
X130932490Y-99105483D01*
X130932488Y-99105485D01*
X130932487Y-99105485D01*
X130765485Y-99272487D01*
X130765485Y-99272488D01*
X130765483Y-99272490D01*
X130709320Y-99349792D01*
X130626657Y-99463566D01*
X130519433Y-99674003D01*
X130446446Y-99898631D01*
X130409500Y-100131902D01*
X126008755Y-100131902D01*
X137153838Y-88986819D01*
X137215161Y-88953334D01*
X137241519Y-88950500D01*
X151554927Y-88950500D01*
X151621966Y-88970185D01*
X151642608Y-88986819D01*
X151644088Y-88988299D01*
X151644092Y-88988302D01*
X151799762Y-89092318D01*
X151799768Y-89092321D01*
X151799769Y-89092322D01*
X151972749Y-89163973D01*
X152156379Y-89200499D01*
X152156383Y-89200500D01*
X152156384Y-89200500D01*
X152343617Y-89200500D01*
X152343618Y-89200499D01*
X152527251Y-89163973D01*
X152700231Y-89092322D01*
X152855908Y-88988302D01*
X152988302Y-88855908D01*
X153092322Y-88700231D01*
X153163973Y-88527251D01*
X153200500Y-88343616D01*
X153200500Y-88156384D01*
X153163973Y-87972749D01*
X153092322Y-87799769D01*
X153092321Y-87799768D01*
X153092318Y-87799762D01*
X152988302Y-87644092D01*
X152988299Y-87644088D01*
X152855911Y-87511700D01*
X152855907Y-87511697D01*
X152700237Y-87407681D01*
X152700228Y-87407676D01*
X152527251Y-87336027D01*
X152527243Y-87336025D01*
X152343620Y-87299500D01*
X152343616Y-87299500D01*
X152156384Y-87299500D01*
X152156379Y-87299500D01*
X151972756Y-87336025D01*
X151972748Y-87336027D01*
X151799771Y-87407676D01*
X151799762Y-87407681D01*
X151644092Y-87511697D01*
X151644088Y-87511700D01*
X151642608Y-87513181D01*
X151641641Y-87513708D01*
X151639382Y-87515563D01*
X151639030Y-87515134D01*
X151581285Y-87546666D01*
X151554927Y-87549500D01*
X136831004Y-87549500D01*
X136695677Y-87576418D01*
X136695667Y-87576421D01*
X136568192Y-87629222D01*
X136453454Y-87705887D01*
X123455887Y-100703454D01*
X123379222Y-100818192D01*
X123326421Y-100945667D01*
X123326418Y-100945677D01*
X123299500Y-101081004D01*
X123299500Y-105054927D01*
X123279815Y-105121966D01*
X123263181Y-105142608D01*
X123261700Y-105144088D01*
X123261697Y-105144092D01*
X123157681Y-105299762D01*
X123157676Y-105299771D01*
X123086027Y-105472748D01*
X123086025Y-105472756D01*
X123049500Y-105656379D01*
X118050500Y-105656379D01*
X118050500Y-105631989D01*
X118019693Y-105397986D01*
X117958606Y-105170007D01*
X117868284Y-104951951D01*
X117868282Y-104951948D01*
X117868280Y-104951943D01*
X117826118Y-104878918D01*
X117750273Y-104747550D01*
X117691001Y-104670306D01*
X117606593Y-104560302D01*
X117606587Y-104560295D01*
X117439704Y-104393412D01*
X117439697Y-104393406D01*
X117252454Y-104249730D01*
X117252453Y-104249729D01*
X117252450Y-104249727D01*
X117170957Y-104202677D01*
X117048056Y-104131719D01*
X117048045Y-104131714D01*
X116829993Y-104041394D01*
X116602010Y-103980306D01*
X116368020Y-103949501D01*
X116368017Y-103949500D01*
X116368011Y-103949500D01*
X116131989Y-103949500D01*
X116131983Y-103949500D01*
X116131979Y-103949501D01*
X115897989Y-103980306D01*
X115670006Y-104041394D01*
X115451954Y-104131714D01*
X115451943Y-104131719D01*
X115247545Y-104249730D01*
X115060302Y-104393406D01*
X115060295Y-104393412D01*
X114893412Y-104560295D01*
X114893406Y-104560302D01*
X114749730Y-104747545D01*
X114749727Y-104747549D01*
X114749727Y-104747550D01*
X114749211Y-104748444D01*
X114631719Y-104951943D01*
X114631714Y-104951954D01*
X114541394Y-105170006D01*
X114480306Y-105397989D01*
X114449501Y-105631979D01*
X114449500Y-105631995D01*
X110500500Y-105631995D01*
X110500500Y-99649983D01*
X114449500Y-99649983D01*
X114449500Y-101850001D01*
X114449501Y-101850018D01*
X114460000Y-101952796D01*
X114460001Y-101952799D01*
X114515185Y-102119331D01*
X114515186Y-102119334D01*
X114607288Y-102268656D01*
X114731344Y-102392712D01*
X114880666Y-102484814D01*
X115047203Y-102539999D01*
X115149991Y-102550500D01*
X117350008Y-102550499D01*
X117452797Y-102539999D01*
X117619334Y-102484814D01*
X117768656Y-102392712D01*
X117892712Y-102268656D01*
X117984814Y-102119334D01*
X118039999Y-101952797D01*
X118050500Y-101850009D01*
X118050499Y-99649992D01*
X118039999Y-99547203D01*
X117984814Y-99380666D01*
X117892712Y-99231344D01*
X117768656Y-99107288D01*
X117619334Y-99015186D01*
X117452797Y-98960001D01*
X117452795Y-98960000D01*
X117350010Y-98949500D01*
X115149998Y-98949500D01*
X115149981Y-98949501D01*
X115047203Y-98960000D01*
X115047200Y-98960001D01*
X114880668Y-99015185D01*
X114880663Y-99015187D01*
X114731342Y-99107289D01*
X114607289Y-99231342D01*
X114515187Y-99380663D01*
X114515186Y-99380666D01*
X114460001Y-99547203D01*
X114460001Y-99547204D01*
X114460000Y-99547204D01*
X114449500Y-99649983D01*
X110500500Y-99649983D01*
X110500500Y-79853713D01*
X114899500Y-79853713D01*
X114899500Y-80066286D01*
X114932753Y-80276239D01*
X114998444Y-80478414D01*
X115094951Y-80667820D01*
X115219890Y-80839786D01*
X115370213Y-80990109D01*
X115542179Y-81115048D01*
X115542181Y-81115049D01*
X115542184Y-81115051D01*
X115551493Y-81119794D01*
X115602290Y-81167766D01*
X115619087Y-81235587D01*
X115596552Y-81301722D01*
X115551505Y-81340760D01*
X115542446Y-81345376D01*
X115542440Y-81345380D01*
X115488282Y-81384727D01*
X115488282Y-81384728D01*
X116120591Y-82017037D01*
X116057007Y-82034075D01*
X115942993Y-82099901D01*
X115849901Y-82192993D01*
X115784075Y-82307007D01*
X115767037Y-82370591D01*
X115134728Y-81738282D01*
X115134727Y-81738282D01*
X115095380Y-81792439D01*
X114998904Y-81981782D01*
X114933242Y-82183869D01*
X114933242Y-82183872D01*
X114900000Y-82393753D01*
X114900000Y-82606246D01*
X114933242Y-82816127D01*
X114933242Y-82816130D01*
X114998904Y-83018217D01*
X115095375Y-83207550D01*
X115134728Y-83261716D01*
X115767037Y-82629408D01*
X115784075Y-82692993D01*
X115849901Y-82807007D01*
X115942993Y-82900099D01*
X116057007Y-82965925D01*
X116120590Y-82982962D01*
X115450370Y-83653181D01*
X115389047Y-83686666D01*
X115362698Y-83689500D01*
X115352134Y-83689500D01*
X115352123Y-83689501D01*
X115292516Y-83695908D01*
X115157671Y-83746202D01*
X115157664Y-83746206D01*
X115042455Y-83832452D01*
X115042452Y-83832455D01*
X114956206Y-83947664D01*
X114956202Y-83947671D01*
X114905908Y-84082517D01*
X114899501Y-84142116D01*
X114899501Y-84142123D01*
X114899500Y-84142135D01*
X114899500Y-85937870D01*
X114899501Y-85937876D01*
X114905908Y-85997483D01*
X114956202Y-86132328D01*
X114956206Y-86132335D01*
X115042452Y-86247544D01*
X115042455Y-86247547D01*
X115157664Y-86333793D01*
X115157671Y-86333797D01*
X115292517Y-86384091D01*
X115292516Y-86384091D01*
X115299444Y-86384835D01*
X115352127Y-86390500D01*
X117147872Y-86390499D01*
X117207483Y-86384091D01*
X117342331Y-86333796D01*
X117457546Y-86247546D01*
X117543796Y-86132331D01*
X117594091Y-85997483D01*
X117600500Y-85937873D01*
X117600499Y-84142128D01*
X117594091Y-84082517D01*
X117552311Y-83970500D01*
X117543797Y-83947671D01*
X117543793Y-83947664D01*
X117457547Y-83832455D01*
X117457544Y-83832452D01*
X117342335Y-83746206D01*
X117342328Y-83746202D01*
X117207482Y-83695908D01*
X117207483Y-83695908D01*
X117147883Y-83689501D01*
X117147881Y-83689500D01*
X117147873Y-83689500D01*
X117147865Y-83689500D01*
X117137309Y-83689500D01*
X117070270Y-83669815D01*
X117049628Y-83653181D01*
X116379408Y-82982962D01*
X116442993Y-82965925D01*
X116557007Y-82900099D01*
X116650099Y-82807007D01*
X116715925Y-82692993D01*
X116732962Y-82629408D01*
X117365270Y-83261717D01*
X117365270Y-83261716D01*
X117404622Y-83207554D01*
X117501095Y-83018217D01*
X117566757Y-82816130D01*
X117566757Y-82816127D01*
X117600000Y-82606246D01*
X117600000Y-82393753D01*
X117566757Y-82183872D01*
X117566757Y-82183869D01*
X117501095Y-81981782D01*
X117404624Y-81792449D01*
X117365270Y-81738282D01*
X117365269Y-81738282D01*
X116732962Y-82370590D01*
X116715925Y-82307007D01*
X116650099Y-82192993D01*
X116557007Y-82099901D01*
X116442993Y-82034075D01*
X116379409Y-82017037D01*
X116974309Y-81422135D01*
X130409500Y-81422135D01*
X130409500Y-83517870D01*
X130409501Y-83517876D01*
X130415908Y-83577483D01*
X130466202Y-83712328D01*
X130466206Y-83712335D01*
X130552452Y-83827544D01*
X130552455Y-83827547D01*
X130667664Y-83913793D01*
X130667671Y-83913797D01*
X130802517Y-83964091D01*
X130802516Y-83964091D01*
X130809444Y-83964835D01*
X130862127Y-83970500D01*
X132957872Y-83970499D01*
X133017483Y-83964091D01*
X133152331Y-83913796D01*
X133267546Y-83827546D01*
X133353796Y-83712331D01*
X133353797Y-83712326D01*
X133358047Y-83704546D01*
X133361380Y-83706366D01*
X133392292Y-83664766D01*
X133457669Y-83640116D01*
X133525994Y-83654725D01*
X133539835Y-83663446D01*
X133663567Y-83753343D01*
X133762991Y-83804002D01*
X133874003Y-83860566D01*
X133874005Y-83860566D01*
X133874008Y-83860568D01*
X133994412Y-83899689D01*
X134098631Y-83933553D01*
X134331903Y-83970500D01*
X134331908Y-83970500D01*
X134568097Y-83970500D01*
X134801368Y-83933553D01*
X134802870Y-83933065D01*
X135025992Y-83860568D01*
X135236433Y-83753343D01*
X135427510Y-83614517D01*
X135594517Y-83447510D01*
X135641370Y-83383022D01*
X135645713Y-83378199D01*
X135670150Y-83363142D01*
X135692877Y-83345618D01*
X135700393Y-83344509D01*
X135705199Y-83341549D01*
X135718730Y-83341806D01*
X135747594Y-83337551D01*
X135767340Y-83339105D01*
X136498871Y-82607574D01*
X136514755Y-82666853D01*
X136581898Y-82783147D01*
X136676853Y-82878102D01*
X136793147Y-82945245D01*
X136852425Y-82961128D01*
X136120893Y-83692658D01*
X136203828Y-83752914D01*
X136414197Y-83860102D01*
X136638752Y-83933065D01*
X136638751Y-83933065D01*
X136871948Y-83970000D01*
X137108052Y-83970000D01*
X137341247Y-83933065D01*
X137565802Y-83860102D01*
X137776163Y-83752918D01*
X137776169Y-83752914D01*
X137859104Y-83692658D01*
X137859105Y-83692658D01*
X137127574Y-82961128D01*
X137186853Y-82945245D01*
X137303147Y-82878102D01*
X137398102Y-82783147D01*
X137465245Y-82666853D01*
X137481128Y-82607575D01*
X138212657Y-83339104D01*
X138232404Y-83337550D01*
X138300781Y-83351914D01*
X138342451Y-83388282D01*
X138385483Y-83447510D01*
X138552490Y-83614517D01*
X138743567Y-83753343D01*
X138842991Y-83804002D01*
X138954003Y-83860566D01*
X138954005Y-83860566D01*
X138954008Y-83860568D01*
X139074412Y-83899689D01*
X139178631Y-83933553D01*
X139411903Y-83970500D01*
X139411908Y-83970500D01*
X139648097Y-83970500D01*
X139881368Y-83933553D01*
X139882870Y-83933065D01*
X140105992Y-83860568D01*
X140316433Y-83753343D01*
X140507510Y-83614517D01*
X140674517Y-83447510D01*
X140699682Y-83412872D01*
X140755011Y-83370207D01*
X140824625Y-83364228D01*
X140886420Y-83396833D01*
X140900315Y-83412870D01*
X140925483Y-83447510D01*
X141092490Y-83614517D01*
X141283567Y-83753343D01*
X141382991Y-83804002D01*
X141494003Y-83860566D01*
X141494005Y-83860566D01*
X141494008Y-83860568D01*
X141614412Y-83899689D01*
X141718631Y-83933553D01*
X141951903Y-83970500D01*
X141951908Y-83970500D01*
X142188097Y-83970500D01*
X142421368Y-83933553D01*
X142422870Y-83933065D01*
X142645992Y-83860568D01*
X142856433Y-83753343D01*
X143047510Y-83614517D01*
X143214517Y-83447510D01*
X143239682Y-83412872D01*
X143295011Y-83370207D01*
X143364625Y-83364228D01*
X143426420Y-83396833D01*
X143440315Y-83412870D01*
X143465483Y-83447510D01*
X143632490Y-83614517D01*
X143823567Y-83753343D01*
X143922991Y-83804002D01*
X144034003Y-83860566D01*
X144034005Y-83860566D01*
X144034008Y-83860568D01*
X144154412Y-83899689D01*
X144258631Y-83933553D01*
X144491903Y-83970500D01*
X144491908Y-83970500D01*
X144728097Y-83970500D01*
X144961368Y-83933553D01*
X144962870Y-83933065D01*
X145185992Y-83860568D01*
X145396433Y-83753343D01*
X145587510Y-83614517D01*
X145754517Y-83447510D01*
X145779682Y-83412872D01*
X145835011Y-83370207D01*
X145904625Y-83364228D01*
X145966420Y-83396833D01*
X145980315Y-83412870D01*
X146005483Y-83447510D01*
X146172490Y-83614517D01*
X146363567Y-83753343D01*
X146462991Y-83804002D01*
X146574003Y-83860566D01*
X146574005Y-83860566D01*
X146574008Y-83860568D01*
X146694412Y-83899689D01*
X146798631Y-83933553D01*
X147031903Y-83970500D01*
X147031908Y-83970500D01*
X147268097Y-83970500D01*
X147501368Y-83933553D01*
X147502870Y-83933065D01*
X147725992Y-83860568D01*
X147936433Y-83753343D01*
X148127510Y-83614517D01*
X148294517Y-83447510D01*
X148319682Y-83412872D01*
X148375011Y-83370207D01*
X148444625Y-83364228D01*
X148506420Y-83396833D01*
X148520315Y-83412870D01*
X148545483Y-83447510D01*
X148712490Y-83614517D01*
X148903567Y-83753343D01*
X149002991Y-83804002D01*
X149114003Y-83860566D01*
X149114005Y-83860566D01*
X149114008Y-83860568D01*
X149234412Y-83899689D01*
X149338631Y-83933553D01*
X149571903Y-83970500D01*
X149571908Y-83970500D01*
X149808097Y-83970500D01*
X150041368Y-83933553D01*
X150042870Y-83933065D01*
X150265992Y-83860568D01*
X150476433Y-83753343D01*
X150667510Y-83614517D01*
X150834517Y-83447510D01*
X150859682Y-83412872D01*
X150915011Y-83370207D01*
X150984625Y-83364228D01*
X151046420Y-83396833D01*
X151060315Y-83412870D01*
X151085483Y-83447510D01*
X151252490Y-83614517D01*
X151443567Y-83753343D01*
X151542991Y-83804002D01*
X151654003Y-83860566D01*
X151654005Y-83860566D01*
X151654008Y-83860568D01*
X151774412Y-83899689D01*
X151878631Y-83933553D01*
X152111903Y-83970500D01*
X152111908Y-83970500D01*
X152348097Y-83970500D01*
X152581368Y-83933553D01*
X152582870Y-83933065D01*
X152805992Y-83860568D01*
X153016433Y-83753343D01*
X153207510Y-83614517D01*
X153374517Y-83447510D01*
X153399682Y-83412872D01*
X153455011Y-83370207D01*
X153524625Y-83364228D01*
X153586420Y-83396833D01*
X153600315Y-83412870D01*
X153625483Y-83447510D01*
X153792490Y-83614517D01*
X153983567Y-83753343D01*
X154082991Y-83804002D01*
X154194003Y-83860566D01*
X154194005Y-83860566D01*
X154194008Y-83860568D01*
X154314412Y-83899689D01*
X154418631Y-83933553D01*
X154651903Y-83970500D01*
X154651908Y-83970500D01*
X154888097Y-83970500D01*
X155121368Y-83933553D01*
X155122870Y-83933065D01*
X155345992Y-83860568D01*
X155556433Y-83753343D01*
X155747510Y-83614517D01*
X155914517Y-83447510D01*
X155939682Y-83412872D01*
X155995011Y-83370207D01*
X156064625Y-83364228D01*
X156126420Y-83396833D01*
X156140315Y-83412870D01*
X156165483Y-83447510D01*
X156332490Y-83614517D01*
X156523567Y-83753343D01*
X156622991Y-83804002D01*
X156734003Y-83860566D01*
X156734005Y-83860566D01*
X156734008Y-83860568D01*
X156854412Y-83899689D01*
X156958631Y-83933553D01*
X157191903Y-83970500D01*
X157191908Y-83970500D01*
X157428097Y-83970500D01*
X157661368Y-83933553D01*
X157662870Y-83933065D01*
X157885992Y-83860568D01*
X158096433Y-83753343D01*
X158287510Y-83614517D01*
X158454517Y-83447510D01*
X158479682Y-83412872D01*
X158535011Y-83370207D01*
X158604625Y-83364228D01*
X158666420Y-83396833D01*
X158680315Y-83412870D01*
X158705483Y-83447510D01*
X158872490Y-83614517D01*
X159063567Y-83753343D01*
X159162991Y-83804002D01*
X159274003Y-83860566D01*
X159274005Y-83860566D01*
X159274008Y-83860568D01*
X159394412Y-83899689D01*
X159498631Y-83933553D01*
X159731903Y-83970500D01*
X159731908Y-83970500D01*
X159968097Y-83970500D01*
X160201368Y-83933553D01*
X160202870Y-83933065D01*
X160425992Y-83860568D01*
X160636433Y-83753343D01*
X160827510Y-83614517D01*
X160994517Y-83447510D01*
X161019682Y-83412872D01*
X161075011Y-83370207D01*
X161144625Y-83364228D01*
X161206420Y-83396833D01*
X161220315Y-83412870D01*
X161245483Y-83447510D01*
X161412490Y-83614517D01*
X161603567Y-83753343D01*
X161702991Y-83804002D01*
X161814003Y-83860566D01*
X161814005Y-83860566D01*
X161814008Y-83860568D01*
X161934412Y-83899689D01*
X162038631Y-83933553D01*
X162271903Y-83970500D01*
X162271908Y-83970500D01*
X162508097Y-83970500D01*
X162741368Y-83933553D01*
X162742870Y-83933065D01*
X162965992Y-83860568D01*
X163176433Y-83753343D01*
X163367510Y-83614517D01*
X163534517Y-83447510D01*
X163559682Y-83412872D01*
X163615011Y-83370207D01*
X163684625Y-83364228D01*
X163746420Y-83396833D01*
X163760315Y-83412870D01*
X163785483Y-83447510D01*
X163952490Y-83614517D01*
X164143567Y-83753343D01*
X164242991Y-83804002D01*
X164354003Y-83860566D01*
X164354005Y-83860566D01*
X164354008Y-83860568D01*
X164474412Y-83899689D01*
X164578631Y-83933553D01*
X164811903Y-83970500D01*
X164811908Y-83970500D01*
X165048097Y-83970500D01*
X165281368Y-83933553D01*
X165282870Y-83933065D01*
X165505992Y-83860568D01*
X165716433Y-83753343D01*
X165907510Y-83614517D01*
X166074517Y-83447510D01*
X166213343Y-83256433D01*
X166320568Y-83045992D01*
X166393553Y-82821368D01*
X166399607Y-82783147D01*
X166430500Y-82588097D01*
X166430500Y-82351902D01*
X166393553Y-82118631D01*
X166353303Y-81994755D01*
X166320568Y-81894008D01*
X166320566Y-81894005D01*
X166320566Y-81894003D01*
X166264002Y-81782991D01*
X166213343Y-81683567D01*
X166074517Y-81492490D01*
X165907510Y-81325483D01*
X165716433Y-81186657D01*
X165680170Y-81168180D01*
X165505996Y-81079433D01*
X165281368Y-81006446D01*
X165048097Y-80969500D01*
X165048092Y-80969500D01*
X164811908Y-80969500D01*
X164811903Y-80969500D01*
X164578631Y-81006446D01*
X164354003Y-81079433D01*
X164143566Y-81186657D01*
X164075563Y-81236065D01*
X163952490Y-81325483D01*
X163952488Y-81325485D01*
X163952487Y-81325485D01*
X163785484Y-81492488D01*
X163760318Y-81527127D01*
X163704987Y-81569792D01*
X163635374Y-81575771D01*
X163573579Y-81543165D01*
X163559682Y-81527127D01*
X163534517Y-81492490D01*
X163367510Y-81325483D01*
X163176433Y-81186657D01*
X163140170Y-81168180D01*
X162965996Y-81079433D01*
X162741368Y-81006446D01*
X162508097Y-80969500D01*
X162508092Y-80969500D01*
X162271908Y-80969500D01*
X162271903Y-80969500D01*
X162038631Y-81006446D01*
X161814003Y-81079433D01*
X161603566Y-81186657D01*
X161535563Y-81236065D01*
X161412490Y-81325483D01*
X161412488Y-81325485D01*
X161412487Y-81325485D01*
X161245484Y-81492488D01*
X161220318Y-81527127D01*
X161164987Y-81569792D01*
X161095374Y-81575771D01*
X161033579Y-81543165D01*
X161019682Y-81527127D01*
X160994517Y-81492490D01*
X160827510Y-81325483D01*
X160636433Y-81186657D01*
X160600170Y-81168180D01*
X160425996Y-81079433D01*
X160201368Y-81006446D01*
X159968097Y-80969500D01*
X159968092Y-80969500D01*
X159731908Y-80969500D01*
X159731903Y-80969500D01*
X159498631Y-81006446D01*
X159274003Y-81079433D01*
X159063566Y-81186657D01*
X158995563Y-81236065D01*
X158872490Y-81325483D01*
X158872488Y-81325485D01*
X158872487Y-81325485D01*
X158705484Y-81492488D01*
X158680318Y-81527127D01*
X158624987Y-81569792D01*
X158555374Y-81575771D01*
X158493579Y-81543165D01*
X158479682Y-81527127D01*
X158454517Y-81492490D01*
X158287510Y-81325483D01*
X158096433Y-81186657D01*
X158060170Y-81168180D01*
X157885996Y-81079433D01*
X157661368Y-81006446D01*
X157428097Y-80969500D01*
X157428092Y-80969500D01*
X157191908Y-80969500D01*
X157191903Y-80969500D01*
X156958631Y-81006446D01*
X156734003Y-81079433D01*
X156523566Y-81186657D01*
X156455563Y-81236065D01*
X156332490Y-81325483D01*
X156332488Y-81325485D01*
X156332487Y-81325485D01*
X156165484Y-81492488D01*
X156140318Y-81527127D01*
X156084987Y-81569792D01*
X156015374Y-81575771D01*
X155953579Y-81543165D01*
X155939682Y-81527127D01*
X155914517Y-81492490D01*
X155747510Y-81325483D01*
X155556433Y-81186657D01*
X155520170Y-81168180D01*
X155345996Y-81079433D01*
X155121368Y-81006446D01*
X154888097Y-80969500D01*
X154888092Y-80969500D01*
X154651908Y-80969500D01*
X154651903Y-80969500D01*
X154418631Y-81006446D01*
X154194003Y-81079433D01*
X153983566Y-81186657D01*
X153915563Y-81236065D01*
X153792490Y-81325483D01*
X153792488Y-81325485D01*
X153792487Y-81325485D01*
X153625484Y-81492488D01*
X153600318Y-81527127D01*
X153544987Y-81569792D01*
X153475374Y-81575771D01*
X153413579Y-81543165D01*
X153399682Y-81527127D01*
X153374517Y-81492490D01*
X153207510Y-81325483D01*
X153016433Y-81186657D01*
X152980170Y-81168180D01*
X152805996Y-81079433D01*
X152581368Y-81006446D01*
X152348097Y-80969500D01*
X152348092Y-80969500D01*
X152111908Y-80969500D01*
X152111903Y-80969500D01*
X151878631Y-81006446D01*
X151654003Y-81079433D01*
X151443566Y-81186657D01*
X151375563Y-81236065D01*
X151252490Y-81325483D01*
X151252488Y-81325485D01*
X151252487Y-81325485D01*
X151085484Y-81492488D01*
X151060318Y-81527127D01*
X151004987Y-81569792D01*
X150935374Y-81575771D01*
X150873579Y-81543165D01*
X150859682Y-81527127D01*
X150834517Y-81492490D01*
X150667510Y-81325483D01*
X150476433Y-81186657D01*
X150440170Y-81168180D01*
X150265996Y-81079433D01*
X150041368Y-81006446D01*
X149808097Y-80969500D01*
X149808092Y-80969500D01*
X149571908Y-80969500D01*
X149571903Y-80969500D01*
X149338631Y-81006446D01*
X149114003Y-81079433D01*
X148903566Y-81186657D01*
X148835563Y-81236065D01*
X148712490Y-81325483D01*
X148712488Y-81325485D01*
X148712487Y-81325485D01*
X148545484Y-81492488D01*
X148520318Y-81527127D01*
X148464987Y-81569792D01*
X148395374Y-81575771D01*
X148333579Y-81543165D01*
X148319682Y-81527127D01*
X148294517Y-81492490D01*
X148127510Y-81325483D01*
X147936433Y-81186657D01*
X147900170Y-81168180D01*
X147725996Y-81079433D01*
X147501368Y-81006446D01*
X147268097Y-80969500D01*
X147268092Y-80969500D01*
X147031908Y-80969500D01*
X147031903Y-80969500D01*
X146798631Y-81006446D01*
X146574003Y-81079433D01*
X146363566Y-81186657D01*
X146295563Y-81236065D01*
X146172490Y-81325483D01*
X146172488Y-81325485D01*
X146172487Y-81325485D01*
X146005484Y-81492488D01*
X145980318Y-81527127D01*
X145924987Y-81569792D01*
X145855374Y-81575771D01*
X145793579Y-81543165D01*
X145779682Y-81527127D01*
X145754517Y-81492490D01*
X145587510Y-81325483D01*
X145396433Y-81186657D01*
X145360170Y-81168180D01*
X145185996Y-81079433D01*
X144961368Y-81006446D01*
X144728097Y-80969500D01*
X144728092Y-80969500D01*
X144491908Y-80969500D01*
X144491903Y-80969500D01*
X144258631Y-81006446D01*
X144034003Y-81079433D01*
X143823566Y-81186657D01*
X143755563Y-81236065D01*
X143632490Y-81325483D01*
X143632488Y-81325485D01*
X143632487Y-81325485D01*
X143465484Y-81492488D01*
X143440318Y-81527127D01*
X143384987Y-81569792D01*
X143315374Y-81575771D01*
X143253579Y-81543165D01*
X143239682Y-81527127D01*
X143214517Y-81492490D01*
X143047510Y-81325483D01*
X142856433Y-81186657D01*
X142820170Y-81168180D01*
X142645996Y-81079433D01*
X142421368Y-81006446D01*
X142188097Y-80969500D01*
X142188092Y-80969500D01*
X141951908Y-80969500D01*
X141951903Y-80969500D01*
X141718631Y-81006446D01*
X141494003Y-81079433D01*
X141283566Y-81186657D01*
X141215563Y-81236065D01*
X141092490Y-81325483D01*
X141092488Y-81325485D01*
X141092487Y-81325485D01*
X140925484Y-81492488D01*
X140900318Y-81527127D01*
X140844987Y-81569792D01*
X140775374Y-81575771D01*
X140713579Y-81543165D01*
X140699682Y-81527127D01*
X140674517Y-81492490D01*
X140507510Y-81325483D01*
X140316433Y-81186657D01*
X140280170Y-81168180D01*
X140105996Y-81079433D01*
X139881368Y-81006446D01*
X139648097Y-80969500D01*
X139648092Y-80969500D01*
X139411908Y-80969500D01*
X139411903Y-80969500D01*
X139178631Y-81006446D01*
X138954003Y-81079433D01*
X138743566Y-81186657D01*
X138675563Y-81236065D01*
X138552490Y-81325483D01*
X138552488Y-81325485D01*
X138552487Y-81325485D01*
X138385482Y-81492490D01*
X138342451Y-81551717D01*
X138287120Y-81594382D01*
X138232405Y-81602448D01*
X138212658Y-81600893D01*
X137481128Y-82332424D01*
X137465245Y-82273147D01*
X137398102Y-82156853D01*
X137303147Y-82061898D01*
X137186853Y-81994755D01*
X137127574Y-81978871D01*
X137859105Y-81247340D01*
X137859104Y-81247338D01*
X137776174Y-81187087D01*
X137565802Y-81079897D01*
X137341247Y-81006934D01*
X137341248Y-81006934D01*
X137108052Y-80970000D01*
X136871948Y-80970000D01*
X136638752Y-81006934D01*
X136414197Y-81079897D01*
X136203830Y-81187084D01*
X136120894Y-81247340D01*
X136852425Y-81978871D01*
X136793147Y-81994755D01*
X136676853Y-82061898D01*
X136581898Y-82156853D01*
X136514755Y-82273147D01*
X136498871Y-82332424D01*
X135767340Y-81600893D01*
X135747593Y-81602448D01*
X135743860Y-81601663D01*
X135740222Y-81602808D01*
X135709936Y-81594537D01*
X135679215Y-81588084D01*
X135675429Y-81585114D01*
X135672821Y-81584402D01*
X135663431Y-81575701D01*
X135645712Y-81561800D01*
X135641370Y-81556978D01*
X135594517Y-81492490D01*
X135427510Y-81325483D01*
X135236433Y-81186657D01*
X135200170Y-81168180D01*
X135025996Y-81079433D01*
X134801368Y-81006446D01*
X134568097Y-80969500D01*
X134568092Y-80969500D01*
X134331908Y-80969500D01*
X134331903Y-80969500D01*
X134098631Y-81006446D01*
X133874003Y-81079433D01*
X133663563Y-81186659D01*
X133539840Y-81276549D01*
X133474034Y-81300029D01*
X133405980Y-81284203D01*
X133358410Y-81235255D01*
X133358047Y-81235454D01*
X133357334Y-81234148D01*
X133357285Y-81234098D01*
X133357187Y-81233880D01*
X133353793Y-81227664D01*
X133267547Y-81112455D01*
X133267544Y-81112452D01*
X133152335Y-81026206D01*
X133152328Y-81026202D01*
X133017482Y-80975908D01*
X133017483Y-80975908D01*
X132957883Y-80969501D01*
X132957881Y-80969500D01*
X132957873Y-80969500D01*
X132957864Y-80969500D01*
X130862129Y-80969500D01*
X130862123Y-80969501D01*
X130802516Y-80975908D01*
X130667671Y-81026202D01*
X130667664Y-81026206D01*
X130552455Y-81112452D01*
X130552452Y-81112455D01*
X130466206Y-81227664D01*
X130466202Y-81227671D01*
X130415908Y-81362517D01*
X130409501Y-81422116D01*
X130409500Y-81422135D01*
X116974309Y-81422135D01*
X116982910Y-81413534D01*
X116903724Y-81302113D01*
X116901860Y-81296711D01*
X116897706Y-81292788D01*
X116890590Y-81264052D01*
X116880933Y-81236065D01*
X116882285Y-81230512D01*
X116880912Y-81224966D01*
X116890461Y-81196946D01*
X116897468Y-81168180D01*
X116901607Y-81164240D01*
X116903451Y-81158832D01*
X116946291Y-81121714D01*
X116948080Y-81120012D01*
X116948306Y-81119968D01*
X116948508Y-81119793D01*
X116957816Y-81115051D01*
X117080102Y-81026206D01*
X117129786Y-80990109D01*
X117129788Y-80990106D01*
X117129792Y-80990104D01*
X117280104Y-80839792D01*
X117280106Y-80839788D01*
X117280109Y-80839786D01*
X117405048Y-80667820D01*
X117405047Y-80667820D01*
X117405051Y-80667816D01*
X117501557Y-80478412D01*
X117567246Y-80276243D01*
X117600500Y-80066287D01*
X117600500Y-79853713D01*
X117567246Y-79643757D01*
X117552264Y-79597648D01*
X121899500Y-79597648D01*
X121899500Y-79802351D01*
X121931522Y-80004534D01*
X121994781Y-80199223D01*
X122087715Y-80381613D01*
X122208028Y-80547213D01*
X122352786Y-80691971D01*
X122507749Y-80804556D01*
X122518390Y-80812287D01*
X122634607Y-80871503D01*
X122700776Y-80905218D01*
X122700778Y-80905218D01*
X122700781Y-80905220D01*
X122805137Y-80939127D01*
X122895465Y-80968477D01*
X122942389Y-80975909D01*
X123097648Y-81000500D01*
X123097649Y-81000500D01*
X123302351Y-81000500D01*
X123302352Y-81000500D01*
X123504534Y-80968477D01*
X123699219Y-80905220D01*
X123881610Y-80812287D01*
X123974590Y-80744732D01*
X124047213Y-80691971D01*
X124047215Y-80691968D01*
X124047219Y-80691966D01*
X124191966Y-80547219D01*
X124191968Y-80547215D01*
X124191971Y-80547213D01*
X124244732Y-80474590D01*
X124312287Y-80381610D01*
X124405220Y-80199219D01*
X124468477Y-80004534D01*
X124500500Y-79802352D01*
X124500500Y-79597648D01*
X126899500Y-79597648D01*
X126899500Y-79802351D01*
X126931522Y-80004534D01*
X126994781Y-80199223D01*
X127087715Y-80381613D01*
X127208028Y-80547213D01*
X127352786Y-80691971D01*
X127507749Y-80804556D01*
X127518390Y-80812287D01*
X127634607Y-80871503D01*
X127700776Y-80905218D01*
X127700778Y-80905218D01*
X127700781Y-80905220D01*
X127805137Y-80939127D01*
X127895465Y-80968477D01*
X127942389Y-80975909D01*
X128097648Y-81000500D01*
X128097649Y-81000500D01*
X128302351Y-81000500D01*
X128302352Y-81000500D01*
X128504534Y-80968477D01*
X128699219Y-80905220D01*
X128881610Y-80812287D01*
X128974590Y-80744732D01*
X129047213Y-80691971D01*
X129047215Y-80691968D01*
X129047219Y-80691966D01*
X129191966Y-80547219D01*
X129191968Y-80547215D01*
X129191971Y-80547213D01*
X129244732Y-80474590D01*
X129312287Y-80381610D01*
X129405220Y-80199219D01*
X129468477Y-80004534D01*
X129500500Y-79802352D01*
X129500500Y-79597648D01*
X129468477Y-79395466D01*
X129405220Y-79200781D01*
X129405218Y-79200778D01*
X129405218Y-79200776D01*
X129343787Y-79080213D01*
X129312287Y-79018390D01*
X129304556Y-79007749D01*
X129191971Y-78852786D01*
X129047213Y-78708028D01*
X128881613Y-78587715D01*
X128881612Y-78587714D01*
X128881610Y-78587713D01*
X128824653Y-78558691D01*
X128699223Y-78494781D01*
X128504534Y-78431522D01*
X128329995Y-78403878D01*
X128302352Y-78399500D01*
X128097648Y-78399500D01*
X128073329Y-78403351D01*
X127895465Y-78431522D01*
X127700776Y-78494781D01*
X127518386Y-78587715D01*
X127352786Y-78708028D01*
X127208028Y-78852786D01*
X127087715Y-79018386D01*
X126994781Y-79200776D01*
X126931522Y-79395465D01*
X126899500Y-79597648D01*
X124500500Y-79597648D01*
X124468477Y-79395466D01*
X124405220Y-79200781D01*
X124405218Y-79200778D01*
X124405218Y-79200776D01*
X124343787Y-79080213D01*
X124312287Y-79018390D01*
X124304556Y-79007749D01*
X124191971Y-78852786D01*
X124047213Y-78708028D01*
X123881613Y-78587715D01*
X123881612Y-78587714D01*
X123881610Y-78587713D01*
X123824653Y-78558691D01*
X123699223Y-78494781D01*
X123504534Y-78431522D01*
X123329995Y-78403878D01*
X123302352Y-78399500D01*
X123097648Y-78399500D01*
X123073329Y-78403351D01*
X122895465Y-78431522D01*
X122700776Y-78494781D01*
X122518386Y-78587715D01*
X122352786Y-78708028D01*
X122208028Y-78852786D01*
X122087715Y-79018386D01*
X121994781Y-79200776D01*
X121931522Y-79395465D01*
X121899500Y-79597648D01*
X117552264Y-79597648D01*
X117501557Y-79441588D01*
X117405051Y-79252184D01*
X117405049Y-79252181D01*
X117405048Y-79252179D01*
X117280109Y-79080213D01*
X117129786Y-78929890D01*
X116957820Y-78804951D01*
X116768414Y-78708444D01*
X116768413Y-78708443D01*
X116768412Y-78708443D01*
X116566243Y-78642754D01*
X116566241Y-78642753D01*
X116566240Y-78642753D01*
X116404957Y-78617208D01*
X116356287Y-78609500D01*
X116143713Y-78609500D01*
X116095042Y-78617208D01*
X115933760Y-78642753D01*
X115731585Y-78708444D01*
X115542179Y-78804951D01*
X115370213Y-78929890D01*
X115219890Y-79080213D01*
X115094951Y-79252179D01*
X114998444Y-79441585D01*
X114932753Y-79643760D01*
X114899500Y-79853713D01*
X110500500Y-79853713D01*
X110500500Y-76893713D01*
X144359500Y-76893713D01*
X144359500Y-77106286D01*
X144392753Y-77316239D01*
X144458444Y-77518414D01*
X144554951Y-77707820D01*
X144679890Y-77879786D01*
X144830213Y-78030109D01*
X145002179Y-78155048D01*
X145002181Y-78155049D01*
X145002184Y-78155051D01*
X145191588Y-78251557D01*
X145393757Y-78317246D01*
X145603713Y-78350500D01*
X145603714Y-78350500D01*
X145816286Y-78350500D01*
X145816287Y-78350500D01*
X146026243Y-78317246D01*
X146228412Y-78251557D01*
X146417816Y-78155051D01*
X146589792Y-78030104D01*
X146703329Y-77916566D01*
X146764648Y-77883084D01*
X146834340Y-77888068D01*
X146890274Y-77929939D01*
X146907189Y-77960917D01*
X146956202Y-78092328D01*
X146956206Y-78092335D01*
X147042452Y-78207544D01*
X147042455Y-78207547D01*
X147157664Y-78293793D01*
X147157671Y-78293797D01*
X147292517Y-78344091D01*
X147292516Y-78344091D01*
X147299444Y-78344835D01*
X147352127Y-78350500D01*
X149147872Y-78350499D01*
X149207483Y-78344091D01*
X149342331Y-78293796D01*
X149457546Y-78207546D01*
X149543796Y-78092331D01*
X149594091Y-77957483D01*
X149600500Y-77897873D01*
X149600499Y-76102128D01*
X149594091Y-76042517D01*
X149592810Y-76039083D01*
X149543797Y-75907671D01*
X149543793Y-75907664D01*
X149457547Y-75792455D01*
X149457544Y-75792452D01*
X149342335Y-75706206D01*
X149342328Y-75706202D01*
X149207482Y-75655908D01*
X149207483Y-75655908D01*
X149147883Y-75649501D01*
X149147881Y-75649500D01*
X149147873Y-75649500D01*
X149147864Y-75649500D01*
X147352129Y-75649500D01*
X147352123Y-75649501D01*
X147292516Y-75655908D01*
X147157671Y-75706202D01*
X147157664Y-75706206D01*
X147042455Y-75792452D01*
X147042452Y-75792455D01*
X146956206Y-75907664D01*
X146956203Y-75907669D01*
X146907189Y-76039083D01*
X146865317Y-76095016D01*
X146799853Y-76119433D01*
X146731580Y-76104581D01*
X146703326Y-76083430D01*
X146589786Y-75969890D01*
X146417820Y-75844951D01*
X146228414Y-75748444D01*
X146228413Y-75748443D01*
X146228412Y-75748443D01*
X146026243Y-75682754D01*
X146026241Y-75682753D01*
X146026240Y-75682753D01*
X145864957Y-75657208D01*
X145816287Y-75649500D01*
X145603713Y-75649500D01*
X145555042Y-75657208D01*
X145393760Y-75682753D01*
X145191585Y-75748444D01*
X145002179Y-75844951D01*
X144830213Y-75969890D01*
X144679890Y-76120213D01*
X144554951Y-76292179D01*
X144458444Y-76481585D01*
X144392753Y-76683760D01*
X144359500Y-76893713D01*
X110500500Y-76893713D01*
X110500500Y-72379983D01*
X139599500Y-72379983D01*
X139599500Y-73780001D01*
X139599501Y-73780018D01*
X139610000Y-73882796D01*
X139610001Y-73882799D01*
X139665185Y-74049331D01*
X139665186Y-74049334D01*
X139757288Y-74198656D01*
X139881344Y-74322712D01*
X140030666Y-74414814D01*
X140197203Y-74469999D01*
X140299991Y-74480500D01*
X141700008Y-74480499D01*
X141802797Y-74469999D01*
X141969334Y-74414814D01*
X142118656Y-74322712D01*
X142241385Y-74199983D01*
X153499500Y-74199983D01*
X153499500Y-75300001D01*
X153499501Y-75300019D01*
X153510000Y-75402796D01*
X153510001Y-75402799D01*
X153510865Y-75405405D01*
X153565186Y-75569334D01*
X153657288Y-75718656D01*
X153781344Y-75842712D01*
X153930666Y-75934814D01*
X154097203Y-75989999D01*
X154199991Y-76000500D01*
X155300008Y-76000499D01*
X155300016Y-76000498D01*
X155300019Y-76000498D01*
X155356302Y-75994748D01*
X155402797Y-75989999D01*
X155569334Y-75934814D01*
X155718656Y-75842712D01*
X155842712Y-75718656D01*
X155934814Y-75569334D01*
X155989999Y-75402797D01*
X156000500Y-75300009D01*
X156000499Y-74651577D01*
X158579500Y-74651577D01*
X158579500Y-74848422D01*
X158610290Y-75042826D01*
X158671117Y-75230029D01*
X158706779Y-75300019D01*
X158760476Y-75405405D01*
X158876172Y-75564646D01*
X159015354Y-75703828D01*
X159174595Y-75819524D01*
X159224495Y-75844949D01*
X159349970Y-75908882D01*
X159349972Y-75908882D01*
X159349975Y-75908884D01*
X159429773Y-75934812D01*
X159537173Y-75969709D01*
X159731578Y-76000500D01*
X159731583Y-76000500D01*
X159928422Y-76000500D01*
X160122826Y-75969709D01*
X160310025Y-75908884D01*
X160485405Y-75819524D01*
X160644646Y-75703828D01*
X160783828Y-75564646D01*
X160899524Y-75405405D01*
X160988884Y-75230025D01*
X161049709Y-75042826D01*
X161080500Y-74848422D01*
X161080500Y-74651577D01*
X161049709Y-74457173D01*
X160988882Y-74269970D01*
X160918449Y-74131738D01*
X160899524Y-74094595D01*
X160783828Y-73935354D01*
X160644646Y-73796172D01*
X160485405Y-73680476D01*
X160439896Y-73657288D01*
X160310029Y-73591117D01*
X160122826Y-73530290D01*
X159928422Y-73499500D01*
X159928417Y-73499500D01*
X159731583Y-73499500D01*
X159731578Y-73499500D01*
X159537173Y-73530290D01*
X159349970Y-73591117D01*
X159174594Y-73680476D01*
X159083741Y-73746485D01*
X159015354Y-73796172D01*
X159015352Y-73796174D01*
X159015351Y-73796174D01*
X158876174Y-73935351D01*
X158876174Y-73935352D01*
X158876172Y-73935354D01*
X158826485Y-74003741D01*
X158760476Y-74094594D01*
X158671117Y-74269970D01*
X158610290Y-74457173D01*
X158579500Y-74651577D01*
X156000499Y-74651577D01*
X156000499Y-74199992D01*
X156000362Y-74198655D01*
X155989999Y-74097203D01*
X155989998Y-74097200D01*
X155936367Y-73935354D01*
X155934814Y-73930666D01*
X155842712Y-73781344D01*
X155718656Y-73657288D01*
X155611375Y-73591117D01*
X155569336Y-73565187D01*
X155569331Y-73565185D01*
X155567862Y-73564698D01*
X155402797Y-73510001D01*
X155402795Y-73510000D01*
X155300010Y-73499500D01*
X154199998Y-73499500D01*
X154199980Y-73499501D01*
X154097203Y-73510000D01*
X154097200Y-73510001D01*
X153930668Y-73565185D01*
X153930663Y-73565187D01*
X153781342Y-73657289D01*
X153657289Y-73781342D01*
X153565187Y-73930663D01*
X153565185Y-73930668D01*
X153537349Y-74014670D01*
X153510001Y-74097203D01*
X153510001Y-74097204D01*
X153510000Y-74097204D01*
X153499500Y-74199983D01*
X142241385Y-74199983D01*
X142242712Y-74198656D01*
X142334814Y-74049334D01*
X142389999Y-73882797D01*
X142400500Y-73780009D01*
X142400499Y-72379992D01*
X142389999Y-72277203D01*
X142335116Y-72111577D01*
X156039500Y-72111577D01*
X156039500Y-72308422D01*
X156070290Y-72502826D01*
X156131117Y-72690029D01*
X156220476Y-72865405D01*
X156336172Y-73024646D01*
X156475354Y-73163828D01*
X156634595Y-73279524D01*
X156717455Y-73321743D01*
X156809970Y-73368882D01*
X156809972Y-73368882D01*
X156809975Y-73368884D01*
X156910317Y-73401487D01*
X156997173Y-73429709D01*
X157191578Y-73460500D01*
X157191583Y-73460500D01*
X157388422Y-73460500D01*
X157582826Y-73429709D01*
X157770025Y-73368884D01*
X157945405Y-73279524D01*
X158104646Y-73163828D01*
X158243828Y-73024646D01*
X158359524Y-72865405D01*
X158448884Y-72690025D01*
X158509709Y-72502826D01*
X158529164Y-72379991D01*
X158540500Y-72308422D01*
X158540500Y-72111577D01*
X158509709Y-71917173D01*
X158479831Y-71825220D01*
X158448884Y-71729975D01*
X158448882Y-71729972D01*
X158448882Y-71729970D01*
X158359523Y-71554594D01*
X158243828Y-71395354D01*
X158104646Y-71256172D01*
X157945405Y-71140476D01*
X157770029Y-71051117D01*
X157582826Y-70990290D01*
X157388422Y-70959500D01*
X157388417Y-70959500D01*
X157191583Y-70959500D01*
X157191578Y-70959500D01*
X156997173Y-70990290D01*
X156809970Y-71051117D01*
X156634594Y-71140476D01*
X156543741Y-71206485D01*
X156475354Y-71256172D01*
X156475352Y-71256174D01*
X156475351Y-71256174D01*
X156336174Y-71395351D01*
X156336174Y-71395352D01*
X156336172Y-71395354D01*
X156327556Y-71407213D01*
X156220476Y-71554594D01*
X156131117Y-71729970D01*
X156070290Y-71917173D01*
X156039500Y-72111577D01*
X142335116Y-72111577D01*
X142334814Y-72110666D01*
X142242712Y-71961344D01*
X142118656Y-71837288D01*
X142025888Y-71780069D01*
X141969336Y-71745187D01*
X141969331Y-71745185D01*
X141923415Y-71729970D01*
X141802797Y-71690001D01*
X141802795Y-71690000D01*
X141700010Y-71679500D01*
X140299998Y-71679500D01*
X140299981Y-71679501D01*
X140197203Y-71690000D01*
X140197200Y-71690001D01*
X140030668Y-71745185D01*
X140030663Y-71745187D01*
X139881342Y-71837289D01*
X139757289Y-71961342D01*
X139665187Y-72110663D01*
X139665186Y-72110666D01*
X139610001Y-72277203D01*
X139610001Y-72277204D01*
X139610000Y-72277204D01*
X139599500Y-72379983D01*
X110500500Y-72379983D01*
X110500500Y-69131995D01*
X114199500Y-69131995D01*
X114199500Y-69368004D01*
X114199501Y-69368020D01*
X114225832Y-69568028D01*
X114230307Y-69602014D01*
X114237279Y-69628034D01*
X114291394Y-69829993D01*
X114381714Y-70048045D01*
X114381719Y-70048056D01*
X114452677Y-70170957D01*
X114499727Y-70252450D01*
X114499729Y-70252453D01*
X114499730Y-70252454D01*
X114643406Y-70439697D01*
X114643412Y-70439704D01*
X114810295Y-70606587D01*
X114810301Y-70606592D01*
X114997550Y-70750273D01*
X115128918Y-70826118D01*
X115201943Y-70868280D01*
X115201948Y-70868282D01*
X115201951Y-70868284D01*
X115420007Y-70958606D01*
X115647986Y-71019693D01*
X115881989Y-71050500D01*
X115881996Y-71050500D01*
X116118004Y-71050500D01*
X116118011Y-71050500D01*
X116352014Y-71019693D01*
X116579993Y-70958606D01*
X116798049Y-70868284D01*
X117002450Y-70750273D01*
X117189699Y-70606592D01*
X117338643Y-70457648D01*
X130449500Y-70457648D01*
X130449500Y-70662351D01*
X130481522Y-70864534D01*
X130544781Y-71059223D01*
X130637715Y-71241613D01*
X130758028Y-71407213D01*
X130902786Y-71551971D01*
X130985371Y-71611971D01*
X131068390Y-71672287D01*
X131181599Y-71729970D01*
X131250776Y-71765218D01*
X131250778Y-71765218D01*
X131250781Y-71765220D01*
X131355137Y-71799127D01*
X131445465Y-71828477D01*
X131546557Y-71844488D01*
X131647648Y-71860500D01*
X131647649Y-71860500D01*
X131852351Y-71860500D01*
X131852352Y-71860500D01*
X132054534Y-71828477D01*
X132249219Y-71765220D01*
X132431610Y-71672287D01*
X132524590Y-71604732D01*
X132597213Y-71551971D01*
X132597215Y-71551968D01*
X132597219Y-71551966D01*
X132741966Y-71407219D01*
X132741968Y-71407215D01*
X132741971Y-71407213D01*
X132794732Y-71334590D01*
X132862287Y-71241610D01*
X132955220Y-71059219D01*
X133018477Y-70864534D01*
X133050500Y-70662352D01*
X133050500Y-70457648D01*
X135199500Y-70457648D01*
X135199500Y-70662351D01*
X135231522Y-70864534D01*
X135294781Y-71059223D01*
X135387715Y-71241613D01*
X135508028Y-71407213D01*
X135652786Y-71551971D01*
X135735371Y-71611971D01*
X135818390Y-71672287D01*
X135931599Y-71729970D01*
X136000776Y-71765218D01*
X136000778Y-71765218D01*
X136000781Y-71765220D01*
X136105137Y-71799127D01*
X136195465Y-71828477D01*
X136296557Y-71844488D01*
X136397648Y-71860500D01*
X136397649Y-71860500D01*
X136602351Y-71860500D01*
X136602352Y-71860500D01*
X136804534Y-71828477D01*
X136999219Y-71765220D01*
X137181610Y-71672287D01*
X137274590Y-71604732D01*
X137347213Y-71551971D01*
X137347215Y-71551968D01*
X137347219Y-71551966D01*
X137491966Y-71407219D01*
X137491968Y-71407215D01*
X137491971Y-71407213D01*
X137544732Y-71334590D01*
X137612287Y-71241610D01*
X137705220Y-71059219D01*
X137768477Y-70864534D01*
X137800500Y-70662352D01*
X137800500Y-70457648D01*
X144449500Y-70457648D01*
X144449500Y-70662351D01*
X144481522Y-70864534D01*
X144544781Y-71059223D01*
X144637715Y-71241613D01*
X144758028Y-71407213D01*
X144902786Y-71551971D01*
X144985371Y-71611971D01*
X145068390Y-71672287D01*
X145181599Y-71729970D01*
X145250776Y-71765218D01*
X145250778Y-71765218D01*
X145250781Y-71765220D01*
X145355137Y-71799127D01*
X145445465Y-71828477D01*
X145546557Y-71844488D01*
X145647648Y-71860500D01*
X145647649Y-71860500D01*
X145852351Y-71860500D01*
X145852352Y-71860500D01*
X146054534Y-71828477D01*
X146249219Y-71765220D01*
X146431610Y-71672287D01*
X146524590Y-71604732D01*
X146597213Y-71551971D01*
X146597215Y-71551968D01*
X146597219Y-71551966D01*
X146741966Y-71407219D01*
X146741968Y-71407215D01*
X146741971Y-71407213D01*
X146794732Y-71334590D01*
X146862287Y-71241610D01*
X146955220Y-71059219D01*
X147018477Y-70864534D01*
X147050500Y-70662352D01*
X147050500Y-70517648D01*
X149699500Y-70517648D01*
X149699500Y-70722351D01*
X149731522Y-70924534D01*
X149794781Y-71119223D01*
X149887715Y-71301613D01*
X150008028Y-71467213D01*
X150152786Y-71611971D01*
X150307749Y-71724556D01*
X150318390Y-71732287D01*
X150383021Y-71765218D01*
X150500776Y-71825218D01*
X150500778Y-71825218D01*
X150500781Y-71825220D01*
X150537926Y-71837289D01*
X150695465Y-71888477D01*
X150796557Y-71904488D01*
X150897648Y-71920500D01*
X150897649Y-71920500D01*
X151102351Y-71920500D01*
X151102352Y-71920500D01*
X151304534Y-71888477D01*
X151499219Y-71825220D01*
X151681610Y-71732287D01*
X151774590Y-71664732D01*
X151847213Y-71611971D01*
X151847215Y-71611968D01*
X151847219Y-71611966D01*
X151991966Y-71467219D01*
X151991968Y-71467215D01*
X151991971Y-71467213D01*
X152044732Y-71394590D01*
X152112287Y-71301610D01*
X152205220Y-71119219D01*
X152268477Y-70924534D01*
X152300500Y-70722352D01*
X152300500Y-70517648D01*
X152268477Y-70315466D01*
X152248981Y-70255465D01*
X152205218Y-70120776D01*
X152168159Y-70048045D01*
X152112287Y-69938390D01*
X152033533Y-69829993D01*
X151991971Y-69772786D01*
X151847213Y-69628028D01*
X151681613Y-69507715D01*
X151681612Y-69507714D01*
X151681610Y-69507713D01*
X151624653Y-69478691D01*
X151499223Y-69414781D01*
X151304534Y-69351522D01*
X151129995Y-69323878D01*
X151102352Y-69319500D01*
X150897648Y-69319500D01*
X150873329Y-69323351D01*
X150695465Y-69351522D01*
X150500776Y-69414781D01*
X150318386Y-69507715D01*
X150152786Y-69628028D01*
X150008028Y-69772786D01*
X149887715Y-69938386D01*
X149794781Y-70120776D01*
X149731522Y-70315465D01*
X149699500Y-70517648D01*
X147050500Y-70517648D01*
X147050500Y-70457648D01*
X147018477Y-70255466D01*
X147017498Y-70252454D01*
X146974715Y-70120781D01*
X146955220Y-70060781D01*
X146955218Y-70060778D01*
X146955218Y-70060776D01*
X146921503Y-69994607D01*
X146862287Y-69878390D01*
X146827125Y-69829993D01*
X146741971Y-69712786D01*
X146597213Y-69568028D01*
X146431613Y-69447715D01*
X146431612Y-69447714D01*
X146431610Y-69447713D01*
X146374653Y-69418691D01*
X146249223Y-69354781D01*
X146054534Y-69291522D01*
X145879995Y-69263878D01*
X145852352Y-69259500D01*
X145647648Y-69259500D01*
X145623329Y-69263351D01*
X145445465Y-69291522D01*
X145250776Y-69354781D01*
X145068386Y-69447715D01*
X144902786Y-69568028D01*
X144758028Y-69712786D01*
X144637715Y-69878386D01*
X144544781Y-70060776D01*
X144481522Y-70255465D01*
X144449500Y-70457648D01*
X137800500Y-70457648D01*
X137768477Y-70255466D01*
X137767498Y-70252454D01*
X137724715Y-70120781D01*
X137705220Y-70060781D01*
X137705218Y-70060778D01*
X137705218Y-70060776D01*
X137671503Y-69994607D01*
X137612287Y-69878390D01*
X137577125Y-69829993D01*
X137491971Y-69712786D01*
X137347213Y-69568028D01*
X137181613Y-69447715D01*
X137181612Y-69447714D01*
X137181610Y-69447713D01*
X137124653Y-69418691D01*
X136999223Y-69354781D01*
X136804534Y-69291522D01*
X136629995Y-69263878D01*
X136602352Y-69259500D01*
X136397648Y-69259500D01*
X136373329Y-69263351D01*
X136195465Y-69291522D01*
X136000776Y-69354781D01*
X135818386Y-69447715D01*
X135652786Y-69568028D01*
X135508028Y-69712786D01*
X135387715Y-69878386D01*
X135294781Y-70060776D01*
X135231522Y-70255465D01*
X135199500Y-70457648D01*
X133050500Y-70457648D01*
X133018477Y-70255466D01*
X133017498Y-70252454D01*
X132974715Y-70120781D01*
X132955220Y-70060781D01*
X132955218Y-70060778D01*
X132955218Y-70060776D01*
X132921503Y-69994607D01*
X132862287Y-69878390D01*
X132827125Y-69829993D01*
X132741971Y-69712786D01*
X132597213Y-69568028D01*
X132431613Y-69447715D01*
X132431612Y-69447714D01*
X132431610Y-69447713D01*
X132374653Y-69418691D01*
X132249223Y-69354781D01*
X132054534Y-69291522D01*
X131879995Y-69263878D01*
X131852352Y-69259500D01*
X131647648Y-69259500D01*
X131623329Y-69263351D01*
X131445465Y-69291522D01*
X131250776Y-69354781D01*
X131068386Y-69447715D01*
X130902786Y-69568028D01*
X130758028Y-69712786D01*
X130637715Y-69878386D01*
X130544781Y-70060776D01*
X130481522Y-70255465D01*
X130449500Y-70457648D01*
X117338643Y-70457648D01*
X117356592Y-70439699D01*
X117500273Y-70252450D01*
X117618284Y-70048049D01*
X117708606Y-69829993D01*
X117769693Y-69602014D01*
X117800500Y-69368011D01*
X117800500Y-69131989D01*
X117769693Y-68897986D01*
X117708606Y-68670007D01*
X117618284Y-68451951D01*
X117618282Y-68451948D01*
X117618280Y-68451943D01*
X117576118Y-68378918D01*
X117500273Y-68247550D01*
X117356592Y-68060301D01*
X117356587Y-68060295D01*
X117193940Y-67897648D01*
X125699500Y-67897648D01*
X125699500Y-68102351D01*
X125731522Y-68304534D01*
X125794781Y-68499223D01*
X125818173Y-68545131D01*
X125881800Y-68670006D01*
X125887715Y-68681613D01*
X126008028Y-68847213D01*
X126152786Y-68991971D01*
X126307749Y-69104556D01*
X126318390Y-69112287D01*
X126434607Y-69171503D01*
X126500776Y-69205218D01*
X126500778Y-69205218D01*
X126500781Y-69205220D01*
X126605137Y-69239127D01*
X126695465Y-69268477D01*
X126796557Y-69284488D01*
X126897648Y-69300500D01*
X126897649Y-69300500D01*
X127102351Y-69300500D01*
X127102352Y-69300500D01*
X127304534Y-69268477D01*
X127499219Y-69205220D01*
X127681610Y-69112287D01*
X127774590Y-69044732D01*
X127847213Y-68991971D01*
X127847215Y-68991968D01*
X127847219Y-68991966D01*
X127991966Y-68847219D01*
X127991968Y-68847215D01*
X127991971Y-68847213D01*
X128062236Y-68750500D01*
X128112287Y-68681610D01*
X128205220Y-68499219D01*
X128268477Y-68304534D01*
X128300500Y-68102352D01*
X128300500Y-67897648D01*
X128268477Y-67695466D01*
X128205220Y-67500781D01*
X128205218Y-67500778D01*
X128205218Y-67500776D01*
X128171503Y-67434607D01*
X128112287Y-67318390D01*
X128099289Y-67300500D01*
X127991971Y-67152786D01*
X127847213Y-67008028D01*
X127681613Y-66887715D01*
X127681612Y-66887714D01*
X127681610Y-66887713D01*
X127624653Y-66858691D01*
X127499223Y-66794781D01*
X127304534Y-66731522D01*
X127129995Y-66703878D01*
X127102352Y-66699500D01*
X126897648Y-66699500D01*
X126873329Y-66703351D01*
X126695465Y-66731522D01*
X126500776Y-66794781D01*
X126318386Y-66887715D01*
X126152786Y-67008028D01*
X126008028Y-67152786D01*
X125887715Y-67318386D01*
X125794781Y-67500776D01*
X125731522Y-67695465D01*
X125699500Y-67897648D01*
X117193940Y-67897648D01*
X117189704Y-67893412D01*
X117189697Y-67893406D01*
X117002454Y-67749730D01*
X117002453Y-67749729D01*
X117002450Y-67749727D01*
X116908467Y-67695466D01*
X116798056Y-67631719D01*
X116798045Y-67631714D01*
X116579993Y-67541394D01*
X116352010Y-67480306D01*
X116118020Y-67449501D01*
X116118017Y-67449500D01*
X116118011Y-67449500D01*
X115881989Y-67449500D01*
X115881983Y-67449500D01*
X115881979Y-67449501D01*
X115647989Y-67480306D01*
X115420006Y-67541394D01*
X115201954Y-67631714D01*
X115201943Y-67631719D01*
X114997545Y-67749730D01*
X114810302Y-67893406D01*
X114810295Y-67893412D01*
X114643412Y-68060295D01*
X114643406Y-68060302D01*
X114499730Y-68247545D01*
X114381719Y-68451943D01*
X114381714Y-68451954D01*
X114291394Y-68670006D01*
X114230306Y-68897989D01*
X114199501Y-69131979D01*
X114199500Y-69131995D01*
X110500500Y-69131995D01*
X110500500Y-66406379D01*
X130799500Y-66406379D01*
X130799500Y-66593620D01*
X130836025Y-66777243D01*
X130836027Y-66777251D01*
X130907676Y-66950228D01*
X130907681Y-66950237D01*
X131011697Y-67105907D01*
X131011700Y-67105911D01*
X131144088Y-67238299D01*
X131144092Y-67238302D01*
X131299762Y-67342318D01*
X131299768Y-67342321D01*
X131299769Y-67342322D01*
X131472749Y-67413973D01*
X131651357Y-67449500D01*
X131656379Y-67450499D01*
X131656383Y-67450500D01*
X131656384Y-67450500D01*
X131843617Y-67450500D01*
X131843618Y-67450499D01*
X132027251Y-67413973D01*
X132200231Y-67342322D01*
X132200236Y-67342318D01*
X132200239Y-67342317D01*
X132231545Y-67321399D01*
X132298222Y-67300520D01*
X132300437Y-67300500D01*
X135949563Y-67300500D01*
X136016602Y-67320185D01*
X136018455Y-67321399D01*
X136049760Y-67342317D01*
X136049768Y-67342321D01*
X136049769Y-67342322D01*
X136222749Y-67413973D01*
X136401357Y-67449500D01*
X136406379Y-67450499D01*
X136406383Y-67450500D01*
X136406384Y-67450500D01*
X136593617Y-67450500D01*
X136593618Y-67450499D01*
X136777251Y-67413973D01*
X136950231Y-67342322D01*
X137105908Y-67238302D01*
X137238302Y-67105908D01*
X137342322Y-66950231D01*
X137413973Y-66777251D01*
X137450500Y-66593616D01*
X137450500Y-66406384D01*
X137413973Y-66222749D01*
X137342625Y-66050500D01*
X137342323Y-66049771D01*
X137342318Y-66049762D01*
X137249565Y-65910947D01*
X137249564Y-65910946D01*
X137238304Y-65894094D01*
X137238299Y-65894088D01*
X137189739Y-65845528D01*
X161499500Y-65845528D01*
X161499500Y-66154471D01*
X161534086Y-66461437D01*
X161534089Y-66461455D01*
X161602831Y-66762635D01*
X161602835Y-66762647D01*
X161704862Y-67054222D01*
X161704868Y-67054236D01*
X161838903Y-67332562D01*
X161845033Y-67342318D01*
X162003265Y-67594143D01*
X162195880Y-67835674D01*
X162414326Y-68054120D01*
X162655857Y-68246735D01*
X162917435Y-68411095D01*
X163195771Y-68545135D01*
X163195777Y-68545137D01*
X163487352Y-68647164D01*
X163487364Y-68647168D01*
X163788548Y-68715911D01*
X163788554Y-68715911D01*
X163788562Y-68715913D01*
X163993206Y-68738970D01*
X164095529Y-68750499D01*
X164095532Y-68750500D01*
X164095535Y-68750500D01*
X164404468Y-68750500D01*
X164404469Y-68750499D01*
X164561356Y-68732822D01*
X164711437Y-68715913D01*
X164711442Y-68715912D01*
X164711452Y-68715911D01*
X165012636Y-68647168D01*
X165304229Y-68545135D01*
X165582565Y-68411095D01*
X165844143Y-68246735D01*
X166085674Y-68054120D01*
X166304120Y-67835674D01*
X166496735Y-67594143D01*
X166661095Y-67332565D01*
X166795135Y-67054229D01*
X166897168Y-66762636D01*
X166965911Y-66461452D01*
X167000500Y-66154465D01*
X167000500Y-65845535D01*
X166979334Y-65657678D01*
X166965913Y-65538562D01*
X166965910Y-65538544D01*
X166946338Y-65452795D01*
X166897168Y-65237364D01*
X166795135Y-64945771D01*
X166661095Y-64667435D01*
X166496735Y-64405857D01*
X166304120Y-64164326D01*
X166085674Y-63945880D01*
X166068226Y-63931966D01*
X165943331Y-63832365D01*
X165844143Y-63753265D01*
X165582565Y-63588905D01*
X165582562Y-63588903D01*
X165304236Y-63454868D01*
X165304222Y-63454862D01*
X165012647Y-63352835D01*
X165012635Y-63352831D01*
X164711455Y-63284089D01*
X164711437Y-63284086D01*
X164404471Y-63249500D01*
X164404465Y-63249500D01*
X164095535Y-63249500D01*
X164095528Y-63249500D01*
X163788562Y-63284086D01*
X163788544Y-63284089D01*
X163487364Y-63352831D01*
X163487352Y-63352835D01*
X163195777Y-63454862D01*
X163195763Y-63454868D01*
X162917437Y-63588903D01*
X162655858Y-63753264D01*
X162414326Y-63945879D01*
X162195879Y-64164326D01*
X162003264Y-64405858D01*
X161838903Y-64667437D01*
X161704868Y-64945763D01*
X161704862Y-64945777D01*
X161602835Y-65237352D01*
X161602831Y-65237364D01*
X161534089Y-65538544D01*
X161534086Y-65538562D01*
X161499500Y-65845528D01*
X137189739Y-65845528D01*
X137105911Y-65761700D01*
X137105907Y-65761697D01*
X136950237Y-65657681D01*
X136950228Y-65657676D01*
X136777251Y-65586027D01*
X136777243Y-65586025D01*
X136593620Y-65549500D01*
X136593616Y-65549500D01*
X136406384Y-65549500D01*
X136406379Y-65549500D01*
X136222756Y-65586025D01*
X136222748Y-65586027D01*
X136049771Y-65657676D01*
X136049760Y-65657682D01*
X136018455Y-65678601D01*
X135951778Y-65699480D01*
X135949563Y-65699500D01*
X132300437Y-65699500D01*
X132233398Y-65679815D01*
X132231545Y-65678601D01*
X132200239Y-65657682D01*
X132200228Y-65657676D01*
X132027251Y-65586027D01*
X132027243Y-65586025D01*
X131843620Y-65549500D01*
X131843616Y-65549500D01*
X131656384Y-65549500D01*
X131656379Y-65549500D01*
X131472756Y-65586025D01*
X131472748Y-65586027D01*
X131299771Y-65657676D01*
X131299762Y-65657681D01*
X131144092Y-65761697D01*
X131144088Y-65761700D01*
X131011700Y-65894088D01*
X131011697Y-65894092D01*
X130907681Y-66049762D01*
X130907676Y-66049771D01*
X130836027Y-66222748D01*
X130836025Y-66222756D01*
X130799500Y-66406379D01*
X110500500Y-66406379D01*
X110500500Y-63149983D01*
X114199500Y-63149983D01*
X114199500Y-65350001D01*
X114199501Y-65350018D01*
X114210000Y-65452796D01*
X114210001Y-65452799D01*
X114242045Y-65549500D01*
X114265186Y-65619334D01*
X114357288Y-65768656D01*
X114481344Y-65892712D01*
X114630666Y-65984814D01*
X114797203Y-66039999D01*
X114899991Y-66050500D01*
X117100008Y-66050499D01*
X117202797Y-66039999D01*
X117369334Y-65984814D01*
X117518656Y-65892712D01*
X117642712Y-65768656D01*
X117734814Y-65619334D01*
X117789999Y-65452797D01*
X117800500Y-65350009D01*
X117800499Y-63149992D01*
X117789999Y-63047203D01*
X117740441Y-62897648D01*
X125699500Y-62897648D01*
X125699500Y-63102351D01*
X125731522Y-63304534D01*
X125794781Y-63499223D01*
X125840476Y-63588903D01*
X125887585Y-63681359D01*
X125887715Y-63681613D01*
X126008028Y-63847213D01*
X126152786Y-63991971D01*
X126235806Y-64052287D01*
X126318390Y-64112287D01*
X126383021Y-64145218D01*
X126500776Y-64205218D01*
X126500778Y-64205218D01*
X126500781Y-64205220D01*
X126539791Y-64217895D01*
X126695465Y-64268477D01*
X126796557Y-64284488D01*
X126897648Y-64300500D01*
X126897649Y-64300500D01*
X127102351Y-64300500D01*
X127102352Y-64300500D01*
X127304534Y-64268477D01*
X127499219Y-64205220D01*
X127681610Y-64112287D01*
X127774590Y-64044732D01*
X127847213Y-63991971D01*
X127847215Y-63991968D01*
X127847219Y-63991966D01*
X127991966Y-63847219D01*
X127991968Y-63847215D01*
X127991971Y-63847213D01*
X128060228Y-63753264D01*
X128112287Y-63681610D01*
X128205220Y-63499219D01*
X128268477Y-63304534D01*
X128300500Y-63102352D01*
X128300500Y-62897648D01*
X128290997Y-62837648D01*
X130449500Y-62837648D01*
X130449500Y-63042351D01*
X130481522Y-63244534D01*
X130544781Y-63439223D01*
X130637715Y-63621613D01*
X130758028Y-63787213D01*
X130902786Y-63931971D01*
X130985371Y-63991971D01*
X131068390Y-64052287D01*
X131184607Y-64111503D01*
X131250776Y-64145218D01*
X131250778Y-64145218D01*
X131250781Y-64145220D01*
X131355137Y-64179127D01*
X131445465Y-64208477D01*
X131504928Y-64217895D01*
X131647648Y-64240500D01*
X131647649Y-64240500D01*
X131852351Y-64240500D01*
X131852352Y-64240500D01*
X132054534Y-64208477D01*
X132249219Y-64145220D01*
X132431610Y-64052287D01*
X132524590Y-63984732D01*
X132597213Y-63931971D01*
X132597215Y-63931968D01*
X132597219Y-63931966D01*
X132741966Y-63787219D01*
X132741968Y-63787215D01*
X132741971Y-63787213D01*
X132794732Y-63714590D01*
X132862287Y-63621610D01*
X132955220Y-63439219D01*
X133018477Y-63244534D01*
X133050500Y-63042352D01*
X133050500Y-62837648D01*
X135199500Y-62837648D01*
X135199500Y-63042351D01*
X135231522Y-63244534D01*
X135294781Y-63439223D01*
X135387715Y-63621613D01*
X135508028Y-63787213D01*
X135652786Y-63931971D01*
X135735371Y-63991971D01*
X135818390Y-64052287D01*
X135934607Y-64111503D01*
X136000776Y-64145218D01*
X136000778Y-64145218D01*
X136000781Y-64145220D01*
X136105137Y-64179127D01*
X136195465Y-64208477D01*
X136254928Y-64217895D01*
X136397648Y-64240500D01*
X136397649Y-64240500D01*
X136602351Y-64240500D01*
X136602352Y-64240500D01*
X136804534Y-64208477D01*
X136999219Y-64145220D01*
X137181610Y-64052287D01*
X137274590Y-63984732D01*
X137347213Y-63931971D01*
X137347215Y-63931968D01*
X137347219Y-63931966D01*
X137491966Y-63787219D01*
X137491968Y-63787215D01*
X137491971Y-63787213D01*
X137544732Y-63714590D01*
X137612287Y-63621610D01*
X137705220Y-63439219D01*
X137768477Y-63244534D01*
X137800500Y-63042352D01*
X137800500Y-62837648D01*
X137796086Y-62809778D01*
X139599500Y-62809778D01*
X139599500Y-63030221D01*
X139633985Y-63247952D01*
X139702103Y-63457603D01*
X139702104Y-63457606D01*
X139802187Y-63654025D01*
X139931752Y-63832358D01*
X139931756Y-63832363D01*
X140087636Y-63988243D01*
X140087641Y-63988247D01*
X140175786Y-64052287D01*
X140265978Y-64117815D01*
X140394375Y-64183237D01*
X140462393Y-64217895D01*
X140462396Y-64217896D01*
X140531966Y-64240500D01*
X140672049Y-64286015D01*
X140889778Y-64320500D01*
X140889779Y-64320500D01*
X141110221Y-64320500D01*
X141110222Y-64320500D01*
X141327951Y-64286015D01*
X141537606Y-64217895D01*
X141734022Y-64117815D01*
X141912365Y-63988242D01*
X142068242Y-63832365D01*
X142197815Y-63654022D01*
X142297895Y-63457606D01*
X142366015Y-63247951D01*
X142400500Y-63030222D01*
X142400500Y-62837648D01*
X144449500Y-62837648D01*
X144449500Y-63042351D01*
X144481522Y-63244534D01*
X144544781Y-63439223D01*
X144637715Y-63621613D01*
X144758028Y-63787213D01*
X144902786Y-63931971D01*
X144985371Y-63991971D01*
X145068390Y-64052287D01*
X145184607Y-64111503D01*
X145250776Y-64145218D01*
X145250778Y-64145218D01*
X145250781Y-64145220D01*
X145355137Y-64179127D01*
X145445465Y-64208477D01*
X145504928Y-64217895D01*
X145647648Y-64240500D01*
X145647649Y-64240500D01*
X145852351Y-64240500D01*
X145852352Y-64240500D01*
X146054534Y-64208477D01*
X146249219Y-64145220D01*
X146431610Y-64052287D01*
X146597219Y-63931966D01*
X146741966Y-63787219D01*
X146741968Y-63787215D01*
X146741971Y-63787213D01*
X146794732Y-63714590D01*
X146862287Y-63621610D01*
X146955220Y-63439219D01*
X147018477Y-63244534D01*
X147050500Y-63042352D01*
X147050500Y-62897682D01*
X149700000Y-62897682D01*
X149700000Y-63102317D01*
X149732009Y-63304417D01*
X149795244Y-63499031D01*
X149888141Y-63681350D01*
X149888147Y-63681359D01*
X149920523Y-63725921D01*
X149920524Y-63725922D01*
X150600000Y-63046446D01*
X150600000Y-63052661D01*
X150627259Y-63154394D01*
X150679920Y-63245606D01*
X150754394Y-63320080D01*
X150845606Y-63372741D01*
X150947339Y-63400000D01*
X150953553Y-63400000D01*
X150274076Y-64079474D01*
X150318650Y-64111859D01*
X150500968Y-64204755D01*
X150695582Y-64267990D01*
X150897683Y-64300000D01*
X151102317Y-64300000D01*
X151304417Y-64267990D01*
X151499031Y-64204755D01*
X151681349Y-64111859D01*
X151725921Y-64079474D01*
X151046447Y-63400000D01*
X151052661Y-63400000D01*
X151154394Y-63372741D01*
X151245606Y-63320080D01*
X151320080Y-63245606D01*
X151372741Y-63154394D01*
X151400000Y-63052661D01*
X151400000Y-63046448D01*
X152079474Y-63725922D01*
X152079474Y-63725921D01*
X152111859Y-63681349D01*
X152204755Y-63499031D01*
X152267990Y-63304417D01*
X152300000Y-63102317D01*
X152300000Y-62897682D01*
X152267990Y-62695582D01*
X152204755Y-62500968D01*
X152111859Y-62318650D01*
X152079474Y-62274077D01*
X152079474Y-62274076D01*
X151400000Y-62953551D01*
X151400000Y-62947339D01*
X151372741Y-62845606D01*
X151320080Y-62754394D01*
X151245606Y-62679920D01*
X151154394Y-62627259D01*
X151052661Y-62600000D01*
X151046446Y-62600000D01*
X151725922Y-61920524D01*
X151725921Y-61920523D01*
X151681359Y-61888147D01*
X151681350Y-61888141D01*
X151499031Y-61795244D01*
X151304417Y-61732009D01*
X151102317Y-61700000D01*
X150897683Y-61700000D01*
X150695582Y-61732009D01*
X150500968Y-61795244D01*
X150318644Y-61888143D01*
X150274077Y-61920523D01*
X150274077Y-61920524D01*
X150953554Y-62600000D01*
X150947339Y-62600000D01*
X150845606Y-62627259D01*
X150754394Y-62679920D01*
X150679920Y-62754394D01*
X150627259Y-62845606D01*
X150600000Y-62947339D01*
X150600000Y-62953553D01*
X149920524Y-62274077D01*
X149920523Y-62274077D01*
X149888143Y-62318644D01*
X149795244Y-62500968D01*
X149732009Y-62695582D01*
X149700000Y-62897682D01*
X147050500Y-62897682D01*
X147050500Y-62837648D01*
X147018477Y-62635466D01*
X147015810Y-62627259D01*
X146974715Y-62500781D01*
X146955220Y-62440781D01*
X146955218Y-62440778D01*
X146955218Y-62440776D01*
X146892988Y-62318644D01*
X146862287Y-62258390D01*
X146854556Y-62247749D01*
X146741971Y-62092786D01*
X146597213Y-61948028D01*
X146431613Y-61827715D01*
X146431612Y-61827714D01*
X146431610Y-61827713D01*
X146367886Y-61795244D01*
X146249223Y-61734781D01*
X146054534Y-61671522D01*
X145879995Y-61643878D01*
X145852352Y-61639500D01*
X145647648Y-61639500D01*
X145623329Y-61643351D01*
X145445465Y-61671522D01*
X145250776Y-61734781D01*
X145068386Y-61827715D01*
X144902786Y-61948028D01*
X144758028Y-62092786D01*
X144637715Y-62258386D01*
X144544781Y-62440776D01*
X144481522Y-62635465D01*
X144449500Y-62837648D01*
X142400500Y-62837648D01*
X142400500Y-62809778D01*
X142366015Y-62592049D01*
X142297895Y-62382394D01*
X142297895Y-62382393D01*
X142242704Y-62274077D01*
X142197815Y-62185978D01*
X142173696Y-62152781D01*
X142068247Y-62007641D01*
X142068243Y-62007636D01*
X141912363Y-61851756D01*
X141912358Y-61851752D01*
X141734025Y-61722187D01*
X141734024Y-61722186D01*
X141734022Y-61722185D01*
X141671096Y-61690122D01*
X141537606Y-61622104D01*
X141537603Y-61622103D01*
X141327952Y-61553985D01*
X141219086Y-61536742D01*
X141110222Y-61519500D01*
X140889778Y-61519500D01*
X140817201Y-61530995D01*
X140672047Y-61553985D01*
X140462396Y-61622103D01*
X140462393Y-61622104D01*
X140265974Y-61722187D01*
X140087641Y-61851752D01*
X140087636Y-61851756D01*
X139931756Y-62007636D01*
X139931752Y-62007641D01*
X139802187Y-62185974D01*
X139702104Y-62382393D01*
X139702103Y-62382396D01*
X139633985Y-62592047D01*
X139599500Y-62809778D01*
X137796086Y-62809778D01*
X137768477Y-62635466D01*
X137705220Y-62440781D01*
X137705218Y-62440778D01*
X137705218Y-62440776D01*
X137642988Y-62318644D01*
X137612287Y-62258390D01*
X137604556Y-62247749D01*
X137491971Y-62092786D01*
X137347213Y-61948028D01*
X137181613Y-61827715D01*
X137181612Y-61827714D01*
X137181610Y-61827713D01*
X137117886Y-61795244D01*
X136999223Y-61734781D01*
X136804534Y-61671522D01*
X136629995Y-61643878D01*
X136602352Y-61639500D01*
X136397648Y-61639500D01*
X136373329Y-61643351D01*
X136195465Y-61671522D01*
X136000776Y-61734781D01*
X135818386Y-61827715D01*
X135652786Y-61948028D01*
X135508028Y-62092786D01*
X135387715Y-62258386D01*
X135294781Y-62440776D01*
X135231522Y-62635465D01*
X135199500Y-62837648D01*
X133050500Y-62837648D01*
X133018477Y-62635466D01*
X133015810Y-62627259D01*
X132974715Y-62500781D01*
X132955220Y-62440781D01*
X132955218Y-62440778D01*
X132955218Y-62440776D01*
X132892988Y-62318644D01*
X132862287Y-62258390D01*
X132854556Y-62247749D01*
X132741971Y-62092786D01*
X132597213Y-61948028D01*
X132431613Y-61827715D01*
X132431612Y-61827714D01*
X132431610Y-61827713D01*
X132367886Y-61795244D01*
X132249223Y-61734781D01*
X132054534Y-61671522D01*
X131879995Y-61643878D01*
X131852352Y-61639500D01*
X131647648Y-61639500D01*
X131623329Y-61643351D01*
X131445465Y-61671522D01*
X131250776Y-61734781D01*
X131068386Y-61827715D01*
X130902786Y-61948028D01*
X130758028Y-62092786D01*
X130637715Y-62258386D01*
X130544781Y-62440776D01*
X130481522Y-62635465D01*
X130449500Y-62837648D01*
X128290997Y-62837648D01*
X128268477Y-62695466D01*
X128205220Y-62500781D01*
X128205218Y-62500778D01*
X128205218Y-62500776D01*
X128171503Y-62434607D01*
X128112287Y-62318390D01*
X128080092Y-62274077D01*
X127991971Y-62152786D01*
X127847213Y-62008028D01*
X127681613Y-61887715D01*
X127681612Y-61887714D01*
X127681610Y-61887713D01*
X127624653Y-61858691D01*
X127499223Y-61794781D01*
X127304534Y-61731522D01*
X127129995Y-61703878D01*
X127102352Y-61699500D01*
X126897648Y-61699500D01*
X126873329Y-61703351D01*
X126695465Y-61731522D01*
X126500776Y-61794781D01*
X126318386Y-61887715D01*
X126152786Y-62008028D01*
X126008028Y-62152786D01*
X125887715Y-62318386D01*
X125794781Y-62500776D01*
X125731522Y-62695465D01*
X125699500Y-62897648D01*
X117740441Y-62897648D01*
X117734814Y-62880666D01*
X117642712Y-62731344D01*
X117518656Y-62607288D01*
X117369334Y-62515186D01*
X117202797Y-62460001D01*
X117202795Y-62460000D01*
X117100010Y-62449500D01*
X114899998Y-62449500D01*
X114899981Y-62449501D01*
X114797203Y-62460000D01*
X114797200Y-62460001D01*
X114630668Y-62515185D01*
X114630663Y-62515187D01*
X114481342Y-62607289D01*
X114357289Y-62731342D01*
X114265187Y-62880663D01*
X114265185Y-62880668D01*
X114210001Y-63047203D01*
X114199500Y-63149983D01*
X110500500Y-63149983D01*
X110500500Y-61386102D01*
X110506305Y-61366331D01*
X110507251Y-61345745D01*
X110519164Y-61322539D01*
X110520185Y-61319063D01*
X110523342Y-61314387D01*
X110650488Y-61135192D01*
X110659128Y-61124358D01*
X110874049Y-60883861D01*
X110883861Y-60874049D01*
X111124358Y-60659128D01*
X111135190Y-60650490D01*
X111314349Y-60523369D01*
X111380414Y-60500631D01*
X111386103Y-60500500D01*
X168613897Y-60500500D01*
X168680936Y-60520185D01*
G37*
G04 #@! TD.AperFunction*
M02*
