%TF.GenerationSoftware,KiCad,Pcbnew,9.0.7-9.0.7~ubuntu24.04.1*%
%TF.CreationDate,2026-02-14T09:37:02+01:00*%
%TF.ProjectId,berta_2p0_Platine,62657274-615f-4327-9030-5f506c617469,rev?*%
%TF.SameCoordinates,Original*%
%TF.FileFunction,Drillmap*%
%TF.FilePolarity,Positive*%
%FSLAX45Y45*%
G04 Gerber Fmt 4.5, Leading zero omitted, Abs format (unit mm)*
G04 Created by KiCad (PCBNEW 9.0.7-9.0.7~ubuntu24.04.1) date 2026-02-14 09:37:02*
%MOMM*%
%LPD*%
G01*
G04 APERTURE LIST*
%ADD10C,0.038100*%
%ADD11C,0.200000*%
%ADD12C,0.100000*%
%ADD13C,0.102000*%
%ADD14C,0.130000*%
G04 APERTURE END LIST*
D10*
X17000000Y-6000000D02*
X17000000Y-13000000D01*
X11000000Y-13000000D02*
X17000000Y-13000000D01*
X11000000Y-6000000D02*
X17000000Y-6000000D01*
X11000000Y-6000000D02*
X11000000Y-13000000D01*
D11*
D12*
X12380000Y-10555000D02*
X12420000Y-10595000D01*
X12420000Y-10555000D02*
X12380000Y-10595000D01*
X13155000Y-6630000D02*
X13195000Y-6670000D01*
X13195000Y-6630000D02*
X13155000Y-6670000D01*
X13630000Y-6630000D02*
X13670000Y-6670000D01*
X13670000Y-6630000D02*
X13630000Y-6670000D01*
X13830000Y-11945000D02*
X13870000Y-11985000D01*
X13870000Y-11945000D02*
X13830000Y-11985000D01*
X15205000Y-8805000D02*
X15245000Y-8845000D01*
X15245000Y-8805000D02*
X15205000Y-8845000D01*
X15310000Y-11705000D02*
X15350000Y-11745000D01*
X15350000Y-11705000D02*
X15310000Y-11745000D01*
X12360000Y-7970000D02*
G75*
G02*
X12280000Y-7970000I-40000J0D01*
G01*
X12280000Y-7970000D02*
G75*
G02*
X12360000Y-7970000I40000J0D01*
G01*
X12740000Y-6300000D02*
G75*
G02*
X12660000Y-6300000I-40000J0D01*
G01*
X12660000Y-6300000D02*
G75*
G02*
X12740000Y-6300000I40000J0D01*
G01*
X12740000Y-6800000D02*
G75*
G02*
X12660000Y-6800000I-40000J0D01*
G01*
X12660000Y-6800000D02*
G75*
G02*
X12740000Y-6800000I40000J0D01*
G01*
X12840000Y-12000000D02*
G75*
G02*
X12760000Y-12000000I-40000J0D01*
G01*
X12760000Y-12000000D02*
G75*
G02*
X12840000Y-12000000I40000J0D01*
G01*
X12840000Y-12500000D02*
G75*
G02*
X12760000Y-12500000I-40000J0D01*
G01*
X12760000Y-12500000D02*
G75*
G02*
X12840000Y-12500000I40000J0D01*
G01*
X12860000Y-7970000D02*
G75*
G02*
X12780000Y-7970000I-40000J0D01*
G01*
X12780000Y-7970000D02*
G75*
G02*
X12860000Y-7970000I40000J0D01*
G01*
X13215000Y-6294000D02*
G75*
G02*
X13135000Y-6294000I-40000J0D01*
G01*
X13135000Y-6294000D02*
G75*
G02*
X13215000Y-6294000I40000J0D01*
G01*
X13215000Y-7056000D02*
G75*
G02*
X13135000Y-7056000I-40000J0D01*
G01*
X13135000Y-7056000D02*
G75*
G02*
X13215000Y-7056000I40000J0D01*
G01*
X13350000Y-11744000D02*
G75*
G02*
X13270000Y-11744000I-40000J0D01*
G01*
X13270000Y-11744000D02*
G75*
G02*
X13350000Y-11744000I40000J0D01*
G01*
X13350000Y-12506000D02*
G75*
G02*
X13270000Y-12506000I-40000J0D01*
G01*
X13270000Y-12506000D02*
G75*
G02*
X13350000Y-12506000I40000J0D01*
G01*
X13520000Y-10840000D02*
G75*
G02*
X13440000Y-10840000I-40000J0D01*
G01*
X13440000Y-10840000D02*
G75*
G02*
X13520000Y-10840000I40000J0D01*
G01*
X13690000Y-6294000D02*
G75*
G02*
X13610000Y-6294000I-40000J0D01*
G01*
X13610000Y-6294000D02*
G75*
G02*
X13690000Y-6294000I40000J0D01*
G01*
X13690000Y-7056000D02*
G75*
G02*
X13610000Y-7056000I-40000J0D01*
G01*
X13610000Y-7056000D02*
G75*
G02*
X13690000Y-7056000I40000J0D01*
G01*
X13770000Y-11090000D02*
G75*
G02*
X13690000Y-11090000I-40000J0D01*
G01*
X13690000Y-11090000D02*
G75*
G02*
X13770000Y-11090000I40000J0D01*
G01*
X13890000Y-11744000D02*
G75*
G02*
X13810000Y-11744000I-40000J0D01*
G01*
X13810000Y-11744000D02*
G75*
G02*
X13890000Y-11744000I40000J0D01*
G01*
X13890000Y-12506000D02*
G75*
G02*
X13810000Y-12506000I-40000J0D01*
G01*
X13810000Y-12506000D02*
G75*
G02*
X13890000Y-12506000I40000J0D01*
G01*
X14020000Y-10840000D02*
G75*
G02*
X13940000Y-10840000I-40000J0D01*
G01*
X13940000Y-10840000D02*
G75*
G02*
X14020000Y-10840000I40000J0D01*
G01*
X14615000Y-6294000D02*
G75*
G02*
X14535000Y-6294000I-40000J0D01*
G01*
X14535000Y-6294000D02*
G75*
G02*
X14615000Y-6294000I40000J0D01*
G01*
X14615000Y-7056000D02*
G75*
G02*
X14535000Y-7056000I-40000J0D01*
G01*
X14535000Y-7056000D02*
G75*
G02*
X14615000Y-7056000I40000J0D01*
G01*
X14732000Y-11075000D02*
G75*
G02*
X14652000Y-11075000I-40000J0D01*
G01*
X14652000Y-11075000D02*
G75*
G02*
X14732000Y-11075000I40000J0D01*
G01*
X14965000Y-11744000D02*
G75*
G02*
X14885000Y-11744000I-40000J0D01*
G01*
X14885000Y-11744000D02*
G75*
G02*
X14965000Y-11744000I40000J0D01*
G01*
X14965000Y-12506000D02*
G75*
G02*
X14885000Y-12506000I-40000J0D01*
G01*
X14885000Y-12506000D02*
G75*
G02*
X14965000Y-12506000I40000J0D01*
G01*
X14986000Y-11329000D02*
G75*
G02*
X14906000Y-11329000I-40000J0D01*
G01*
X14906000Y-11329000D02*
G75*
G02*
X14986000Y-11329000I40000J0D01*
G01*
X15140000Y-6300000D02*
G75*
G02*
X15060000Y-6300000I-40000J0D01*
G01*
X15060000Y-6300000D02*
G75*
G02*
X15140000Y-6300000I40000J0D01*
G01*
X15140000Y-7062000D02*
G75*
G02*
X15060000Y-7062000I-40000J0D01*
G01*
X15060000Y-7062000D02*
G75*
G02*
X15140000Y-7062000I40000J0D01*
G01*
X15240000Y-11075000D02*
G75*
G02*
X15160000Y-11075000I-40000J0D01*
G01*
X15160000Y-11075000D02*
G75*
G02*
X15240000Y-11075000I40000J0D01*
G01*
X15515000Y-7475000D02*
G75*
G02*
X15435000Y-7475000I-40000J0D01*
G01*
X15435000Y-7475000D02*
G75*
G02*
X15515000Y-7475000I40000J0D01*
G01*
X15665000Y-11738000D02*
G75*
G02*
X15585000Y-11738000I-40000J0D01*
G01*
X15585000Y-11738000D02*
G75*
G02*
X15665000Y-11738000I40000J0D01*
G01*
X15665000Y-12500000D02*
G75*
G02*
X15585000Y-12500000I-40000J0D01*
G01*
X15585000Y-12500000D02*
G75*
G02*
X15665000Y-12500000I40000J0D01*
G01*
X15769000Y-7221000D02*
G75*
G02*
X15689000Y-7221000I-40000J0D01*
G01*
X15689000Y-7221000D02*
G75*
G02*
X15769000Y-7221000I40000J0D01*
G01*
X16023000Y-7475000D02*
G75*
G02*
X15943000Y-7475000I-40000J0D01*
G01*
X15943000Y-7475000D02*
G75*
G02*
X16023000Y-7475000I40000J0D01*
G01*
X14100000Y-6247000D02*
X14100000Y-6337000D01*
X14055000Y-6292000D02*
X14145000Y-6292000D01*
X14100000Y-7263000D02*
X14100000Y-7353000D01*
X14055000Y-7308000D02*
X14145000Y-7308000D01*
X11660356Y-8031356D02*
X11660356Y-7960644D01*
X11589644Y-7960644D01*
X11589644Y-8031356D01*
X11660356Y-8031356D01*
X11660356Y-8285356D02*
X11660356Y-8214644D01*
X11589644Y-8214644D01*
X11589644Y-8285356D01*
X11660356Y-8285356D01*
X11660356Y-8539356D02*
X11660356Y-8468644D01*
X11589644Y-8468644D01*
X11589644Y-8539356D01*
X11660356Y-8539356D01*
X14606356Y-7735356D02*
X14606356Y-7664644D01*
X14535644Y-7664644D01*
X14535644Y-7735356D01*
X14606356Y-7735356D01*
X14731356Y-10635356D02*
X14731356Y-10564644D01*
X14660644Y-10564644D01*
X14660644Y-10635356D01*
X14731356Y-10635356D01*
X14860356Y-7735356D02*
X14860356Y-7664644D01*
X14789644Y-7664644D01*
X14789644Y-7735356D01*
X14860356Y-7735356D01*
X14985356Y-10635356D02*
X14985356Y-10564644D01*
X14914644Y-10564644D01*
X14914644Y-10635356D01*
X14985356Y-10635356D01*
X15631356Y-10810356D02*
X15631356Y-10739644D01*
X15560644Y-10739644D01*
X15560644Y-10810356D01*
X15631356Y-10810356D01*
X15885356Y-10810356D02*
X15885356Y-10739644D01*
X15814644Y-10739644D01*
X15814644Y-10810356D01*
X15885356Y-10810356D01*
X16139356Y-10810356D02*
X16139356Y-10739644D01*
X16068644Y-10739644D01*
X16068644Y-10810356D01*
X16139356Y-10810356D01*
X16393356Y-10810356D02*
X16393356Y-10739644D01*
X16322644Y-10739644D01*
X16322644Y-10810356D01*
X16393356Y-10810356D01*
X16647356Y-10810356D02*
X16647356Y-10739644D01*
X16576644Y-10739644D01*
X16576644Y-10810356D01*
X16647356Y-10810356D01*
D13*
X13191000Y-8298000D02*
X13242000Y-8247000D01*
X13191000Y-8196000D01*
X13140000Y-8247000D01*
X13191000Y-8298000D01*
X13191000Y-10076000D02*
X13242000Y-10025000D01*
X13191000Y-9974000D01*
X13140000Y-10025000D01*
X13191000Y-10076000D01*
X13445000Y-8298000D02*
X13496000Y-8247000D01*
X13445000Y-8196000D01*
X13394000Y-8247000D01*
X13445000Y-8298000D01*
X13445000Y-10076000D02*
X13496000Y-10025000D01*
X13445000Y-9974000D01*
X13394000Y-10025000D01*
X13445000Y-10076000D01*
X13699000Y-8298000D02*
X13750000Y-8247000D01*
X13699000Y-8196000D01*
X13648000Y-8247000D01*
X13699000Y-8298000D01*
X13699000Y-10076000D02*
X13750000Y-10025000D01*
X13699000Y-9974000D01*
X13648000Y-10025000D01*
X13699000Y-10076000D01*
X13953000Y-8298000D02*
X14004000Y-8247000D01*
X13953000Y-8196000D01*
X13902000Y-8247000D01*
X13953000Y-8298000D01*
X13953000Y-10076000D02*
X14004000Y-10025000D01*
X13953000Y-9974000D01*
X13902000Y-10025000D01*
X13953000Y-10076000D01*
X14207000Y-8298000D02*
X14258000Y-8247000D01*
X14207000Y-8196000D01*
X14156000Y-8247000D01*
X14207000Y-8298000D01*
X14207000Y-10076000D02*
X14258000Y-10025000D01*
X14207000Y-9974000D01*
X14156000Y-10025000D01*
X14207000Y-10076000D01*
X14461000Y-8298000D02*
X14512000Y-8247000D01*
X14461000Y-8196000D01*
X14410000Y-8247000D01*
X14461000Y-8298000D01*
X14461000Y-10076000D02*
X14512000Y-10025000D01*
X14461000Y-9974000D01*
X14410000Y-10025000D01*
X14461000Y-10076000D01*
X14715000Y-8298000D02*
X14766000Y-8247000D01*
X14715000Y-8196000D01*
X14664000Y-8247000D01*
X14715000Y-8298000D01*
X14715000Y-10076000D02*
X14766000Y-10025000D01*
X14715000Y-9974000D01*
X14664000Y-10025000D01*
X14715000Y-10076000D01*
X14969000Y-8298000D02*
X15020000Y-8247000D01*
X14969000Y-8196000D01*
X14918000Y-8247000D01*
X14969000Y-8298000D01*
X14969000Y-10076000D02*
X15020000Y-10025000D01*
X14969000Y-9974000D01*
X14918000Y-10025000D01*
X14969000Y-10076000D01*
X15223000Y-8298000D02*
X15274000Y-8247000D01*
X15223000Y-8196000D01*
X15172000Y-8247000D01*
X15223000Y-8298000D01*
X15223000Y-10076000D02*
X15274000Y-10025000D01*
X15223000Y-9974000D01*
X15172000Y-10025000D01*
X15223000Y-10076000D01*
X15477000Y-8298000D02*
X15528000Y-8247000D01*
X15477000Y-8196000D01*
X15426000Y-8247000D01*
X15477000Y-8298000D01*
X15477000Y-10076000D02*
X15528000Y-10025000D01*
X15477000Y-9974000D01*
X15426000Y-10025000D01*
X15477000Y-10076000D01*
X15731000Y-8298000D02*
X15782000Y-8247000D01*
X15731000Y-8196000D01*
X15680000Y-8247000D01*
X15731000Y-8298000D01*
X15731000Y-10076000D02*
X15782000Y-10025000D01*
X15731000Y-9974000D01*
X15680000Y-10025000D01*
X15731000Y-10076000D01*
X15985000Y-8298000D02*
X16036000Y-8247000D01*
X15985000Y-8196000D01*
X15934000Y-8247000D01*
X15985000Y-8298000D01*
X15985000Y-10076000D02*
X16036000Y-10025000D01*
X15985000Y-9974000D01*
X15934000Y-10025000D01*
X15985000Y-10076000D01*
X16239000Y-8298000D02*
X16290000Y-8247000D01*
X16239000Y-8196000D01*
X16188000Y-8247000D01*
X16239000Y-8298000D01*
X16239000Y-10076000D02*
X16290000Y-10025000D01*
X16239000Y-9974000D01*
X16188000Y-10025000D01*
X16239000Y-10076000D01*
X16493000Y-8298000D02*
X16544000Y-8247000D01*
X16493000Y-8196000D01*
X16442000Y-8247000D01*
X16493000Y-8298000D01*
X16493000Y-10076000D02*
X16544000Y-10025000D01*
X16493000Y-9974000D01*
X16442000Y-10025000D01*
X16493000Y-10076000D01*
D14*
X11535000Y-6360000D02*
X11665000Y-6490000D01*
X11665000Y-6360000D02*
X11535000Y-6490000D01*
X11665000Y-6425000D02*
G75*
G02*
X11535000Y-6425000I-65000J0D01*
G01*
X11535000Y-6425000D02*
G75*
G02*
X11665000Y-6425000I65000J0D01*
G01*
X11535000Y-6860000D02*
X11665000Y-6990000D01*
X11665000Y-6860000D02*
X11535000Y-6990000D01*
X11665000Y-6925000D02*
G75*
G02*
X11535000Y-6925000I-65000J0D01*
G01*
X11535000Y-6925000D02*
G75*
G02*
X11665000Y-6925000I65000J0D01*
G01*
X11560000Y-10010000D02*
X11690000Y-10140000D01*
X11690000Y-10010000D02*
X11560000Y-10140000D01*
X11690000Y-10075000D02*
G75*
G02*
X11560000Y-10075000I-65000J0D01*
G01*
X11560000Y-10075000D02*
G75*
G02*
X11690000Y-10075000I65000J0D01*
G01*
X11560000Y-10510000D02*
X11690000Y-10640000D01*
X11690000Y-10510000D02*
X11560000Y-10640000D01*
X11690000Y-10575000D02*
G75*
G02*
X11560000Y-10575000I-65000J0D01*
G01*
X11560000Y-10575000D02*
G75*
G02*
X11690000Y-10575000I65000J0D01*
G01*
X11560000Y-11010000D02*
X11690000Y-11140000D01*
X11690000Y-11010000D02*
X11560000Y-11140000D01*
X11690000Y-11075000D02*
G75*
G02*
X11560000Y-11075000I-65000J0D01*
G01*
X11560000Y-11075000D02*
G75*
G02*
X11690000Y-11075000I65000J0D01*
G01*
X11560000Y-11510000D02*
X11690000Y-11640000D01*
X11690000Y-11510000D02*
X11560000Y-11640000D01*
X11690000Y-11575000D02*
G75*
G02*
X11560000Y-11575000I-65000J0D01*
G01*
X11560000Y-11575000D02*
G75*
G02*
X11690000Y-11575000I65000J0D01*
G01*
X11560000Y-12010000D02*
X11690000Y-12140000D01*
X11690000Y-12010000D02*
X11560000Y-12140000D01*
X11690000Y-12075000D02*
G75*
G02*
X11560000Y-12075000I-65000J0D01*
G01*
X11560000Y-12075000D02*
G75*
G02*
X11690000Y-12075000I65000J0D01*
G01*
X11560000Y-12510000D02*
X11690000Y-12640000D01*
X11690000Y-12510000D02*
X11560000Y-12640000D01*
X11690000Y-12575000D02*
G75*
G02*
X11560000Y-12575000I-65000J0D01*
G01*
X11560000Y-12575000D02*
G75*
G02*
X11690000Y-12575000I65000J0D01*
G01*
X14260000Y-11427000D02*
X14390000Y-11557000D01*
X14390000Y-11427000D02*
X14260000Y-11557000D01*
X14390000Y-11492000D02*
G75*
G02*
X14260000Y-11492000I-65000J0D01*
G01*
X14260000Y-11492000D02*
G75*
G02*
X14390000Y-11492000I65000J0D01*
G01*
X14260000Y-12443000D02*
X14390000Y-12573000D01*
X14390000Y-12443000D02*
X14260000Y-12573000D01*
X14390000Y-12508000D02*
G75*
G02*
X14260000Y-12508000I-65000J0D01*
G01*
X14260000Y-12508000D02*
G75*
G02*
X14390000Y-12508000I65000J0D01*
G01*
D11*
X11258872Y-13313389D02*
X11258872Y-13113389D01*
X11258872Y-13113389D02*
X11306491Y-13113389D01*
X11306491Y-13113389D02*
X11335062Y-13122913D01*
X11335062Y-13122913D02*
X11354110Y-13141960D01*
X11354110Y-13141960D02*
X11363634Y-13161008D01*
X11363634Y-13161008D02*
X11373157Y-13199103D01*
X11373157Y-13199103D02*
X11373157Y-13227674D01*
X11373157Y-13227674D02*
X11363634Y-13265770D01*
X11363634Y-13265770D02*
X11354110Y-13284817D01*
X11354110Y-13284817D02*
X11335062Y-13303865D01*
X11335062Y-13303865D02*
X11306491Y-13313389D01*
X11306491Y-13313389D02*
X11258872Y-13313389D01*
X11458872Y-13313389D02*
X11458872Y-13180055D01*
X11458872Y-13218151D02*
X11468396Y-13199103D01*
X11468396Y-13199103D02*
X11477919Y-13189579D01*
X11477919Y-13189579D02*
X11496967Y-13180055D01*
X11496967Y-13180055D02*
X11516015Y-13180055D01*
X11582681Y-13313389D02*
X11582681Y-13180055D01*
X11582681Y-13113389D02*
X11573157Y-13122913D01*
X11573157Y-13122913D02*
X11582681Y-13132436D01*
X11582681Y-13132436D02*
X11592205Y-13122913D01*
X11592205Y-13122913D02*
X11582681Y-13113389D01*
X11582681Y-13113389D02*
X11582681Y-13132436D01*
X11706491Y-13313389D02*
X11687443Y-13303865D01*
X11687443Y-13303865D02*
X11677919Y-13284817D01*
X11677919Y-13284817D02*
X11677919Y-13113389D01*
X11811253Y-13313389D02*
X11792205Y-13303865D01*
X11792205Y-13303865D02*
X11782681Y-13284817D01*
X11782681Y-13284817D02*
X11782681Y-13113389D01*
X12039824Y-13313389D02*
X12039824Y-13113389D01*
X12039824Y-13113389D02*
X12106491Y-13256246D01*
X12106491Y-13256246D02*
X12173157Y-13113389D01*
X12173157Y-13113389D02*
X12173157Y-13313389D01*
X12354110Y-13313389D02*
X12354110Y-13208627D01*
X12354110Y-13208627D02*
X12344586Y-13189579D01*
X12344586Y-13189579D02*
X12325538Y-13180055D01*
X12325538Y-13180055D02*
X12287443Y-13180055D01*
X12287443Y-13180055D02*
X12268396Y-13189579D01*
X12354110Y-13303865D02*
X12335062Y-13313389D01*
X12335062Y-13313389D02*
X12287443Y-13313389D01*
X12287443Y-13313389D02*
X12268396Y-13303865D01*
X12268396Y-13303865D02*
X12258872Y-13284817D01*
X12258872Y-13284817D02*
X12258872Y-13265770D01*
X12258872Y-13265770D02*
X12268396Y-13246722D01*
X12268396Y-13246722D02*
X12287443Y-13237198D01*
X12287443Y-13237198D02*
X12335062Y-13237198D01*
X12335062Y-13237198D02*
X12354110Y-13227674D01*
X12449348Y-13180055D02*
X12449348Y-13380055D01*
X12449348Y-13189579D02*
X12468396Y-13180055D01*
X12468396Y-13180055D02*
X12506491Y-13180055D01*
X12506491Y-13180055D02*
X12525538Y-13189579D01*
X12525538Y-13189579D02*
X12535062Y-13199103D01*
X12535062Y-13199103D02*
X12544586Y-13218151D01*
X12544586Y-13218151D02*
X12544586Y-13275293D01*
X12544586Y-13275293D02*
X12535062Y-13294341D01*
X12535062Y-13294341D02*
X12525538Y-13303865D01*
X12525538Y-13303865D02*
X12506491Y-13313389D01*
X12506491Y-13313389D02*
X12468396Y-13313389D01*
X12468396Y-13313389D02*
X12449348Y-13303865D01*
X12630300Y-13294341D02*
X12639824Y-13303865D01*
X12639824Y-13303865D02*
X12630300Y-13313389D01*
X12630300Y-13313389D02*
X12620777Y-13303865D01*
X12620777Y-13303865D02*
X12630300Y-13294341D01*
X12630300Y-13294341D02*
X12630300Y-13313389D01*
X12630300Y-13189579D02*
X12639824Y-13199103D01*
X12639824Y-13199103D02*
X12630300Y-13208627D01*
X12630300Y-13208627D02*
X12620777Y-13199103D01*
X12620777Y-13199103D02*
X12630300Y-13189579D01*
X12630300Y-13189579D02*
X12630300Y-13208627D01*
D12*
X10958095Y-13621905D02*
X10998095Y-13661905D01*
X10998095Y-13621905D02*
X10958095Y-13661905D01*
D11*
X11296967Y-13533389D02*
X11316015Y-13533389D01*
X11316015Y-13533389D02*
X11335062Y-13542913D01*
X11335062Y-13542913D02*
X11344586Y-13552436D01*
X11344586Y-13552436D02*
X11354110Y-13571484D01*
X11354110Y-13571484D02*
X11363634Y-13609579D01*
X11363634Y-13609579D02*
X11363634Y-13657198D01*
X11363634Y-13657198D02*
X11354110Y-13695293D01*
X11354110Y-13695293D02*
X11344586Y-13714341D01*
X11344586Y-13714341D02*
X11335062Y-13723865D01*
X11335062Y-13723865D02*
X11316015Y-13733389D01*
X11316015Y-13733389D02*
X11296967Y-13733389D01*
X11296967Y-13733389D02*
X11277919Y-13723865D01*
X11277919Y-13723865D02*
X11268396Y-13714341D01*
X11268396Y-13714341D02*
X11258872Y-13695293D01*
X11258872Y-13695293D02*
X11249348Y-13657198D01*
X11249348Y-13657198D02*
X11249348Y-13609579D01*
X11249348Y-13609579D02*
X11258872Y-13571484D01*
X11258872Y-13571484D02*
X11268396Y-13552436D01*
X11268396Y-13552436D02*
X11277919Y-13542913D01*
X11277919Y-13542913D02*
X11296967Y-13533389D01*
X11449348Y-13714341D02*
X11458872Y-13723865D01*
X11458872Y-13723865D02*
X11449348Y-13733389D01*
X11449348Y-13733389D02*
X11439824Y-13723865D01*
X11439824Y-13723865D02*
X11449348Y-13714341D01*
X11449348Y-13714341D02*
X11449348Y-13733389D01*
X11630300Y-13600055D02*
X11630300Y-13733389D01*
X11582681Y-13523865D02*
X11535062Y-13666722D01*
X11535062Y-13666722D02*
X11658872Y-13666722D01*
X11773157Y-13533389D02*
X11792205Y-13533389D01*
X11792205Y-13533389D02*
X11811253Y-13542913D01*
X11811253Y-13542913D02*
X11820777Y-13552436D01*
X11820777Y-13552436D02*
X11830300Y-13571484D01*
X11830300Y-13571484D02*
X11839824Y-13609579D01*
X11839824Y-13609579D02*
X11839824Y-13657198D01*
X11839824Y-13657198D02*
X11830300Y-13695293D01*
X11830300Y-13695293D02*
X11820777Y-13714341D01*
X11820777Y-13714341D02*
X11811253Y-13723865D01*
X11811253Y-13723865D02*
X11792205Y-13733389D01*
X11792205Y-13733389D02*
X11773157Y-13733389D01*
X11773157Y-13733389D02*
X11754110Y-13723865D01*
X11754110Y-13723865D02*
X11744586Y-13714341D01*
X11744586Y-13714341D02*
X11735062Y-13695293D01*
X11735062Y-13695293D02*
X11725538Y-13657198D01*
X11725538Y-13657198D02*
X11725538Y-13609579D01*
X11725538Y-13609579D02*
X11735062Y-13571484D01*
X11735062Y-13571484D02*
X11744586Y-13552436D01*
X11744586Y-13552436D02*
X11754110Y-13542913D01*
X11754110Y-13542913D02*
X11773157Y-13533389D01*
X11963634Y-13533389D02*
X11982681Y-13533389D01*
X11982681Y-13533389D02*
X12001729Y-13542913D01*
X12001729Y-13542913D02*
X12011253Y-13552436D01*
X12011253Y-13552436D02*
X12020777Y-13571484D01*
X12020777Y-13571484D02*
X12030300Y-13609579D01*
X12030300Y-13609579D02*
X12030300Y-13657198D01*
X12030300Y-13657198D02*
X12020777Y-13695293D01*
X12020777Y-13695293D02*
X12011253Y-13714341D01*
X12011253Y-13714341D02*
X12001729Y-13723865D01*
X12001729Y-13723865D02*
X11982681Y-13733389D01*
X11982681Y-13733389D02*
X11963634Y-13733389D01*
X11963634Y-13733389D02*
X11944586Y-13723865D01*
X11944586Y-13723865D02*
X11935062Y-13714341D01*
X11935062Y-13714341D02*
X11925538Y-13695293D01*
X11925538Y-13695293D02*
X11916015Y-13657198D01*
X11916015Y-13657198D02*
X11916015Y-13609579D01*
X11916015Y-13609579D02*
X11925538Y-13571484D01*
X11925538Y-13571484D02*
X11935062Y-13552436D01*
X11935062Y-13552436D02*
X11944586Y-13542913D01*
X11944586Y-13542913D02*
X11963634Y-13533389D01*
X12116015Y-13733389D02*
X12116015Y-13600055D01*
X12116015Y-13619103D02*
X12125538Y-13609579D01*
X12125538Y-13609579D02*
X12144586Y-13600055D01*
X12144586Y-13600055D02*
X12173158Y-13600055D01*
X12173158Y-13600055D02*
X12192205Y-13609579D01*
X12192205Y-13609579D02*
X12201729Y-13628627D01*
X12201729Y-13628627D02*
X12201729Y-13733389D01*
X12201729Y-13628627D02*
X12211253Y-13609579D01*
X12211253Y-13609579D02*
X12230300Y-13600055D01*
X12230300Y-13600055D02*
X12258872Y-13600055D01*
X12258872Y-13600055D02*
X12277919Y-13609579D01*
X12277919Y-13609579D02*
X12287443Y-13628627D01*
X12287443Y-13628627D02*
X12287443Y-13733389D01*
X12382681Y-13733389D02*
X12382681Y-13600055D01*
X12382681Y-13619103D02*
X12392205Y-13609579D01*
X12392205Y-13609579D02*
X12411253Y-13600055D01*
X12411253Y-13600055D02*
X12439824Y-13600055D01*
X12439824Y-13600055D02*
X12458872Y-13609579D01*
X12458872Y-13609579D02*
X12468396Y-13628627D01*
X12468396Y-13628627D02*
X12468396Y-13733389D01*
X12468396Y-13628627D02*
X12477919Y-13609579D01*
X12477919Y-13609579D02*
X12496967Y-13600055D01*
X12496967Y-13600055D02*
X12525538Y-13600055D01*
X12525538Y-13600055D02*
X12544586Y-13609579D01*
X12544586Y-13609579D02*
X12554110Y-13628627D01*
X12554110Y-13628627D02*
X12554110Y-13733389D01*
X12944586Y-13523865D02*
X12773158Y-13781008D01*
X13201729Y-13533389D02*
X13220777Y-13533389D01*
X13220777Y-13533389D02*
X13239824Y-13542913D01*
X13239824Y-13542913D02*
X13249348Y-13552436D01*
X13249348Y-13552436D02*
X13258872Y-13571484D01*
X13258872Y-13571484D02*
X13268396Y-13609579D01*
X13268396Y-13609579D02*
X13268396Y-13657198D01*
X13268396Y-13657198D02*
X13258872Y-13695293D01*
X13258872Y-13695293D02*
X13249348Y-13714341D01*
X13249348Y-13714341D02*
X13239824Y-13723865D01*
X13239824Y-13723865D02*
X13220777Y-13733389D01*
X13220777Y-13733389D02*
X13201729Y-13733389D01*
X13201729Y-13733389D02*
X13182681Y-13723865D01*
X13182681Y-13723865D02*
X13173158Y-13714341D01*
X13173158Y-13714341D02*
X13163634Y-13695293D01*
X13163634Y-13695293D02*
X13154110Y-13657198D01*
X13154110Y-13657198D02*
X13154110Y-13609579D01*
X13154110Y-13609579D02*
X13163634Y-13571484D01*
X13163634Y-13571484D02*
X13173158Y-13552436D01*
X13173158Y-13552436D02*
X13182681Y-13542913D01*
X13182681Y-13542913D02*
X13201729Y-13533389D01*
X13354110Y-13714341D02*
X13363634Y-13723865D01*
X13363634Y-13723865D02*
X13354110Y-13733389D01*
X13354110Y-13733389D02*
X13344586Y-13723865D01*
X13344586Y-13723865D02*
X13354110Y-13714341D01*
X13354110Y-13714341D02*
X13354110Y-13733389D01*
X13487443Y-13533389D02*
X13506491Y-13533389D01*
X13506491Y-13533389D02*
X13525539Y-13542913D01*
X13525539Y-13542913D02*
X13535062Y-13552436D01*
X13535062Y-13552436D02*
X13544586Y-13571484D01*
X13544586Y-13571484D02*
X13554110Y-13609579D01*
X13554110Y-13609579D02*
X13554110Y-13657198D01*
X13554110Y-13657198D02*
X13544586Y-13695293D01*
X13544586Y-13695293D02*
X13535062Y-13714341D01*
X13535062Y-13714341D02*
X13525539Y-13723865D01*
X13525539Y-13723865D02*
X13506491Y-13733389D01*
X13506491Y-13733389D02*
X13487443Y-13733389D01*
X13487443Y-13733389D02*
X13468396Y-13723865D01*
X13468396Y-13723865D02*
X13458872Y-13714341D01*
X13458872Y-13714341D02*
X13449348Y-13695293D01*
X13449348Y-13695293D02*
X13439824Y-13657198D01*
X13439824Y-13657198D02*
X13439824Y-13609579D01*
X13439824Y-13609579D02*
X13449348Y-13571484D01*
X13449348Y-13571484D02*
X13458872Y-13552436D01*
X13458872Y-13552436D02*
X13468396Y-13542913D01*
X13468396Y-13542913D02*
X13487443Y-13533389D01*
X13744586Y-13733389D02*
X13630301Y-13733389D01*
X13687443Y-13733389D02*
X13687443Y-13533389D01*
X13687443Y-13533389D02*
X13668396Y-13561960D01*
X13668396Y-13561960D02*
X13649348Y-13581008D01*
X13649348Y-13581008D02*
X13630301Y-13590532D01*
X13925539Y-13533389D02*
X13830301Y-13533389D01*
X13830301Y-13533389D02*
X13820777Y-13628627D01*
X13820777Y-13628627D02*
X13830301Y-13619103D01*
X13830301Y-13619103D02*
X13849348Y-13609579D01*
X13849348Y-13609579D02*
X13896967Y-13609579D01*
X13896967Y-13609579D02*
X13916015Y-13619103D01*
X13916015Y-13619103D02*
X13925539Y-13628627D01*
X13925539Y-13628627D02*
X13935062Y-13647674D01*
X13935062Y-13647674D02*
X13935062Y-13695293D01*
X13935062Y-13695293D02*
X13925539Y-13714341D01*
X13925539Y-13714341D02*
X13916015Y-13723865D01*
X13916015Y-13723865D02*
X13896967Y-13733389D01*
X13896967Y-13733389D02*
X13849348Y-13733389D01*
X13849348Y-13733389D02*
X13830301Y-13723865D01*
X13830301Y-13723865D02*
X13820777Y-13714341D01*
X14001729Y-13533389D02*
X14135062Y-13533389D01*
X14135062Y-13533389D02*
X14049348Y-13733389D01*
X14201729Y-13533389D02*
X14201729Y-13571484D01*
X14277920Y-13533389D02*
X14277920Y-13571484D01*
X14573158Y-13809579D02*
X14563634Y-13800055D01*
X14563634Y-13800055D02*
X14544586Y-13771484D01*
X14544586Y-13771484D02*
X14535063Y-13752436D01*
X14535063Y-13752436D02*
X14525539Y-13723865D01*
X14525539Y-13723865D02*
X14516015Y-13676246D01*
X14516015Y-13676246D02*
X14516015Y-13638151D01*
X14516015Y-13638151D02*
X14525539Y-13590532D01*
X14525539Y-13590532D02*
X14535063Y-13561960D01*
X14535063Y-13561960D02*
X14544586Y-13542913D01*
X14544586Y-13542913D02*
X14563634Y-13514341D01*
X14563634Y-13514341D02*
X14573158Y-13504817D01*
X14735063Y-13533389D02*
X14696967Y-13533389D01*
X14696967Y-13533389D02*
X14677920Y-13542913D01*
X14677920Y-13542913D02*
X14668396Y-13552436D01*
X14668396Y-13552436D02*
X14649348Y-13581008D01*
X14649348Y-13581008D02*
X14639824Y-13619103D01*
X14639824Y-13619103D02*
X14639824Y-13695293D01*
X14639824Y-13695293D02*
X14649348Y-13714341D01*
X14649348Y-13714341D02*
X14658872Y-13723865D01*
X14658872Y-13723865D02*
X14677920Y-13733389D01*
X14677920Y-13733389D02*
X14716015Y-13733389D01*
X14716015Y-13733389D02*
X14735063Y-13723865D01*
X14735063Y-13723865D02*
X14744586Y-13714341D01*
X14744586Y-13714341D02*
X14754110Y-13695293D01*
X14754110Y-13695293D02*
X14754110Y-13647674D01*
X14754110Y-13647674D02*
X14744586Y-13628627D01*
X14744586Y-13628627D02*
X14735063Y-13619103D01*
X14735063Y-13619103D02*
X14716015Y-13609579D01*
X14716015Y-13609579D02*
X14677920Y-13609579D01*
X14677920Y-13609579D02*
X14658872Y-13619103D01*
X14658872Y-13619103D02*
X14649348Y-13628627D01*
X14649348Y-13628627D02*
X14639824Y-13647674D01*
X14992205Y-13733389D02*
X14992205Y-13533389D01*
X15077920Y-13733389D02*
X15077920Y-13628627D01*
X15077920Y-13628627D02*
X15068396Y-13609579D01*
X15068396Y-13609579D02*
X15049348Y-13600055D01*
X15049348Y-13600055D02*
X15020777Y-13600055D01*
X15020777Y-13600055D02*
X15001729Y-13609579D01*
X15001729Y-13609579D02*
X14992205Y-13619103D01*
X15201729Y-13733389D02*
X15182682Y-13723865D01*
X15182682Y-13723865D02*
X15173158Y-13714341D01*
X15173158Y-13714341D02*
X15163634Y-13695293D01*
X15163634Y-13695293D02*
X15163634Y-13638151D01*
X15163634Y-13638151D02*
X15173158Y-13619103D01*
X15173158Y-13619103D02*
X15182682Y-13609579D01*
X15182682Y-13609579D02*
X15201729Y-13600055D01*
X15201729Y-13600055D02*
X15230301Y-13600055D01*
X15230301Y-13600055D02*
X15249348Y-13609579D01*
X15249348Y-13609579D02*
X15258872Y-13619103D01*
X15258872Y-13619103D02*
X15268396Y-13638151D01*
X15268396Y-13638151D02*
X15268396Y-13695293D01*
X15268396Y-13695293D02*
X15258872Y-13714341D01*
X15258872Y-13714341D02*
X15249348Y-13723865D01*
X15249348Y-13723865D02*
X15230301Y-13733389D01*
X15230301Y-13733389D02*
X15201729Y-13733389D01*
X15382682Y-13733389D02*
X15363634Y-13723865D01*
X15363634Y-13723865D02*
X15354110Y-13704817D01*
X15354110Y-13704817D02*
X15354110Y-13533389D01*
X15535063Y-13723865D02*
X15516015Y-13733389D01*
X15516015Y-13733389D02*
X15477920Y-13733389D01*
X15477920Y-13733389D02*
X15458872Y-13723865D01*
X15458872Y-13723865D02*
X15449348Y-13704817D01*
X15449348Y-13704817D02*
X15449348Y-13628627D01*
X15449348Y-13628627D02*
X15458872Y-13609579D01*
X15458872Y-13609579D02*
X15477920Y-13600055D01*
X15477920Y-13600055D02*
X15516015Y-13600055D01*
X15516015Y-13600055D02*
X15535063Y-13609579D01*
X15535063Y-13609579D02*
X15544586Y-13628627D01*
X15544586Y-13628627D02*
X15544586Y-13647674D01*
X15544586Y-13647674D02*
X15449348Y-13666722D01*
X15620777Y-13723865D02*
X15639825Y-13733389D01*
X15639825Y-13733389D02*
X15677920Y-13733389D01*
X15677920Y-13733389D02*
X15696967Y-13723865D01*
X15696967Y-13723865D02*
X15706491Y-13704817D01*
X15706491Y-13704817D02*
X15706491Y-13695293D01*
X15706491Y-13695293D02*
X15696967Y-13676246D01*
X15696967Y-13676246D02*
X15677920Y-13666722D01*
X15677920Y-13666722D02*
X15649348Y-13666722D01*
X15649348Y-13666722D02*
X15630301Y-13657198D01*
X15630301Y-13657198D02*
X15620777Y-13638151D01*
X15620777Y-13638151D02*
X15620777Y-13628627D01*
X15620777Y-13628627D02*
X15630301Y-13609579D01*
X15630301Y-13609579D02*
X15649348Y-13600055D01*
X15649348Y-13600055D02*
X15677920Y-13600055D01*
X15677920Y-13600055D02*
X15696967Y-13609579D01*
X15773158Y-13809579D02*
X15782682Y-13800055D01*
X15782682Y-13800055D02*
X15801729Y-13771484D01*
X15801729Y-13771484D02*
X15811253Y-13752436D01*
X15811253Y-13752436D02*
X15820777Y-13723865D01*
X15820777Y-13723865D02*
X15830301Y-13676246D01*
X15830301Y-13676246D02*
X15830301Y-13638151D01*
X15830301Y-13638151D02*
X15820777Y-13590532D01*
X15820777Y-13590532D02*
X15811253Y-13561960D01*
X15811253Y-13561960D02*
X15801729Y-13542913D01*
X15801729Y-13542913D02*
X15782682Y-13514341D01*
X15782682Y-13514341D02*
X15773158Y-13504817D01*
D12*
X10998095Y-13905905D02*
G75*
G02*
X10918095Y-13905905I-40000J0D01*
G01*
X10918095Y-13905905D02*
G75*
G02*
X10998095Y-13905905I40000J0D01*
G01*
D11*
X11296967Y-13797389D02*
X11316015Y-13797389D01*
X11316015Y-13797389D02*
X11335062Y-13806913D01*
X11335062Y-13806913D02*
X11344586Y-13816436D01*
X11344586Y-13816436D02*
X11354110Y-13835484D01*
X11354110Y-13835484D02*
X11363634Y-13873579D01*
X11363634Y-13873579D02*
X11363634Y-13921198D01*
X11363634Y-13921198D02*
X11354110Y-13959293D01*
X11354110Y-13959293D02*
X11344586Y-13978341D01*
X11344586Y-13978341D02*
X11335062Y-13987865D01*
X11335062Y-13987865D02*
X11316015Y-13997389D01*
X11316015Y-13997389D02*
X11296967Y-13997389D01*
X11296967Y-13997389D02*
X11277919Y-13987865D01*
X11277919Y-13987865D02*
X11268396Y-13978341D01*
X11268396Y-13978341D02*
X11258872Y-13959293D01*
X11258872Y-13959293D02*
X11249348Y-13921198D01*
X11249348Y-13921198D02*
X11249348Y-13873579D01*
X11249348Y-13873579D02*
X11258872Y-13835484D01*
X11258872Y-13835484D02*
X11268396Y-13816436D01*
X11268396Y-13816436D02*
X11277919Y-13806913D01*
X11277919Y-13806913D02*
X11296967Y-13797389D01*
X11449348Y-13978341D02*
X11458872Y-13987865D01*
X11458872Y-13987865D02*
X11449348Y-13997389D01*
X11449348Y-13997389D02*
X11439824Y-13987865D01*
X11439824Y-13987865D02*
X11449348Y-13978341D01*
X11449348Y-13978341D02*
X11449348Y-13997389D01*
X11573157Y-13883103D02*
X11554110Y-13873579D01*
X11554110Y-13873579D02*
X11544586Y-13864055D01*
X11544586Y-13864055D02*
X11535062Y-13845008D01*
X11535062Y-13845008D02*
X11535062Y-13835484D01*
X11535062Y-13835484D02*
X11544586Y-13816436D01*
X11544586Y-13816436D02*
X11554110Y-13806913D01*
X11554110Y-13806913D02*
X11573157Y-13797389D01*
X11573157Y-13797389D02*
X11611253Y-13797389D01*
X11611253Y-13797389D02*
X11630300Y-13806913D01*
X11630300Y-13806913D02*
X11639824Y-13816436D01*
X11639824Y-13816436D02*
X11649348Y-13835484D01*
X11649348Y-13835484D02*
X11649348Y-13845008D01*
X11649348Y-13845008D02*
X11639824Y-13864055D01*
X11639824Y-13864055D02*
X11630300Y-13873579D01*
X11630300Y-13873579D02*
X11611253Y-13883103D01*
X11611253Y-13883103D02*
X11573157Y-13883103D01*
X11573157Y-13883103D02*
X11554110Y-13892627D01*
X11554110Y-13892627D02*
X11544586Y-13902151D01*
X11544586Y-13902151D02*
X11535062Y-13921198D01*
X11535062Y-13921198D02*
X11535062Y-13959293D01*
X11535062Y-13959293D02*
X11544586Y-13978341D01*
X11544586Y-13978341D02*
X11554110Y-13987865D01*
X11554110Y-13987865D02*
X11573157Y-13997389D01*
X11573157Y-13997389D02*
X11611253Y-13997389D01*
X11611253Y-13997389D02*
X11630300Y-13987865D01*
X11630300Y-13987865D02*
X11639824Y-13978341D01*
X11639824Y-13978341D02*
X11649348Y-13959293D01*
X11649348Y-13959293D02*
X11649348Y-13921198D01*
X11649348Y-13921198D02*
X11639824Y-13902151D01*
X11639824Y-13902151D02*
X11630300Y-13892627D01*
X11630300Y-13892627D02*
X11611253Y-13883103D01*
X11773157Y-13797389D02*
X11792205Y-13797389D01*
X11792205Y-13797389D02*
X11811253Y-13806913D01*
X11811253Y-13806913D02*
X11820777Y-13816436D01*
X11820777Y-13816436D02*
X11830300Y-13835484D01*
X11830300Y-13835484D02*
X11839824Y-13873579D01*
X11839824Y-13873579D02*
X11839824Y-13921198D01*
X11839824Y-13921198D02*
X11830300Y-13959293D01*
X11830300Y-13959293D02*
X11820777Y-13978341D01*
X11820777Y-13978341D02*
X11811253Y-13987865D01*
X11811253Y-13987865D02*
X11792205Y-13997389D01*
X11792205Y-13997389D02*
X11773157Y-13997389D01*
X11773157Y-13997389D02*
X11754110Y-13987865D01*
X11754110Y-13987865D02*
X11744586Y-13978341D01*
X11744586Y-13978341D02*
X11735062Y-13959293D01*
X11735062Y-13959293D02*
X11725538Y-13921198D01*
X11725538Y-13921198D02*
X11725538Y-13873579D01*
X11725538Y-13873579D02*
X11735062Y-13835484D01*
X11735062Y-13835484D02*
X11744586Y-13816436D01*
X11744586Y-13816436D02*
X11754110Y-13806913D01*
X11754110Y-13806913D02*
X11773157Y-13797389D01*
X11963634Y-13797389D02*
X11982681Y-13797389D01*
X11982681Y-13797389D02*
X12001729Y-13806913D01*
X12001729Y-13806913D02*
X12011253Y-13816436D01*
X12011253Y-13816436D02*
X12020777Y-13835484D01*
X12020777Y-13835484D02*
X12030300Y-13873579D01*
X12030300Y-13873579D02*
X12030300Y-13921198D01*
X12030300Y-13921198D02*
X12020777Y-13959293D01*
X12020777Y-13959293D02*
X12011253Y-13978341D01*
X12011253Y-13978341D02*
X12001729Y-13987865D01*
X12001729Y-13987865D02*
X11982681Y-13997389D01*
X11982681Y-13997389D02*
X11963634Y-13997389D01*
X11963634Y-13997389D02*
X11944586Y-13987865D01*
X11944586Y-13987865D02*
X11935062Y-13978341D01*
X11935062Y-13978341D02*
X11925538Y-13959293D01*
X11925538Y-13959293D02*
X11916015Y-13921198D01*
X11916015Y-13921198D02*
X11916015Y-13873579D01*
X11916015Y-13873579D02*
X11925538Y-13835484D01*
X11925538Y-13835484D02*
X11935062Y-13816436D01*
X11935062Y-13816436D02*
X11944586Y-13806913D01*
X11944586Y-13806913D02*
X11963634Y-13797389D01*
X12116015Y-13997389D02*
X12116015Y-13864055D01*
X12116015Y-13883103D02*
X12125538Y-13873579D01*
X12125538Y-13873579D02*
X12144586Y-13864055D01*
X12144586Y-13864055D02*
X12173158Y-13864055D01*
X12173158Y-13864055D02*
X12192205Y-13873579D01*
X12192205Y-13873579D02*
X12201729Y-13892627D01*
X12201729Y-13892627D02*
X12201729Y-13997389D01*
X12201729Y-13892627D02*
X12211253Y-13873579D01*
X12211253Y-13873579D02*
X12230300Y-13864055D01*
X12230300Y-13864055D02*
X12258872Y-13864055D01*
X12258872Y-13864055D02*
X12277919Y-13873579D01*
X12277919Y-13873579D02*
X12287443Y-13892627D01*
X12287443Y-13892627D02*
X12287443Y-13997389D01*
X12382681Y-13997389D02*
X12382681Y-13864055D01*
X12382681Y-13883103D02*
X12392205Y-13873579D01*
X12392205Y-13873579D02*
X12411253Y-13864055D01*
X12411253Y-13864055D02*
X12439824Y-13864055D01*
X12439824Y-13864055D02*
X12458872Y-13873579D01*
X12458872Y-13873579D02*
X12468396Y-13892627D01*
X12468396Y-13892627D02*
X12468396Y-13997389D01*
X12468396Y-13892627D02*
X12477919Y-13873579D01*
X12477919Y-13873579D02*
X12496967Y-13864055D01*
X12496967Y-13864055D02*
X12525538Y-13864055D01*
X12525538Y-13864055D02*
X12544586Y-13873579D01*
X12544586Y-13873579D02*
X12554110Y-13892627D01*
X12554110Y-13892627D02*
X12554110Y-13997389D01*
X12944586Y-13787865D02*
X12773158Y-14045008D01*
X13201729Y-13797389D02*
X13220777Y-13797389D01*
X13220777Y-13797389D02*
X13239824Y-13806913D01*
X13239824Y-13806913D02*
X13249348Y-13816436D01*
X13249348Y-13816436D02*
X13258872Y-13835484D01*
X13258872Y-13835484D02*
X13268396Y-13873579D01*
X13268396Y-13873579D02*
X13268396Y-13921198D01*
X13268396Y-13921198D02*
X13258872Y-13959293D01*
X13258872Y-13959293D02*
X13249348Y-13978341D01*
X13249348Y-13978341D02*
X13239824Y-13987865D01*
X13239824Y-13987865D02*
X13220777Y-13997389D01*
X13220777Y-13997389D02*
X13201729Y-13997389D01*
X13201729Y-13997389D02*
X13182681Y-13987865D01*
X13182681Y-13987865D02*
X13173158Y-13978341D01*
X13173158Y-13978341D02*
X13163634Y-13959293D01*
X13163634Y-13959293D02*
X13154110Y-13921198D01*
X13154110Y-13921198D02*
X13154110Y-13873579D01*
X13154110Y-13873579D02*
X13163634Y-13835484D01*
X13163634Y-13835484D02*
X13173158Y-13816436D01*
X13173158Y-13816436D02*
X13182681Y-13806913D01*
X13182681Y-13806913D02*
X13201729Y-13797389D01*
X13354110Y-13978341D02*
X13363634Y-13987865D01*
X13363634Y-13987865D02*
X13354110Y-13997389D01*
X13354110Y-13997389D02*
X13344586Y-13987865D01*
X13344586Y-13987865D02*
X13354110Y-13978341D01*
X13354110Y-13978341D02*
X13354110Y-13997389D01*
X13487443Y-13797389D02*
X13506491Y-13797389D01*
X13506491Y-13797389D02*
X13525539Y-13806913D01*
X13525539Y-13806913D02*
X13535062Y-13816436D01*
X13535062Y-13816436D02*
X13544586Y-13835484D01*
X13544586Y-13835484D02*
X13554110Y-13873579D01*
X13554110Y-13873579D02*
X13554110Y-13921198D01*
X13554110Y-13921198D02*
X13544586Y-13959293D01*
X13544586Y-13959293D02*
X13535062Y-13978341D01*
X13535062Y-13978341D02*
X13525539Y-13987865D01*
X13525539Y-13987865D02*
X13506491Y-13997389D01*
X13506491Y-13997389D02*
X13487443Y-13997389D01*
X13487443Y-13997389D02*
X13468396Y-13987865D01*
X13468396Y-13987865D02*
X13458872Y-13978341D01*
X13458872Y-13978341D02*
X13449348Y-13959293D01*
X13449348Y-13959293D02*
X13439824Y-13921198D01*
X13439824Y-13921198D02*
X13439824Y-13873579D01*
X13439824Y-13873579D02*
X13449348Y-13835484D01*
X13449348Y-13835484D02*
X13458872Y-13816436D01*
X13458872Y-13816436D02*
X13468396Y-13806913D01*
X13468396Y-13806913D02*
X13487443Y-13797389D01*
X13620777Y-13797389D02*
X13744586Y-13797389D01*
X13744586Y-13797389D02*
X13677920Y-13873579D01*
X13677920Y-13873579D02*
X13706491Y-13873579D01*
X13706491Y-13873579D02*
X13725539Y-13883103D01*
X13725539Y-13883103D02*
X13735062Y-13892627D01*
X13735062Y-13892627D02*
X13744586Y-13911674D01*
X13744586Y-13911674D02*
X13744586Y-13959293D01*
X13744586Y-13959293D02*
X13735062Y-13978341D01*
X13735062Y-13978341D02*
X13725539Y-13987865D01*
X13725539Y-13987865D02*
X13706491Y-13997389D01*
X13706491Y-13997389D02*
X13649348Y-13997389D01*
X13649348Y-13997389D02*
X13630301Y-13987865D01*
X13630301Y-13987865D02*
X13620777Y-13978341D01*
X13935062Y-13997389D02*
X13820777Y-13997389D01*
X13877920Y-13997389D02*
X13877920Y-13797389D01*
X13877920Y-13797389D02*
X13858872Y-13825960D01*
X13858872Y-13825960D02*
X13839824Y-13845008D01*
X13839824Y-13845008D02*
X13820777Y-13854532D01*
X14116015Y-13797389D02*
X14020777Y-13797389D01*
X14020777Y-13797389D02*
X14011253Y-13892627D01*
X14011253Y-13892627D02*
X14020777Y-13883103D01*
X14020777Y-13883103D02*
X14039824Y-13873579D01*
X14039824Y-13873579D02*
X14087443Y-13873579D01*
X14087443Y-13873579D02*
X14106491Y-13883103D01*
X14106491Y-13883103D02*
X14116015Y-13892627D01*
X14116015Y-13892627D02*
X14125539Y-13911674D01*
X14125539Y-13911674D02*
X14125539Y-13959293D01*
X14125539Y-13959293D02*
X14116015Y-13978341D01*
X14116015Y-13978341D02*
X14106491Y-13987865D01*
X14106491Y-13987865D02*
X14087443Y-13997389D01*
X14087443Y-13997389D02*
X14039824Y-13997389D01*
X14039824Y-13997389D02*
X14020777Y-13987865D01*
X14020777Y-13987865D02*
X14011253Y-13978341D01*
X14201729Y-13797389D02*
X14201729Y-13835484D01*
X14277920Y-13797389D02*
X14277920Y-13835484D01*
X14573158Y-14073579D02*
X14563634Y-14064055D01*
X14563634Y-14064055D02*
X14544586Y-14035484D01*
X14544586Y-14035484D02*
X14535063Y-14016436D01*
X14535063Y-14016436D02*
X14525539Y-13987865D01*
X14525539Y-13987865D02*
X14516015Y-13940246D01*
X14516015Y-13940246D02*
X14516015Y-13902151D01*
X14516015Y-13902151D02*
X14525539Y-13854532D01*
X14525539Y-13854532D02*
X14535063Y-13825960D01*
X14535063Y-13825960D02*
X14544586Y-13806913D01*
X14544586Y-13806913D02*
X14563634Y-13778341D01*
X14563634Y-13778341D02*
X14573158Y-13768817D01*
X14630301Y-13797389D02*
X14754110Y-13797389D01*
X14754110Y-13797389D02*
X14687443Y-13873579D01*
X14687443Y-13873579D02*
X14716015Y-13873579D01*
X14716015Y-13873579D02*
X14735063Y-13883103D01*
X14735063Y-13883103D02*
X14744586Y-13892627D01*
X14744586Y-13892627D02*
X14754110Y-13911674D01*
X14754110Y-13911674D02*
X14754110Y-13959293D01*
X14754110Y-13959293D02*
X14744586Y-13978341D01*
X14744586Y-13978341D02*
X14735063Y-13987865D01*
X14735063Y-13987865D02*
X14716015Y-13997389D01*
X14716015Y-13997389D02*
X14658872Y-13997389D01*
X14658872Y-13997389D02*
X14639824Y-13987865D01*
X14639824Y-13987865D02*
X14630301Y-13978341D01*
X14944586Y-13997389D02*
X14830301Y-13997389D01*
X14887443Y-13997389D02*
X14887443Y-13797389D01*
X14887443Y-13797389D02*
X14868396Y-13825960D01*
X14868396Y-13825960D02*
X14849348Y-13845008D01*
X14849348Y-13845008D02*
X14830301Y-13854532D01*
X15182682Y-13997389D02*
X15182682Y-13797389D01*
X15268396Y-13997389D02*
X15268396Y-13892627D01*
X15268396Y-13892627D02*
X15258872Y-13873579D01*
X15258872Y-13873579D02*
X15239825Y-13864055D01*
X15239825Y-13864055D02*
X15211253Y-13864055D01*
X15211253Y-13864055D02*
X15192205Y-13873579D01*
X15192205Y-13873579D02*
X15182682Y-13883103D01*
X15392205Y-13997389D02*
X15373158Y-13987865D01*
X15373158Y-13987865D02*
X15363634Y-13978341D01*
X15363634Y-13978341D02*
X15354110Y-13959293D01*
X15354110Y-13959293D02*
X15354110Y-13902151D01*
X15354110Y-13902151D02*
X15363634Y-13883103D01*
X15363634Y-13883103D02*
X15373158Y-13873579D01*
X15373158Y-13873579D02*
X15392205Y-13864055D01*
X15392205Y-13864055D02*
X15420777Y-13864055D01*
X15420777Y-13864055D02*
X15439825Y-13873579D01*
X15439825Y-13873579D02*
X15449348Y-13883103D01*
X15449348Y-13883103D02*
X15458872Y-13902151D01*
X15458872Y-13902151D02*
X15458872Y-13959293D01*
X15458872Y-13959293D02*
X15449348Y-13978341D01*
X15449348Y-13978341D02*
X15439825Y-13987865D01*
X15439825Y-13987865D02*
X15420777Y-13997389D01*
X15420777Y-13997389D02*
X15392205Y-13997389D01*
X15573158Y-13997389D02*
X15554110Y-13987865D01*
X15554110Y-13987865D02*
X15544586Y-13968817D01*
X15544586Y-13968817D02*
X15544586Y-13797389D01*
X15725539Y-13987865D02*
X15706491Y-13997389D01*
X15706491Y-13997389D02*
X15668396Y-13997389D01*
X15668396Y-13997389D02*
X15649348Y-13987865D01*
X15649348Y-13987865D02*
X15639825Y-13968817D01*
X15639825Y-13968817D02*
X15639825Y-13892627D01*
X15639825Y-13892627D02*
X15649348Y-13873579D01*
X15649348Y-13873579D02*
X15668396Y-13864055D01*
X15668396Y-13864055D02*
X15706491Y-13864055D01*
X15706491Y-13864055D02*
X15725539Y-13873579D01*
X15725539Y-13873579D02*
X15735063Y-13892627D01*
X15735063Y-13892627D02*
X15735063Y-13911674D01*
X15735063Y-13911674D02*
X15639825Y-13930722D01*
X15811253Y-13987865D02*
X15830301Y-13997389D01*
X15830301Y-13997389D02*
X15868396Y-13997389D01*
X15868396Y-13997389D02*
X15887444Y-13987865D01*
X15887444Y-13987865D02*
X15896967Y-13968817D01*
X15896967Y-13968817D02*
X15896967Y-13959293D01*
X15896967Y-13959293D02*
X15887444Y-13940246D01*
X15887444Y-13940246D02*
X15868396Y-13930722D01*
X15868396Y-13930722D02*
X15839825Y-13930722D01*
X15839825Y-13930722D02*
X15820777Y-13921198D01*
X15820777Y-13921198D02*
X15811253Y-13902151D01*
X15811253Y-13902151D02*
X15811253Y-13892627D01*
X15811253Y-13892627D02*
X15820777Y-13873579D01*
X15820777Y-13873579D02*
X15839825Y-13864055D01*
X15839825Y-13864055D02*
X15868396Y-13864055D01*
X15868396Y-13864055D02*
X15887444Y-13873579D01*
X15963634Y-14073579D02*
X15973158Y-14064055D01*
X15973158Y-14064055D02*
X15992206Y-14035484D01*
X15992206Y-14035484D02*
X16001729Y-14016436D01*
X16001729Y-14016436D02*
X16011253Y-13987865D01*
X16011253Y-13987865D02*
X16020777Y-13940246D01*
X16020777Y-13940246D02*
X16020777Y-13902151D01*
X16020777Y-13902151D02*
X16011253Y-13854532D01*
X16011253Y-13854532D02*
X16001729Y-13825960D01*
X16001729Y-13825960D02*
X15992206Y-13806913D01*
X15992206Y-13806913D02*
X15973158Y-13778341D01*
X15973158Y-13778341D02*
X15963634Y-13768817D01*
D12*
X10953095Y-14124905D02*
X10953095Y-14214905D01*
X10908095Y-14169905D02*
X10998095Y-14169905D01*
D11*
X11296967Y-14061389D02*
X11316015Y-14061389D01*
X11316015Y-14061389D02*
X11335062Y-14070913D01*
X11335062Y-14070913D02*
X11344586Y-14080436D01*
X11344586Y-14080436D02*
X11354110Y-14099484D01*
X11354110Y-14099484D02*
X11363634Y-14137579D01*
X11363634Y-14137579D02*
X11363634Y-14185198D01*
X11363634Y-14185198D02*
X11354110Y-14223293D01*
X11354110Y-14223293D02*
X11344586Y-14242341D01*
X11344586Y-14242341D02*
X11335062Y-14251865D01*
X11335062Y-14251865D02*
X11316015Y-14261389D01*
X11316015Y-14261389D02*
X11296967Y-14261389D01*
X11296967Y-14261389D02*
X11277919Y-14251865D01*
X11277919Y-14251865D02*
X11268396Y-14242341D01*
X11268396Y-14242341D02*
X11258872Y-14223293D01*
X11258872Y-14223293D02*
X11249348Y-14185198D01*
X11249348Y-14185198D02*
X11249348Y-14137579D01*
X11249348Y-14137579D02*
X11258872Y-14099484D01*
X11258872Y-14099484D02*
X11268396Y-14080436D01*
X11268396Y-14080436D02*
X11277919Y-14070913D01*
X11277919Y-14070913D02*
X11296967Y-14061389D01*
X11449348Y-14242341D02*
X11458872Y-14251865D01*
X11458872Y-14251865D02*
X11449348Y-14261389D01*
X11449348Y-14261389D02*
X11439824Y-14251865D01*
X11439824Y-14251865D02*
X11449348Y-14242341D01*
X11449348Y-14242341D02*
X11449348Y-14261389D01*
X11554110Y-14261389D02*
X11592205Y-14261389D01*
X11592205Y-14261389D02*
X11611253Y-14251865D01*
X11611253Y-14251865D02*
X11620777Y-14242341D01*
X11620777Y-14242341D02*
X11639824Y-14213770D01*
X11639824Y-14213770D02*
X11649348Y-14175674D01*
X11649348Y-14175674D02*
X11649348Y-14099484D01*
X11649348Y-14099484D02*
X11639824Y-14080436D01*
X11639824Y-14080436D02*
X11630300Y-14070913D01*
X11630300Y-14070913D02*
X11611253Y-14061389D01*
X11611253Y-14061389D02*
X11573157Y-14061389D01*
X11573157Y-14061389D02*
X11554110Y-14070913D01*
X11554110Y-14070913D02*
X11544586Y-14080436D01*
X11544586Y-14080436D02*
X11535062Y-14099484D01*
X11535062Y-14099484D02*
X11535062Y-14147103D01*
X11535062Y-14147103D02*
X11544586Y-14166151D01*
X11544586Y-14166151D02*
X11554110Y-14175674D01*
X11554110Y-14175674D02*
X11573157Y-14185198D01*
X11573157Y-14185198D02*
X11611253Y-14185198D01*
X11611253Y-14185198D02*
X11630300Y-14175674D01*
X11630300Y-14175674D02*
X11639824Y-14166151D01*
X11639824Y-14166151D02*
X11649348Y-14147103D01*
X11773157Y-14061389D02*
X11792205Y-14061389D01*
X11792205Y-14061389D02*
X11811253Y-14070913D01*
X11811253Y-14070913D02*
X11820777Y-14080436D01*
X11820777Y-14080436D02*
X11830300Y-14099484D01*
X11830300Y-14099484D02*
X11839824Y-14137579D01*
X11839824Y-14137579D02*
X11839824Y-14185198D01*
X11839824Y-14185198D02*
X11830300Y-14223293D01*
X11830300Y-14223293D02*
X11820777Y-14242341D01*
X11820777Y-14242341D02*
X11811253Y-14251865D01*
X11811253Y-14251865D02*
X11792205Y-14261389D01*
X11792205Y-14261389D02*
X11773157Y-14261389D01*
X11773157Y-14261389D02*
X11754110Y-14251865D01*
X11754110Y-14251865D02*
X11744586Y-14242341D01*
X11744586Y-14242341D02*
X11735062Y-14223293D01*
X11735062Y-14223293D02*
X11725538Y-14185198D01*
X11725538Y-14185198D02*
X11725538Y-14137579D01*
X11725538Y-14137579D02*
X11735062Y-14099484D01*
X11735062Y-14099484D02*
X11744586Y-14080436D01*
X11744586Y-14080436D02*
X11754110Y-14070913D01*
X11754110Y-14070913D02*
X11773157Y-14061389D01*
X11963634Y-14061389D02*
X11982681Y-14061389D01*
X11982681Y-14061389D02*
X12001729Y-14070913D01*
X12001729Y-14070913D02*
X12011253Y-14080436D01*
X12011253Y-14080436D02*
X12020777Y-14099484D01*
X12020777Y-14099484D02*
X12030300Y-14137579D01*
X12030300Y-14137579D02*
X12030300Y-14185198D01*
X12030300Y-14185198D02*
X12020777Y-14223293D01*
X12020777Y-14223293D02*
X12011253Y-14242341D01*
X12011253Y-14242341D02*
X12001729Y-14251865D01*
X12001729Y-14251865D02*
X11982681Y-14261389D01*
X11982681Y-14261389D02*
X11963634Y-14261389D01*
X11963634Y-14261389D02*
X11944586Y-14251865D01*
X11944586Y-14251865D02*
X11935062Y-14242341D01*
X11935062Y-14242341D02*
X11925538Y-14223293D01*
X11925538Y-14223293D02*
X11916015Y-14185198D01*
X11916015Y-14185198D02*
X11916015Y-14137579D01*
X11916015Y-14137579D02*
X11925538Y-14099484D01*
X11925538Y-14099484D02*
X11935062Y-14080436D01*
X11935062Y-14080436D02*
X11944586Y-14070913D01*
X11944586Y-14070913D02*
X11963634Y-14061389D01*
X12116015Y-14261389D02*
X12116015Y-14128055D01*
X12116015Y-14147103D02*
X12125538Y-14137579D01*
X12125538Y-14137579D02*
X12144586Y-14128055D01*
X12144586Y-14128055D02*
X12173158Y-14128055D01*
X12173158Y-14128055D02*
X12192205Y-14137579D01*
X12192205Y-14137579D02*
X12201729Y-14156627D01*
X12201729Y-14156627D02*
X12201729Y-14261389D01*
X12201729Y-14156627D02*
X12211253Y-14137579D01*
X12211253Y-14137579D02*
X12230300Y-14128055D01*
X12230300Y-14128055D02*
X12258872Y-14128055D01*
X12258872Y-14128055D02*
X12277919Y-14137579D01*
X12277919Y-14137579D02*
X12287443Y-14156627D01*
X12287443Y-14156627D02*
X12287443Y-14261389D01*
X12382681Y-14261389D02*
X12382681Y-14128055D01*
X12382681Y-14147103D02*
X12392205Y-14137579D01*
X12392205Y-14137579D02*
X12411253Y-14128055D01*
X12411253Y-14128055D02*
X12439824Y-14128055D01*
X12439824Y-14128055D02*
X12458872Y-14137579D01*
X12458872Y-14137579D02*
X12468396Y-14156627D01*
X12468396Y-14156627D02*
X12468396Y-14261389D01*
X12468396Y-14156627D02*
X12477919Y-14137579D01*
X12477919Y-14137579D02*
X12496967Y-14128055D01*
X12496967Y-14128055D02*
X12525538Y-14128055D01*
X12525538Y-14128055D02*
X12544586Y-14137579D01*
X12544586Y-14137579D02*
X12554110Y-14156627D01*
X12554110Y-14156627D02*
X12554110Y-14261389D01*
X12944586Y-14051865D02*
X12773158Y-14309008D01*
X13201729Y-14061389D02*
X13220777Y-14061389D01*
X13220777Y-14061389D02*
X13239824Y-14070913D01*
X13239824Y-14070913D02*
X13249348Y-14080436D01*
X13249348Y-14080436D02*
X13258872Y-14099484D01*
X13258872Y-14099484D02*
X13268396Y-14137579D01*
X13268396Y-14137579D02*
X13268396Y-14185198D01*
X13268396Y-14185198D02*
X13258872Y-14223293D01*
X13258872Y-14223293D02*
X13249348Y-14242341D01*
X13249348Y-14242341D02*
X13239824Y-14251865D01*
X13239824Y-14251865D02*
X13220777Y-14261389D01*
X13220777Y-14261389D02*
X13201729Y-14261389D01*
X13201729Y-14261389D02*
X13182681Y-14251865D01*
X13182681Y-14251865D02*
X13173158Y-14242341D01*
X13173158Y-14242341D02*
X13163634Y-14223293D01*
X13163634Y-14223293D02*
X13154110Y-14185198D01*
X13154110Y-14185198D02*
X13154110Y-14137579D01*
X13154110Y-14137579D02*
X13163634Y-14099484D01*
X13163634Y-14099484D02*
X13173158Y-14080436D01*
X13173158Y-14080436D02*
X13182681Y-14070913D01*
X13182681Y-14070913D02*
X13201729Y-14061389D01*
X13354110Y-14242341D02*
X13363634Y-14251865D01*
X13363634Y-14251865D02*
X13354110Y-14261389D01*
X13354110Y-14261389D02*
X13344586Y-14251865D01*
X13344586Y-14251865D02*
X13354110Y-14242341D01*
X13354110Y-14242341D02*
X13354110Y-14261389D01*
X13487443Y-14061389D02*
X13506491Y-14061389D01*
X13506491Y-14061389D02*
X13525539Y-14070913D01*
X13525539Y-14070913D02*
X13535062Y-14080436D01*
X13535062Y-14080436D02*
X13544586Y-14099484D01*
X13544586Y-14099484D02*
X13554110Y-14137579D01*
X13554110Y-14137579D02*
X13554110Y-14185198D01*
X13554110Y-14185198D02*
X13544586Y-14223293D01*
X13544586Y-14223293D02*
X13535062Y-14242341D01*
X13535062Y-14242341D02*
X13525539Y-14251865D01*
X13525539Y-14251865D02*
X13506491Y-14261389D01*
X13506491Y-14261389D02*
X13487443Y-14261389D01*
X13487443Y-14261389D02*
X13468396Y-14251865D01*
X13468396Y-14251865D02*
X13458872Y-14242341D01*
X13458872Y-14242341D02*
X13449348Y-14223293D01*
X13449348Y-14223293D02*
X13439824Y-14185198D01*
X13439824Y-14185198D02*
X13439824Y-14137579D01*
X13439824Y-14137579D02*
X13449348Y-14099484D01*
X13449348Y-14099484D02*
X13458872Y-14080436D01*
X13458872Y-14080436D02*
X13468396Y-14070913D01*
X13468396Y-14070913D02*
X13487443Y-14061389D01*
X13620777Y-14061389D02*
X13744586Y-14061389D01*
X13744586Y-14061389D02*
X13677920Y-14137579D01*
X13677920Y-14137579D02*
X13706491Y-14137579D01*
X13706491Y-14137579D02*
X13725539Y-14147103D01*
X13725539Y-14147103D02*
X13735062Y-14156627D01*
X13735062Y-14156627D02*
X13744586Y-14175674D01*
X13744586Y-14175674D02*
X13744586Y-14223293D01*
X13744586Y-14223293D02*
X13735062Y-14242341D01*
X13735062Y-14242341D02*
X13725539Y-14251865D01*
X13725539Y-14251865D02*
X13706491Y-14261389D01*
X13706491Y-14261389D02*
X13649348Y-14261389D01*
X13649348Y-14261389D02*
X13630301Y-14251865D01*
X13630301Y-14251865D02*
X13620777Y-14242341D01*
X13925539Y-14061389D02*
X13830301Y-14061389D01*
X13830301Y-14061389D02*
X13820777Y-14156627D01*
X13820777Y-14156627D02*
X13830301Y-14147103D01*
X13830301Y-14147103D02*
X13849348Y-14137579D01*
X13849348Y-14137579D02*
X13896967Y-14137579D01*
X13896967Y-14137579D02*
X13916015Y-14147103D01*
X13916015Y-14147103D02*
X13925539Y-14156627D01*
X13925539Y-14156627D02*
X13935062Y-14175674D01*
X13935062Y-14175674D02*
X13935062Y-14223293D01*
X13935062Y-14223293D02*
X13925539Y-14242341D01*
X13925539Y-14242341D02*
X13916015Y-14251865D01*
X13916015Y-14251865D02*
X13896967Y-14261389D01*
X13896967Y-14261389D02*
X13849348Y-14261389D01*
X13849348Y-14261389D02*
X13830301Y-14251865D01*
X13830301Y-14251865D02*
X13820777Y-14242341D01*
X14106491Y-14128055D02*
X14106491Y-14261389D01*
X14058872Y-14051865D02*
X14011253Y-14194722D01*
X14011253Y-14194722D02*
X14135062Y-14194722D01*
X14201729Y-14061389D02*
X14201729Y-14099484D01*
X14277920Y-14061389D02*
X14277920Y-14099484D01*
X14573158Y-14337579D02*
X14563634Y-14328055D01*
X14563634Y-14328055D02*
X14544586Y-14299484D01*
X14544586Y-14299484D02*
X14535063Y-14280436D01*
X14535063Y-14280436D02*
X14525539Y-14251865D01*
X14525539Y-14251865D02*
X14516015Y-14204246D01*
X14516015Y-14204246D02*
X14516015Y-14166151D01*
X14516015Y-14166151D02*
X14525539Y-14118532D01*
X14525539Y-14118532D02*
X14535063Y-14089960D01*
X14535063Y-14089960D02*
X14544586Y-14070913D01*
X14544586Y-14070913D02*
X14563634Y-14042341D01*
X14563634Y-14042341D02*
X14573158Y-14032817D01*
X14639824Y-14080436D02*
X14649348Y-14070913D01*
X14649348Y-14070913D02*
X14668396Y-14061389D01*
X14668396Y-14061389D02*
X14716015Y-14061389D01*
X14716015Y-14061389D02*
X14735063Y-14070913D01*
X14735063Y-14070913D02*
X14744586Y-14080436D01*
X14744586Y-14080436D02*
X14754110Y-14099484D01*
X14754110Y-14099484D02*
X14754110Y-14118532D01*
X14754110Y-14118532D02*
X14744586Y-14147103D01*
X14744586Y-14147103D02*
X14630301Y-14261389D01*
X14630301Y-14261389D02*
X14754110Y-14261389D01*
X14992205Y-14261389D02*
X14992205Y-14061389D01*
X15077920Y-14261389D02*
X15077920Y-14156627D01*
X15077920Y-14156627D02*
X15068396Y-14137579D01*
X15068396Y-14137579D02*
X15049348Y-14128055D01*
X15049348Y-14128055D02*
X15020777Y-14128055D01*
X15020777Y-14128055D02*
X15001729Y-14137579D01*
X15001729Y-14137579D02*
X14992205Y-14147103D01*
X15201729Y-14261389D02*
X15182682Y-14251865D01*
X15182682Y-14251865D02*
X15173158Y-14242341D01*
X15173158Y-14242341D02*
X15163634Y-14223293D01*
X15163634Y-14223293D02*
X15163634Y-14166151D01*
X15163634Y-14166151D02*
X15173158Y-14147103D01*
X15173158Y-14147103D02*
X15182682Y-14137579D01*
X15182682Y-14137579D02*
X15201729Y-14128055D01*
X15201729Y-14128055D02*
X15230301Y-14128055D01*
X15230301Y-14128055D02*
X15249348Y-14137579D01*
X15249348Y-14137579D02*
X15258872Y-14147103D01*
X15258872Y-14147103D02*
X15268396Y-14166151D01*
X15268396Y-14166151D02*
X15268396Y-14223293D01*
X15268396Y-14223293D02*
X15258872Y-14242341D01*
X15258872Y-14242341D02*
X15249348Y-14251865D01*
X15249348Y-14251865D02*
X15230301Y-14261389D01*
X15230301Y-14261389D02*
X15201729Y-14261389D01*
X15382682Y-14261389D02*
X15363634Y-14251865D01*
X15363634Y-14251865D02*
X15354110Y-14232817D01*
X15354110Y-14232817D02*
X15354110Y-14061389D01*
X15535063Y-14251865D02*
X15516015Y-14261389D01*
X15516015Y-14261389D02*
X15477920Y-14261389D01*
X15477920Y-14261389D02*
X15458872Y-14251865D01*
X15458872Y-14251865D02*
X15449348Y-14232817D01*
X15449348Y-14232817D02*
X15449348Y-14156627D01*
X15449348Y-14156627D02*
X15458872Y-14137579D01*
X15458872Y-14137579D02*
X15477920Y-14128055D01*
X15477920Y-14128055D02*
X15516015Y-14128055D01*
X15516015Y-14128055D02*
X15535063Y-14137579D01*
X15535063Y-14137579D02*
X15544586Y-14156627D01*
X15544586Y-14156627D02*
X15544586Y-14175674D01*
X15544586Y-14175674D02*
X15449348Y-14194722D01*
X15620777Y-14251865D02*
X15639825Y-14261389D01*
X15639825Y-14261389D02*
X15677920Y-14261389D01*
X15677920Y-14261389D02*
X15696967Y-14251865D01*
X15696967Y-14251865D02*
X15706491Y-14232817D01*
X15706491Y-14232817D02*
X15706491Y-14223293D01*
X15706491Y-14223293D02*
X15696967Y-14204246D01*
X15696967Y-14204246D02*
X15677920Y-14194722D01*
X15677920Y-14194722D02*
X15649348Y-14194722D01*
X15649348Y-14194722D02*
X15630301Y-14185198D01*
X15630301Y-14185198D02*
X15620777Y-14166151D01*
X15620777Y-14166151D02*
X15620777Y-14156627D01*
X15620777Y-14156627D02*
X15630301Y-14137579D01*
X15630301Y-14137579D02*
X15649348Y-14128055D01*
X15649348Y-14128055D02*
X15677920Y-14128055D01*
X15677920Y-14128055D02*
X15696967Y-14137579D01*
X15773158Y-14337579D02*
X15782682Y-14328055D01*
X15782682Y-14328055D02*
X15801729Y-14299484D01*
X15801729Y-14299484D02*
X15811253Y-14280436D01*
X15811253Y-14280436D02*
X15820777Y-14251865D01*
X15820777Y-14251865D02*
X15830301Y-14204246D01*
X15830301Y-14204246D02*
X15830301Y-14166151D01*
X15830301Y-14166151D02*
X15820777Y-14118532D01*
X15820777Y-14118532D02*
X15811253Y-14089960D01*
X15811253Y-14089960D02*
X15801729Y-14070913D01*
X15801729Y-14070913D02*
X15782682Y-14042341D01*
X15782682Y-14042341D02*
X15773158Y-14032817D01*
D12*
X10983451Y-14469261D02*
X10983451Y-14398549D01*
X10912739Y-14398549D01*
X10912739Y-14469261D01*
X10983451Y-14469261D01*
D11*
X11363634Y-14525389D02*
X11249348Y-14525389D01*
X11306491Y-14525389D02*
X11306491Y-14325389D01*
X11306491Y-14325389D02*
X11287443Y-14353960D01*
X11287443Y-14353960D02*
X11268396Y-14373008D01*
X11268396Y-14373008D02*
X11249348Y-14382532D01*
X11449348Y-14506341D02*
X11458872Y-14515865D01*
X11458872Y-14515865D02*
X11449348Y-14525389D01*
X11449348Y-14525389D02*
X11439824Y-14515865D01*
X11439824Y-14515865D02*
X11449348Y-14506341D01*
X11449348Y-14506341D02*
X11449348Y-14525389D01*
X11582681Y-14325389D02*
X11601729Y-14325389D01*
X11601729Y-14325389D02*
X11620777Y-14334913D01*
X11620777Y-14334913D02*
X11630300Y-14344436D01*
X11630300Y-14344436D02*
X11639824Y-14363484D01*
X11639824Y-14363484D02*
X11649348Y-14401579D01*
X11649348Y-14401579D02*
X11649348Y-14449198D01*
X11649348Y-14449198D02*
X11639824Y-14487293D01*
X11639824Y-14487293D02*
X11630300Y-14506341D01*
X11630300Y-14506341D02*
X11620777Y-14515865D01*
X11620777Y-14515865D02*
X11601729Y-14525389D01*
X11601729Y-14525389D02*
X11582681Y-14525389D01*
X11582681Y-14525389D02*
X11563634Y-14515865D01*
X11563634Y-14515865D02*
X11554110Y-14506341D01*
X11554110Y-14506341D02*
X11544586Y-14487293D01*
X11544586Y-14487293D02*
X11535062Y-14449198D01*
X11535062Y-14449198D02*
X11535062Y-14401579D01*
X11535062Y-14401579D02*
X11544586Y-14363484D01*
X11544586Y-14363484D02*
X11554110Y-14344436D01*
X11554110Y-14344436D02*
X11563634Y-14334913D01*
X11563634Y-14334913D02*
X11582681Y-14325389D01*
X11773157Y-14325389D02*
X11792205Y-14325389D01*
X11792205Y-14325389D02*
X11811253Y-14334913D01*
X11811253Y-14334913D02*
X11820777Y-14344436D01*
X11820777Y-14344436D02*
X11830300Y-14363484D01*
X11830300Y-14363484D02*
X11839824Y-14401579D01*
X11839824Y-14401579D02*
X11839824Y-14449198D01*
X11839824Y-14449198D02*
X11830300Y-14487293D01*
X11830300Y-14487293D02*
X11820777Y-14506341D01*
X11820777Y-14506341D02*
X11811253Y-14515865D01*
X11811253Y-14515865D02*
X11792205Y-14525389D01*
X11792205Y-14525389D02*
X11773157Y-14525389D01*
X11773157Y-14525389D02*
X11754110Y-14515865D01*
X11754110Y-14515865D02*
X11744586Y-14506341D01*
X11744586Y-14506341D02*
X11735062Y-14487293D01*
X11735062Y-14487293D02*
X11725538Y-14449198D01*
X11725538Y-14449198D02*
X11725538Y-14401579D01*
X11725538Y-14401579D02*
X11735062Y-14363484D01*
X11735062Y-14363484D02*
X11744586Y-14344436D01*
X11744586Y-14344436D02*
X11754110Y-14334913D01*
X11754110Y-14334913D02*
X11773157Y-14325389D01*
X11963634Y-14325389D02*
X11982681Y-14325389D01*
X11982681Y-14325389D02*
X12001729Y-14334913D01*
X12001729Y-14334913D02*
X12011253Y-14344436D01*
X12011253Y-14344436D02*
X12020777Y-14363484D01*
X12020777Y-14363484D02*
X12030300Y-14401579D01*
X12030300Y-14401579D02*
X12030300Y-14449198D01*
X12030300Y-14449198D02*
X12020777Y-14487293D01*
X12020777Y-14487293D02*
X12011253Y-14506341D01*
X12011253Y-14506341D02*
X12001729Y-14515865D01*
X12001729Y-14515865D02*
X11982681Y-14525389D01*
X11982681Y-14525389D02*
X11963634Y-14525389D01*
X11963634Y-14525389D02*
X11944586Y-14515865D01*
X11944586Y-14515865D02*
X11935062Y-14506341D01*
X11935062Y-14506341D02*
X11925538Y-14487293D01*
X11925538Y-14487293D02*
X11916015Y-14449198D01*
X11916015Y-14449198D02*
X11916015Y-14401579D01*
X11916015Y-14401579D02*
X11925538Y-14363484D01*
X11925538Y-14363484D02*
X11935062Y-14344436D01*
X11935062Y-14344436D02*
X11944586Y-14334913D01*
X11944586Y-14334913D02*
X11963634Y-14325389D01*
X12116015Y-14525389D02*
X12116015Y-14392055D01*
X12116015Y-14411103D02*
X12125538Y-14401579D01*
X12125538Y-14401579D02*
X12144586Y-14392055D01*
X12144586Y-14392055D02*
X12173158Y-14392055D01*
X12173158Y-14392055D02*
X12192205Y-14401579D01*
X12192205Y-14401579D02*
X12201729Y-14420627D01*
X12201729Y-14420627D02*
X12201729Y-14525389D01*
X12201729Y-14420627D02*
X12211253Y-14401579D01*
X12211253Y-14401579D02*
X12230300Y-14392055D01*
X12230300Y-14392055D02*
X12258872Y-14392055D01*
X12258872Y-14392055D02*
X12277919Y-14401579D01*
X12277919Y-14401579D02*
X12287443Y-14420627D01*
X12287443Y-14420627D02*
X12287443Y-14525389D01*
X12382681Y-14525389D02*
X12382681Y-14392055D01*
X12382681Y-14411103D02*
X12392205Y-14401579D01*
X12392205Y-14401579D02*
X12411253Y-14392055D01*
X12411253Y-14392055D02*
X12439824Y-14392055D01*
X12439824Y-14392055D02*
X12458872Y-14401579D01*
X12458872Y-14401579D02*
X12468396Y-14420627D01*
X12468396Y-14420627D02*
X12468396Y-14525389D01*
X12468396Y-14420627D02*
X12477919Y-14401579D01*
X12477919Y-14401579D02*
X12496967Y-14392055D01*
X12496967Y-14392055D02*
X12525538Y-14392055D01*
X12525538Y-14392055D02*
X12544586Y-14401579D01*
X12544586Y-14401579D02*
X12554110Y-14420627D01*
X12554110Y-14420627D02*
X12554110Y-14525389D01*
X12944586Y-14315865D02*
X12773158Y-14573008D01*
X13201729Y-14325389D02*
X13220777Y-14325389D01*
X13220777Y-14325389D02*
X13239824Y-14334913D01*
X13239824Y-14334913D02*
X13249348Y-14344436D01*
X13249348Y-14344436D02*
X13258872Y-14363484D01*
X13258872Y-14363484D02*
X13268396Y-14401579D01*
X13268396Y-14401579D02*
X13268396Y-14449198D01*
X13268396Y-14449198D02*
X13258872Y-14487293D01*
X13258872Y-14487293D02*
X13249348Y-14506341D01*
X13249348Y-14506341D02*
X13239824Y-14515865D01*
X13239824Y-14515865D02*
X13220777Y-14525389D01*
X13220777Y-14525389D02*
X13201729Y-14525389D01*
X13201729Y-14525389D02*
X13182681Y-14515865D01*
X13182681Y-14515865D02*
X13173158Y-14506341D01*
X13173158Y-14506341D02*
X13163634Y-14487293D01*
X13163634Y-14487293D02*
X13154110Y-14449198D01*
X13154110Y-14449198D02*
X13154110Y-14401579D01*
X13154110Y-14401579D02*
X13163634Y-14363484D01*
X13163634Y-14363484D02*
X13173158Y-14344436D01*
X13173158Y-14344436D02*
X13182681Y-14334913D01*
X13182681Y-14334913D02*
X13201729Y-14325389D01*
X13354110Y-14506341D02*
X13363634Y-14515865D01*
X13363634Y-14515865D02*
X13354110Y-14525389D01*
X13354110Y-14525389D02*
X13344586Y-14515865D01*
X13344586Y-14515865D02*
X13354110Y-14506341D01*
X13354110Y-14506341D02*
X13354110Y-14525389D01*
X13487443Y-14325389D02*
X13506491Y-14325389D01*
X13506491Y-14325389D02*
X13525539Y-14334913D01*
X13525539Y-14334913D02*
X13535062Y-14344436D01*
X13535062Y-14344436D02*
X13544586Y-14363484D01*
X13544586Y-14363484D02*
X13554110Y-14401579D01*
X13554110Y-14401579D02*
X13554110Y-14449198D01*
X13554110Y-14449198D02*
X13544586Y-14487293D01*
X13544586Y-14487293D02*
X13535062Y-14506341D01*
X13535062Y-14506341D02*
X13525539Y-14515865D01*
X13525539Y-14515865D02*
X13506491Y-14525389D01*
X13506491Y-14525389D02*
X13487443Y-14525389D01*
X13487443Y-14525389D02*
X13468396Y-14515865D01*
X13468396Y-14515865D02*
X13458872Y-14506341D01*
X13458872Y-14506341D02*
X13449348Y-14487293D01*
X13449348Y-14487293D02*
X13439824Y-14449198D01*
X13439824Y-14449198D02*
X13439824Y-14401579D01*
X13439824Y-14401579D02*
X13449348Y-14363484D01*
X13449348Y-14363484D02*
X13458872Y-14344436D01*
X13458872Y-14344436D02*
X13468396Y-14334913D01*
X13468396Y-14334913D02*
X13487443Y-14325389D01*
X13620777Y-14325389D02*
X13744586Y-14325389D01*
X13744586Y-14325389D02*
X13677920Y-14401579D01*
X13677920Y-14401579D02*
X13706491Y-14401579D01*
X13706491Y-14401579D02*
X13725539Y-14411103D01*
X13725539Y-14411103D02*
X13735062Y-14420627D01*
X13735062Y-14420627D02*
X13744586Y-14439674D01*
X13744586Y-14439674D02*
X13744586Y-14487293D01*
X13744586Y-14487293D02*
X13735062Y-14506341D01*
X13735062Y-14506341D02*
X13725539Y-14515865D01*
X13725539Y-14515865D02*
X13706491Y-14525389D01*
X13706491Y-14525389D02*
X13649348Y-14525389D01*
X13649348Y-14525389D02*
X13630301Y-14515865D01*
X13630301Y-14515865D02*
X13620777Y-14506341D01*
X13839824Y-14525389D02*
X13877920Y-14525389D01*
X13877920Y-14525389D02*
X13896967Y-14515865D01*
X13896967Y-14515865D02*
X13906491Y-14506341D01*
X13906491Y-14506341D02*
X13925539Y-14477770D01*
X13925539Y-14477770D02*
X13935062Y-14439674D01*
X13935062Y-14439674D02*
X13935062Y-14363484D01*
X13935062Y-14363484D02*
X13925539Y-14344436D01*
X13925539Y-14344436D02*
X13916015Y-14334913D01*
X13916015Y-14334913D02*
X13896967Y-14325389D01*
X13896967Y-14325389D02*
X13858872Y-14325389D01*
X13858872Y-14325389D02*
X13839824Y-14334913D01*
X13839824Y-14334913D02*
X13830301Y-14344436D01*
X13830301Y-14344436D02*
X13820777Y-14363484D01*
X13820777Y-14363484D02*
X13820777Y-14411103D01*
X13820777Y-14411103D02*
X13830301Y-14430151D01*
X13830301Y-14430151D02*
X13839824Y-14439674D01*
X13839824Y-14439674D02*
X13858872Y-14449198D01*
X13858872Y-14449198D02*
X13896967Y-14449198D01*
X13896967Y-14449198D02*
X13916015Y-14439674D01*
X13916015Y-14439674D02*
X13925539Y-14430151D01*
X13925539Y-14430151D02*
X13935062Y-14411103D01*
X14106491Y-14392055D02*
X14106491Y-14525389D01*
X14058872Y-14315865D02*
X14011253Y-14458722D01*
X14011253Y-14458722D02*
X14135062Y-14458722D01*
X14201729Y-14325389D02*
X14201729Y-14363484D01*
X14277920Y-14325389D02*
X14277920Y-14363484D01*
X14573158Y-14601579D02*
X14563634Y-14592055D01*
X14563634Y-14592055D02*
X14544586Y-14563484D01*
X14544586Y-14563484D02*
X14535063Y-14544436D01*
X14535063Y-14544436D02*
X14525539Y-14515865D01*
X14525539Y-14515865D02*
X14516015Y-14468246D01*
X14516015Y-14468246D02*
X14516015Y-14430151D01*
X14516015Y-14430151D02*
X14525539Y-14382532D01*
X14525539Y-14382532D02*
X14535063Y-14353960D01*
X14535063Y-14353960D02*
X14544586Y-14334913D01*
X14544586Y-14334913D02*
X14563634Y-14306341D01*
X14563634Y-14306341D02*
X14573158Y-14296817D01*
X14754110Y-14525389D02*
X14639824Y-14525389D01*
X14696967Y-14525389D02*
X14696967Y-14325389D01*
X14696967Y-14325389D02*
X14677920Y-14353960D01*
X14677920Y-14353960D02*
X14658872Y-14373008D01*
X14658872Y-14373008D02*
X14639824Y-14382532D01*
X14830301Y-14344436D02*
X14839824Y-14334913D01*
X14839824Y-14334913D02*
X14858872Y-14325389D01*
X14858872Y-14325389D02*
X14906491Y-14325389D01*
X14906491Y-14325389D02*
X14925539Y-14334913D01*
X14925539Y-14334913D02*
X14935063Y-14344436D01*
X14935063Y-14344436D02*
X14944586Y-14363484D01*
X14944586Y-14363484D02*
X14944586Y-14382532D01*
X14944586Y-14382532D02*
X14935063Y-14411103D01*
X14935063Y-14411103D02*
X14820777Y-14525389D01*
X14820777Y-14525389D02*
X14944586Y-14525389D01*
X15182682Y-14525389D02*
X15182682Y-14325389D01*
X15268396Y-14525389D02*
X15268396Y-14420627D01*
X15268396Y-14420627D02*
X15258872Y-14401579D01*
X15258872Y-14401579D02*
X15239825Y-14392055D01*
X15239825Y-14392055D02*
X15211253Y-14392055D01*
X15211253Y-14392055D02*
X15192205Y-14401579D01*
X15192205Y-14401579D02*
X15182682Y-14411103D01*
X15392205Y-14525389D02*
X15373158Y-14515865D01*
X15373158Y-14515865D02*
X15363634Y-14506341D01*
X15363634Y-14506341D02*
X15354110Y-14487293D01*
X15354110Y-14487293D02*
X15354110Y-14430151D01*
X15354110Y-14430151D02*
X15363634Y-14411103D01*
X15363634Y-14411103D02*
X15373158Y-14401579D01*
X15373158Y-14401579D02*
X15392205Y-14392055D01*
X15392205Y-14392055D02*
X15420777Y-14392055D01*
X15420777Y-14392055D02*
X15439825Y-14401579D01*
X15439825Y-14401579D02*
X15449348Y-14411103D01*
X15449348Y-14411103D02*
X15458872Y-14430151D01*
X15458872Y-14430151D02*
X15458872Y-14487293D01*
X15458872Y-14487293D02*
X15449348Y-14506341D01*
X15449348Y-14506341D02*
X15439825Y-14515865D01*
X15439825Y-14515865D02*
X15420777Y-14525389D01*
X15420777Y-14525389D02*
X15392205Y-14525389D01*
X15573158Y-14525389D02*
X15554110Y-14515865D01*
X15554110Y-14515865D02*
X15544586Y-14496817D01*
X15544586Y-14496817D02*
X15544586Y-14325389D01*
X15725539Y-14515865D02*
X15706491Y-14525389D01*
X15706491Y-14525389D02*
X15668396Y-14525389D01*
X15668396Y-14525389D02*
X15649348Y-14515865D01*
X15649348Y-14515865D02*
X15639825Y-14496817D01*
X15639825Y-14496817D02*
X15639825Y-14420627D01*
X15639825Y-14420627D02*
X15649348Y-14401579D01*
X15649348Y-14401579D02*
X15668396Y-14392055D01*
X15668396Y-14392055D02*
X15706491Y-14392055D01*
X15706491Y-14392055D02*
X15725539Y-14401579D01*
X15725539Y-14401579D02*
X15735063Y-14420627D01*
X15735063Y-14420627D02*
X15735063Y-14439674D01*
X15735063Y-14439674D02*
X15639825Y-14458722D01*
X15811253Y-14515865D02*
X15830301Y-14525389D01*
X15830301Y-14525389D02*
X15868396Y-14525389D01*
X15868396Y-14525389D02*
X15887444Y-14515865D01*
X15887444Y-14515865D02*
X15896967Y-14496817D01*
X15896967Y-14496817D02*
X15896967Y-14487293D01*
X15896967Y-14487293D02*
X15887444Y-14468246D01*
X15887444Y-14468246D02*
X15868396Y-14458722D01*
X15868396Y-14458722D02*
X15839825Y-14458722D01*
X15839825Y-14458722D02*
X15820777Y-14449198D01*
X15820777Y-14449198D02*
X15811253Y-14430151D01*
X15811253Y-14430151D02*
X15811253Y-14420627D01*
X15811253Y-14420627D02*
X15820777Y-14401579D01*
X15820777Y-14401579D02*
X15839825Y-14392055D01*
X15839825Y-14392055D02*
X15868396Y-14392055D01*
X15868396Y-14392055D02*
X15887444Y-14401579D01*
X15963634Y-14601579D02*
X15973158Y-14592055D01*
X15973158Y-14592055D02*
X15992206Y-14563484D01*
X15992206Y-14563484D02*
X16001729Y-14544436D01*
X16001729Y-14544436D02*
X16011253Y-14515865D01*
X16011253Y-14515865D02*
X16020777Y-14468246D01*
X16020777Y-14468246D02*
X16020777Y-14430151D01*
X16020777Y-14430151D02*
X16011253Y-14382532D01*
X16011253Y-14382532D02*
X16001729Y-14353960D01*
X16001729Y-14353960D02*
X15992206Y-14334913D01*
X15992206Y-14334913D02*
X15973158Y-14306341D01*
X15973158Y-14306341D02*
X15963634Y-14296817D01*
D13*
X10947095Y-14748905D02*
X10998095Y-14697905D01*
X10947095Y-14646905D01*
X10896095Y-14697905D01*
X10947095Y-14748905D01*
D11*
X11363634Y-14789389D02*
X11249348Y-14789389D01*
X11306491Y-14789389D02*
X11306491Y-14589389D01*
X11306491Y-14589389D02*
X11287443Y-14617960D01*
X11287443Y-14617960D02*
X11268396Y-14637008D01*
X11268396Y-14637008D02*
X11249348Y-14646532D01*
X11449348Y-14770341D02*
X11458872Y-14779865D01*
X11458872Y-14779865D02*
X11449348Y-14789389D01*
X11449348Y-14789389D02*
X11439824Y-14779865D01*
X11439824Y-14779865D02*
X11449348Y-14770341D01*
X11449348Y-14770341D02*
X11449348Y-14789389D01*
X11582681Y-14589389D02*
X11601729Y-14589389D01*
X11601729Y-14589389D02*
X11620777Y-14598913D01*
X11620777Y-14598913D02*
X11630300Y-14608436D01*
X11630300Y-14608436D02*
X11639824Y-14627484D01*
X11639824Y-14627484D02*
X11649348Y-14665579D01*
X11649348Y-14665579D02*
X11649348Y-14713198D01*
X11649348Y-14713198D02*
X11639824Y-14751293D01*
X11639824Y-14751293D02*
X11630300Y-14770341D01*
X11630300Y-14770341D02*
X11620777Y-14779865D01*
X11620777Y-14779865D02*
X11601729Y-14789389D01*
X11601729Y-14789389D02*
X11582681Y-14789389D01*
X11582681Y-14789389D02*
X11563634Y-14779865D01*
X11563634Y-14779865D02*
X11554110Y-14770341D01*
X11554110Y-14770341D02*
X11544586Y-14751293D01*
X11544586Y-14751293D02*
X11535062Y-14713198D01*
X11535062Y-14713198D02*
X11535062Y-14665579D01*
X11535062Y-14665579D02*
X11544586Y-14627484D01*
X11544586Y-14627484D02*
X11554110Y-14608436D01*
X11554110Y-14608436D02*
X11563634Y-14598913D01*
X11563634Y-14598913D02*
X11582681Y-14589389D01*
X11725538Y-14608436D02*
X11735062Y-14598913D01*
X11735062Y-14598913D02*
X11754110Y-14589389D01*
X11754110Y-14589389D02*
X11801729Y-14589389D01*
X11801729Y-14589389D02*
X11820777Y-14598913D01*
X11820777Y-14598913D02*
X11830300Y-14608436D01*
X11830300Y-14608436D02*
X11839824Y-14627484D01*
X11839824Y-14627484D02*
X11839824Y-14646532D01*
X11839824Y-14646532D02*
X11830300Y-14675103D01*
X11830300Y-14675103D02*
X11716015Y-14789389D01*
X11716015Y-14789389D02*
X11839824Y-14789389D01*
X11963634Y-14589389D02*
X11982681Y-14589389D01*
X11982681Y-14589389D02*
X12001729Y-14598913D01*
X12001729Y-14598913D02*
X12011253Y-14608436D01*
X12011253Y-14608436D02*
X12020777Y-14627484D01*
X12020777Y-14627484D02*
X12030300Y-14665579D01*
X12030300Y-14665579D02*
X12030300Y-14713198D01*
X12030300Y-14713198D02*
X12020777Y-14751293D01*
X12020777Y-14751293D02*
X12011253Y-14770341D01*
X12011253Y-14770341D02*
X12001729Y-14779865D01*
X12001729Y-14779865D02*
X11982681Y-14789389D01*
X11982681Y-14789389D02*
X11963634Y-14789389D01*
X11963634Y-14789389D02*
X11944586Y-14779865D01*
X11944586Y-14779865D02*
X11935062Y-14770341D01*
X11935062Y-14770341D02*
X11925538Y-14751293D01*
X11925538Y-14751293D02*
X11916015Y-14713198D01*
X11916015Y-14713198D02*
X11916015Y-14665579D01*
X11916015Y-14665579D02*
X11925538Y-14627484D01*
X11925538Y-14627484D02*
X11935062Y-14608436D01*
X11935062Y-14608436D02*
X11944586Y-14598913D01*
X11944586Y-14598913D02*
X11963634Y-14589389D01*
X12116015Y-14789389D02*
X12116015Y-14656055D01*
X12116015Y-14675103D02*
X12125538Y-14665579D01*
X12125538Y-14665579D02*
X12144586Y-14656055D01*
X12144586Y-14656055D02*
X12173158Y-14656055D01*
X12173158Y-14656055D02*
X12192205Y-14665579D01*
X12192205Y-14665579D02*
X12201729Y-14684627D01*
X12201729Y-14684627D02*
X12201729Y-14789389D01*
X12201729Y-14684627D02*
X12211253Y-14665579D01*
X12211253Y-14665579D02*
X12230300Y-14656055D01*
X12230300Y-14656055D02*
X12258872Y-14656055D01*
X12258872Y-14656055D02*
X12277919Y-14665579D01*
X12277919Y-14665579D02*
X12287443Y-14684627D01*
X12287443Y-14684627D02*
X12287443Y-14789389D01*
X12382681Y-14789389D02*
X12382681Y-14656055D01*
X12382681Y-14675103D02*
X12392205Y-14665579D01*
X12392205Y-14665579D02*
X12411253Y-14656055D01*
X12411253Y-14656055D02*
X12439824Y-14656055D01*
X12439824Y-14656055D02*
X12458872Y-14665579D01*
X12458872Y-14665579D02*
X12468396Y-14684627D01*
X12468396Y-14684627D02*
X12468396Y-14789389D01*
X12468396Y-14684627D02*
X12477919Y-14665579D01*
X12477919Y-14665579D02*
X12496967Y-14656055D01*
X12496967Y-14656055D02*
X12525538Y-14656055D01*
X12525538Y-14656055D02*
X12544586Y-14665579D01*
X12544586Y-14665579D02*
X12554110Y-14684627D01*
X12554110Y-14684627D02*
X12554110Y-14789389D01*
X12944586Y-14579865D02*
X12773158Y-14837008D01*
X13201729Y-14589389D02*
X13220777Y-14589389D01*
X13220777Y-14589389D02*
X13239824Y-14598913D01*
X13239824Y-14598913D02*
X13249348Y-14608436D01*
X13249348Y-14608436D02*
X13258872Y-14627484D01*
X13258872Y-14627484D02*
X13268396Y-14665579D01*
X13268396Y-14665579D02*
X13268396Y-14713198D01*
X13268396Y-14713198D02*
X13258872Y-14751293D01*
X13258872Y-14751293D02*
X13249348Y-14770341D01*
X13249348Y-14770341D02*
X13239824Y-14779865D01*
X13239824Y-14779865D02*
X13220777Y-14789389D01*
X13220777Y-14789389D02*
X13201729Y-14789389D01*
X13201729Y-14789389D02*
X13182681Y-14779865D01*
X13182681Y-14779865D02*
X13173158Y-14770341D01*
X13173158Y-14770341D02*
X13163634Y-14751293D01*
X13163634Y-14751293D02*
X13154110Y-14713198D01*
X13154110Y-14713198D02*
X13154110Y-14665579D01*
X13154110Y-14665579D02*
X13163634Y-14627484D01*
X13163634Y-14627484D02*
X13173158Y-14608436D01*
X13173158Y-14608436D02*
X13182681Y-14598913D01*
X13182681Y-14598913D02*
X13201729Y-14589389D01*
X13354110Y-14770341D02*
X13363634Y-14779865D01*
X13363634Y-14779865D02*
X13354110Y-14789389D01*
X13354110Y-14789389D02*
X13344586Y-14779865D01*
X13344586Y-14779865D02*
X13354110Y-14770341D01*
X13354110Y-14770341D02*
X13354110Y-14789389D01*
X13487443Y-14589389D02*
X13506491Y-14589389D01*
X13506491Y-14589389D02*
X13525539Y-14598913D01*
X13525539Y-14598913D02*
X13535062Y-14608436D01*
X13535062Y-14608436D02*
X13544586Y-14627484D01*
X13544586Y-14627484D02*
X13554110Y-14665579D01*
X13554110Y-14665579D02*
X13554110Y-14713198D01*
X13554110Y-14713198D02*
X13544586Y-14751293D01*
X13544586Y-14751293D02*
X13535062Y-14770341D01*
X13535062Y-14770341D02*
X13525539Y-14779865D01*
X13525539Y-14779865D02*
X13506491Y-14789389D01*
X13506491Y-14789389D02*
X13487443Y-14789389D01*
X13487443Y-14789389D02*
X13468396Y-14779865D01*
X13468396Y-14779865D02*
X13458872Y-14770341D01*
X13458872Y-14770341D02*
X13449348Y-14751293D01*
X13449348Y-14751293D02*
X13439824Y-14713198D01*
X13439824Y-14713198D02*
X13439824Y-14665579D01*
X13439824Y-14665579D02*
X13449348Y-14627484D01*
X13449348Y-14627484D02*
X13458872Y-14608436D01*
X13458872Y-14608436D02*
X13468396Y-14598913D01*
X13468396Y-14598913D02*
X13487443Y-14589389D01*
X13725539Y-14656055D02*
X13725539Y-14789389D01*
X13677920Y-14579865D02*
X13630301Y-14722722D01*
X13630301Y-14722722D02*
X13754110Y-14722722D01*
X13868396Y-14589389D02*
X13887443Y-14589389D01*
X13887443Y-14589389D02*
X13906491Y-14598913D01*
X13906491Y-14598913D02*
X13916015Y-14608436D01*
X13916015Y-14608436D02*
X13925539Y-14627484D01*
X13925539Y-14627484D02*
X13935062Y-14665579D01*
X13935062Y-14665579D02*
X13935062Y-14713198D01*
X13935062Y-14713198D02*
X13925539Y-14751293D01*
X13925539Y-14751293D02*
X13916015Y-14770341D01*
X13916015Y-14770341D02*
X13906491Y-14779865D01*
X13906491Y-14779865D02*
X13887443Y-14789389D01*
X13887443Y-14789389D02*
X13868396Y-14789389D01*
X13868396Y-14789389D02*
X13849348Y-14779865D01*
X13849348Y-14779865D02*
X13839824Y-14770341D01*
X13839824Y-14770341D02*
X13830301Y-14751293D01*
X13830301Y-14751293D02*
X13820777Y-14713198D01*
X13820777Y-14713198D02*
X13820777Y-14665579D01*
X13820777Y-14665579D02*
X13830301Y-14627484D01*
X13830301Y-14627484D02*
X13839824Y-14608436D01*
X13839824Y-14608436D02*
X13849348Y-14598913D01*
X13849348Y-14598913D02*
X13868396Y-14589389D01*
X14011253Y-14608436D02*
X14020777Y-14598913D01*
X14020777Y-14598913D02*
X14039824Y-14589389D01*
X14039824Y-14589389D02*
X14087443Y-14589389D01*
X14087443Y-14589389D02*
X14106491Y-14598913D01*
X14106491Y-14598913D02*
X14116015Y-14608436D01*
X14116015Y-14608436D02*
X14125539Y-14627484D01*
X14125539Y-14627484D02*
X14125539Y-14646532D01*
X14125539Y-14646532D02*
X14116015Y-14675103D01*
X14116015Y-14675103D02*
X14001729Y-14789389D01*
X14001729Y-14789389D02*
X14125539Y-14789389D01*
X14201729Y-14589389D02*
X14201729Y-14627484D01*
X14277920Y-14589389D02*
X14277920Y-14627484D01*
X14573158Y-14865579D02*
X14563634Y-14856055D01*
X14563634Y-14856055D02*
X14544586Y-14827484D01*
X14544586Y-14827484D02*
X14535063Y-14808436D01*
X14535063Y-14808436D02*
X14525539Y-14779865D01*
X14525539Y-14779865D02*
X14516015Y-14732246D01*
X14516015Y-14732246D02*
X14516015Y-14694151D01*
X14516015Y-14694151D02*
X14525539Y-14646532D01*
X14525539Y-14646532D02*
X14535063Y-14617960D01*
X14535063Y-14617960D02*
X14544586Y-14598913D01*
X14544586Y-14598913D02*
X14563634Y-14570341D01*
X14563634Y-14570341D02*
X14573158Y-14560817D01*
X14639824Y-14608436D02*
X14649348Y-14598913D01*
X14649348Y-14598913D02*
X14668396Y-14589389D01*
X14668396Y-14589389D02*
X14716015Y-14589389D01*
X14716015Y-14589389D02*
X14735063Y-14598913D01*
X14735063Y-14598913D02*
X14744586Y-14608436D01*
X14744586Y-14608436D02*
X14754110Y-14627484D01*
X14754110Y-14627484D02*
X14754110Y-14646532D01*
X14754110Y-14646532D02*
X14744586Y-14675103D01*
X14744586Y-14675103D02*
X14630301Y-14789389D01*
X14630301Y-14789389D02*
X14754110Y-14789389D01*
X14868396Y-14675103D02*
X14849348Y-14665579D01*
X14849348Y-14665579D02*
X14839824Y-14656055D01*
X14839824Y-14656055D02*
X14830301Y-14637008D01*
X14830301Y-14637008D02*
X14830301Y-14627484D01*
X14830301Y-14627484D02*
X14839824Y-14608436D01*
X14839824Y-14608436D02*
X14849348Y-14598913D01*
X14849348Y-14598913D02*
X14868396Y-14589389D01*
X14868396Y-14589389D02*
X14906491Y-14589389D01*
X14906491Y-14589389D02*
X14925539Y-14598913D01*
X14925539Y-14598913D02*
X14935063Y-14608436D01*
X14935063Y-14608436D02*
X14944586Y-14627484D01*
X14944586Y-14627484D02*
X14944586Y-14637008D01*
X14944586Y-14637008D02*
X14935063Y-14656055D01*
X14935063Y-14656055D02*
X14925539Y-14665579D01*
X14925539Y-14665579D02*
X14906491Y-14675103D01*
X14906491Y-14675103D02*
X14868396Y-14675103D01*
X14868396Y-14675103D02*
X14849348Y-14684627D01*
X14849348Y-14684627D02*
X14839824Y-14694151D01*
X14839824Y-14694151D02*
X14830301Y-14713198D01*
X14830301Y-14713198D02*
X14830301Y-14751293D01*
X14830301Y-14751293D02*
X14839824Y-14770341D01*
X14839824Y-14770341D02*
X14849348Y-14779865D01*
X14849348Y-14779865D02*
X14868396Y-14789389D01*
X14868396Y-14789389D02*
X14906491Y-14789389D01*
X14906491Y-14789389D02*
X14925539Y-14779865D01*
X14925539Y-14779865D02*
X14935063Y-14770341D01*
X14935063Y-14770341D02*
X14944586Y-14751293D01*
X14944586Y-14751293D02*
X14944586Y-14713198D01*
X14944586Y-14713198D02*
X14935063Y-14694151D01*
X14935063Y-14694151D02*
X14925539Y-14684627D01*
X14925539Y-14684627D02*
X14906491Y-14675103D01*
X15182682Y-14789389D02*
X15182682Y-14589389D01*
X15268396Y-14789389D02*
X15268396Y-14684627D01*
X15268396Y-14684627D02*
X15258872Y-14665579D01*
X15258872Y-14665579D02*
X15239825Y-14656055D01*
X15239825Y-14656055D02*
X15211253Y-14656055D01*
X15211253Y-14656055D02*
X15192205Y-14665579D01*
X15192205Y-14665579D02*
X15182682Y-14675103D01*
X15392205Y-14789389D02*
X15373158Y-14779865D01*
X15373158Y-14779865D02*
X15363634Y-14770341D01*
X15363634Y-14770341D02*
X15354110Y-14751293D01*
X15354110Y-14751293D02*
X15354110Y-14694151D01*
X15354110Y-14694151D02*
X15363634Y-14675103D01*
X15363634Y-14675103D02*
X15373158Y-14665579D01*
X15373158Y-14665579D02*
X15392205Y-14656055D01*
X15392205Y-14656055D02*
X15420777Y-14656055D01*
X15420777Y-14656055D02*
X15439825Y-14665579D01*
X15439825Y-14665579D02*
X15449348Y-14675103D01*
X15449348Y-14675103D02*
X15458872Y-14694151D01*
X15458872Y-14694151D02*
X15458872Y-14751293D01*
X15458872Y-14751293D02*
X15449348Y-14770341D01*
X15449348Y-14770341D02*
X15439825Y-14779865D01*
X15439825Y-14779865D02*
X15420777Y-14789389D01*
X15420777Y-14789389D02*
X15392205Y-14789389D01*
X15573158Y-14789389D02*
X15554110Y-14779865D01*
X15554110Y-14779865D02*
X15544586Y-14760817D01*
X15544586Y-14760817D02*
X15544586Y-14589389D01*
X15725539Y-14779865D02*
X15706491Y-14789389D01*
X15706491Y-14789389D02*
X15668396Y-14789389D01*
X15668396Y-14789389D02*
X15649348Y-14779865D01*
X15649348Y-14779865D02*
X15639825Y-14760817D01*
X15639825Y-14760817D02*
X15639825Y-14684627D01*
X15639825Y-14684627D02*
X15649348Y-14665579D01*
X15649348Y-14665579D02*
X15668396Y-14656055D01*
X15668396Y-14656055D02*
X15706491Y-14656055D01*
X15706491Y-14656055D02*
X15725539Y-14665579D01*
X15725539Y-14665579D02*
X15735063Y-14684627D01*
X15735063Y-14684627D02*
X15735063Y-14703674D01*
X15735063Y-14703674D02*
X15639825Y-14722722D01*
X15811253Y-14779865D02*
X15830301Y-14789389D01*
X15830301Y-14789389D02*
X15868396Y-14789389D01*
X15868396Y-14789389D02*
X15887444Y-14779865D01*
X15887444Y-14779865D02*
X15896967Y-14760817D01*
X15896967Y-14760817D02*
X15896967Y-14751293D01*
X15896967Y-14751293D02*
X15887444Y-14732246D01*
X15887444Y-14732246D02*
X15868396Y-14722722D01*
X15868396Y-14722722D02*
X15839825Y-14722722D01*
X15839825Y-14722722D02*
X15820777Y-14713198D01*
X15820777Y-14713198D02*
X15811253Y-14694151D01*
X15811253Y-14694151D02*
X15811253Y-14684627D01*
X15811253Y-14684627D02*
X15820777Y-14665579D01*
X15820777Y-14665579D02*
X15839825Y-14656055D01*
X15839825Y-14656055D02*
X15868396Y-14656055D01*
X15868396Y-14656055D02*
X15887444Y-14665579D01*
X15963634Y-14865579D02*
X15973158Y-14856055D01*
X15973158Y-14856055D02*
X15992206Y-14827484D01*
X15992206Y-14827484D02*
X16001729Y-14808436D01*
X16001729Y-14808436D02*
X16011253Y-14779865D01*
X16011253Y-14779865D02*
X16020777Y-14732246D01*
X16020777Y-14732246D02*
X16020777Y-14694151D01*
X16020777Y-14694151D02*
X16011253Y-14646532D01*
X16011253Y-14646532D02*
X16001729Y-14617960D01*
X16001729Y-14617960D02*
X15992206Y-14598913D01*
X15992206Y-14598913D02*
X15973158Y-14570341D01*
X15973158Y-14570341D02*
X15963634Y-14560817D01*
D14*
X10868095Y-14896905D02*
X10998095Y-15026905D01*
X10998095Y-14896905D02*
X10868095Y-15026905D01*
X10998095Y-14961905D02*
G75*
G02*
X10868095Y-14961905I-65000J0D01*
G01*
X10868095Y-14961905D02*
G75*
G02*
X10998095Y-14961905I65000J0D01*
G01*
D11*
X11363634Y-15053389D02*
X11249348Y-15053389D01*
X11306491Y-15053389D02*
X11306491Y-14853389D01*
X11306491Y-14853389D02*
X11287443Y-14881960D01*
X11287443Y-14881960D02*
X11268396Y-14901008D01*
X11268396Y-14901008D02*
X11249348Y-14910532D01*
X11449348Y-15034341D02*
X11458872Y-15043865D01*
X11458872Y-15043865D02*
X11449348Y-15053389D01*
X11449348Y-15053389D02*
X11439824Y-15043865D01*
X11439824Y-15043865D02*
X11449348Y-15034341D01*
X11449348Y-15034341D02*
X11449348Y-15053389D01*
X11525538Y-14853389D02*
X11649348Y-14853389D01*
X11649348Y-14853389D02*
X11582681Y-14929579D01*
X11582681Y-14929579D02*
X11611253Y-14929579D01*
X11611253Y-14929579D02*
X11630300Y-14939103D01*
X11630300Y-14939103D02*
X11639824Y-14948627D01*
X11639824Y-14948627D02*
X11649348Y-14967674D01*
X11649348Y-14967674D02*
X11649348Y-15015293D01*
X11649348Y-15015293D02*
X11639824Y-15034341D01*
X11639824Y-15034341D02*
X11630300Y-15043865D01*
X11630300Y-15043865D02*
X11611253Y-15053389D01*
X11611253Y-15053389D02*
X11554110Y-15053389D01*
X11554110Y-15053389D02*
X11535062Y-15043865D01*
X11535062Y-15043865D02*
X11525538Y-15034341D01*
X11773157Y-14853389D02*
X11792205Y-14853389D01*
X11792205Y-14853389D02*
X11811253Y-14862913D01*
X11811253Y-14862913D02*
X11820777Y-14872436D01*
X11820777Y-14872436D02*
X11830300Y-14891484D01*
X11830300Y-14891484D02*
X11839824Y-14929579D01*
X11839824Y-14929579D02*
X11839824Y-14977198D01*
X11839824Y-14977198D02*
X11830300Y-15015293D01*
X11830300Y-15015293D02*
X11820777Y-15034341D01*
X11820777Y-15034341D02*
X11811253Y-15043865D01*
X11811253Y-15043865D02*
X11792205Y-15053389D01*
X11792205Y-15053389D02*
X11773157Y-15053389D01*
X11773157Y-15053389D02*
X11754110Y-15043865D01*
X11754110Y-15043865D02*
X11744586Y-15034341D01*
X11744586Y-15034341D02*
X11735062Y-15015293D01*
X11735062Y-15015293D02*
X11725538Y-14977198D01*
X11725538Y-14977198D02*
X11725538Y-14929579D01*
X11725538Y-14929579D02*
X11735062Y-14891484D01*
X11735062Y-14891484D02*
X11744586Y-14872436D01*
X11744586Y-14872436D02*
X11754110Y-14862913D01*
X11754110Y-14862913D02*
X11773157Y-14853389D01*
X11963634Y-14853389D02*
X11982681Y-14853389D01*
X11982681Y-14853389D02*
X12001729Y-14862913D01*
X12001729Y-14862913D02*
X12011253Y-14872436D01*
X12011253Y-14872436D02*
X12020777Y-14891484D01*
X12020777Y-14891484D02*
X12030300Y-14929579D01*
X12030300Y-14929579D02*
X12030300Y-14977198D01*
X12030300Y-14977198D02*
X12020777Y-15015293D01*
X12020777Y-15015293D02*
X12011253Y-15034341D01*
X12011253Y-15034341D02*
X12001729Y-15043865D01*
X12001729Y-15043865D02*
X11982681Y-15053389D01*
X11982681Y-15053389D02*
X11963634Y-15053389D01*
X11963634Y-15053389D02*
X11944586Y-15043865D01*
X11944586Y-15043865D02*
X11935062Y-15034341D01*
X11935062Y-15034341D02*
X11925538Y-15015293D01*
X11925538Y-15015293D02*
X11916015Y-14977198D01*
X11916015Y-14977198D02*
X11916015Y-14929579D01*
X11916015Y-14929579D02*
X11925538Y-14891484D01*
X11925538Y-14891484D02*
X11935062Y-14872436D01*
X11935062Y-14872436D02*
X11944586Y-14862913D01*
X11944586Y-14862913D02*
X11963634Y-14853389D01*
X12116015Y-15053389D02*
X12116015Y-14920055D01*
X12116015Y-14939103D02*
X12125538Y-14929579D01*
X12125538Y-14929579D02*
X12144586Y-14920055D01*
X12144586Y-14920055D02*
X12173158Y-14920055D01*
X12173158Y-14920055D02*
X12192205Y-14929579D01*
X12192205Y-14929579D02*
X12201729Y-14948627D01*
X12201729Y-14948627D02*
X12201729Y-15053389D01*
X12201729Y-14948627D02*
X12211253Y-14929579D01*
X12211253Y-14929579D02*
X12230300Y-14920055D01*
X12230300Y-14920055D02*
X12258872Y-14920055D01*
X12258872Y-14920055D02*
X12277919Y-14929579D01*
X12277919Y-14929579D02*
X12287443Y-14948627D01*
X12287443Y-14948627D02*
X12287443Y-15053389D01*
X12382681Y-15053389D02*
X12382681Y-14920055D01*
X12382681Y-14939103D02*
X12392205Y-14929579D01*
X12392205Y-14929579D02*
X12411253Y-14920055D01*
X12411253Y-14920055D02*
X12439824Y-14920055D01*
X12439824Y-14920055D02*
X12458872Y-14929579D01*
X12458872Y-14929579D02*
X12468396Y-14948627D01*
X12468396Y-14948627D02*
X12468396Y-15053389D01*
X12468396Y-14948627D02*
X12477919Y-14929579D01*
X12477919Y-14929579D02*
X12496967Y-14920055D01*
X12496967Y-14920055D02*
X12525538Y-14920055D01*
X12525538Y-14920055D02*
X12544586Y-14929579D01*
X12544586Y-14929579D02*
X12554110Y-14948627D01*
X12554110Y-14948627D02*
X12554110Y-15053389D01*
X12944586Y-14843865D02*
X12773158Y-15101008D01*
X13201729Y-14853389D02*
X13220777Y-14853389D01*
X13220777Y-14853389D02*
X13239824Y-14862913D01*
X13239824Y-14862913D02*
X13249348Y-14872436D01*
X13249348Y-14872436D02*
X13258872Y-14891484D01*
X13258872Y-14891484D02*
X13268396Y-14929579D01*
X13268396Y-14929579D02*
X13268396Y-14977198D01*
X13268396Y-14977198D02*
X13258872Y-15015293D01*
X13258872Y-15015293D02*
X13249348Y-15034341D01*
X13249348Y-15034341D02*
X13239824Y-15043865D01*
X13239824Y-15043865D02*
X13220777Y-15053389D01*
X13220777Y-15053389D02*
X13201729Y-15053389D01*
X13201729Y-15053389D02*
X13182681Y-15043865D01*
X13182681Y-15043865D02*
X13173158Y-15034341D01*
X13173158Y-15034341D02*
X13163634Y-15015293D01*
X13163634Y-15015293D02*
X13154110Y-14977198D01*
X13154110Y-14977198D02*
X13154110Y-14929579D01*
X13154110Y-14929579D02*
X13163634Y-14891484D01*
X13163634Y-14891484D02*
X13173158Y-14872436D01*
X13173158Y-14872436D02*
X13182681Y-14862913D01*
X13182681Y-14862913D02*
X13201729Y-14853389D01*
X13354110Y-15034341D02*
X13363634Y-15043865D01*
X13363634Y-15043865D02*
X13354110Y-15053389D01*
X13354110Y-15053389D02*
X13344586Y-15043865D01*
X13344586Y-15043865D02*
X13354110Y-15034341D01*
X13354110Y-15034341D02*
X13354110Y-15053389D01*
X13487443Y-14853389D02*
X13506491Y-14853389D01*
X13506491Y-14853389D02*
X13525539Y-14862913D01*
X13525539Y-14862913D02*
X13535062Y-14872436D01*
X13535062Y-14872436D02*
X13544586Y-14891484D01*
X13544586Y-14891484D02*
X13554110Y-14929579D01*
X13554110Y-14929579D02*
X13554110Y-14977198D01*
X13554110Y-14977198D02*
X13544586Y-15015293D01*
X13544586Y-15015293D02*
X13535062Y-15034341D01*
X13535062Y-15034341D02*
X13525539Y-15043865D01*
X13525539Y-15043865D02*
X13506491Y-15053389D01*
X13506491Y-15053389D02*
X13487443Y-15053389D01*
X13487443Y-15053389D02*
X13468396Y-15043865D01*
X13468396Y-15043865D02*
X13458872Y-15034341D01*
X13458872Y-15034341D02*
X13449348Y-15015293D01*
X13449348Y-15015293D02*
X13439824Y-14977198D01*
X13439824Y-14977198D02*
X13439824Y-14929579D01*
X13439824Y-14929579D02*
X13449348Y-14891484D01*
X13449348Y-14891484D02*
X13458872Y-14872436D01*
X13458872Y-14872436D02*
X13468396Y-14862913D01*
X13468396Y-14862913D02*
X13487443Y-14853389D01*
X13735062Y-14853389D02*
X13639824Y-14853389D01*
X13639824Y-14853389D02*
X13630301Y-14948627D01*
X13630301Y-14948627D02*
X13639824Y-14939103D01*
X13639824Y-14939103D02*
X13658872Y-14929579D01*
X13658872Y-14929579D02*
X13706491Y-14929579D01*
X13706491Y-14929579D02*
X13725539Y-14939103D01*
X13725539Y-14939103D02*
X13735062Y-14948627D01*
X13735062Y-14948627D02*
X13744586Y-14967674D01*
X13744586Y-14967674D02*
X13744586Y-15015293D01*
X13744586Y-15015293D02*
X13735062Y-15034341D01*
X13735062Y-15034341D02*
X13725539Y-15043865D01*
X13725539Y-15043865D02*
X13706491Y-15053389D01*
X13706491Y-15053389D02*
X13658872Y-15053389D01*
X13658872Y-15053389D02*
X13639824Y-15043865D01*
X13639824Y-15043865D02*
X13630301Y-15034341D01*
X13935062Y-15053389D02*
X13820777Y-15053389D01*
X13877920Y-15053389D02*
X13877920Y-14853389D01*
X13877920Y-14853389D02*
X13858872Y-14881960D01*
X13858872Y-14881960D02*
X13839824Y-14901008D01*
X13839824Y-14901008D02*
X13820777Y-14910532D01*
X14011253Y-14872436D02*
X14020777Y-14862913D01*
X14020777Y-14862913D02*
X14039824Y-14853389D01*
X14039824Y-14853389D02*
X14087443Y-14853389D01*
X14087443Y-14853389D02*
X14106491Y-14862913D01*
X14106491Y-14862913D02*
X14116015Y-14872436D01*
X14116015Y-14872436D02*
X14125539Y-14891484D01*
X14125539Y-14891484D02*
X14125539Y-14910532D01*
X14125539Y-14910532D02*
X14116015Y-14939103D01*
X14116015Y-14939103D02*
X14001729Y-15053389D01*
X14001729Y-15053389D02*
X14125539Y-15053389D01*
X14201729Y-14853389D02*
X14201729Y-14891484D01*
X14277920Y-14853389D02*
X14277920Y-14891484D01*
X14573158Y-15129579D02*
X14563634Y-15120055D01*
X14563634Y-15120055D02*
X14544586Y-15091484D01*
X14544586Y-15091484D02*
X14535063Y-15072436D01*
X14535063Y-15072436D02*
X14525539Y-15043865D01*
X14525539Y-15043865D02*
X14516015Y-14996246D01*
X14516015Y-14996246D02*
X14516015Y-14958151D01*
X14516015Y-14958151D02*
X14525539Y-14910532D01*
X14525539Y-14910532D02*
X14535063Y-14881960D01*
X14535063Y-14881960D02*
X14544586Y-14862913D01*
X14544586Y-14862913D02*
X14563634Y-14834341D01*
X14563634Y-14834341D02*
X14573158Y-14824817D01*
X14754110Y-15053389D02*
X14639824Y-15053389D01*
X14696967Y-15053389D02*
X14696967Y-14853389D01*
X14696967Y-14853389D02*
X14677920Y-14881960D01*
X14677920Y-14881960D02*
X14658872Y-14901008D01*
X14658872Y-14901008D02*
X14639824Y-14910532D01*
X14877920Y-14853389D02*
X14896967Y-14853389D01*
X14896967Y-14853389D02*
X14916015Y-14862913D01*
X14916015Y-14862913D02*
X14925539Y-14872436D01*
X14925539Y-14872436D02*
X14935063Y-14891484D01*
X14935063Y-14891484D02*
X14944586Y-14929579D01*
X14944586Y-14929579D02*
X14944586Y-14977198D01*
X14944586Y-14977198D02*
X14935063Y-15015293D01*
X14935063Y-15015293D02*
X14925539Y-15034341D01*
X14925539Y-15034341D02*
X14916015Y-15043865D01*
X14916015Y-15043865D02*
X14896967Y-15053389D01*
X14896967Y-15053389D02*
X14877920Y-15053389D01*
X14877920Y-15053389D02*
X14858872Y-15043865D01*
X14858872Y-15043865D02*
X14849348Y-15034341D01*
X14849348Y-15034341D02*
X14839824Y-15015293D01*
X14839824Y-15015293D02*
X14830301Y-14977198D01*
X14830301Y-14977198D02*
X14830301Y-14929579D01*
X14830301Y-14929579D02*
X14839824Y-14891484D01*
X14839824Y-14891484D02*
X14849348Y-14872436D01*
X14849348Y-14872436D02*
X14858872Y-14862913D01*
X14858872Y-14862913D02*
X14877920Y-14853389D01*
X15182682Y-15053389D02*
X15182682Y-14853389D01*
X15268396Y-15053389D02*
X15268396Y-14948627D01*
X15268396Y-14948627D02*
X15258872Y-14929579D01*
X15258872Y-14929579D02*
X15239825Y-14920055D01*
X15239825Y-14920055D02*
X15211253Y-14920055D01*
X15211253Y-14920055D02*
X15192205Y-14929579D01*
X15192205Y-14929579D02*
X15182682Y-14939103D01*
X15392205Y-15053389D02*
X15373158Y-15043865D01*
X15373158Y-15043865D02*
X15363634Y-15034341D01*
X15363634Y-15034341D02*
X15354110Y-15015293D01*
X15354110Y-15015293D02*
X15354110Y-14958151D01*
X15354110Y-14958151D02*
X15363634Y-14939103D01*
X15363634Y-14939103D02*
X15373158Y-14929579D01*
X15373158Y-14929579D02*
X15392205Y-14920055D01*
X15392205Y-14920055D02*
X15420777Y-14920055D01*
X15420777Y-14920055D02*
X15439825Y-14929579D01*
X15439825Y-14929579D02*
X15449348Y-14939103D01*
X15449348Y-14939103D02*
X15458872Y-14958151D01*
X15458872Y-14958151D02*
X15458872Y-15015293D01*
X15458872Y-15015293D02*
X15449348Y-15034341D01*
X15449348Y-15034341D02*
X15439825Y-15043865D01*
X15439825Y-15043865D02*
X15420777Y-15053389D01*
X15420777Y-15053389D02*
X15392205Y-15053389D01*
X15573158Y-15053389D02*
X15554110Y-15043865D01*
X15554110Y-15043865D02*
X15544586Y-15024817D01*
X15544586Y-15024817D02*
X15544586Y-14853389D01*
X15725539Y-15043865D02*
X15706491Y-15053389D01*
X15706491Y-15053389D02*
X15668396Y-15053389D01*
X15668396Y-15053389D02*
X15649348Y-15043865D01*
X15649348Y-15043865D02*
X15639825Y-15024817D01*
X15639825Y-15024817D02*
X15639825Y-14948627D01*
X15639825Y-14948627D02*
X15649348Y-14929579D01*
X15649348Y-14929579D02*
X15668396Y-14920055D01*
X15668396Y-14920055D02*
X15706491Y-14920055D01*
X15706491Y-14920055D02*
X15725539Y-14929579D01*
X15725539Y-14929579D02*
X15735063Y-14948627D01*
X15735063Y-14948627D02*
X15735063Y-14967674D01*
X15735063Y-14967674D02*
X15639825Y-14986722D01*
X15811253Y-15043865D02*
X15830301Y-15053389D01*
X15830301Y-15053389D02*
X15868396Y-15053389D01*
X15868396Y-15053389D02*
X15887444Y-15043865D01*
X15887444Y-15043865D02*
X15896967Y-15024817D01*
X15896967Y-15024817D02*
X15896967Y-15015293D01*
X15896967Y-15015293D02*
X15887444Y-14996246D01*
X15887444Y-14996246D02*
X15868396Y-14986722D01*
X15868396Y-14986722D02*
X15839825Y-14986722D01*
X15839825Y-14986722D02*
X15820777Y-14977198D01*
X15820777Y-14977198D02*
X15811253Y-14958151D01*
X15811253Y-14958151D02*
X15811253Y-14948627D01*
X15811253Y-14948627D02*
X15820777Y-14929579D01*
X15820777Y-14929579D02*
X15839825Y-14920055D01*
X15839825Y-14920055D02*
X15868396Y-14920055D01*
X15868396Y-14920055D02*
X15887444Y-14929579D01*
X15963634Y-15129579D02*
X15973158Y-15120055D01*
X15973158Y-15120055D02*
X15992206Y-15091484D01*
X15992206Y-15091484D02*
X16001729Y-15072436D01*
X16001729Y-15072436D02*
X16011253Y-15043865D01*
X16011253Y-15043865D02*
X16020777Y-14996246D01*
X16020777Y-14996246D02*
X16020777Y-14958151D01*
X16020777Y-14958151D02*
X16011253Y-14910532D01*
X16011253Y-14910532D02*
X16001729Y-14881960D01*
X16001729Y-14881960D02*
X15992206Y-14862913D01*
X15992206Y-14862913D02*
X15973158Y-14834341D01*
X15973158Y-14834341D02*
X15963634Y-14824817D01*
M02*
