%TF.GenerationSoftware,KiCad,Pcbnew,9.0.7-9.0.7~ubuntu24.04.1*%
%TF.CreationDate,2026-02-14T09:37:02+01:00*%
%TF.ProjectId,berta_2p0_Platine,62657274-615f-4327-9030-5f506c617469,rev?*%
%TF.SameCoordinates,Original*%
%TF.FileFunction,Drillmap*%
%TF.FilePolarity,Positive*%
%FSLAX45Y45*%
G04 Gerber Fmt 4.5, Leading zero omitted, Abs format (unit mm)*
G04 Created by KiCad (PCBNEW 9.0.7-9.0.7~ubuntu24.04.1) date 2026-02-14 09:37:02*
%MOMM*%
%LPD*%
G01*
G04 APERTURE LIST*
%ADD10C,0.038100*%
%ADD11C,0.200000*%
%ADD12C,0.500000*%
G04 APERTURE END LIST*
D10*
X17000000Y-6000000D02*
X17000000Y-13000000D01*
X11000000Y-13000000D02*
X17000000Y-13000000D01*
X11000000Y-6000000D02*
X17000000Y-6000000D01*
X11000000Y-6000000D02*
X11000000Y-13000000D01*
D11*
D12*
X16175000Y-6350000D02*
X16675000Y-6850000D01*
X16675000Y-6350000D02*
X16175000Y-6850000D01*
X16175000Y-12150000D02*
X16675000Y-12650000D01*
X16675000Y-12150000D02*
X16175000Y-12650000D01*
D11*
X11258872Y-13313389D02*
X11258872Y-13113389D01*
X11258872Y-13113389D02*
X11306491Y-13113389D01*
X11306491Y-13113389D02*
X11335062Y-13122913D01*
X11335062Y-13122913D02*
X11354110Y-13141960D01*
X11354110Y-13141960D02*
X11363634Y-13161008D01*
X11363634Y-13161008D02*
X11373157Y-13199103D01*
X11373157Y-13199103D02*
X11373157Y-13227674D01*
X11373157Y-13227674D02*
X11363634Y-13265770D01*
X11363634Y-13265770D02*
X11354110Y-13284817D01*
X11354110Y-13284817D02*
X11335062Y-13303865D01*
X11335062Y-13303865D02*
X11306491Y-13313389D01*
X11306491Y-13313389D02*
X11258872Y-13313389D01*
X11458872Y-13313389D02*
X11458872Y-13180055D01*
X11458872Y-13218151D02*
X11468396Y-13199103D01*
X11468396Y-13199103D02*
X11477919Y-13189579D01*
X11477919Y-13189579D02*
X11496967Y-13180055D01*
X11496967Y-13180055D02*
X11516015Y-13180055D01*
X11582681Y-13313389D02*
X11582681Y-13180055D01*
X11582681Y-13113389D02*
X11573157Y-13122913D01*
X11573157Y-13122913D02*
X11582681Y-13132436D01*
X11582681Y-13132436D02*
X11592205Y-13122913D01*
X11592205Y-13122913D02*
X11582681Y-13113389D01*
X11582681Y-13113389D02*
X11582681Y-13132436D01*
X11706491Y-13313389D02*
X11687443Y-13303865D01*
X11687443Y-13303865D02*
X11677919Y-13284817D01*
X11677919Y-13284817D02*
X11677919Y-13113389D01*
X11811253Y-13313389D02*
X11792205Y-13303865D01*
X11792205Y-13303865D02*
X11782681Y-13284817D01*
X11782681Y-13284817D02*
X11782681Y-13113389D01*
X12039824Y-13313389D02*
X12039824Y-13113389D01*
X12039824Y-13113389D02*
X12106491Y-13256246D01*
X12106491Y-13256246D02*
X12173157Y-13113389D01*
X12173157Y-13113389D02*
X12173157Y-13313389D01*
X12354110Y-13313389D02*
X12354110Y-13208627D01*
X12354110Y-13208627D02*
X12344586Y-13189579D01*
X12344586Y-13189579D02*
X12325538Y-13180055D01*
X12325538Y-13180055D02*
X12287443Y-13180055D01*
X12287443Y-13180055D02*
X12268396Y-13189579D01*
X12354110Y-13303865D02*
X12335062Y-13313389D01*
X12335062Y-13313389D02*
X12287443Y-13313389D01*
X12287443Y-13313389D02*
X12268396Y-13303865D01*
X12268396Y-13303865D02*
X12258872Y-13284817D01*
X12258872Y-13284817D02*
X12258872Y-13265770D01*
X12258872Y-13265770D02*
X12268396Y-13246722D01*
X12268396Y-13246722D02*
X12287443Y-13237198D01*
X12287443Y-13237198D02*
X12335062Y-13237198D01*
X12335062Y-13237198D02*
X12354110Y-13227674D01*
X12449348Y-13180055D02*
X12449348Y-13380055D01*
X12449348Y-13189579D02*
X12468396Y-13180055D01*
X12468396Y-13180055D02*
X12506491Y-13180055D01*
X12506491Y-13180055D02*
X12525538Y-13189579D01*
X12525538Y-13189579D02*
X12535062Y-13199103D01*
X12535062Y-13199103D02*
X12544586Y-13218151D01*
X12544586Y-13218151D02*
X12544586Y-13275293D01*
X12544586Y-13275293D02*
X12535062Y-13294341D01*
X12535062Y-13294341D02*
X12525538Y-13303865D01*
X12525538Y-13303865D02*
X12506491Y-13313389D01*
X12506491Y-13313389D02*
X12468396Y-13313389D01*
X12468396Y-13313389D02*
X12449348Y-13303865D01*
X12630300Y-13294341D02*
X12639824Y-13303865D01*
X12639824Y-13303865D02*
X12630300Y-13313389D01*
X12630300Y-13313389D02*
X12620777Y-13303865D01*
X12620777Y-13303865D02*
X12630300Y-13294341D01*
X12630300Y-13294341D02*
X12630300Y-13313389D01*
X12630300Y-13189579D02*
X12639824Y-13199103D01*
X12639824Y-13199103D02*
X12630300Y-13208627D01*
X12630300Y-13208627D02*
X12620777Y-13199103D01*
X12620777Y-13199103D02*
X12630300Y-13189579D01*
X12630300Y-13189579D02*
X12630300Y-13208627D01*
X10798095Y-13541905D02*
X10998095Y-13741905D01*
X10998095Y-13541905D02*
X10798095Y-13741905D01*
X11354110Y-13533389D02*
X11258872Y-13533389D01*
X11258872Y-13533389D02*
X11249348Y-13628627D01*
X11249348Y-13628627D02*
X11258872Y-13619103D01*
X11258872Y-13619103D02*
X11277919Y-13609579D01*
X11277919Y-13609579D02*
X11325538Y-13609579D01*
X11325538Y-13609579D02*
X11344586Y-13619103D01*
X11344586Y-13619103D02*
X11354110Y-13628627D01*
X11354110Y-13628627D02*
X11363634Y-13647674D01*
X11363634Y-13647674D02*
X11363634Y-13695293D01*
X11363634Y-13695293D02*
X11354110Y-13714341D01*
X11354110Y-13714341D02*
X11344586Y-13723865D01*
X11344586Y-13723865D02*
X11325538Y-13733389D01*
X11325538Y-13733389D02*
X11277919Y-13733389D01*
X11277919Y-13733389D02*
X11258872Y-13723865D01*
X11258872Y-13723865D02*
X11249348Y-13714341D01*
X11449348Y-13714341D02*
X11458872Y-13723865D01*
X11458872Y-13723865D02*
X11449348Y-13733389D01*
X11449348Y-13733389D02*
X11439824Y-13723865D01*
X11439824Y-13723865D02*
X11449348Y-13714341D01*
X11449348Y-13714341D02*
X11449348Y-13733389D01*
X11582681Y-13533389D02*
X11601729Y-13533389D01*
X11601729Y-13533389D02*
X11620777Y-13542913D01*
X11620777Y-13542913D02*
X11630300Y-13552436D01*
X11630300Y-13552436D02*
X11639824Y-13571484D01*
X11639824Y-13571484D02*
X11649348Y-13609579D01*
X11649348Y-13609579D02*
X11649348Y-13657198D01*
X11649348Y-13657198D02*
X11639824Y-13695293D01*
X11639824Y-13695293D02*
X11630300Y-13714341D01*
X11630300Y-13714341D02*
X11620777Y-13723865D01*
X11620777Y-13723865D02*
X11601729Y-13733389D01*
X11601729Y-13733389D02*
X11582681Y-13733389D01*
X11582681Y-13733389D02*
X11563634Y-13723865D01*
X11563634Y-13723865D02*
X11554110Y-13714341D01*
X11554110Y-13714341D02*
X11544586Y-13695293D01*
X11544586Y-13695293D02*
X11535062Y-13657198D01*
X11535062Y-13657198D02*
X11535062Y-13609579D01*
X11535062Y-13609579D02*
X11544586Y-13571484D01*
X11544586Y-13571484D02*
X11554110Y-13552436D01*
X11554110Y-13552436D02*
X11563634Y-13542913D01*
X11563634Y-13542913D02*
X11582681Y-13533389D01*
X11773157Y-13533389D02*
X11792205Y-13533389D01*
X11792205Y-13533389D02*
X11811253Y-13542913D01*
X11811253Y-13542913D02*
X11820777Y-13552436D01*
X11820777Y-13552436D02*
X11830300Y-13571484D01*
X11830300Y-13571484D02*
X11839824Y-13609579D01*
X11839824Y-13609579D02*
X11839824Y-13657198D01*
X11839824Y-13657198D02*
X11830300Y-13695293D01*
X11830300Y-13695293D02*
X11820777Y-13714341D01*
X11820777Y-13714341D02*
X11811253Y-13723865D01*
X11811253Y-13723865D02*
X11792205Y-13733389D01*
X11792205Y-13733389D02*
X11773157Y-13733389D01*
X11773157Y-13733389D02*
X11754110Y-13723865D01*
X11754110Y-13723865D02*
X11744586Y-13714341D01*
X11744586Y-13714341D02*
X11735062Y-13695293D01*
X11735062Y-13695293D02*
X11725538Y-13657198D01*
X11725538Y-13657198D02*
X11725538Y-13609579D01*
X11725538Y-13609579D02*
X11735062Y-13571484D01*
X11735062Y-13571484D02*
X11744586Y-13552436D01*
X11744586Y-13552436D02*
X11754110Y-13542913D01*
X11754110Y-13542913D02*
X11773157Y-13533389D01*
X11963634Y-13533389D02*
X11982681Y-13533389D01*
X11982681Y-13533389D02*
X12001729Y-13542913D01*
X12001729Y-13542913D02*
X12011253Y-13552436D01*
X12011253Y-13552436D02*
X12020777Y-13571484D01*
X12020777Y-13571484D02*
X12030300Y-13609579D01*
X12030300Y-13609579D02*
X12030300Y-13657198D01*
X12030300Y-13657198D02*
X12020777Y-13695293D01*
X12020777Y-13695293D02*
X12011253Y-13714341D01*
X12011253Y-13714341D02*
X12001729Y-13723865D01*
X12001729Y-13723865D02*
X11982681Y-13733389D01*
X11982681Y-13733389D02*
X11963634Y-13733389D01*
X11963634Y-13733389D02*
X11944586Y-13723865D01*
X11944586Y-13723865D02*
X11935062Y-13714341D01*
X11935062Y-13714341D02*
X11925538Y-13695293D01*
X11925538Y-13695293D02*
X11916015Y-13657198D01*
X11916015Y-13657198D02*
X11916015Y-13609579D01*
X11916015Y-13609579D02*
X11925538Y-13571484D01*
X11925538Y-13571484D02*
X11935062Y-13552436D01*
X11935062Y-13552436D02*
X11944586Y-13542913D01*
X11944586Y-13542913D02*
X11963634Y-13533389D01*
X12116015Y-13733389D02*
X12116015Y-13600055D01*
X12116015Y-13619103D02*
X12125538Y-13609579D01*
X12125538Y-13609579D02*
X12144586Y-13600055D01*
X12144586Y-13600055D02*
X12173158Y-13600055D01*
X12173158Y-13600055D02*
X12192205Y-13609579D01*
X12192205Y-13609579D02*
X12201729Y-13628627D01*
X12201729Y-13628627D02*
X12201729Y-13733389D01*
X12201729Y-13628627D02*
X12211253Y-13609579D01*
X12211253Y-13609579D02*
X12230300Y-13600055D01*
X12230300Y-13600055D02*
X12258872Y-13600055D01*
X12258872Y-13600055D02*
X12277919Y-13609579D01*
X12277919Y-13609579D02*
X12287443Y-13628627D01*
X12287443Y-13628627D02*
X12287443Y-13733389D01*
X12382681Y-13733389D02*
X12382681Y-13600055D01*
X12382681Y-13619103D02*
X12392205Y-13609579D01*
X12392205Y-13609579D02*
X12411253Y-13600055D01*
X12411253Y-13600055D02*
X12439824Y-13600055D01*
X12439824Y-13600055D02*
X12458872Y-13609579D01*
X12458872Y-13609579D02*
X12468396Y-13628627D01*
X12468396Y-13628627D02*
X12468396Y-13733389D01*
X12468396Y-13628627D02*
X12477919Y-13609579D01*
X12477919Y-13609579D02*
X12496967Y-13600055D01*
X12496967Y-13600055D02*
X12525538Y-13600055D01*
X12525538Y-13600055D02*
X12544586Y-13609579D01*
X12544586Y-13609579D02*
X12554110Y-13628627D01*
X12554110Y-13628627D02*
X12554110Y-13733389D01*
X12944586Y-13523865D02*
X12773158Y-13781008D01*
X13201729Y-13533389D02*
X13220777Y-13533389D01*
X13220777Y-13533389D02*
X13239824Y-13542913D01*
X13239824Y-13542913D02*
X13249348Y-13552436D01*
X13249348Y-13552436D02*
X13258872Y-13571484D01*
X13258872Y-13571484D02*
X13268396Y-13609579D01*
X13268396Y-13609579D02*
X13268396Y-13657198D01*
X13268396Y-13657198D02*
X13258872Y-13695293D01*
X13258872Y-13695293D02*
X13249348Y-13714341D01*
X13249348Y-13714341D02*
X13239824Y-13723865D01*
X13239824Y-13723865D02*
X13220777Y-13733389D01*
X13220777Y-13733389D02*
X13201729Y-13733389D01*
X13201729Y-13733389D02*
X13182681Y-13723865D01*
X13182681Y-13723865D02*
X13173158Y-13714341D01*
X13173158Y-13714341D02*
X13163634Y-13695293D01*
X13163634Y-13695293D02*
X13154110Y-13657198D01*
X13154110Y-13657198D02*
X13154110Y-13609579D01*
X13154110Y-13609579D02*
X13163634Y-13571484D01*
X13163634Y-13571484D02*
X13173158Y-13552436D01*
X13173158Y-13552436D02*
X13182681Y-13542913D01*
X13182681Y-13542913D02*
X13201729Y-13533389D01*
X13354110Y-13714341D02*
X13363634Y-13723865D01*
X13363634Y-13723865D02*
X13354110Y-13733389D01*
X13354110Y-13733389D02*
X13344586Y-13723865D01*
X13344586Y-13723865D02*
X13354110Y-13714341D01*
X13354110Y-13714341D02*
X13354110Y-13733389D01*
X13554110Y-13733389D02*
X13439824Y-13733389D01*
X13496967Y-13733389D02*
X13496967Y-13533389D01*
X13496967Y-13533389D02*
X13477920Y-13561960D01*
X13477920Y-13561960D02*
X13458872Y-13581008D01*
X13458872Y-13581008D02*
X13439824Y-13590532D01*
X13649348Y-13733389D02*
X13687443Y-13733389D01*
X13687443Y-13733389D02*
X13706491Y-13723865D01*
X13706491Y-13723865D02*
X13716015Y-13714341D01*
X13716015Y-13714341D02*
X13735062Y-13685770D01*
X13735062Y-13685770D02*
X13744586Y-13647674D01*
X13744586Y-13647674D02*
X13744586Y-13571484D01*
X13744586Y-13571484D02*
X13735062Y-13552436D01*
X13735062Y-13552436D02*
X13725539Y-13542913D01*
X13725539Y-13542913D02*
X13706491Y-13533389D01*
X13706491Y-13533389D02*
X13668396Y-13533389D01*
X13668396Y-13533389D02*
X13649348Y-13542913D01*
X13649348Y-13542913D02*
X13639824Y-13552436D01*
X13639824Y-13552436D02*
X13630301Y-13571484D01*
X13630301Y-13571484D02*
X13630301Y-13619103D01*
X13630301Y-13619103D02*
X13639824Y-13638151D01*
X13639824Y-13638151D02*
X13649348Y-13647674D01*
X13649348Y-13647674D02*
X13668396Y-13657198D01*
X13668396Y-13657198D02*
X13706491Y-13657198D01*
X13706491Y-13657198D02*
X13725539Y-13647674D01*
X13725539Y-13647674D02*
X13735062Y-13638151D01*
X13735062Y-13638151D02*
X13744586Y-13619103D01*
X13916015Y-13533389D02*
X13877920Y-13533389D01*
X13877920Y-13533389D02*
X13858872Y-13542913D01*
X13858872Y-13542913D02*
X13849348Y-13552436D01*
X13849348Y-13552436D02*
X13830301Y-13581008D01*
X13830301Y-13581008D02*
X13820777Y-13619103D01*
X13820777Y-13619103D02*
X13820777Y-13695293D01*
X13820777Y-13695293D02*
X13830301Y-13714341D01*
X13830301Y-13714341D02*
X13839824Y-13723865D01*
X13839824Y-13723865D02*
X13858872Y-13733389D01*
X13858872Y-13733389D02*
X13896967Y-13733389D01*
X13896967Y-13733389D02*
X13916015Y-13723865D01*
X13916015Y-13723865D02*
X13925539Y-13714341D01*
X13925539Y-13714341D02*
X13935062Y-13695293D01*
X13935062Y-13695293D02*
X13935062Y-13647674D01*
X13935062Y-13647674D02*
X13925539Y-13628627D01*
X13925539Y-13628627D02*
X13916015Y-13619103D01*
X13916015Y-13619103D02*
X13896967Y-13609579D01*
X13896967Y-13609579D02*
X13858872Y-13609579D01*
X13858872Y-13609579D02*
X13839824Y-13619103D01*
X13839824Y-13619103D02*
X13830301Y-13628627D01*
X13830301Y-13628627D02*
X13820777Y-13647674D01*
X14030301Y-13733389D02*
X14068396Y-13733389D01*
X14068396Y-13733389D02*
X14087443Y-13723865D01*
X14087443Y-13723865D02*
X14096967Y-13714341D01*
X14096967Y-13714341D02*
X14116015Y-13685770D01*
X14116015Y-13685770D02*
X14125539Y-13647674D01*
X14125539Y-13647674D02*
X14125539Y-13571484D01*
X14125539Y-13571484D02*
X14116015Y-13552436D01*
X14116015Y-13552436D02*
X14106491Y-13542913D01*
X14106491Y-13542913D02*
X14087443Y-13533389D01*
X14087443Y-13533389D02*
X14049348Y-13533389D01*
X14049348Y-13533389D02*
X14030301Y-13542913D01*
X14030301Y-13542913D02*
X14020777Y-13552436D01*
X14020777Y-13552436D02*
X14011253Y-13571484D01*
X14011253Y-13571484D02*
X14011253Y-13619103D01*
X14011253Y-13619103D02*
X14020777Y-13638151D01*
X14020777Y-13638151D02*
X14030301Y-13647674D01*
X14030301Y-13647674D02*
X14049348Y-13657198D01*
X14049348Y-13657198D02*
X14087443Y-13657198D01*
X14087443Y-13657198D02*
X14106491Y-13647674D01*
X14106491Y-13647674D02*
X14116015Y-13638151D01*
X14116015Y-13638151D02*
X14125539Y-13619103D01*
X14201729Y-13533389D02*
X14201729Y-13571484D01*
X14277920Y-13533389D02*
X14277920Y-13571484D01*
X14573158Y-13809579D02*
X14563634Y-13800055D01*
X14563634Y-13800055D02*
X14544586Y-13771484D01*
X14544586Y-13771484D02*
X14535063Y-13752436D01*
X14535063Y-13752436D02*
X14525539Y-13723865D01*
X14525539Y-13723865D02*
X14516015Y-13676246D01*
X14516015Y-13676246D02*
X14516015Y-13638151D01*
X14516015Y-13638151D02*
X14525539Y-13590532D01*
X14525539Y-13590532D02*
X14535063Y-13561960D01*
X14535063Y-13561960D02*
X14544586Y-13542913D01*
X14544586Y-13542913D02*
X14563634Y-13514341D01*
X14563634Y-13514341D02*
X14573158Y-13504817D01*
X14639824Y-13552436D02*
X14649348Y-13542913D01*
X14649348Y-13542913D02*
X14668396Y-13533389D01*
X14668396Y-13533389D02*
X14716015Y-13533389D01*
X14716015Y-13533389D02*
X14735063Y-13542913D01*
X14735063Y-13542913D02*
X14744586Y-13552436D01*
X14744586Y-13552436D02*
X14754110Y-13571484D01*
X14754110Y-13571484D02*
X14754110Y-13590532D01*
X14754110Y-13590532D02*
X14744586Y-13619103D01*
X14744586Y-13619103D02*
X14630301Y-13733389D01*
X14630301Y-13733389D02*
X14754110Y-13733389D01*
X14992205Y-13733389D02*
X14992205Y-13533389D01*
X15077920Y-13733389D02*
X15077920Y-13628627D01*
X15077920Y-13628627D02*
X15068396Y-13609579D01*
X15068396Y-13609579D02*
X15049348Y-13600055D01*
X15049348Y-13600055D02*
X15020777Y-13600055D01*
X15020777Y-13600055D02*
X15001729Y-13609579D01*
X15001729Y-13609579D02*
X14992205Y-13619103D01*
X15201729Y-13733389D02*
X15182682Y-13723865D01*
X15182682Y-13723865D02*
X15173158Y-13714341D01*
X15173158Y-13714341D02*
X15163634Y-13695293D01*
X15163634Y-13695293D02*
X15163634Y-13638151D01*
X15163634Y-13638151D02*
X15173158Y-13619103D01*
X15173158Y-13619103D02*
X15182682Y-13609579D01*
X15182682Y-13609579D02*
X15201729Y-13600055D01*
X15201729Y-13600055D02*
X15230301Y-13600055D01*
X15230301Y-13600055D02*
X15249348Y-13609579D01*
X15249348Y-13609579D02*
X15258872Y-13619103D01*
X15258872Y-13619103D02*
X15268396Y-13638151D01*
X15268396Y-13638151D02*
X15268396Y-13695293D01*
X15268396Y-13695293D02*
X15258872Y-13714341D01*
X15258872Y-13714341D02*
X15249348Y-13723865D01*
X15249348Y-13723865D02*
X15230301Y-13733389D01*
X15230301Y-13733389D02*
X15201729Y-13733389D01*
X15382682Y-13733389D02*
X15363634Y-13723865D01*
X15363634Y-13723865D02*
X15354110Y-13704817D01*
X15354110Y-13704817D02*
X15354110Y-13533389D01*
X15535063Y-13723865D02*
X15516015Y-13733389D01*
X15516015Y-13733389D02*
X15477920Y-13733389D01*
X15477920Y-13733389D02*
X15458872Y-13723865D01*
X15458872Y-13723865D02*
X15449348Y-13704817D01*
X15449348Y-13704817D02*
X15449348Y-13628627D01*
X15449348Y-13628627D02*
X15458872Y-13609579D01*
X15458872Y-13609579D02*
X15477920Y-13600055D01*
X15477920Y-13600055D02*
X15516015Y-13600055D01*
X15516015Y-13600055D02*
X15535063Y-13609579D01*
X15535063Y-13609579D02*
X15544586Y-13628627D01*
X15544586Y-13628627D02*
X15544586Y-13647674D01*
X15544586Y-13647674D02*
X15449348Y-13666722D01*
X15620777Y-13723865D02*
X15639825Y-13733389D01*
X15639825Y-13733389D02*
X15677920Y-13733389D01*
X15677920Y-13733389D02*
X15696967Y-13723865D01*
X15696967Y-13723865D02*
X15706491Y-13704817D01*
X15706491Y-13704817D02*
X15706491Y-13695293D01*
X15706491Y-13695293D02*
X15696967Y-13676246D01*
X15696967Y-13676246D02*
X15677920Y-13666722D01*
X15677920Y-13666722D02*
X15649348Y-13666722D01*
X15649348Y-13666722D02*
X15630301Y-13657198D01*
X15630301Y-13657198D02*
X15620777Y-13638151D01*
X15620777Y-13638151D02*
X15620777Y-13628627D01*
X15620777Y-13628627D02*
X15630301Y-13609579D01*
X15630301Y-13609579D02*
X15649348Y-13600055D01*
X15649348Y-13600055D02*
X15677920Y-13600055D01*
X15677920Y-13600055D02*
X15696967Y-13609579D01*
X15773158Y-13809579D02*
X15782682Y-13800055D01*
X15782682Y-13800055D02*
X15801729Y-13771484D01*
X15801729Y-13771484D02*
X15811253Y-13752436D01*
X15811253Y-13752436D02*
X15820777Y-13723865D01*
X15820777Y-13723865D02*
X15830301Y-13676246D01*
X15830301Y-13676246D02*
X15830301Y-13638151D01*
X15830301Y-13638151D02*
X15820777Y-13590532D01*
X15820777Y-13590532D02*
X15811253Y-13561960D01*
X15811253Y-13561960D02*
X15801729Y-13542913D01*
X15801729Y-13542913D02*
X15782682Y-13514341D01*
X15782682Y-13514341D02*
X15773158Y-13504817D01*
X16135063Y-13809579D02*
X16125539Y-13800055D01*
X16125539Y-13800055D02*
X16106491Y-13771484D01*
X16106491Y-13771484D02*
X16096967Y-13752436D01*
X16096967Y-13752436D02*
X16087444Y-13723865D01*
X16087444Y-13723865D02*
X16077920Y-13676246D01*
X16077920Y-13676246D02*
X16077920Y-13638151D01*
X16077920Y-13638151D02*
X16087444Y-13590532D01*
X16087444Y-13590532D02*
X16096967Y-13561960D01*
X16096967Y-13561960D02*
X16106491Y-13542913D01*
X16106491Y-13542913D02*
X16125539Y-13514341D01*
X16125539Y-13514341D02*
X16135063Y-13504817D01*
X16211253Y-13600055D02*
X16211253Y-13733389D01*
X16211253Y-13619103D02*
X16220777Y-13609579D01*
X16220777Y-13609579D02*
X16239825Y-13600055D01*
X16239825Y-13600055D02*
X16268396Y-13600055D01*
X16268396Y-13600055D02*
X16287444Y-13609579D01*
X16287444Y-13609579D02*
X16296967Y-13628627D01*
X16296967Y-13628627D02*
X16296967Y-13733389D01*
X16420777Y-13733389D02*
X16401729Y-13723865D01*
X16401729Y-13723865D02*
X16392206Y-13714341D01*
X16392206Y-13714341D02*
X16382682Y-13695293D01*
X16382682Y-13695293D02*
X16382682Y-13638151D01*
X16382682Y-13638151D02*
X16392206Y-13619103D01*
X16392206Y-13619103D02*
X16401729Y-13609579D01*
X16401729Y-13609579D02*
X16420777Y-13600055D01*
X16420777Y-13600055D02*
X16449348Y-13600055D01*
X16449348Y-13600055D02*
X16468396Y-13609579D01*
X16468396Y-13609579D02*
X16477920Y-13619103D01*
X16477920Y-13619103D02*
X16487444Y-13638151D01*
X16487444Y-13638151D02*
X16487444Y-13695293D01*
X16487444Y-13695293D02*
X16477920Y-13714341D01*
X16477920Y-13714341D02*
X16468396Y-13723865D01*
X16468396Y-13723865D02*
X16449348Y-13733389D01*
X16449348Y-13733389D02*
X16420777Y-13733389D01*
X16544587Y-13600055D02*
X16620777Y-13600055D01*
X16573158Y-13533389D02*
X16573158Y-13704817D01*
X16573158Y-13704817D02*
X16582682Y-13723865D01*
X16582682Y-13723865D02*
X16601729Y-13733389D01*
X16601729Y-13733389D02*
X16620777Y-13733389D01*
X16839825Y-13600055D02*
X16839825Y-13800055D01*
X16839825Y-13609579D02*
X16858872Y-13600055D01*
X16858872Y-13600055D02*
X16896968Y-13600055D01*
X16896968Y-13600055D02*
X16916015Y-13609579D01*
X16916015Y-13609579D02*
X16925539Y-13619103D01*
X16925539Y-13619103D02*
X16935063Y-13638151D01*
X16935063Y-13638151D02*
X16935063Y-13695293D01*
X16935063Y-13695293D02*
X16925539Y-13714341D01*
X16925539Y-13714341D02*
X16916015Y-13723865D01*
X16916015Y-13723865D02*
X16896968Y-13733389D01*
X16896968Y-13733389D02*
X16858872Y-13733389D01*
X16858872Y-13733389D02*
X16839825Y-13723865D01*
X17049349Y-13733389D02*
X17030301Y-13723865D01*
X17030301Y-13723865D02*
X17020777Y-13704817D01*
X17020777Y-13704817D02*
X17020777Y-13533389D01*
X17211253Y-13733389D02*
X17211253Y-13628627D01*
X17211253Y-13628627D02*
X17201730Y-13609579D01*
X17201730Y-13609579D02*
X17182682Y-13600055D01*
X17182682Y-13600055D02*
X17144587Y-13600055D01*
X17144587Y-13600055D02*
X17125539Y-13609579D01*
X17211253Y-13723865D02*
X17192206Y-13733389D01*
X17192206Y-13733389D02*
X17144587Y-13733389D01*
X17144587Y-13733389D02*
X17125539Y-13723865D01*
X17125539Y-13723865D02*
X17116015Y-13704817D01*
X17116015Y-13704817D02*
X17116015Y-13685770D01*
X17116015Y-13685770D02*
X17125539Y-13666722D01*
X17125539Y-13666722D02*
X17144587Y-13657198D01*
X17144587Y-13657198D02*
X17192206Y-13657198D01*
X17192206Y-13657198D02*
X17211253Y-13647674D01*
X17277920Y-13600055D02*
X17354110Y-13600055D01*
X17306491Y-13533389D02*
X17306491Y-13704817D01*
X17306491Y-13704817D02*
X17316015Y-13723865D01*
X17316015Y-13723865D02*
X17335063Y-13733389D01*
X17335063Y-13733389D02*
X17354110Y-13733389D01*
X17496968Y-13723865D02*
X17477920Y-13733389D01*
X17477920Y-13733389D02*
X17439825Y-13733389D01*
X17439825Y-13733389D02*
X17420777Y-13723865D01*
X17420777Y-13723865D02*
X17411253Y-13704817D01*
X17411253Y-13704817D02*
X17411253Y-13628627D01*
X17411253Y-13628627D02*
X17420777Y-13609579D01*
X17420777Y-13609579D02*
X17439825Y-13600055D01*
X17439825Y-13600055D02*
X17477920Y-13600055D01*
X17477920Y-13600055D02*
X17496968Y-13609579D01*
X17496968Y-13609579D02*
X17506491Y-13628627D01*
X17506491Y-13628627D02*
X17506491Y-13647674D01*
X17506491Y-13647674D02*
X17411253Y-13666722D01*
X17677920Y-13733389D02*
X17677920Y-13533389D01*
X17677920Y-13723865D02*
X17658872Y-13733389D01*
X17658872Y-13733389D02*
X17620777Y-13733389D01*
X17620777Y-13733389D02*
X17601730Y-13723865D01*
X17601730Y-13723865D02*
X17592206Y-13714341D01*
X17592206Y-13714341D02*
X17582682Y-13695293D01*
X17582682Y-13695293D02*
X17582682Y-13638151D01*
X17582682Y-13638151D02*
X17592206Y-13619103D01*
X17592206Y-13619103D02*
X17601730Y-13609579D01*
X17601730Y-13609579D02*
X17620777Y-13600055D01*
X17620777Y-13600055D02*
X17658872Y-13600055D01*
X17658872Y-13600055D02*
X17677920Y-13609579D01*
X17754111Y-13809579D02*
X17763634Y-13800055D01*
X17763634Y-13800055D02*
X17782682Y-13771484D01*
X17782682Y-13771484D02*
X17792206Y-13752436D01*
X17792206Y-13752436D02*
X17801730Y-13723865D01*
X17801730Y-13723865D02*
X17811253Y-13676246D01*
X17811253Y-13676246D02*
X17811253Y-13638151D01*
X17811253Y-13638151D02*
X17801730Y-13590532D01*
X17801730Y-13590532D02*
X17792206Y-13561960D01*
X17792206Y-13561960D02*
X17782682Y-13542913D01*
X17782682Y-13542913D02*
X17763634Y-13514341D01*
X17763634Y-13514341D02*
X17754111Y-13504817D01*
M02*
