G04 #@! TF.GenerationSoftware,KiCad,Pcbnew,9.0.7-9.0.7~ubuntu24.04.1*
G04 #@! TF.CreationDate,2026-02-14T09:37:05+01:00*
G04 #@! TF.ProjectId,berta_2p0_Platine,62657274-615f-4327-9030-5f506c617469,rev?*
G04 #@! TF.SameCoordinates,Original*
G04 #@! TF.FileFunction,Legend,Bot*
G04 #@! TF.FilePolarity,Positive*
%FSLAX46Y46*%
G04 Gerber Fmt 4.6, Leading zero omitted, Abs format (unit mm)*
G04 Created by KiCad (PCBNEW 9.0.7-9.0.7~ubuntu24.04.1) date 2026-02-14 09:37:05*
%MOMM*%
%LPD*%
G01*
G04 APERTURE LIST*
G04 APERTURE END LIST*
%LPC*%
G36*
X116553479Y-124485919D02*
G01*
X116747488Y-124548957D01*
X116929248Y-124641568D01*
X117094282Y-124761472D01*
X117238528Y-124905718D01*
X117358432Y-125070752D01*
X117451043Y-125252512D01*
X117514081Y-125446521D01*
X117545993Y-125648003D01*
X117545993Y-125851997D01*
X117514081Y-126053479D01*
X117451043Y-126247488D01*
X117358432Y-126429248D01*
X117238528Y-126594282D01*
X117094282Y-126738528D01*
X116929248Y-126858432D01*
X116747488Y-126951043D01*
X116553479Y-127014081D01*
X116351997Y-127045993D01*
X116148003Y-127045993D01*
X115946521Y-127014081D01*
X115752512Y-126951043D01*
X115570752Y-126858432D01*
X115405718Y-126738528D01*
X115261472Y-126594282D01*
X115141568Y-126429248D01*
X115048957Y-126247488D01*
X114985919Y-126053479D01*
X114954007Y-125851997D01*
X114954007Y-125648003D01*
X114985919Y-125446521D01*
X115048957Y-125252512D01*
X115141568Y-125070752D01*
X115261472Y-124905718D01*
X115405718Y-124761472D01*
X115570752Y-124641568D01*
X115752512Y-124548957D01*
X115946521Y-124485919D01*
X116148003Y-124454007D01*
X116351997Y-124454007D01*
X116553479Y-124485919D01*
G37*
G36*
X164668766Y-121535322D02*
G01*
X164942089Y-121597707D01*
X165206709Y-121690301D01*
X165459297Y-121811941D01*
X165696678Y-121961098D01*
X165915866Y-122135895D01*
X166114105Y-122334134D01*
X166288902Y-122553322D01*
X166438059Y-122790703D01*
X166559699Y-123043291D01*
X166652293Y-123307911D01*
X166714678Y-123581234D01*
X166746067Y-123859824D01*
X166746067Y-124140176D01*
X166714678Y-124418766D01*
X166652293Y-124692089D01*
X166559699Y-124956709D01*
X166438059Y-125209297D01*
X166288902Y-125446678D01*
X166114105Y-125665866D01*
X165915866Y-125864105D01*
X165696678Y-126038902D01*
X165459297Y-126188059D01*
X165206709Y-126309699D01*
X164942089Y-126402293D01*
X164668766Y-126464678D01*
X164390176Y-126496067D01*
X164109824Y-126496067D01*
X163831234Y-126464678D01*
X163557911Y-126402293D01*
X163293291Y-126309699D01*
X163040703Y-126188059D01*
X162803322Y-126038902D01*
X162584134Y-125864105D01*
X162385895Y-125665866D01*
X162211098Y-125446678D01*
X162061941Y-125209297D01*
X161940301Y-124956709D01*
X161847707Y-124692089D01*
X161785322Y-124418766D01*
X161753933Y-124140176D01*
X161753933Y-123859824D01*
X161785322Y-123581234D01*
X161847707Y-123307911D01*
X161940301Y-123043291D01*
X162061941Y-122790703D01*
X162211098Y-122553322D01*
X162385895Y-122334134D01*
X162584134Y-122135895D01*
X162803322Y-121961098D01*
X163040703Y-121811941D01*
X163293291Y-121690301D01*
X163557911Y-121597707D01*
X163831234Y-121535322D01*
X164109824Y-121503933D01*
X164390176Y-121503933D01*
X164668766Y-121535322D01*
G37*
G36*
X144291927Y-123795012D02*
G01*
X144298147Y-123798052D01*
X144300244Y-123798385D01*
X144333808Y-123815486D01*
X144398722Y-123847221D01*
X144482779Y-123931278D01*
X144514524Y-123996215D01*
X144531614Y-124029755D01*
X144531945Y-124031850D01*
X144534988Y-124038073D01*
X144549999Y-124141112D01*
X144549999Y-124145824D01*
X144550000Y-124145831D01*
X144550000Y-125138386D01*
X144550000Y-126018889D01*
X144534988Y-126121927D01*
X144531945Y-126128150D01*
X144531614Y-126130244D01*
X144514536Y-126163760D01*
X144482779Y-126228722D01*
X144398722Y-126312779D01*
X144333760Y-126344536D01*
X144300244Y-126361614D01*
X144298150Y-126361945D01*
X144291927Y-126364988D01*
X144188888Y-126379999D01*
X144184175Y-126379999D01*
X144184169Y-126380000D01*
X142315831Y-126380000D01*
X142315830Y-126379999D01*
X142311111Y-126380000D01*
X142208073Y-126364988D01*
X142201850Y-126361945D01*
X142199755Y-126361614D01*
X142166215Y-126344524D01*
X142101278Y-126312779D01*
X142017221Y-126228722D01*
X141985486Y-126163808D01*
X141968385Y-126130244D01*
X141968052Y-126128147D01*
X141965012Y-126121927D01*
X141950001Y-126018888D01*
X141950000Y-126014174D01*
X141950000Y-126014168D01*
X141950000Y-124145831D01*
X141950000Y-124145830D01*
X141950000Y-124141111D01*
X141965012Y-124038073D01*
X141968052Y-124031853D01*
X141968385Y-124029755D01*
X141985498Y-123996166D01*
X142017221Y-123931278D01*
X142101278Y-123847221D01*
X142166166Y-123815498D01*
X142199755Y-123798385D01*
X142201853Y-123798052D01*
X142208073Y-123795012D01*
X142311112Y-123780001D01*
X142315824Y-123780000D01*
X142315831Y-123780000D01*
X144184169Y-123780000D01*
X144188889Y-123780000D01*
X144291927Y-123795012D01*
G37*
G36*
X133332228Y-124294448D02*
G01*
X133477117Y-124354463D01*
X133607515Y-124441592D01*
X133718408Y-124552485D01*
X133805537Y-124682883D01*
X133865552Y-124827772D01*
X133896148Y-124981586D01*
X133896148Y-125138414D01*
X133865552Y-125292228D01*
X133805537Y-125437117D01*
X133718408Y-125567515D01*
X133607515Y-125678408D01*
X133477117Y-125765537D01*
X133332228Y-125825552D01*
X133178414Y-125856148D01*
X133021586Y-125856148D01*
X132867772Y-125825552D01*
X132722883Y-125765537D01*
X132592485Y-125678408D01*
X132481592Y-125567515D01*
X132394463Y-125437117D01*
X132334448Y-125292228D01*
X132303852Y-125138414D01*
X132303852Y-124981586D01*
X132334448Y-124827772D01*
X132394463Y-124682883D01*
X132481592Y-124552485D01*
X132592485Y-124441592D01*
X132722883Y-124354463D01*
X132867772Y-124294448D01*
X133021586Y-124263852D01*
X133178414Y-124263852D01*
X133332228Y-124294448D01*
G37*
G36*
X138732228Y-124294448D02*
G01*
X138877117Y-124354463D01*
X139007515Y-124441592D01*
X139118408Y-124552485D01*
X139205537Y-124682883D01*
X139265552Y-124827772D01*
X139296148Y-124981586D01*
X139296148Y-125138414D01*
X139265552Y-125292228D01*
X139205537Y-125437117D01*
X139118408Y-125567515D01*
X139007515Y-125678408D01*
X138877117Y-125765537D01*
X138732228Y-125825552D01*
X138578414Y-125856148D01*
X138421586Y-125856148D01*
X138267772Y-125825552D01*
X138122883Y-125765537D01*
X137992485Y-125678408D01*
X137881592Y-125567515D01*
X137794463Y-125437117D01*
X137734448Y-125292228D01*
X137703852Y-125138414D01*
X137703852Y-124981586D01*
X137734448Y-124827772D01*
X137794463Y-124682883D01*
X137881592Y-124552485D01*
X137992485Y-124441592D01*
X138122883Y-124354463D01*
X138267772Y-124294448D01*
X138421586Y-124263852D01*
X138578414Y-124263852D01*
X138732228Y-124294448D01*
G37*
G36*
X149482228Y-124294448D02*
G01*
X149627117Y-124354463D01*
X149757515Y-124441592D01*
X149868408Y-124552485D01*
X149955537Y-124682883D01*
X150015552Y-124827772D01*
X150046148Y-124981586D01*
X150046148Y-125138414D01*
X150015552Y-125292228D01*
X149955537Y-125437117D01*
X149868408Y-125567515D01*
X149757515Y-125678408D01*
X149627117Y-125765537D01*
X149482228Y-125825552D01*
X149328414Y-125856148D01*
X149171586Y-125856148D01*
X149017772Y-125825552D01*
X148872883Y-125765537D01*
X148742485Y-125678408D01*
X148631592Y-125567515D01*
X148544463Y-125437117D01*
X148484448Y-125292228D01*
X148453852Y-125138414D01*
X148453852Y-124981586D01*
X148484448Y-124827772D01*
X148544463Y-124682883D01*
X148631592Y-124552485D01*
X148742485Y-124441592D01*
X148872883Y-124354463D01*
X149017772Y-124294448D01*
X149171586Y-124263852D01*
X149328414Y-124263852D01*
X149482228Y-124294448D01*
G37*
G36*
X128232228Y-124234448D02*
G01*
X128377117Y-124294463D01*
X128507515Y-124381592D01*
X128618408Y-124492485D01*
X128705537Y-124622883D01*
X128765552Y-124767772D01*
X128796148Y-124921586D01*
X128796148Y-125078414D01*
X128765552Y-125232228D01*
X128705537Y-125377117D01*
X128618408Y-125507515D01*
X128507515Y-125618408D01*
X128377117Y-125705537D01*
X128232228Y-125765552D01*
X128078414Y-125796148D01*
X127921586Y-125796148D01*
X127767772Y-125765552D01*
X127622883Y-125705537D01*
X127492485Y-125618408D01*
X127381592Y-125507515D01*
X127294463Y-125377117D01*
X127234448Y-125232228D01*
X127203852Y-125078414D01*
X127203852Y-124921586D01*
X127234448Y-124767772D01*
X127294463Y-124622883D01*
X127381592Y-124492485D01*
X127492485Y-124381592D01*
X127622883Y-124294463D01*
X127767772Y-124234448D01*
X127921586Y-124203852D01*
X128078414Y-124203852D01*
X128232228Y-124234448D01*
G37*
G36*
X156482228Y-124234448D02*
G01*
X156627117Y-124294463D01*
X156757515Y-124381592D01*
X156868408Y-124492485D01*
X156955537Y-124622883D01*
X157015552Y-124767772D01*
X157046148Y-124921586D01*
X157046148Y-125078414D01*
X157015552Y-125232228D01*
X156955537Y-125377117D01*
X156868408Y-125507515D01*
X156757515Y-125618408D01*
X156627117Y-125705537D01*
X156482228Y-125765552D01*
X156328414Y-125796148D01*
X156171586Y-125796148D01*
X156017772Y-125765552D01*
X155872883Y-125705537D01*
X155742485Y-125618408D01*
X155631592Y-125507515D01*
X155544463Y-125377117D01*
X155484448Y-125232228D01*
X155453852Y-125078414D01*
X155453852Y-124921586D01*
X155484448Y-124767772D01*
X155544463Y-124622883D01*
X155631592Y-124492485D01*
X155742485Y-124381592D01*
X155872883Y-124294463D01*
X156017772Y-124234448D01*
X156171586Y-124203852D01*
X156328414Y-124203852D01*
X156482228Y-124234448D01*
G37*
G36*
X116553479Y-119485919D02*
G01*
X116747488Y-119548957D01*
X116929248Y-119641568D01*
X117094282Y-119761472D01*
X117238528Y-119905718D01*
X117358432Y-120070752D01*
X117451043Y-120252512D01*
X117514081Y-120446521D01*
X117545993Y-120648003D01*
X117545993Y-120851997D01*
X117514081Y-121053479D01*
X117451043Y-121247488D01*
X117358432Y-121429248D01*
X117238528Y-121594282D01*
X117094282Y-121738528D01*
X116929248Y-121858432D01*
X116747488Y-121951043D01*
X116553479Y-122014081D01*
X116351997Y-122045993D01*
X116148003Y-122045993D01*
X115946521Y-122014081D01*
X115752512Y-121951043D01*
X115570752Y-121858432D01*
X115405718Y-121738528D01*
X115261472Y-121594282D01*
X115141568Y-121429248D01*
X115048957Y-121247488D01*
X114985919Y-121053479D01*
X114954007Y-120851997D01*
X114954007Y-120648003D01*
X114985919Y-120446521D01*
X115048957Y-120252512D01*
X115141568Y-120070752D01*
X115261472Y-119905718D01*
X115405718Y-119761472D01*
X115570752Y-119641568D01*
X115752512Y-119548957D01*
X115946521Y-119485919D01*
X116148003Y-119454007D01*
X116351997Y-119454007D01*
X116553479Y-119485919D01*
G37*
G36*
X128232228Y-119234448D02*
G01*
X128377117Y-119294463D01*
X128507515Y-119381592D01*
X128618408Y-119492485D01*
X128705537Y-119622883D01*
X128765552Y-119767772D01*
X128796148Y-119921586D01*
X128796148Y-120078414D01*
X128765552Y-120232228D01*
X128705537Y-120377117D01*
X128618408Y-120507515D01*
X128507515Y-120618408D01*
X128377117Y-120705537D01*
X128232228Y-120765552D01*
X128078414Y-120796148D01*
X127921586Y-120796148D01*
X127767772Y-120765552D01*
X127622883Y-120705537D01*
X127492485Y-120618408D01*
X127381592Y-120507515D01*
X127294463Y-120377117D01*
X127234448Y-120232228D01*
X127203852Y-120078414D01*
X127203852Y-119921586D01*
X127234448Y-119767772D01*
X127294463Y-119622883D01*
X127381592Y-119492485D01*
X127492485Y-119381592D01*
X127622883Y-119294463D01*
X127767772Y-119234448D01*
X127921586Y-119203852D01*
X128078414Y-119203852D01*
X128232228Y-119234448D01*
G37*
G36*
X133332228Y-116674448D02*
G01*
X133477117Y-116734463D01*
X133607515Y-116821592D01*
X133718408Y-116932485D01*
X133805537Y-117062883D01*
X133865552Y-117207772D01*
X133896148Y-117361586D01*
X133896148Y-117518414D01*
X133865552Y-117672228D01*
X133805537Y-117817117D01*
X133718408Y-117947515D01*
X133607515Y-118058408D01*
X133477117Y-118145537D01*
X133332228Y-118205552D01*
X133178414Y-118236148D01*
X133021586Y-118236148D01*
X132867772Y-118205552D01*
X132722883Y-118145537D01*
X132592485Y-118058408D01*
X132481592Y-117947515D01*
X132394463Y-117817117D01*
X132334448Y-117672228D01*
X132303852Y-117518414D01*
X132303852Y-117361586D01*
X132334448Y-117207772D01*
X132394463Y-117062883D01*
X132481592Y-116932485D01*
X132592485Y-116821592D01*
X132722883Y-116734463D01*
X132867772Y-116674448D01*
X133021586Y-116643852D01*
X133178414Y-116643852D01*
X133332228Y-116674448D01*
G37*
G36*
X138732228Y-116674448D02*
G01*
X138877117Y-116734463D01*
X139007515Y-116821592D01*
X139118408Y-116932485D01*
X139205537Y-117062883D01*
X139265552Y-117207772D01*
X139296148Y-117361586D01*
X139296148Y-117518414D01*
X139265552Y-117672228D01*
X139205537Y-117817117D01*
X139118408Y-117947515D01*
X139007515Y-118058408D01*
X138877117Y-118145537D01*
X138732228Y-118205552D01*
X138578414Y-118236148D01*
X138421586Y-118236148D01*
X138267772Y-118205552D01*
X138122883Y-118145537D01*
X137992485Y-118058408D01*
X137881592Y-117947515D01*
X137794463Y-117817117D01*
X137734448Y-117672228D01*
X137703852Y-117518414D01*
X137703852Y-117361586D01*
X137734448Y-117207772D01*
X137794463Y-117062883D01*
X137881592Y-116932485D01*
X137992485Y-116821592D01*
X138122883Y-116734463D01*
X138267772Y-116674448D01*
X138421586Y-116643852D01*
X138578414Y-116643852D01*
X138732228Y-116674448D01*
G37*
G36*
X149482228Y-116674448D02*
G01*
X149627117Y-116734463D01*
X149757515Y-116821592D01*
X149868408Y-116932485D01*
X149955537Y-117062883D01*
X150015552Y-117207772D01*
X150046148Y-117361586D01*
X150046148Y-117518414D01*
X150015552Y-117672228D01*
X149955537Y-117817117D01*
X149868408Y-117947515D01*
X149757515Y-118058408D01*
X149627117Y-118145537D01*
X149482228Y-118205552D01*
X149328414Y-118236148D01*
X149171586Y-118236148D01*
X149017772Y-118205552D01*
X148872883Y-118145537D01*
X148742485Y-118058408D01*
X148631592Y-117947515D01*
X148544463Y-117817117D01*
X148484448Y-117672228D01*
X148453852Y-117518414D01*
X148453852Y-117361586D01*
X148484448Y-117207772D01*
X148544463Y-117062883D01*
X148631592Y-116932485D01*
X148742485Y-116821592D01*
X148872883Y-116734463D01*
X149017772Y-116674448D01*
X149171586Y-116643852D01*
X149328414Y-116643852D01*
X149482228Y-116674448D01*
G37*
G36*
X156482228Y-116614448D02*
G01*
X156627117Y-116674463D01*
X156757515Y-116761592D01*
X156868408Y-116872485D01*
X156955537Y-117002883D01*
X157015552Y-117147772D01*
X157046148Y-117301586D01*
X157046148Y-117458414D01*
X157015552Y-117612228D01*
X156955537Y-117757117D01*
X156868408Y-117887515D01*
X156757515Y-117998408D01*
X156627117Y-118085537D01*
X156482228Y-118145552D01*
X156328414Y-118176148D01*
X156171586Y-118176148D01*
X156017772Y-118145552D01*
X155872883Y-118085537D01*
X155742485Y-117998408D01*
X155631592Y-117887515D01*
X155544463Y-117757117D01*
X155484448Y-117612228D01*
X155453852Y-117458414D01*
X155453852Y-117301586D01*
X155484448Y-117147772D01*
X155544463Y-117002883D01*
X155631592Y-116872485D01*
X155742485Y-116761592D01*
X155872883Y-116674463D01*
X156017772Y-116614448D01*
X156171586Y-116583852D01*
X156328414Y-116583852D01*
X156482228Y-116614448D01*
G37*
G36*
X116553479Y-114485919D02*
G01*
X116747488Y-114548957D01*
X116929248Y-114641568D01*
X117094282Y-114761472D01*
X117238528Y-114905718D01*
X117358432Y-115070752D01*
X117451043Y-115252512D01*
X117514081Y-115446521D01*
X117545993Y-115648003D01*
X117545993Y-115851997D01*
X117514081Y-116053479D01*
X117451043Y-116247488D01*
X117358432Y-116429248D01*
X117238528Y-116594282D01*
X117094282Y-116738528D01*
X116929248Y-116858432D01*
X116747488Y-116951043D01*
X116553479Y-117014081D01*
X116351997Y-117045993D01*
X116148003Y-117045993D01*
X115946521Y-117014081D01*
X115752512Y-116951043D01*
X115570752Y-116858432D01*
X115405718Y-116738528D01*
X115261472Y-116594282D01*
X115141568Y-116429248D01*
X115048957Y-116247488D01*
X114985919Y-116053479D01*
X114954007Y-115851997D01*
X114954007Y-115648003D01*
X114985919Y-115446521D01*
X115048957Y-115252512D01*
X115141568Y-115070752D01*
X115261472Y-114905718D01*
X115405718Y-114761472D01*
X115570752Y-114641568D01*
X115752512Y-114548957D01*
X115946521Y-114485919D01*
X116148003Y-114454007D01*
X116351997Y-114454007D01*
X116553479Y-114485919D01*
G37*
G36*
X143553479Y-113655919D02*
G01*
X143747488Y-113718957D01*
X143929248Y-113811568D01*
X144094282Y-113931472D01*
X144238528Y-114075718D01*
X144358432Y-114240752D01*
X144451043Y-114422512D01*
X144514081Y-114616521D01*
X144545993Y-114818003D01*
X144545993Y-115021997D01*
X144514081Y-115223479D01*
X144451043Y-115417488D01*
X144358432Y-115599248D01*
X144238528Y-115764282D01*
X144094282Y-115908528D01*
X143929248Y-116028432D01*
X143747488Y-116121043D01*
X143553479Y-116184081D01*
X143351997Y-116215993D01*
X143148003Y-116215993D01*
X142946521Y-116184081D01*
X142752512Y-116121043D01*
X142570752Y-116028432D01*
X142405718Y-115908528D01*
X142261472Y-115764282D01*
X142141568Y-115599248D01*
X142048957Y-115417488D01*
X141985919Y-115223479D01*
X141954007Y-115021997D01*
X141954007Y-114818003D01*
X141985919Y-114616521D01*
X142048957Y-114422512D01*
X142141568Y-114240752D01*
X142261472Y-114075718D01*
X142405718Y-113931472D01*
X142570752Y-113811568D01*
X142752512Y-113718957D01*
X142946521Y-113655919D01*
X143148003Y-113624007D01*
X143351997Y-113624007D01*
X143553479Y-113655919D01*
G37*
G36*
X149677714Y-112572295D02*
G01*
X149813548Y-112628559D01*
X149935795Y-112710242D01*
X150039758Y-112814205D01*
X150121441Y-112936452D01*
X150177705Y-113072286D01*
X150206389Y-113216487D01*
X150206389Y-113363513D01*
X150177705Y-113507714D01*
X150121441Y-113643548D01*
X150039758Y-113765795D01*
X149935795Y-113869758D01*
X149813548Y-113951441D01*
X149677714Y-114007705D01*
X149533513Y-114036389D01*
X149386487Y-114036389D01*
X149242286Y-114007705D01*
X149106452Y-113951441D01*
X148984205Y-113869758D01*
X148880242Y-113765795D01*
X148798559Y-113643548D01*
X148742295Y-113507714D01*
X148713611Y-113363513D01*
X148713611Y-113216487D01*
X148742295Y-113072286D01*
X148798559Y-112936452D01*
X148880242Y-112814205D01*
X148984205Y-112710242D01*
X149106452Y-112628559D01*
X149242286Y-112572295D01*
X149386487Y-112543611D01*
X149533513Y-112543611D01*
X149677714Y-112572295D01*
G37*
G36*
X116553479Y-109485919D02*
G01*
X116747488Y-109548957D01*
X116929248Y-109641568D01*
X117094282Y-109761472D01*
X117238528Y-109905718D01*
X117358432Y-110070752D01*
X117451043Y-110252512D01*
X117514081Y-110446521D01*
X117545993Y-110648003D01*
X117545993Y-110851997D01*
X117514081Y-111053479D01*
X117451043Y-111247488D01*
X117358432Y-111429248D01*
X117238528Y-111594282D01*
X117094282Y-111738528D01*
X116929248Y-111858432D01*
X116747488Y-111951043D01*
X116553479Y-112014081D01*
X116351997Y-112045993D01*
X116148003Y-112045993D01*
X115946521Y-112014081D01*
X115752512Y-111951043D01*
X115570752Y-111858432D01*
X115405718Y-111738528D01*
X115261472Y-111594282D01*
X115141568Y-111429248D01*
X115048957Y-111247488D01*
X114985919Y-111053479D01*
X114954007Y-110851997D01*
X114954007Y-110648003D01*
X114985919Y-110446521D01*
X115048957Y-110252512D01*
X115141568Y-110070752D01*
X115261472Y-109905718D01*
X115405718Y-109761472D01*
X115570752Y-109641568D01*
X115752512Y-109548957D01*
X115946521Y-109485919D01*
X116148003Y-109454007D01*
X116351997Y-109454007D01*
X116553479Y-109485919D01*
G37*
G36*
X137532228Y-110134448D02*
G01*
X137677117Y-110194463D01*
X137807515Y-110281592D01*
X137918408Y-110392485D01*
X138005537Y-110522883D01*
X138065552Y-110667772D01*
X138096148Y-110821586D01*
X138096148Y-110978414D01*
X138065552Y-111132228D01*
X138005537Y-111277117D01*
X137918408Y-111407515D01*
X137807515Y-111518408D01*
X137677117Y-111605537D01*
X137532228Y-111665552D01*
X137378414Y-111696148D01*
X137221586Y-111696148D01*
X137067772Y-111665552D01*
X136922883Y-111605537D01*
X136792485Y-111518408D01*
X136681592Y-111407515D01*
X136594463Y-111277117D01*
X136534448Y-111132228D01*
X136503852Y-110978414D01*
X136503852Y-110821586D01*
X136534448Y-110667772D01*
X136594463Y-110522883D01*
X136681592Y-110392485D01*
X136792485Y-110281592D01*
X136922883Y-110194463D01*
X137067772Y-110134448D01*
X137221586Y-110103852D01*
X137378414Y-110103852D01*
X137532228Y-110134448D01*
G37*
G36*
X152504850Y-110000964D02*
G01*
X152555040Y-110006787D01*
X152572189Y-110014359D01*
X152595671Y-110019030D01*
X152620810Y-110035827D01*
X152640696Y-110044608D01*
X152654277Y-110058189D01*
X152676777Y-110073223D01*
X152691810Y-110095722D01*
X152705391Y-110109303D01*
X152714170Y-110129186D01*
X152730970Y-110154329D01*
X152735641Y-110177812D01*
X152743212Y-110194959D01*
X152749033Y-110245139D01*
X152750000Y-110250000D01*
X152750000Y-111250000D01*
X152749032Y-111254863D01*
X152743212Y-111305040D01*
X152735641Y-111322185D01*
X152730970Y-111345671D01*
X152714169Y-111370815D01*
X152705391Y-111390696D01*
X152691812Y-111404274D01*
X152676777Y-111426777D01*
X152654274Y-111441812D01*
X152640696Y-111455391D01*
X152620815Y-111464169D01*
X152595671Y-111480970D01*
X152572185Y-111485641D01*
X152555040Y-111493212D01*
X152504861Y-111499032D01*
X152500000Y-111500000D01*
X151500000Y-111500000D01*
X151495138Y-111499032D01*
X151444959Y-111493212D01*
X151427812Y-111485641D01*
X151404329Y-111480970D01*
X151379186Y-111464170D01*
X151359303Y-111455391D01*
X151345722Y-111441810D01*
X151323223Y-111426777D01*
X151308189Y-111404277D01*
X151294608Y-111390696D01*
X151285827Y-111370810D01*
X151269030Y-111345671D01*
X151264359Y-111322189D01*
X151256787Y-111305040D01*
X151250964Y-111254849D01*
X151250000Y-111250000D01*
X151250000Y-110250000D01*
X151250964Y-110245150D01*
X151256787Y-110194959D01*
X151264359Y-110177808D01*
X151269030Y-110154329D01*
X151285826Y-110129191D01*
X151294608Y-110109303D01*
X151308191Y-110095719D01*
X151323223Y-110073223D01*
X151345719Y-110058191D01*
X151359303Y-110044608D01*
X151379191Y-110035826D01*
X151404329Y-110019030D01*
X151427808Y-110014359D01*
X151444959Y-110006787D01*
X151495151Y-110000964D01*
X151500000Y-110000000D01*
X152500000Y-110000000D01*
X152504850Y-110000964D01*
G37*
G36*
X147137714Y-110032295D02*
G01*
X147273548Y-110088559D01*
X147395795Y-110170242D01*
X147499758Y-110274205D01*
X147581441Y-110396452D01*
X147637705Y-110532286D01*
X147666389Y-110676487D01*
X147666389Y-110823513D01*
X147637705Y-110967714D01*
X147581441Y-111103548D01*
X147499758Y-111225795D01*
X147395795Y-111329758D01*
X147273548Y-111411441D01*
X147137714Y-111467705D01*
X146993513Y-111496389D01*
X146846487Y-111496389D01*
X146702286Y-111467705D01*
X146566452Y-111411441D01*
X146444205Y-111329758D01*
X146340242Y-111225795D01*
X146258559Y-111103548D01*
X146202295Y-110967714D01*
X146173611Y-110823513D01*
X146173611Y-110676487D01*
X146202295Y-110532286D01*
X146258559Y-110396452D01*
X146340242Y-110274205D01*
X146444205Y-110170242D01*
X146566452Y-110088559D01*
X146702286Y-110032295D01*
X146846487Y-110003611D01*
X146993513Y-110003611D01*
X147137714Y-110032295D01*
G37*
G36*
X135600000Y-109200000D02*
G01*
X134000000Y-109200000D01*
X134000000Y-107600000D01*
X135600000Y-107600000D01*
X135600000Y-109200000D01*
G37*
G36*
X140032228Y-107634448D02*
G01*
X140177117Y-107694463D01*
X140307515Y-107781592D01*
X140418408Y-107892485D01*
X140505537Y-108022883D01*
X140565552Y-108167772D01*
X140596148Y-108321586D01*
X140596148Y-108478414D01*
X140565552Y-108632228D01*
X140505537Y-108777117D01*
X140418408Y-108907515D01*
X140307515Y-109018408D01*
X140177117Y-109105537D01*
X140032228Y-109165552D01*
X139878414Y-109196148D01*
X139721586Y-109196148D01*
X139567772Y-109165552D01*
X139422883Y-109105537D01*
X139292485Y-109018408D01*
X139181592Y-108907515D01*
X139094463Y-108777117D01*
X139034448Y-108632228D01*
X139003852Y-108478414D01*
X139003852Y-108321586D01*
X139034448Y-108167772D01*
X139094463Y-108022883D01*
X139181592Y-107892485D01*
X139292485Y-107781592D01*
X139422883Y-107694463D01*
X139567772Y-107634448D01*
X139721586Y-107603852D01*
X139878414Y-107603852D01*
X140032228Y-107634448D01*
G37*
G36*
X166970000Y-108600000D02*
G01*
X165270000Y-108600000D01*
X165270000Y-106900000D01*
X166970000Y-106900000D01*
X166970000Y-108600000D01*
G37*
G36*
X156206742Y-106936601D02*
G01*
X156360687Y-107000367D01*
X156499234Y-107092941D01*
X156617059Y-107210766D01*
X156709633Y-107349313D01*
X156773399Y-107503258D01*
X156805907Y-107666685D01*
X156805907Y-107833315D01*
X156773399Y-107996742D01*
X156709633Y-108150687D01*
X156617059Y-108289234D01*
X156499234Y-108407059D01*
X156360687Y-108499633D01*
X156206742Y-108563399D01*
X156043315Y-108595907D01*
X155876685Y-108595907D01*
X155713258Y-108563399D01*
X155559313Y-108499633D01*
X155420766Y-108407059D01*
X155302941Y-108289234D01*
X155210367Y-108150687D01*
X155146601Y-107996742D01*
X155114093Y-107833315D01*
X155114093Y-107666685D01*
X155146601Y-107503258D01*
X155210367Y-107349313D01*
X155302941Y-107210766D01*
X155420766Y-107092941D01*
X155559313Y-107000367D01*
X155713258Y-106936601D01*
X155876685Y-106904093D01*
X156043315Y-106904093D01*
X156206742Y-106936601D01*
G37*
G36*
X158746742Y-106936601D02*
G01*
X158900687Y-107000367D01*
X159039234Y-107092941D01*
X159157059Y-107210766D01*
X159249633Y-107349313D01*
X159313399Y-107503258D01*
X159345907Y-107666685D01*
X159345907Y-107833315D01*
X159313399Y-107996742D01*
X159249633Y-108150687D01*
X159157059Y-108289234D01*
X159039234Y-108407059D01*
X158900687Y-108499633D01*
X158746742Y-108563399D01*
X158583315Y-108595907D01*
X158416685Y-108595907D01*
X158253258Y-108563399D01*
X158099313Y-108499633D01*
X157960766Y-108407059D01*
X157842941Y-108289234D01*
X157750367Y-108150687D01*
X157686601Y-107996742D01*
X157654093Y-107833315D01*
X157654093Y-107666685D01*
X157686601Y-107503258D01*
X157750367Y-107349313D01*
X157842941Y-107210766D01*
X157960766Y-107092941D01*
X158099313Y-107000367D01*
X158253258Y-106936601D01*
X158416685Y-106904093D01*
X158583315Y-106904093D01*
X158746742Y-106936601D01*
G37*
G36*
X161286742Y-106936601D02*
G01*
X161440687Y-107000367D01*
X161579234Y-107092941D01*
X161697059Y-107210766D01*
X161789633Y-107349313D01*
X161853399Y-107503258D01*
X161885907Y-107666685D01*
X161885907Y-107833315D01*
X161853399Y-107996742D01*
X161789633Y-108150687D01*
X161697059Y-108289234D01*
X161579234Y-108407059D01*
X161440687Y-108499633D01*
X161286742Y-108563399D01*
X161123315Y-108595907D01*
X160956685Y-108595907D01*
X160793258Y-108563399D01*
X160639313Y-108499633D01*
X160500766Y-108407059D01*
X160382941Y-108289234D01*
X160290367Y-108150687D01*
X160226601Y-107996742D01*
X160194093Y-107833315D01*
X160194093Y-107666685D01*
X160226601Y-107503258D01*
X160290367Y-107349313D01*
X160382941Y-107210766D01*
X160500766Y-107092941D01*
X160639313Y-107000367D01*
X160793258Y-106936601D01*
X160956685Y-106904093D01*
X161123315Y-106904093D01*
X161286742Y-106936601D01*
G37*
G36*
X163826742Y-106936601D02*
G01*
X163980687Y-107000367D01*
X164119234Y-107092941D01*
X164237059Y-107210766D01*
X164329633Y-107349313D01*
X164393399Y-107503258D01*
X164425907Y-107666685D01*
X164425907Y-107833315D01*
X164393399Y-107996742D01*
X164329633Y-108150687D01*
X164237059Y-108289234D01*
X164119234Y-108407059D01*
X163980687Y-108499633D01*
X163826742Y-108563399D01*
X163663315Y-108595907D01*
X163496685Y-108595907D01*
X163333258Y-108563399D01*
X163179313Y-108499633D01*
X163040766Y-108407059D01*
X162922941Y-108289234D01*
X162830367Y-108150687D01*
X162766601Y-107996742D01*
X162734093Y-107833315D01*
X162734093Y-107666685D01*
X162766601Y-107503258D01*
X162830367Y-107349313D01*
X162922941Y-107210766D01*
X163040766Y-107092941D01*
X163179313Y-107000367D01*
X163333258Y-106936601D01*
X163496685Y-106904093D01*
X163663315Y-106904093D01*
X163826742Y-106936601D01*
G37*
G36*
X116553479Y-104485919D02*
G01*
X116747488Y-104548957D01*
X116929248Y-104641568D01*
X117094282Y-104761472D01*
X117238528Y-104905718D01*
X117358432Y-105070752D01*
X117451043Y-105252512D01*
X117514081Y-105446521D01*
X117545993Y-105648003D01*
X117545993Y-105851997D01*
X117514081Y-106053479D01*
X117451043Y-106247488D01*
X117358432Y-106429248D01*
X117238528Y-106594282D01*
X117094282Y-106738528D01*
X116929248Y-106858432D01*
X116747488Y-106951043D01*
X116553479Y-107014081D01*
X116351997Y-107045993D01*
X116148003Y-107045993D01*
X115946521Y-107014081D01*
X115752512Y-106951043D01*
X115570752Y-106858432D01*
X115405718Y-106738528D01*
X115261472Y-106594282D01*
X115141568Y-106429248D01*
X115048957Y-106247488D01*
X114985919Y-106053479D01*
X114954007Y-105851997D01*
X114954007Y-105648003D01*
X114985919Y-105446521D01*
X115048957Y-105252512D01*
X115141568Y-105070752D01*
X115261472Y-104905718D01*
X115405718Y-104761472D01*
X115570752Y-104641568D01*
X115752512Y-104548957D01*
X115946521Y-104485919D01*
X116148003Y-104454007D01*
X116351997Y-104454007D01*
X116553479Y-104485919D01*
G37*
G36*
X150350000Y-106850000D02*
G01*
X148650000Y-106850000D01*
X148650000Y-105150000D01*
X150350000Y-105150000D01*
X150350000Y-106850000D01*
G37*
G36*
X147206742Y-105186601D02*
G01*
X147360687Y-105250367D01*
X147499234Y-105342941D01*
X147617059Y-105460766D01*
X147709633Y-105599313D01*
X147773399Y-105753258D01*
X147805907Y-105916685D01*
X147805907Y-106083315D01*
X147773399Y-106246742D01*
X147709633Y-106400687D01*
X147617059Y-106539234D01*
X147499234Y-106657059D01*
X147360687Y-106749633D01*
X147206742Y-106813399D01*
X147043315Y-106845907D01*
X146876685Y-106845907D01*
X146713258Y-106813399D01*
X146559313Y-106749633D01*
X146420766Y-106657059D01*
X146302941Y-106539234D01*
X146210367Y-106400687D01*
X146146601Y-106246742D01*
X146114093Y-106083315D01*
X146114093Y-105916685D01*
X146146601Y-105753258D01*
X146210367Y-105599313D01*
X146302941Y-105460766D01*
X146420766Y-105342941D01*
X146559313Y-105250367D01*
X146713258Y-105186601D01*
X146876685Y-105154093D01*
X147043315Y-105154093D01*
X147206742Y-105186601D01*
G37*
G36*
X117304850Y-99450964D02*
G01*
X117355040Y-99456787D01*
X117372189Y-99464359D01*
X117395671Y-99469030D01*
X117420810Y-99485827D01*
X117440696Y-99494608D01*
X117454277Y-99508189D01*
X117476777Y-99523223D01*
X117491810Y-99545722D01*
X117505391Y-99559303D01*
X117514170Y-99579186D01*
X117530970Y-99604329D01*
X117535641Y-99627812D01*
X117543212Y-99644959D01*
X117549033Y-99695139D01*
X117550000Y-99700000D01*
X117550000Y-101800000D01*
X117549032Y-101804863D01*
X117543212Y-101855040D01*
X117535641Y-101872185D01*
X117530970Y-101895671D01*
X117514169Y-101920815D01*
X117505391Y-101940696D01*
X117491812Y-101954274D01*
X117476777Y-101976777D01*
X117454274Y-101991812D01*
X117440696Y-102005391D01*
X117420815Y-102014169D01*
X117395671Y-102030970D01*
X117372185Y-102035641D01*
X117355040Y-102043212D01*
X117304861Y-102049032D01*
X117300000Y-102050000D01*
X115200000Y-102050000D01*
X115195138Y-102049032D01*
X115144959Y-102043212D01*
X115127812Y-102035641D01*
X115104329Y-102030970D01*
X115079186Y-102014170D01*
X115059303Y-102005391D01*
X115045722Y-101991810D01*
X115023223Y-101976777D01*
X115008189Y-101954277D01*
X114994608Y-101940696D01*
X114985827Y-101920810D01*
X114969030Y-101895671D01*
X114964359Y-101872189D01*
X114956787Y-101855040D01*
X114950964Y-101804849D01*
X114950000Y-101800000D01*
X114950000Y-99700000D01*
X114950964Y-99695150D01*
X114956787Y-99644959D01*
X114964359Y-99627808D01*
X114969030Y-99604329D01*
X114985826Y-99579191D01*
X114994608Y-99559303D01*
X115008191Y-99545719D01*
X115023223Y-99523223D01*
X115045719Y-99508191D01*
X115059303Y-99494608D01*
X115079191Y-99485826D01*
X115104329Y-99469030D01*
X115127808Y-99464359D01*
X115144959Y-99456787D01*
X115195151Y-99450964D01*
X115200000Y-99450000D01*
X117300000Y-99450000D01*
X117304850Y-99450964D01*
G37*
G36*
X132200285Y-99293060D02*
G01*
X132381397Y-99368079D01*
X132544393Y-99476990D01*
X132683010Y-99615607D01*
X132791921Y-99778603D01*
X132866940Y-99959715D01*
X132905185Y-100151983D01*
X132905185Y-100348017D01*
X132866940Y-100540285D01*
X132791921Y-100721397D01*
X132683010Y-100884393D01*
X132544393Y-101023010D01*
X132381397Y-101131921D01*
X132200285Y-101206940D01*
X132008017Y-101245185D01*
X131811983Y-101245185D01*
X131619715Y-101206940D01*
X131438603Y-101131921D01*
X131275607Y-101023010D01*
X131136990Y-100884393D01*
X131028079Y-100721397D01*
X130953060Y-100540285D01*
X130914815Y-100348017D01*
X130914815Y-100151983D01*
X130953060Y-99959715D01*
X131028079Y-99778603D01*
X131136990Y-99615607D01*
X131275607Y-99476990D01*
X131438603Y-99368079D01*
X131619715Y-99293060D01*
X131811983Y-99254815D01*
X132008017Y-99254815D01*
X132200285Y-99293060D01*
G37*
G36*
X134740285Y-99293060D02*
G01*
X134921397Y-99368079D01*
X135084393Y-99476990D01*
X135223010Y-99615607D01*
X135331921Y-99778603D01*
X135406940Y-99959715D01*
X135445185Y-100151983D01*
X135445185Y-100348017D01*
X135406940Y-100540285D01*
X135331921Y-100721397D01*
X135223010Y-100884393D01*
X135084393Y-101023010D01*
X134921397Y-101131921D01*
X134740285Y-101206940D01*
X134548017Y-101245185D01*
X134351983Y-101245185D01*
X134159715Y-101206940D01*
X133978603Y-101131921D01*
X133815607Y-101023010D01*
X133676990Y-100884393D01*
X133568079Y-100721397D01*
X133493060Y-100540285D01*
X133454815Y-100348017D01*
X133454815Y-100151983D01*
X133493060Y-99959715D01*
X133568079Y-99778603D01*
X133676990Y-99615607D01*
X133815607Y-99476990D01*
X133978603Y-99368079D01*
X134159715Y-99293060D01*
X134351983Y-99254815D01*
X134548017Y-99254815D01*
X134740285Y-99293060D01*
G37*
G36*
X137280285Y-99293060D02*
G01*
X137461397Y-99368079D01*
X137624393Y-99476990D01*
X137763010Y-99615607D01*
X137871921Y-99778603D01*
X137946940Y-99959715D01*
X137985185Y-100151983D01*
X137985185Y-100348017D01*
X137946940Y-100540285D01*
X137871921Y-100721397D01*
X137763010Y-100884393D01*
X137624393Y-101023010D01*
X137461397Y-101131921D01*
X137280285Y-101206940D01*
X137088017Y-101245185D01*
X136891983Y-101245185D01*
X136699715Y-101206940D01*
X136518603Y-101131921D01*
X136355607Y-101023010D01*
X136216990Y-100884393D01*
X136108079Y-100721397D01*
X136033060Y-100540285D01*
X135994815Y-100348017D01*
X135994815Y-100151983D01*
X136033060Y-99959715D01*
X136108079Y-99778603D01*
X136216990Y-99615607D01*
X136355607Y-99476990D01*
X136518603Y-99368079D01*
X136699715Y-99293060D01*
X136891983Y-99254815D01*
X137088017Y-99254815D01*
X137280285Y-99293060D01*
G37*
G36*
X139820285Y-99293060D02*
G01*
X140001397Y-99368079D01*
X140164393Y-99476990D01*
X140303010Y-99615607D01*
X140411921Y-99778603D01*
X140486940Y-99959715D01*
X140525185Y-100151983D01*
X140525185Y-100348017D01*
X140486940Y-100540285D01*
X140411921Y-100721397D01*
X140303010Y-100884393D01*
X140164393Y-101023010D01*
X140001397Y-101131921D01*
X139820285Y-101206940D01*
X139628017Y-101245185D01*
X139431983Y-101245185D01*
X139239715Y-101206940D01*
X139058603Y-101131921D01*
X138895607Y-101023010D01*
X138756990Y-100884393D01*
X138648079Y-100721397D01*
X138573060Y-100540285D01*
X138534815Y-100348017D01*
X138534815Y-100151983D01*
X138573060Y-99959715D01*
X138648079Y-99778603D01*
X138756990Y-99615607D01*
X138895607Y-99476990D01*
X139058603Y-99368079D01*
X139239715Y-99293060D01*
X139431983Y-99254815D01*
X139628017Y-99254815D01*
X139820285Y-99293060D01*
G37*
G36*
X142360285Y-99293060D02*
G01*
X142541397Y-99368079D01*
X142704393Y-99476990D01*
X142843010Y-99615607D01*
X142951921Y-99778603D01*
X143026940Y-99959715D01*
X143065185Y-100151983D01*
X143065185Y-100348017D01*
X143026940Y-100540285D01*
X142951921Y-100721397D01*
X142843010Y-100884393D01*
X142704393Y-101023010D01*
X142541397Y-101131921D01*
X142360285Y-101206940D01*
X142168017Y-101245185D01*
X141971983Y-101245185D01*
X141779715Y-101206940D01*
X141598603Y-101131921D01*
X141435607Y-101023010D01*
X141296990Y-100884393D01*
X141188079Y-100721397D01*
X141113060Y-100540285D01*
X141074815Y-100348017D01*
X141074815Y-100151983D01*
X141113060Y-99959715D01*
X141188079Y-99778603D01*
X141296990Y-99615607D01*
X141435607Y-99476990D01*
X141598603Y-99368079D01*
X141779715Y-99293060D01*
X141971983Y-99254815D01*
X142168017Y-99254815D01*
X142360285Y-99293060D01*
G37*
G36*
X144900285Y-99293060D02*
G01*
X145081397Y-99368079D01*
X145244393Y-99476990D01*
X145383010Y-99615607D01*
X145491921Y-99778603D01*
X145566940Y-99959715D01*
X145605185Y-100151983D01*
X145605185Y-100348017D01*
X145566940Y-100540285D01*
X145491921Y-100721397D01*
X145383010Y-100884393D01*
X145244393Y-101023010D01*
X145081397Y-101131921D01*
X144900285Y-101206940D01*
X144708017Y-101245185D01*
X144511983Y-101245185D01*
X144319715Y-101206940D01*
X144138603Y-101131921D01*
X143975607Y-101023010D01*
X143836990Y-100884393D01*
X143728079Y-100721397D01*
X143653060Y-100540285D01*
X143614815Y-100348017D01*
X143614815Y-100151983D01*
X143653060Y-99959715D01*
X143728079Y-99778603D01*
X143836990Y-99615607D01*
X143975607Y-99476990D01*
X144138603Y-99368079D01*
X144319715Y-99293060D01*
X144511983Y-99254815D01*
X144708017Y-99254815D01*
X144900285Y-99293060D01*
G37*
G36*
X147440285Y-99293060D02*
G01*
X147621397Y-99368079D01*
X147784393Y-99476990D01*
X147923010Y-99615607D01*
X148031921Y-99778603D01*
X148106940Y-99959715D01*
X148145185Y-100151983D01*
X148145185Y-100348017D01*
X148106940Y-100540285D01*
X148031921Y-100721397D01*
X147923010Y-100884393D01*
X147784393Y-101023010D01*
X147621397Y-101131921D01*
X147440285Y-101206940D01*
X147248017Y-101245185D01*
X147051983Y-101245185D01*
X146859715Y-101206940D01*
X146678603Y-101131921D01*
X146515607Y-101023010D01*
X146376990Y-100884393D01*
X146268079Y-100721397D01*
X146193060Y-100540285D01*
X146154815Y-100348017D01*
X146154815Y-100151983D01*
X146193060Y-99959715D01*
X146268079Y-99778603D01*
X146376990Y-99615607D01*
X146515607Y-99476990D01*
X146678603Y-99368079D01*
X146859715Y-99293060D01*
X147051983Y-99254815D01*
X147248017Y-99254815D01*
X147440285Y-99293060D01*
G37*
G36*
X149980285Y-99293060D02*
G01*
X150161397Y-99368079D01*
X150324393Y-99476990D01*
X150463010Y-99615607D01*
X150571921Y-99778603D01*
X150646940Y-99959715D01*
X150685185Y-100151983D01*
X150685185Y-100348017D01*
X150646940Y-100540285D01*
X150571921Y-100721397D01*
X150463010Y-100884393D01*
X150324393Y-101023010D01*
X150161397Y-101131921D01*
X149980285Y-101206940D01*
X149788017Y-101245185D01*
X149591983Y-101245185D01*
X149399715Y-101206940D01*
X149218603Y-101131921D01*
X149055607Y-101023010D01*
X148916990Y-100884393D01*
X148808079Y-100721397D01*
X148733060Y-100540285D01*
X148694815Y-100348017D01*
X148694815Y-100151983D01*
X148733060Y-99959715D01*
X148808079Y-99778603D01*
X148916990Y-99615607D01*
X149055607Y-99476990D01*
X149218603Y-99368079D01*
X149399715Y-99293060D01*
X149591983Y-99254815D01*
X149788017Y-99254815D01*
X149980285Y-99293060D01*
G37*
G36*
X152520285Y-99293060D02*
G01*
X152701397Y-99368079D01*
X152864393Y-99476990D01*
X153003010Y-99615607D01*
X153111921Y-99778603D01*
X153186940Y-99959715D01*
X153225185Y-100151983D01*
X153225185Y-100348017D01*
X153186940Y-100540285D01*
X153111921Y-100721397D01*
X153003010Y-100884393D01*
X152864393Y-101023010D01*
X152701397Y-101131921D01*
X152520285Y-101206940D01*
X152328017Y-101245185D01*
X152131983Y-101245185D01*
X151939715Y-101206940D01*
X151758603Y-101131921D01*
X151595607Y-101023010D01*
X151456990Y-100884393D01*
X151348079Y-100721397D01*
X151273060Y-100540285D01*
X151234815Y-100348017D01*
X151234815Y-100151983D01*
X151273060Y-99959715D01*
X151348079Y-99778603D01*
X151456990Y-99615607D01*
X151595607Y-99476990D01*
X151758603Y-99368079D01*
X151939715Y-99293060D01*
X152131983Y-99254815D01*
X152328017Y-99254815D01*
X152520285Y-99293060D01*
G37*
G36*
X155060285Y-99293060D02*
G01*
X155241397Y-99368079D01*
X155404393Y-99476990D01*
X155543010Y-99615607D01*
X155651921Y-99778603D01*
X155726940Y-99959715D01*
X155765185Y-100151983D01*
X155765185Y-100348017D01*
X155726940Y-100540285D01*
X155651921Y-100721397D01*
X155543010Y-100884393D01*
X155404393Y-101023010D01*
X155241397Y-101131921D01*
X155060285Y-101206940D01*
X154868017Y-101245185D01*
X154671983Y-101245185D01*
X154479715Y-101206940D01*
X154298603Y-101131921D01*
X154135607Y-101023010D01*
X153996990Y-100884393D01*
X153888079Y-100721397D01*
X153813060Y-100540285D01*
X153774815Y-100348017D01*
X153774815Y-100151983D01*
X153813060Y-99959715D01*
X153888079Y-99778603D01*
X153996990Y-99615607D01*
X154135607Y-99476990D01*
X154298603Y-99368079D01*
X154479715Y-99293060D01*
X154671983Y-99254815D01*
X154868017Y-99254815D01*
X155060285Y-99293060D01*
G37*
G36*
X157600285Y-99293060D02*
G01*
X157781397Y-99368079D01*
X157944393Y-99476990D01*
X158083010Y-99615607D01*
X158191921Y-99778603D01*
X158266940Y-99959715D01*
X158305185Y-100151983D01*
X158305185Y-100348017D01*
X158266940Y-100540285D01*
X158191921Y-100721397D01*
X158083010Y-100884393D01*
X157944393Y-101023010D01*
X157781397Y-101131921D01*
X157600285Y-101206940D01*
X157408017Y-101245185D01*
X157211983Y-101245185D01*
X157019715Y-101206940D01*
X156838603Y-101131921D01*
X156675607Y-101023010D01*
X156536990Y-100884393D01*
X156428079Y-100721397D01*
X156353060Y-100540285D01*
X156314815Y-100348017D01*
X156314815Y-100151983D01*
X156353060Y-99959715D01*
X156428079Y-99778603D01*
X156536990Y-99615607D01*
X156675607Y-99476990D01*
X156838603Y-99368079D01*
X157019715Y-99293060D01*
X157211983Y-99254815D01*
X157408017Y-99254815D01*
X157600285Y-99293060D01*
G37*
G36*
X160140285Y-99293060D02*
G01*
X160321397Y-99368079D01*
X160484393Y-99476990D01*
X160623010Y-99615607D01*
X160731921Y-99778603D01*
X160806940Y-99959715D01*
X160845185Y-100151983D01*
X160845185Y-100348017D01*
X160806940Y-100540285D01*
X160731921Y-100721397D01*
X160623010Y-100884393D01*
X160484393Y-101023010D01*
X160321397Y-101131921D01*
X160140285Y-101206940D01*
X159948017Y-101245185D01*
X159751983Y-101245185D01*
X159559715Y-101206940D01*
X159378603Y-101131921D01*
X159215607Y-101023010D01*
X159076990Y-100884393D01*
X158968079Y-100721397D01*
X158893060Y-100540285D01*
X158854815Y-100348017D01*
X158854815Y-100151983D01*
X158893060Y-99959715D01*
X158968079Y-99778603D01*
X159076990Y-99615607D01*
X159215607Y-99476990D01*
X159378603Y-99368079D01*
X159559715Y-99293060D01*
X159751983Y-99254815D01*
X159948017Y-99254815D01*
X160140285Y-99293060D01*
G37*
G36*
X162680285Y-99293060D02*
G01*
X162861397Y-99368079D01*
X163024393Y-99476990D01*
X163163010Y-99615607D01*
X163271921Y-99778603D01*
X163346940Y-99959715D01*
X163385185Y-100151983D01*
X163385185Y-100348017D01*
X163346940Y-100540285D01*
X163271921Y-100721397D01*
X163163010Y-100884393D01*
X163024393Y-101023010D01*
X162861397Y-101131921D01*
X162680285Y-101206940D01*
X162488017Y-101245185D01*
X162291983Y-101245185D01*
X162099715Y-101206940D01*
X161918603Y-101131921D01*
X161755607Y-101023010D01*
X161616990Y-100884393D01*
X161508079Y-100721397D01*
X161433060Y-100540285D01*
X161394815Y-100348017D01*
X161394815Y-100151983D01*
X161433060Y-99959715D01*
X161508079Y-99778603D01*
X161616990Y-99615607D01*
X161755607Y-99476990D01*
X161918603Y-99368079D01*
X162099715Y-99293060D01*
X162291983Y-99254815D01*
X162488017Y-99254815D01*
X162680285Y-99293060D01*
G37*
G36*
X165220285Y-99293060D02*
G01*
X165401397Y-99368079D01*
X165564393Y-99476990D01*
X165703010Y-99615607D01*
X165811921Y-99778603D01*
X165886940Y-99959715D01*
X165925185Y-100151983D01*
X165925185Y-100348017D01*
X165886940Y-100540285D01*
X165811921Y-100721397D01*
X165703010Y-100884393D01*
X165564393Y-101023010D01*
X165401397Y-101131921D01*
X165220285Y-101206940D01*
X165028017Y-101245185D01*
X164831983Y-101245185D01*
X164639715Y-101206940D01*
X164458603Y-101131921D01*
X164295607Y-101023010D01*
X164156990Y-100884393D01*
X164048079Y-100721397D01*
X163973060Y-100540285D01*
X163934815Y-100348017D01*
X163934815Y-100151983D01*
X163973060Y-99959715D01*
X164048079Y-99778603D01*
X164156990Y-99615607D01*
X164295607Y-99476990D01*
X164458603Y-99368079D01*
X164639715Y-99293060D01*
X164831983Y-99254815D01*
X165028017Y-99254815D01*
X165220285Y-99293060D01*
G37*
G36*
X117100000Y-85890000D02*
G01*
X115400000Y-85890000D01*
X115400000Y-84190000D01*
X117100000Y-84190000D01*
X117100000Y-85890000D01*
G37*
G36*
X132910000Y-83470000D02*
G01*
X130910000Y-83470000D01*
X130910000Y-81470000D01*
X132910000Y-81470000D01*
X132910000Y-83470000D01*
G37*
G36*
X134740285Y-81513060D02*
G01*
X134921397Y-81588079D01*
X135084393Y-81696990D01*
X135223010Y-81835607D01*
X135331921Y-81998603D01*
X135406940Y-82179715D01*
X135445185Y-82371983D01*
X135445185Y-82568017D01*
X135406940Y-82760285D01*
X135331921Y-82941397D01*
X135223010Y-83104393D01*
X135084393Y-83243010D01*
X134921397Y-83351921D01*
X134740285Y-83426940D01*
X134548017Y-83465185D01*
X134351983Y-83465185D01*
X134159715Y-83426940D01*
X133978603Y-83351921D01*
X133815607Y-83243010D01*
X133676990Y-83104393D01*
X133568079Y-82941397D01*
X133493060Y-82760285D01*
X133454815Y-82568017D01*
X133454815Y-82371983D01*
X133493060Y-82179715D01*
X133568079Y-81998603D01*
X133676990Y-81835607D01*
X133815607Y-81696990D01*
X133978603Y-81588079D01*
X134159715Y-81513060D01*
X134351983Y-81474815D01*
X134548017Y-81474815D01*
X134740285Y-81513060D01*
G37*
G36*
X137280285Y-81513060D02*
G01*
X137461397Y-81588079D01*
X137624393Y-81696990D01*
X137763010Y-81835607D01*
X137871921Y-81998603D01*
X137946940Y-82179715D01*
X137985185Y-82371983D01*
X137985185Y-82568017D01*
X137946940Y-82760285D01*
X137871921Y-82941397D01*
X137763010Y-83104393D01*
X137624393Y-83243010D01*
X137461397Y-83351921D01*
X137280285Y-83426940D01*
X137088017Y-83465185D01*
X136891983Y-83465185D01*
X136699715Y-83426940D01*
X136518603Y-83351921D01*
X136355607Y-83243010D01*
X136216990Y-83104393D01*
X136108079Y-82941397D01*
X136033060Y-82760285D01*
X135994815Y-82568017D01*
X135994815Y-82371983D01*
X136033060Y-82179715D01*
X136108079Y-81998603D01*
X136216990Y-81835607D01*
X136355607Y-81696990D01*
X136518603Y-81588079D01*
X136699715Y-81513060D01*
X136891983Y-81474815D01*
X137088017Y-81474815D01*
X137280285Y-81513060D01*
G37*
G36*
X139820285Y-81513060D02*
G01*
X140001397Y-81588079D01*
X140164393Y-81696990D01*
X140303010Y-81835607D01*
X140411921Y-81998603D01*
X140486940Y-82179715D01*
X140525185Y-82371983D01*
X140525185Y-82568017D01*
X140486940Y-82760285D01*
X140411921Y-82941397D01*
X140303010Y-83104393D01*
X140164393Y-83243010D01*
X140001397Y-83351921D01*
X139820285Y-83426940D01*
X139628017Y-83465185D01*
X139431983Y-83465185D01*
X139239715Y-83426940D01*
X139058603Y-83351921D01*
X138895607Y-83243010D01*
X138756990Y-83104393D01*
X138648079Y-82941397D01*
X138573060Y-82760285D01*
X138534815Y-82568017D01*
X138534815Y-82371983D01*
X138573060Y-82179715D01*
X138648079Y-81998603D01*
X138756990Y-81835607D01*
X138895607Y-81696990D01*
X139058603Y-81588079D01*
X139239715Y-81513060D01*
X139431983Y-81474815D01*
X139628017Y-81474815D01*
X139820285Y-81513060D01*
G37*
G36*
X142360285Y-81513060D02*
G01*
X142541397Y-81588079D01*
X142704393Y-81696990D01*
X142843010Y-81835607D01*
X142951921Y-81998603D01*
X143026940Y-82179715D01*
X143065185Y-82371983D01*
X143065185Y-82568017D01*
X143026940Y-82760285D01*
X142951921Y-82941397D01*
X142843010Y-83104393D01*
X142704393Y-83243010D01*
X142541397Y-83351921D01*
X142360285Y-83426940D01*
X142168017Y-83465185D01*
X141971983Y-83465185D01*
X141779715Y-83426940D01*
X141598603Y-83351921D01*
X141435607Y-83243010D01*
X141296990Y-83104393D01*
X141188079Y-82941397D01*
X141113060Y-82760285D01*
X141074815Y-82568017D01*
X141074815Y-82371983D01*
X141113060Y-82179715D01*
X141188079Y-81998603D01*
X141296990Y-81835607D01*
X141435607Y-81696990D01*
X141598603Y-81588079D01*
X141779715Y-81513060D01*
X141971983Y-81474815D01*
X142168017Y-81474815D01*
X142360285Y-81513060D01*
G37*
G36*
X144900285Y-81513060D02*
G01*
X145081397Y-81588079D01*
X145244393Y-81696990D01*
X145383010Y-81835607D01*
X145491921Y-81998603D01*
X145566940Y-82179715D01*
X145605185Y-82371983D01*
X145605185Y-82568017D01*
X145566940Y-82760285D01*
X145491921Y-82941397D01*
X145383010Y-83104393D01*
X145244393Y-83243010D01*
X145081397Y-83351921D01*
X144900285Y-83426940D01*
X144708017Y-83465185D01*
X144511983Y-83465185D01*
X144319715Y-83426940D01*
X144138603Y-83351921D01*
X143975607Y-83243010D01*
X143836990Y-83104393D01*
X143728079Y-82941397D01*
X143653060Y-82760285D01*
X143614815Y-82568017D01*
X143614815Y-82371983D01*
X143653060Y-82179715D01*
X143728079Y-81998603D01*
X143836990Y-81835607D01*
X143975607Y-81696990D01*
X144138603Y-81588079D01*
X144319715Y-81513060D01*
X144511983Y-81474815D01*
X144708017Y-81474815D01*
X144900285Y-81513060D01*
G37*
G36*
X147440285Y-81513060D02*
G01*
X147621397Y-81588079D01*
X147784393Y-81696990D01*
X147923010Y-81835607D01*
X148031921Y-81998603D01*
X148106940Y-82179715D01*
X148145185Y-82371983D01*
X148145185Y-82568017D01*
X148106940Y-82760285D01*
X148031921Y-82941397D01*
X147923010Y-83104393D01*
X147784393Y-83243010D01*
X147621397Y-83351921D01*
X147440285Y-83426940D01*
X147248017Y-83465185D01*
X147051983Y-83465185D01*
X146859715Y-83426940D01*
X146678603Y-83351921D01*
X146515607Y-83243010D01*
X146376990Y-83104393D01*
X146268079Y-82941397D01*
X146193060Y-82760285D01*
X146154815Y-82568017D01*
X146154815Y-82371983D01*
X146193060Y-82179715D01*
X146268079Y-81998603D01*
X146376990Y-81835607D01*
X146515607Y-81696990D01*
X146678603Y-81588079D01*
X146859715Y-81513060D01*
X147051983Y-81474815D01*
X147248017Y-81474815D01*
X147440285Y-81513060D01*
G37*
G36*
X149980285Y-81513060D02*
G01*
X150161397Y-81588079D01*
X150324393Y-81696990D01*
X150463010Y-81835607D01*
X150571921Y-81998603D01*
X150646940Y-82179715D01*
X150685185Y-82371983D01*
X150685185Y-82568017D01*
X150646940Y-82760285D01*
X150571921Y-82941397D01*
X150463010Y-83104393D01*
X150324393Y-83243010D01*
X150161397Y-83351921D01*
X149980285Y-83426940D01*
X149788017Y-83465185D01*
X149591983Y-83465185D01*
X149399715Y-83426940D01*
X149218603Y-83351921D01*
X149055607Y-83243010D01*
X148916990Y-83104393D01*
X148808079Y-82941397D01*
X148733060Y-82760285D01*
X148694815Y-82568017D01*
X148694815Y-82371983D01*
X148733060Y-82179715D01*
X148808079Y-81998603D01*
X148916990Y-81835607D01*
X149055607Y-81696990D01*
X149218603Y-81588079D01*
X149399715Y-81513060D01*
X149591983Y-81474815D01*
X149788017Y-81474815D01*
X149980285Y-81513060D01*
G37*
G36*
X152520285Y-81513060D02*
G01*
X152701397Y-81588079D01*
X152864393Y-81696990D01*
X153003010Y-81835607D01*
X153111921Y-81998603D01*
X153186940Y-82179715D01*
X153225185Y-82371983D01*
X153225185Y-82568017D01*
X153186940Y-82760285D01*
X153111921Y-82941397D01*
X153003010Y-83104393D01*
X152864393Y-83243010D01*
X152701397Y-83351921D01*
X152520285Y-83426940D01*
X152328017Y-83465185D01*
X152131983Y-83465185D01*
X151939715Y-83426940D01*
X151758603Y-83351921D01*
X151595607Y-83243010D01*
X151456990Y-83104393D01*
X151348079Y-82941397D01*
X151273060Y-82760285D01*
X151234815Y-82568017D01*
X151234815Y-82371983D01*
X151273060Y-82179715D01*
X151348079Y-81998603D01*
X151456990Y-81835607D01*
X151595607Y-81696990D01*
X151758603Y-81588079D01*
X151939715Y-81513060D01*
X152131983Y-81474815D01*
X152328017Y-81474815D01*
X152520285Y-81513060D01*
G37*
G36*
X155060285Y-81513060D02*
G01*
X155241397Y-81588079D01*
X155404393Y-81696990D01*
X155543010Y-81835607D01*
X155651921Y-81998603D01*
X155726940Y-82179715D01*
X155765185Y-82371983D01*
X155765185Y-82568017D01*
X155726940Y-82760285D01*
X155651921Y-82941397D01*
X155543010Y-83104393D01*
X155404393Y-83243010D01*
X155241397Y-83351921D01*
X155060285Y-83426940D01*
X154868017Y-83465185D01*
X154671983Y-83465185D01*
X154479715Y-83426940D01*
X154298603Y-83351921D01*
X154135607Y-83243010D01*
X153996990Y-83104393D01*
X153888079Y-82941397D01*
X153813060Y-82760285D01*
X153774815Y-82568017D01*
X153774815Y-82371983D01*
X153813060Y-82179715D01*
X153888079Y-81998603D01*
X153996990Y-81835607D01*
X154135607Y-81696990D01*
X154298603Y-81588079D01*
X154479715Y-81513060D01*
X154671983Y-81474815D01*
X154868017Y-81474815D01*
X155060285Y-81513060D01*
G37*
G36*
X157600285Y-81513060D02*
G01*
X157781397Y-81588079D01*
X157944393Y-81696990D01*
X158083010Y-81835607D01*
X158191921Y-81998603D01*
X158266940Y-82179715D01*
X158305185Y-82371983D01*
X158305185Y-82568017D01*
X158266940Y-82760285D01*
X158191921Y-82941397D01*
X158083010Y-83104393D01*
X157944393Y-83243010D01*
X157781397Y-83351921D01*
X157600285Y-83426940D01*
X157408017Y-83465185D01*
X157211983Y-83465185D01*
X157019715Y-83426940D01*
X156838603Y-83351921D01*
X156675607Y-83243010D01*
X156536990Y-83104393D01*
X156428079Y-82941397D01*
X156353060Y-82760285D01*
X156314815Y-82568017D01*
X156314815Y-82371983D01*
X156353060Y-82179715D01*
X156428079Y-81998603D01*
X156536990Y-81835607D01*
X156675607Y-81696990D01*
X156838603Y-81588079D01*
X157019715Y-81513060D01*
X157211983Y-81474815D01*
X157408017Y-81474815D01*
X157600285Y-81513060D01*
G37*
G36*
X160140285Y-81513060D02*
G01*
X160321397Y-81588079D01*
X160484393Y-81696990D01*
X160623010Y-81835607D01*
X160731921Y-81998603D01*
X160806940Y-82179715D01*
X160845185Y-82371983D01*
X160845185Y-82568017D01*
X160806940Y-82760285D01*
X160731921Y-82941397D01*
X160623010Y-83104393D01*
X160484393Y-83243010D01*
X160321397Y-83351921D01*
X160140285Y-83426940D01*
X159948017Y-83465185D01*
X159751983Y-83465185D01*
X159559715Y-83426940D01*
X159378603Y-83351921D01*
X159215607Y-83243010D01*
X159076990Y-83104393D01*
X158968079Y-82941397D01*
X158893060Y-82760285D01*
X158854815Y-82568017D01*
X158854815Y-82371983D01*
X158893060Y-82179715D01*
X158968079Y-81998603D01*
X159076990Y-81835607D01*
X159215607Y-81696990D01*
X159378603Y-81588079D01*
X159559715Y-81513060D01*
X159751983Y-81474815D01*
X159948017Y-81474815D01*
X160140285Y-81513060D01*
G37*
G36*
X162680285Y-81513060D02*
G01*
X162861397Y-81588079D01*
X163024393Y-81696990D01*
X163163010Y-81835607D01*
X163271921Y-81998603D01*
X163346940Y-82179715D01*
X163385185Y-82371983D01*
X163385185Y-82568017D01*
X163346940Y-82760285D01*
X163271921Y-82941397D01*
X163163010Y-83104393D01*
X163024393Y-83243010D01*
X162861397Y-83351921D01*
X162680285Y-83426940D01*
X162488017Y-83465185D01*
X162291983Y-83465185D01*
X162099715Y-83426940D01*
X161918603Y-83351921D01*
X161755607Y-83243010D01*
X161616990Y-83104393D01*
X161508079Y-82941397D01*
X161433060Y-82760285D01*
X161394815Y-82568017D01*
X161394815Y-82371983D01*
X161433060Y-82179715D01*
X161508079Y-81998603D01*
X161616990Y-81835607D01*
X161755607Y-81696990D01*
X161918603Y-81588079D01*
X162099715Y-81513060D01*
X162291983Y-81474815D01*
X162488017Y-81474815D01*
X162680285Y-81513060D01*
G37*
G36*
X165220285Y-81513060D02*
G01*
X165401397Y-81588079D01*
X165564393Y-81696990D01*
X165703010Y-81835607D01*
X165811921Y-81998603D01*
X165886940Y-82179715D01*
X165925185Y-82371983D01*
X165925185Y-82568017D01*
X165886940Y-82760285D01*
X165811921Y-82941397D01*
X165703010Y-83104393D01*
X165564393Y-83243010D01*
X165401397Y-83351921D01*
X165220285Y-83426940D01*
X165028017Y-83465185D01*
X164831983Y-83465185D01*
X164639715Y-83426940D01*
X164458603Y-83351921D01*
X164295607Y-83243010D01*
X164156990Y-83104393D01*
X164048079Y-82941397D01*
X163973060Y-82760285D01*
X163934815Y-82568017D01*
X163934815Y-82371983D01*
X163973060Y-82179715D01*
X164048079Y-81998603D01*
X164156990Y-81835607D01*
X164295607Y-81696990D01*
X164458603Y-81588079D01*
X164639715Y-81513060D01*
X164831983Y-81474815D01*
X165028017Y-81474815D01*
X165220285Y-81513060D01*
G37*
G36*
X116496742Y-81686601D02*
G01*
X116650687Y-81750367D01*
X116789234Y-81842941D01*
X116907059Y-81960766D01*
X116999633Y-82099313D01*
X117063399Y-82253258D01*
X117095907Y-82416685D01*
X117095907Y-82583315D01*
X117063399Y-82746742D01*
X116999633Y-82900687D01*
X116907059Y-83039234D01*
X116789234Y-83157059D01*
X116650687Y-83249633D01*
X116496742Y-83313399D01*
X116333315Y-83345907D01*
X116166685Y-83345907D01*
X116003258Y-83313399D01*
X115849313Y-83249633D01*
X115710766Y-83157059D01*
X115592941Y-83039234D01*
X115500367Y-82900687D01*
X115436601Y-82746742D01*
X115404093Y-82583315D01*
X115404093Y-82416685D01*
X115436601Y-82253258D01*
X115500367Y-82099313D01*
X115592941Y-81960766D01*
X115710766Y-81842941D01*
X115849313Y-81750367D01*
X116003258Y-81686601D01*
X116166685Y-81654093D01*
X116333315Y-81654093D01*
X116496742Y-81686601D01*
G37*
G36*
X116496742Y-79146601D02*
G01*
X116650687Y-79210367D01*
X116789234Y-79302941D01*
X116907059Y-79420766D01*
X116999633Y-79559313D01*
X117063399Y-79713258D01*
X117095907Y-79876685D01*
X117095907Y-80043315D01*
X117063399Y-80206742D01*
X116999633Y-80360687D01*
X116907059Y-80499234D01*
X116789234Y-80617059D01*
X116650687Y-80709633D01*
X116496742Y-80773399D01*
X116333315Y-80805907D01*
X116166685Y-80805907D01*
X116003258Y-80773399D01*
X115849313Y-80709633D01*
X115710766Y-80617059D01*
X115592941Y-80499234D01*
X115500367Y-80360687D01*
X115436601Y-80206742D01*
X115404093Y-80043315D01*
X115404093Y-79876685D01*
X115436601Y-79713258D01*
X115500367Y-79559313D01*
X115592941Y-79420766D01*
X115710766Y-79302941D01*
X115849313Y-79210367D01*
X116003258Y-79146601D01*
X116166685Y-79114093D01*
X116333315Y-79114093D01*
X116496742Y-79146601D01*
G37*
G36*
X123432228Y-78934448D02*
G01*
X123577117Y-78994463D01*
X123707515Y-79081592D01*
X123818408Y-79192485D01*
X123905537Y-79322883D01*
X123965552Y-79467772D01*
X123996148Y-79621586D01*
X123996148Y-79778414D01*
X123965552Y-79932228D01*
X123905537Y-80077117D01*
X123818408Y-80207515D01*
X123707515Y-80318408D01*
X123577117Y-80405537D01*
X123432228Y-80465552D01*
X123278414Y-80496148D01*
X123121586Y-80496148D01*
X122967772Y-80465552D01*
X122822883Y-80405537D01*
X122692485Y-80318408D01*
X122581592Y-80207515D01*
X122494463Y-80077117D01*
X122434448Y-79932228D01*
X122403852Y-79778414D01*
X122403852Y-79621586D01*
X122434448Y-79467772D01*
X122494463Y-79322883D01*
X122581592Y-79192485D01*
X122692485Y-79081592D01*
X122822883Y-78994463D01*
X122967772Y-78934448D01*
X123121586Y-78903852D01*
X123278414Y-78903852D01*
X123432228Y-78934448D01*
G37*
G36*
X128432228Y-78934448D02*
G01*
X128577117Y-78994463D01*
X128707515Y-79081592D01*
X128818408Y-79192485D01*
X128905537Y-79322883D01*
X128965552Y-79467772D01*
X128996148Y-79621586D01*
X128996148Y-79778414D01*
X128965552Y-79932228D01*
X128905537Y-80077117D01*
X128818408Y-80207515D01*
X128707515Y-80318408D01*
X128577117Y-80405537D01*
X128432228Y-80465552D01*
X128278414Y-80496148D01*
X128121586Y-80496148D01*
X127967772Y-80465552D01*
X127822883Y-80405537D01*
X127692485Y-80318408D01*
X127581592Y-80207515D01*
X127494463Y-80077117D01*
X127434448Y-79932228D01*
X127403852Y-79778414D01*
X127403852Y-79621586D01*
X127434448Y-79467772D01*
X127494463Y-79322883D01*
X127581592Y-79192485D01*
X127692485Y-79081592D01*
X127822883Y-78994463D01*
X127967772Y-78934448D01*
X128121586Y-78903852D01*
X128278414Y-78903852D01*
X128432228Y-78934448D01*
G37*
G36*
X149100000Y-77850000D02*
G01*
X147400000Y-77850000D01*
X147400000Y-76150000D01*
X149100000Y-76150000D01*
X149100000Y-77850000D01*
G37*
G36*
X145956742Y-76186601D02*
G01*
X146110687Y-76250367D01*
X146249234Y-76342941D01*
X146367059Y-76460766D01*
X146459633Y-76599313D01*
X146523399Y-76753258D01*
X146555907Y-76916685D01*
X146555907Y-77083315D01*
X146523399Y-77246742D01*
X146459633Y-77400687D01*
X146367059Y-77539234D01*
X146249234Y-77657059D01*
X146110687Y-77749633D01*
X145956742Y-77813399D01*
X145793315Y-77845907D01*
X145626685Y-77845907D01*
X145463258Y-77813399D01*
X145309313Y-77749633D01*
X145170766Y-77657059D01*
X145052941Y-77539234D01*
X144960367Y-77400687D01*
X144896601Y-77246742D01*
X144864093Y-77083315D01*
X144864093Y-76916685D01*
X144896601Y-76753258D01*
X144960367Y-76599313D01*
X145052941Y-76460766D01*
X145170766Y-76342941D01*
X145309313Y-76250367D01*
X145463258Y-76186601D01*
X145626685Y-76154093D01*
X145793315Y-76154093D01*
X145956742Y-76186601D01*
G37*
G36*
X155254850Y-74000964D02*
G01*
X155305040Y-74006787D01*
X155322189Y-74014359D01*
X155345671Y-74019030D01*
X155370810Y-74035827D01*
X155390696Y-74044608D01*
X155404277Y-74058189D01*
X155426777Y-74073223D01*
X155441810Y-74095722D01*
X155455391Y-74109303D01*
X155464170Y-74129186D01*
X155480970Y-74154329D01*
X155485641Y-74177812D01*
X155493212Y-74194959D01*
X155499033Y-74245139D01*
X155500000Y-74250000D01*
X155500000Y-75250000D01*
X155499032Y-75254863D01*
X155493212Y-75305040D01*
X155485641Y-75322185D01*
X155480970Y-75345671D01*
X155464169Y-75370815D01*
X155455391Y-75390696D01*
X155441812Y-75404274D01*
X155426777Y-75426777D01*
X155404274Y-75441812D01*
X155390696Y-75455391D01*
X155370815Y-75464169D01*
X155345671Y-75480970D01*
X155322185Y-75485641D01*
X155305040Y-75493212D01*
X155254861Y-75499032D01*
X155250000Y-75500000D01*
X154250000Y-75500000D01*
X154245138Y-75499032D01*
X154194959Y-75493212D01*
X154177812Y-75485641D01*
X154154329Y-75480970D01*
X154129186Y-75464170D01*
X154109303Y-75455391D01*
X154095722Y-75441810D01*
X154073223Y-75426777D01*
X154058189Y-75404277D01*
X154044608Y-75390696D01*
X154035827Y-75370810D01*
X154019030Y-75345671D01*
X154014359Y-75322189D01*
X154006787Y-75305040D01*
X154000964Y-75254849D01*
X154000000Y-75250000D01*
X154000000Y-74250000D01*
X154000964Y-74245150D01*
X154006787Y-74194959D01*
X154014359Y-74177808D01*
X154019030Y-74154329D01*
X154035826Y-74129191D01*
X154044608Y-74109303D01*
X154058191Y-74095719D01*
X154073223Y-74073223D01*
X154095719Y-74058191D01*
X154109303Y-74044608D01*
X154129191Y-74035826D01*
X154154329Y-74019030D01*
X154177808Y-74014359D01*
X154194959Y-74006787D01*
X154245151Y-74000964D01*
X154250000Y-74000000D01*
X155250000Y-74000000D01*
X155254850Y-74000964D01*
G37*
G36*
X160047714Y-74032295D02*
G01*
X160183548Y-74088559D01*
X160305795Y-74170242D01*
X160409758Y-74274205D01*
X160491441Y-74396452D01*
X160547705Y-74532286D01*
X160576389Y-74676487D01*
X160576389Y-74823513D01*
X160547705Y-74967714D01*
X160491441Y-75103548D01*
X160409758Y-75225795D01*
X160305795Y-75329758D01*
X160183548Y-75411441D01*
X160047714Y-75467705D01*
X159903513Y-75496389D01*
X159756487Y-75496389D01*
X159612286Y-75467705D01*
X159476452Y-75411441D01*
X159354205Y-75329758D01*
X159250242Y-75225795D01*
X159168559Y-75103548D01*
X159112295Y-74967714D01*
X159083611Y-74823513D01*
X159083611Y-74676487D01*
X159112295Y-74532286D01*
X159168559Y-74396452D01*
X159250242Y-74274205D01*
X159354205Y-74170242D01*
X159476452Y-74088559D01*
X159612286Y-74032295D01*
X159756487Y-74003611D01*
X159903513Y-74003611D01*
X160047714Y-74032295D01*
G37*
G36*
X141654850Y-72180964D02*
G01*
X141705040Y-72186787D01*
X141722189Y-72194359D01*
X141745671Y-72199030D01*
X141770810Y-72215827D01*
X141790696Y-72224608D01*
X141804277Y-72238189D01*
X141826777Y-72253223D01*
X141841810Y-72275722D01*
X141855391Y-72289303D01*
X141864170Y-72309186D01*
X141880970Y-72334329D01*
X141885641Y-72357812D01*
X141893212Y-72374959D01*
X141899033Y-72425139D01*
X141900000Y-72430000D01*
X141900000Y-73730000D01*
X141899032Y-73734863D01*
X141893212Y-73785040D01*
X141885641Y-73802185D01*
X141880970Y-73825671D01*
X141864169Y-73850815D01*
X141855391Y-73870696D01*
X141841812Y-73884274D01*
X141826777Y-73906777D01*
X141804274Y-73921812D01*
X141790696Y-73935391D01*
X141770815Y-73944169D01*
X141745671Y-73960970D01*
X141722185Y-73965641D01*
X141705040Y-73973212D01*
X141654861Y-73979032D01*
X141650000Y-73980000D01*
X140350000Y-73980000D01*
X140345138Y-73979032D01*
X140294959Y-73973212D01*
X140277812Y-73965641D01*
X140254329Y-73960970D01*
X140229186Y-73944170D01*
X140209303Y-73935391D01*
X140195722Y-73921810D01*
X140173223Y-73906777D01*
X140158189Y-73884277D01*
X140144608Y-73870696D01*
X140135827Y-73850810D01*
X140119030Y-73825671D01*
X140114359Y-73802189D01*
X140106787Y-73785040D01*
X140100964Y-73734849D01*
X140100000Y-73730000D01*
X140100000Y-72430000D01*
X140100964Y-72425150D01*
X140106787Y-72374959D01*
X140114359Y-72357808D01*
X140119030Y-72334329D01*
X140135826Y-72309191D01*
X140144608Y-72289303D01*
X140158191Y-72275719D01*
X140173223Y-72253223D01*
X140195719Y-72238191D01*
X140209303Y-72224608D01*
X140229191Y-72215826D01*
X140254329Y-72199030D01*
X140277808Y-72194359D01*
X140294959Y-72186787D01*
X140345151Y-72180964D01*
X140350000Y-72180000D01*
X141650000Y-72180000D01*
X141654850Y-72180964D01*
G37*
G36*
X157507714Y-71492295D02*
G01*
X157643548Y-71548559D01*
X157765795Y-71630242D01*
X157869758Y-71734205D01*
X157951441Y-71856452D01*
X158007705Y-71992286D01*
X158036389Y-72136487D01*
X158036389Y-72283513D01*
X158007705Y-72427714D01*
X157951441Y-72563548D01*
X157869758Y-72685795D01*
X157765795Y-72789758D01*
X157643548Y-72871441D01*
X157507714Y-72927705D01*
X157363513Y-72956389D01*
X157216487Y-72956389D01*
X157072286Y-72927705D01*
X156936452Y-72871441D01*
X156814205Y-72789758D01*
X156710242Y-72685795D01*
X156628559Y-72563548D01*
X156572295Y-72427714D01*
X156543611Y-72283513D01*
X156543611Y-72136487D01*
X156572295Y-71992286D01*
X156628559Y-71856452D01*
X156710242Y-71734205D01*
X156814205Y-71630242D01*
X156936452Y-71548559D01*
X157072286Y-71492295D01*
X157216487Y-71463611D01*
X157363513Y-71463611D01*
X157507714Y-71492295D01*
G37*
G36*
X151232228Y-69854448D02*
G01*
X151377117Y-69914463D01*
X151507515Y-70001592D01*
X151618408Y-70112485D01*
X151705537Y-70242883D01*
X151765552Y-70387772D01*
X151796148Y-70541586D01*
X151796148Y-70698414D01*
X151765552Y-70852228D01*
X151705537Y-70997117D01*
X151618408Y-71127515D01*
X151507515Y-71238408D01*
X151377117Y-71325537D01*
X151232228Y-71385552D01*
X151078414Y-71416148D01*
X150921586Y-71416148D01*
X150767772Y-71385552D01*
X150622883Y-71325537D01*
X150492485Y-71238408D01*
X150381592Y-71127515D01*
X150294463Y-70997117D01*
X150234448Y-70852228D01*
X150203852Y-70698414D01*
X150203852Y-70541586D01*
X150234448Y-70387772D01*
X150294463Y-70242883D01*
X150381592Y-70112485D01*
X150492485Y-70001592D01*
X150622883Y-69914463D01*
X150767772Y-69854448D01*
X150921586Y-69823852D01*
X151078414Y-69823852D01*
X151232228Y-69854448D01*
G37*
G36*
X131982228Y-69794448D02*
G01*
X132127117Y-69854463D01*
X132257515Y-69941592D01*
X132368408Y-70052485D01*
X132455537Y-70182883D01*
X132515552Y-70327772D01*
X132546148Y-70481586D01*
X132546148Y-70638414D01*
X132515552Y-70792228D01*
X132455537Y-70937117D01*
X132368408Y-71067515D01*
X132257515Y-71178408D01*
X132127117Y-71265537D01*
X131982228Y-71325552D01*
X131828414Y-71356148D01*
X131671586Y-71356148D01*
X131517772Y-71325552D01*
X131372883Y-71265537D01*
X131242485Y-71178408D01*
X131131592Y-71067515D01*
X131044463Y-70937117D01*
X130984448Y-70792228D01*
X130953852Y-70638414D01*
X130953852Y-70481586D01*
X130984448Y-70327772D01*
X131044463Y-70182883D01*
X131131592Y-70052485D01*
X131242485Y-69941592D01*
X131372883Y-69854463D01*
X131517772Y-69794448D01*
X131671586Y-69763852D01*
X131828414Y-69763852D01*
X131982228Y-69794448D01*
G37*
G36*
X136732228Y-69794448D02*
G01*
X136877117Y-69854463D01*
X137007515Y-69941592D01*
X137118408Y-70052485D01*
X137205537Y-70182883D01*
X137265552Y-70327772D01*
X137296148Y-70481586D01*
X137296148Y-70638414D01*
X137265552Y-70792228D01*
X137205537Y-70937117D01*
X137118408Y-71067515D01*
X137007515Y-71178408D01*
X136877117Y-71265537D01*
X136732228Y-71325552D01*
X136578414Y-71356148D01*
X136421586Y-71356148D01*
X136267772Y-71325552D01*
X136122883Y-71265537D01*
X135992485Y-71178408D01*
X135881592Y-71067515D01*
X135794463Y-70937117D01*
X135734448Y-70792228D01*
X135703852Y-70638414D01*
X135703852Y-70481586D01*
X135734448Y-70327772D01*
X135794463Y-70182883D01*
X135881592Y-70052485D01*
X135992485Y-69941592D01*
X136122883Y-69854463D01*
X136267772Y-69794448D01*
X136421586Y-69763852D01*
X136578414Y-69763852D01*
X136732228Y-69794448D01*
G37*
G36*
X145982228Y-69794448D02*
G01*
X146127117Y-69854463D01*
X146257515Y-69941592D01*
X146368408Y-70052485D01*
X146455537Y-70182883D01*
X146515552Y-70327772D01*
X146546148Y-70481586D01*
X146546148Y-70638414D01*
X146515552Y-70792228D01*
X146455537Y-70937117D01*
X146368408Y-71067515D01*
X146257515Y-71178408D01*
X146127117Y-71265537D01*
X145982228Y-71325552D01*
X145828414Y-71356148D01*
X145671586Y-71356148D01*
X145517772Y-71325552D01*
X145372883Y-71265537D01*
X145242485Y-71178408D01*
X145131592Y-71067515D01*
X145044463Y-70937117D01*
X144984448Y-70792228D01*
X144953852Y-70638414D01*
X144953852Y-70481586D01*
X144984448Y-70327772D01*
X145044463Y-70182883D01*
X145131592Y-70052485D01*
X145242485Y-69941592D01*
X145372883Y-69854463D01*
X145517772Y-69794448D01*
X145671586Y-69763852D01*
X145828414Y-69763852D01*
X145982228Y-69794448D01*
G37*
G36*
X116303479Y-67985919D02*
G01*
X116497488Y-68048957D01*
X116679248Y-68141568D01*
X116844282Y-68261472D01*
X116988528Y-68405718D01*
X117108432Y-68570752D01*
X117201043Y-68752512D01*
X117264081Y-68946521D01*
X117295993Y-69148003D01*
X117295993Y-69351997D01*
X117264081Y-69553479D01*
X117201043Y-69747488D01*
X117108432Y-69929248D01*
X116988528Y-70094282D01*
X116844282Y-70238528D01*
X116679248Y-70358432D01*
X116497488Y-70451043D01*
X116303479Y-70514081D01*
X116101997Y-70545993D01*
X115898003Y-70545993D01*
X115696521Y-70514081D01*
X115502512Y-70451043D01*
X115320752Y-70358432D01*
X115155718Y-70238528D01*
X115011472Y-70094282D01*
X114891568Y-69929248D01*
X114798957Y-69747488D01*
X114735919Y-69553479D01*
X114704007Y-69351997D01*
X114704007Y-69148003D01*
X114735919Y-68946521D01*
X114798957Y-68752512D01*
X114891568Y-68570752D01*
X115011472Y-68405718D01*
X115155718Y-68261472D01*
X115320752Y-68141568D01*
X115502512Y-68048957D01*
X115696521Y-67985919D01*
X115898003Y-67954007D01*
X116101997Y-67954007D01*
X116303479Y-67985919D01*
G37*
G36*
X127232228Y-67234448D02*
G01*
X127377117Y-67294463D01*
X127507515Y-67381592D01*
X127618408Y-67492485D01*
X127705537Y-67622883D01*
X127765552Y-67767772D01*
X127796148Y-67921586D01*
X127796148Y-68078414D01*
X127765552Y-68232228D01*
X127705537Y-68377117D01*
X127618408Y-68507515D01*
X127507515Y-68618408D01*
X127377117Y-68705537D01*
X127232228Y-68765552D01*
X127078414Y-68796148D01*
X126921586Y-68796148D01*
X126767772Y-68765552D01*
X126622883Y-68705537D01*
X126492485Y-68618408D01*
X126381592Y-68507515D01*
X126294463Y-68377117D01*
X126234448Y-68232228D01*
X126203852Y-68078414D01*
X126203852Y-67921586D01*
X126234448Y-67767772D01*
X126294463Y-67622883D01*
X126381592Y-67492485D01*
X126492485Y-67381592D01*
X126622883Y-67294463D01*
X126767772Y-67234448D01*
X126921586Y-67203852D01*
X127078414Y-67203852D01*
X127232228Y-67234448D01*
G37*
G36*
X164668766Y-63535322D02*
G01*
X164942089Y-63597707D01*
X165206709Y-63690301D01*
X165459297Y-63811941D01*
X165696678Y-63961098D01*
X165915866Y-64135895D01*
X166114105Y-64334134D01*
X166288902Y-64553322D01*
X166438059Y-64790703D01*
X166559699Y-65043291D01*
X166652293Y-65307911D01*
X166714678Y-65581234D01*
X166746067Y-65859824D01*
X166746067Y-66140176D01*
X166714678Y-66418766D01*
X166652293Y-66692089D01*
X166559699Y-66956709D01*
X166438059Y-67209297D01*
X166288902Y-67446678D01*
X166114105Y-67665866D01*
X165915866Y-67864105D01*
X165696678Y-68038902D01*
X165459297Y-68188059D01*
X165206709Y-68309699D01*
X164942089Y-68402293D01*
X164668766Y-68464678D01*
X164390176Y-68496067D01*
X164109824Y-68496067D01*
X163831234Y-68464678D01*
X163557911Y-68402293D01*
X163293291Y-68309699D01*
X163040703Y-68188059D01*
X162803322Y-68038902D01*
X162584134Y-67864105D01*
X162385895Y-67665866D01*
X162211098Y-67446678D01*
X162061941Y-67209297D01*
X161940301Y-66956709D01*
X161847707Y-66692089D01*
X161785322Y-66418766D01*
X161753933Y-66140176D01*
X161753933Y-65859824D01*
X161785322Y-65581234D01*
X161847707Y-65307911D01*
X161940301Y-65043291D01*
X162061941Y-64790703D01*
X162211098Y-64553322D01*
X162385895Y-64334134D01*
X162584134Y-64135895D01*
X162803322Y-63961098D01*
X163040703Y-63811941D01*
X163293291Y-63690301D01*
X163557911Y-63597707D01*
X163831234Y-63535322D01*
X164109824Y-63503933D01*
X164390176Y-63503933D01*
X164668766Y-63535322D01*
G37*
G36*
X117054850Y-62950964D02*
G01*
X117105040Y-62956787D01*
X117122189Y-62964359D01*
X117145671Y-62969030D01*
X117170810Y-62985827D01*
X117190696Y-62994608D01*
X117204277Y-63008189D01*
X117226777Y-63023223D01*
X117241810Y-63045722D01*
X117255391Y-63059303D01*
X117264170Y-63079186D01*
X117280970Y-63104329D01*
X117285641Y-63127812D01*
X117293212Y-63144959D01*
X117299033Y-63195139D01*
X117300000Y-63200000D01*
X117300000Y-65300000D01*
X117299032Y-65304863D01*
X117293212Y-65355040D01*
X117285641Y-65372185D01*
X117280970Y-65395671D01*
X117264169Y-65420815D01*
X117255391Y-65440696D01*
X117241812Y-65454274D01*
X117226777Y-65476777D01*
X117204274Y-65491812D01*
X117190696Y-65505391D01*
X117170815Y-65514169D01*
X117145671Y-65530970D01*
X117122185Y-65535641D01*
X117105040Y-65543212D01*
X117054861Y-65549032D01*
X117050000Y-65550000D01*
X114950000Y-65550000D01*
X114945138Y-65549032D01*
X114894959Y-65543212D01*
X114877812Y-65535641D01*
X114854329Y-65530970D01*
X114829186Y-65514170D01*
X114809303Y-65505391D01*
X114795722Y-65491810D01*
X114773223Y-65476777D01*
X114758189Y-65454277D01*
X114744608Y-65440696D01*
X114735827Y-65420810D01*
X114719030Y-65395671D01*
X114714359Y-65372189D01*
X114706787Y-65355040D01*
X114700964Y-65304849D01*
X114700000Y-65300000D01*
X114700000Y-63200000D01*
X114700964Y-63195150D01*
X114706787Y-63144959D01*
X114714359Y-63127808D01*
X114719030Y-63104329D01*
X114735826Y-63079191D01*
X114744608Y-63059303D01*
X114758191Y-63045719D01*
X114773223Y-63023223D01*
X114795719Y-63008191D01*
X114809303Y-62994608D01*
X114829191Y-62985826D01*
X114854329Y-62969030D01*
X114877808Y-62964359D01*
X114894959Y-62956787D01*
X114945151Y-62950964D01*
X114950000Y-62950000D01*
X117050000Y-62950000D01*
X117054850Y-62950964D01*
G37*
G36*
X141261256Y-62058754D02*
G01*
X141424257Y-62126271D01*
X141570954Y-62224291D01*
X141695709Y-62349046D01*
X141793729Y-62495743D01*
X141861246Y-62658744D01*
X141895666Y-62831785D01*
X141895666Y-63008215D01*
X141861246Y-63181256D01*
X141793729Y-63344257D01*
X141695709Y-63490954D01*
X141570954Y-63615709D01*
X141424257Y-63713729D01*
X141261256Y-63781246D01*
X141088215Y-63815666D01*
X140911785Y-63815666D01*
X140738744Y-63781246D01*
X140575743Y-63713729D01*
X140429046Y-63615709D01*
X140304291Y-63490954D01*
X140206271Y-63344257D01*
X140138754Y-63181256D01*
X140104334Y-63008215D01*
X140104334Y-62831785D01*
X140138754Y-62658744D01*
X140206271Y-62495743D01*
X140304291Y-62349046D01*
X140429046Y-62224291D01*
X140575743Y-62126271D01*
X140738744Y-62058754D01*
X140911785Y-62024334D01*
X141088215Y-62024334D01*
X141261256Y-62058754D01*
G37*
G36*
X127232228Y-62234448D02*
G01*
X127377117Y-62294463D01*
X127507515Y-62381592D01*
X127618408Y-62492485D01*
X127705537Y-62622883D01*
X127765552Y-62767772D01*
X127796148Y-62921586D01*
X127796148Y-63078414D01*
X127765552Y-63232228D01*
X127705537Y-63377117D01*
X127618408Y-63507515D01*
X127507515Y-63618408D01*
X127377117Y-63705537D01*
X127232228Y-63765552D01*
X127078414Y-63796148D01*
X126921586Y-63796148D01*
X126767772Y-63765552D01*
X126622883Y-63705537D01*
X126492485Y-63618408D01*
X126381592Y-63507515D01*
X126294463Y-63377117D01*
X126234448Y-63232228D01*
X126203852Y-63078414D01*
X126203852Y-62921586D01*
X126234448Y-62767772D01*
X126294463Y-62622883D01*
X126381592Y-62492485D01*
X126492485Y-62381592D01*
X126622883Y-62294463D01*
X126767772Y-62234448D01*
X126921586Y-62203852D01*
X127078414Y-62203852D01*
X127232228Y-62234448D01*
G37*
G36*
X151232228Y-62234448D02*
G01*
X151377117Y-62294463D01*
X151507515Y-62381592D01*
X151618408Y-62492485D01*
X151705537Y-62622883D01*
X151765552Y-62767772D01*
X151796148Y-62921586D01*
X151796148Y-63078414D01*
X151765552Y-63232228D01*
X151705537Y-63377117D01*
X151618408Y-63507515D01*
X151507515Y-63618408D01*
X151377117Y-63705537D01*
X151232228Y-63765552D01*
X151078414Y-63796148D01*
X150921586Y-63796148D01*
X150767772Y-63765552D01*
X150622883Y-63705537D01*
X150492485Y-63618408D01*
X150381592Y-63507515D01*
X150294463Y-63377117D01*
X150234448Y-63232228D01*
X150203852Y-63078414D01*
X150203852Y-62921586D01*
X150234448Y-62767772D01*
X150294463Y-62622883D01*
X150381592Y-62492485D01*
X150492485Y-62381592D01*
X150622883Y-62294463D01*
X150767772Y-62234448D01*
X150921586Y-62203852D01*
X151078414Y-62203852D01*
X151232228Y-62234448D01*
G37*
G36*
X131982228Y-62174448D02*
G01*
X132127117Y-62234463D01*
X132257515Y-62321592D01*
X132368408Y-62432485D01*
X132455537Y-62562883D01*
X132515552Y-62707772D01*
X132546148Y-62861586D01*
X132546148Y-63018414D01*
X132515552Y-63172228D01*
X132455537Y-63317117D01*
X132368408Y-63447515D01*
X132257515Y-63558408D01*
X132127117Y-63645537D01*
X131982228Y-63705552D01*
X131828414Y-63736148D01*
X131671586Y-63736148D01*
X131517772Y-63705552D01*
X131372883Y-63645537D01*
X131242485Y-63558408D01*
X131131592Y-63447515D01*
X131044463Y-63317117D01*
X130984448Y-63172228D01*
X130953852Y-63018414D01*
X130953852Y-62861586D01*
X130984448Y-62707772D01*
X131044463Y-62562883D01*
X131131592Y-62432485D01*
X131242485Y-62321592D01*
X131372883Y-62234463D01*
X131517772Y-62174448D01*
X131671586Y-62143852D01*
X131828414Y-62143852D01*
X131982228Y-62174448D01*
G37*
G36*
X136732228Y-62174448D02*
G01*
X136877117Y-62234463D01*
X137007515Y-62321592D01*
X137118408Y-62432485D01*
X137205537Y-62562883D01*
X137265552Y-62707772D01*
X137296148Y-62861586D01*
X137296148Y-63018414D01*
X137265552Y-63172228D01*
X137205537Y-63317117D01*
X137118408Y-63447515D01*
X137007515Y-63558408D01*
X136877117Y-63645537D01*
X136732228Y-63705552D01*
X136578414Y-63736148D01*
X136421586Y-63736148D01*
X136267772Y-63705552D01*
X136122883Y-63645537D01*
X135992485Y-63558408D01*
X135881592Y-63447515D01*
X135794463Y-63317117D01*
X135734448Y-63172228D01*
X135703852Y-63018414D01*
X135703852Y-62861586D01*
X135734448Y-62707772D01*
X135794463Y-62562883D01*
X135881592Y-62432485D01*
X135992485Y-62321592D01*
X136122883Y-62234463D01*
X136267772Y-62174448D01*
X136421586Y-62143852D01*
X136578414Y-62143852D01*
X136732228Y-62174448D01*
G37*
G36*
X145982228Y-62174448D02*
G01*
X146127117Y-62234463D01*
X146257515Y-62321592D01*
X146368408Y-62432485D01*
X146455537Y-62562883D01*
X146515552Y-62707772D01*
X146546148Y-62861586D01*
X146546148Y-63018414D01*
X146515552Y-63172228D01*
X146455537Y-63317117D01*
X146368408Y-63447515D01*
X146257515Y-63558408D01*
X146127117Y-63645537D01*
X145982228Y-63705552D01*
X145828414Y-63736148D01*
X145671586Y-63736148D01*
X145517772Y-63705552D01*
X145372883Y-63645537D01*
X145242485Y-63558408D01*
X145131592Y-63447515D01*
X145044463Y-63317117D01*
X144984448Y-63172228D01*
X144953852Y-63018414D01*
X144953852Y-62861586D01*
X144984448Y-62707772D01*
X145044463Y-62562883D01*
X145131592Y-62432485D01*
X145242485Y-62321592D01*
X145372883Y-62234463D01*
X145517772Y-62174448D01*
X145671586Y-62143852D01*
X145828414Y-62143852D01*
X145982228Y-62174448D01*
G37*
%LPD*%
M02*
