M48
; DRILL file {KiCad 9.0.7-9.0.7~ubuntu24.04.1} date 2026-02-14T09:37:02+0100
; FORMAT={-:-/ absolute / metric / decimal}
; #@! TF.CreationDate,2026-02-14T09:37:02+01:00
; #@! TF.GenerationSoftware,Kicad,Pcbnew,9.0.7-9.0.7~ubuntu24.04.1
; #@! TF.FileFunction,Plated,1,2,PTH
FMAT,2
METRIC
; #@! TA.AperFunction,Plated,PTH,ViaDrill
T1C0.400
; #@! TA.AperFunction,Plated,PTH,ComponentDrill
T2C0.800
; #@! TA.AperFunction,Plated,PTH,ComponentDrill
T3C0.900
; #@! TA.AperFunction,Plated,PTH,ComponentDrill
T4C1.000
; #@! TA.AperFunction,Plated,PTH,ComponentDrill
T5C1.020
; #@! TA.AperFunction,Plated,PTH,ComponentDrill
T6C1.300
%
G90
G05
T1
X124.0Y-105.75
X131.75Y-66.5
X136.5Y-66.5
X138.5Y-119.65
X152.25Y-88.25
X153.3Y-117.25
T2
X123.2Y-79.7
X127.0Y-63.0
X127.0Y-68.0
X128.0Y-120.0
X128.0Y-125.0
X128.2Y-79.7
X131.75Y-62.94
X131.75Y-70.56
X133.1Y-117.44
X133.1Y-125.06
X134.8Y-108.4
X136.5Y-62.94
X136.5Y-70.56
X137.3Y-110.9
X138.5Y-117.44
X138.5Y-125.06
X139.8Y-108.4
X145.75Y-62.94
X145.75Y-70.56
X146.92Y-110.75
X149.25Y-117.44
X149.25Y-125.06
X149.46Y-113.29
X151.0Y-63.0
X151.0Y-70.62
X152.0Y-110.75
X154.75Y-74.75
X156.25Y-117.38
X156.25Y-125.0
X157.29Y-72.21
X159.83Y-74.75
T3
X141.0Y-62.92
X141.0Y-73.08
T4
X116.25Y-79.96
X116.25Y-82.5
X116.25Y-85.04
X145.71Y-77.0
X146.96Y-106.0
X148.25Y-77.0
X149.5Y-106.0
X155.96Y-107.75
X158.5Y-107.75
X161.04Y-107.75
X163.58Y-107.75
X166.12Y-107.75
T5
X131.91Y-82.47
X131.91Y-100.25
X134.45Y-82.47
X134.45Y-100.25
X136.99Y-82.47
X136.99Y-100.25
X139.53Y-82.47
X139.53Y-100.25
X142.07Y-82.47
X142.07Y-100.25
X144.61Y-82.47
X144.61Y-100.25
X147.15Y-82.47
X147.15Y-100.25
X149.69Y-82.47
X149.69Y-100.25
X152.23Y-82.47
X152.23Y-100.25
X154.77Y-82.47
X154.77Y-100.25
X157.31Y-82.47
X157.31Y-100.25
X159.85Y-82.47
X159.85Y-100.25
X162.39Y-82.47
X162.39Y-100.25
X164.93Y-82.47
X164.93Y-100.25
T6
X116.0Y-64.25
X116.0Y-69.25
X116.25Y-100.75
X116.25Y-105.75
X116.25Y-110.75
X116.25Y-115.75
X116.25Y-120.75
X116.25Y-125.75
X143.25Y-114.92
X143.25Y-125.08
M30
